M48
; DRILL file {KiCad (5.1.9)-1} date 02/10/21 20:51:55
; FORMAT={-:-/ absolute / inch / decimal}
; #@! TF.CreationDate,2021-02-10T20:51:55+02:00
; #@! TF.GenerationSoftware,Kicad,Pcbnew,(5.1.9)-1
; #@! TF.FileFunction,Plated,1,2,PTH
FMAT,2
INCH
T1C0.0079
T2C0.0118
T3C0.0394
%
G90
G05
T1
X8.0513Y-3.2199
X8.074Y-3.1825
X8.074Y-3.2573
X8.0966Y-3.2199
T2
X6.894Y-3.2899
X6.894Y-3.3293
X6.894Y-3.3687
X6.894Y-3.408
X6.894Y-3.4474
X6.9333Y-3.2899
X6.9333Y-3.3293
X6.9333Y-3.3687
X6.9333Y-3.408
X6.9333Y-3.4474
X6.9727Y-3.2899
X6.9727Y-3.3293
X6.9727Y-3.3687
X6.9727Y-3.408
X6.9727Y-3.4474
X7.0121Y-3.2899
X7.0121Y-3.3293
X7.0121Y-3.3687
X7.0121Y-3.408
X7.0121Y-3.4474
X7.044Y-3.5874
X7.0514Y-3.2899
X7.0514Y-3.3293
X7.0514Y-3.3687
X7.0514Y-3.408
X7.0514Y-3.4474
X7.1427Y-3.5456
X7.2085Y-3.5702
X7.2085Y-3.6096
X7.234Y-3.6999
X7.244Y-3.5702
X7.244Y-3.6096
X7.2726Y-3.688
X7.2794Y-3.5702
X7.2794Y-3.6096
X7.294Y-3.7098
X7.3256Y-3.2677
X7.334Y-3.3999
X7.354Y-3.65
X7.3844Y-3.6048
X7.4324Y-3.55
X7.444Y-3.2799
X7.444Y-3.3799
X7.4799Y-3.5251
X7.6276Y-3.34
X7.6605Y-3.2902
X7.664Y-4.1199
X7.684Y-3.2799
X7.6893Y-3.4345
X7.694Y-3.5799
X7.714Y-3.5799
X7.7142Y-3.3311
X7.724Y-3.8199
X7.724Y-4.0099
X7.734Y-3.5799
X7.744Y-3.8599
X7.754Y-3.5799
X7.754Y-3.6899
X7.754Y-4.0399
X7.7597Y-3.6592
X7.7726Y-3.4343
X7.774Y-3.5799
X7.78Y-3.3629
X7.7985Y-3.9966
X7.8286Y-3.8341
X7.8334Y-3.8
X7.874Y-3.3399
X7.874Y-3.3599
X7.874Y-3.3799
X7.894Y-3.3399
X7.894Y-3.3599
X7.894Y-3.3799
X7.914Y-3.3399
X7.914Y-3.3599
X7.914Y-3.3799
X7.9258Y-4.0099
X7.934Y-3.3399
X7.934Y-3.3599
X7.934Y-3.3799
X7.944Y-3.7348
X7.944Y-3.7761
X7.9671Y-4.0099
X7.9691Y-3.7809
X7.974Y-3.8099
X7.9797Y-3.5257
X7.994Y-3.5699
X8.014Y-3.1499
X8.024Y-3.5797
X8.054Y-3.5699
X8.094Y-3.4193
X8.124Y-3.1599
X8.1334Y-3.5499
X8.194Y-3.4899
X8.2128Y-3.4399
X8.224Y-3.7599
X8.2408Y-4.0106
X8.274Y-4.1987
X8.274Y-4.238
X8.274Y-4.2774
X8.2851Y-4.011
X8.2877Y-4.0384
X8.304Y-3.3899
X8.3133Y-4.1987
X8.3133Y-4.238
X8.3133Y-4.2774
X8.344Y-3.4299
X8.3527Y-4.1987
X8.3527Y-4.238
X8.3527Y-4.2774
X8.374Y-3.6406
X8.3921Y-4.1987
X8.3921Y-4.238
X8.3921Y-4.2774
X8.394Y-3.9699
X8.394Y-3.9899
X8.394Y-4.0099
X8.394Y-4.0299
X8.414Y-3.9699
X8.414Y-3.9899
X8.414Y-4.0099
X8.414Y-4.0299
X8.4314Y-4.1987
X8.4314Y-4.238
X8.4314Y-4.2774
X8.444Y-3.4299
X8.444Y-3.4949
X8.444Y-3.5606
X8.454Y-4.0799
X8.474Y-3.6199
X8.474Y-3.6799
X8.4764Y-3.7399
X8.504Y-3.6499
X8.544Y-3.4299
X8.56Y-3.7959
X8.584Y-3.4199
X8.634Y-3.5813
X8.6354Y-3.6399
X8.6561Y-3.6786
X8.6568Y-3.765
X8.6614Y-3.3873
X8.6832Y-3.6785
X8.684Y-3.7642
X8.7008Y-3.7406
X8.7039Y-3.5799
X8.7041Y-3.5399
X8.714Y-3.7999
X8.724Y-3.7206
X8.734Y-4.2499
X8.744Y-3.6999
X8.744Y-3.8299
X8.764Y-3.9299
X8.774Y-3.8599
X8.784Y-3.7999
X8.794Y-3.5543
X8.844Y-4.2499
X8.8459Y-3.3982
X8.934Y-4.2499
X8.974Y-3.5999
X8.974Y-3.6381
X8.974Y-3.6999
X8.974Y-3.7299
X8.974Y-3.7799
X8.9775Y-3.6646
X8.984Y-3.3799
X8.984Y-3.9899
X9.034Y-4.2499
X9.104Y-3.1799
X9.104Y-3.2193
X9.104Y-3.2587
X9.104Y-3.298
X9.104Y-3.3374
X9.124Y-4.0199
X9.124Y-4.0593
X9.124Y-4.0987
X9.124Y-4.138
X9.124Y-4.1774
X9.1433Y-3.1799
X9.1433Y-3.2193
X9.1433Y-3.2587
X9.1433Y-3.298
X9.1433Y-3.3374
X9.1633Y-4.0199
X9.1633Y-4.0593
X9.1633Y-4.0987
X9.1633Y-4.138
X9.1633Y-4.1774
X9.1827Y-3.1799
X9.1827Y-3.2193
X9.1827Y-3.2587
X9.1827Y-3.298
X9.1827Y-3.3374
X9.2027Y-4.0199
X9.2027Y-4.0593
X9.2027Y-4.0987
X9.2027Y-4.138
X9.2027Y-4.1774
X9.2221Y-3.1799
X9.2221Y-3.2193
X9.2221Y-3.2587
X9.2221Y-3.298
X9.2221Y-3.3374
X9.2421Y-4.0199
X9.2421Y-4.0593
X9.2421Y-4.0987
X9.2421Y-4.138
X9.2421Y-4.1774
X9.2614Y-3.1799
X9.2614Y-3.2193
X9.2614Y-3.2587
X9.2614Y-3.298
X9.2614Y-3.3374
X9.2814Y-4.0199
X9.2814Y-4.0593
X9.2814Y-4.0987
X9.2814Y-4.138
X9.2814Y-4.1774
T3
X8.504Y-3.8799
X8.504Y-3.9799
X8.504Y-4.0799
X8.504Y-4.1799
X8.604Y-3.8799
X8.604Y-3.9799
X8.604Y-4.0799
X8.604Y-4.1799
T0
M30
