%TF.GenerationSoftware,KiCad,Pcbnew,(5.1.9)-1*%
%TF.CreationDate,2021-02-10T20:51:50+02:00*%
%TF.ProjectId,RVP,5256502e-6b69-4636-9164-5f7063625858,rev?*%
%TF.SameCoordinates,Original*%
%TF.FileFunction,Legend,Bot*%
%TF.FilePolarity,Positive*%
%FSLAX46Y46*%
G04 Gerber Fmt 4.6, Leading zero omitted, Abs format (unit mm)*
G04 Created by KiCad (PCBNEW (5.1.9)-1) date 2021-02-10 20:51:50*
%MOMM*%
%LPD*%
G01*
G04 APERTURE LIST*
%ADD10C,0.150000*%
G04 APERTURE END LIST*
D10*
X221371848Y-93351380D02*
X221371848Y-92351380D01*
X220800420Y-93351380D02*
X221228991Y-92779952D01*
X220800420Y-92351380D02*
X221371848Y-92922809D01*
X219943277Y-92684714D02*
X219943277Y-93351380D01*
X220371848Y-92684714D02*
X220371848Y-93208523D01*
X220324229Y-93303761D01*
X220228991Y-93351380D01*
X220086134Y-93351380D01*
X219990896Y-93303761D01*
X219943277Y-93256142D01*
X219467086Y-93351380D02*
X219467086Y-92684714D01*
X219467086Y-92351380D02*
X219514705Y-92399000D01*
X219467086Y-92446619D01*
X219419467Y-92399000D01*
X219467086Y-92351380D01*
X219467086Y-92446619D01*
X218276610Y-93303761D02*
X218181372Y-93351380D01*
X217990896Y-93351380D01*
X217895658Y-93303761D01*
X217848039Y-93208523D01*
X217848039Y-93160904D01*
X217895658Y-93065666D01*
X217990896Y-93018047D01*
X218133753Y-93018047D01*
X218228991Y-92970428D01*
X218276610Y-92875190D01*
X218276610Y-92827571D01*
X218228991Y-92732333D01*
X218133753Y-92684714D01*
X217990896Y-92684714D01*
X217895658Y-92732333D01*
X216990896Y-93351380D02*
X216990896Y-92827571D01*
X217038515Y-92732333D01*
X217133753Y-92684714D01*
X217324229Y-92684714D01*
X217419467Y-92732333D01*
X216990896Y-93303761D02*
X217086134Y-93351380D01*
X217324229Y-93351380D01*
X217419467Y-93303761D01*
X217467086Y-93208523D01*
X217467086Y-93113285D01*
X217419467Y-93018047D01*
X217324229Y-92970428D01*
X217086134Y-92970428D01*
X216990896Y-92922809D01*
X215800420Y-93303761D02*
X215705181Y-93351380D01*
X215514705Y-93351380D01*
X215419467Y-93303761D01*
X215371848Y-93208523D01*
X215371848Y-93160904D01*
X215419467Y-93065666D01*
X215514705Y-93018047D01*
X215657562Y-93018047D01*
X215752800Y-92970428D01*
X215800420Y-92875190D01*
X215800420Y-92827571D01*
X215752800Y-92732333D01*
X215657562Y-92684714D01*
X215514705Y-92684714D01*
X215419467Y-92732333D01*
X214562324Y-93303761D02*
X214657562Y-93351380D01*
X214848039Y-93351380D01*
X214943277Y-93303761D01*
X214990896Y-93208523D01*
X214990896Y-92827571D01*
X214943277Y-92732333D01*
X214848039Y-92684714D01*
X214657562Y-92684714D01*
X214562324Y-92732333D01*
X214514705Y-92827571D01*
X214514705Y-92922809D01*
X214990896Y-93018047D01*
X213657562Y-93351380D02*
X213657562Y-92351380D01*
X213657562Y-93303761D02*
X213752800Y-93351380D01*
X213943277Y-93351380D01*
X214038515Y-93303761D01*
X214086134Y-93256142D01*
X214133753Y-93160904D01*
X214133753Y-92875190D01*
X214086134Y-92779952D01*
X214038515Y-92732333D01*
X213943277Y-92684714D01*
X213752800Y-92684714D01*
X213657562Y-92732333D01*
X212752800Y-93351380D02*
X212752800Y-92827571D01*
X212800420Y-92732333D01*
X212895658Y-92684714D01*
X213086134Y-92684714D01*
X213181372Y-92732333D01*
X212752800Y-93303761D02*
X212848039Y-93351380D01*
X213086134Y-93351380D01*
X213181372Y-93303761D01*
X213228991Y-93208523D01*
X213228991Y-93113285D01*
X213181372Y-93018047D01*
X213086134Y-92970428D01*
X212848039Y-92970428D01*
X212752800Y-92922809D01*
X211371848Y-93351380D02*
X211467086Y-93303761D01*
X211514705Y-93208523D01*
X211514705Y-92351380D01*
X210848039Y-93351380D02*
X210943277Y-93303761D01*
X210990896Y-93256142D01*
X211038515Y-93160904D01*
X211038515Y-92875190D01*
X210990896Y-92779952D01*
X210943277Y-92732333D01*
X210848039Y-92684714D01*
X210705181Y-92684714D01*
X210609943Y-92732333D01*
X210562324Y-92779952D01*
X210514705Y-92875190D01*
X210514705Y-93160904D01*
X210562324Y-93256142D01*
X210609943Y-93303761D01*
X210705181Y-93351380D01*
X210848039Y-93351380D01*
X209705181Y-93303761D02*
X209800420Y-93351380D01*
X209990896Y-93351380D01*
X210086134Y-93303761D01*
X210133753Y-93208523D01*
X210133753Y-92827571D01*
X210086134Y-92732333D01*
X209990896Y-92684714D01*
X209800420Y-92684714D01*
X209705181Y-92732333D01*
X209657562Y-92827571D01*
X209657562Y-92922809D01*
X210133753Y-93018047D01*
X208800420Y-93351380D02*
X208800420Y-92351380D01*
X208800420Y-93303761D02*
X208895658Y-93351380D01*
X209086134Y-93351380D01*
X209181372Y-93303761D01*
X209228991Y-93256142D01*
X209276610Y-93160904D01*
X209276610Y-92875190D01*
X209228991Y-92779952D01*
X209181372Y-92732333D01*
X209086134Y-92684714D01*
X208895658Y-92684714D01*
X208800420Y-92732333D01*
X208276610Y-93303761D02*
X208276610Y-93351380D01*
X208324229Y-93446619D01*
X208371848Y-93494238D01*
X206943277Y-93351380D02*
X207038515Y-93303761D01*
X207086134Y-93256142D01*
X207133753Y-93160904D01*
X207133753Y-92875190D01*
X207086134Y-92779952D01*
X207038515Y-92732333D01*
X206943277Y-92684714D01*
X206800420Y-92684714D01*
X206705181Y-92732333D01*
X206657562Y-92779952D01*
X206609943Y-92875190D01*
X206609943Y-93160904D01*
X206657562Y-93256142D01*
X206705181Y-93303761D01*
X206800420Y-93351380D01*
X206943277Y-93351380D01*
X206324229Y-92684714D02*
X205943277Y-92684714D01*
X206181372Y-92351380D02*
X206181372Y-93208523D01*
X206133753Y-93303761D01*
X206038515Y-93351380D01*
X205943277Y-93351380D01*
X205657562Y-93303761D02*
X205562324Y-93351380D01*
X205371848Y-93351380D01*
X205276610Y-93303761D01*
X205228991Y-93208523D01*
X205228991Y-93160904D01*
X205276610Y-93065666D01*
X205371848Y-93018047D01*
X205514705Y-93018047D01*
X205609943Y-92970428D01*
X205657562Y-92875190D01*
X205657562Y-92827571D01*
X205609943Y-92732333D01*
X205514705Y-92684714D01*
X205371848Y-92684714D01*
X205276610Y-92732333D01*
X204800420Y-93351380D02*
X204800420Y-92684714D01*
X204800420Y-92351380D02*
X204848039Y-92399000D01*
X204800420Y-92446619D01*
X204752800Y-92399000D01*
X204800420Y-92351380D01*
X204800420Y-92446619D01*
X203895658Y-93351380D02*
X203895658Y-92351380D01*
X203895658Y-93303761D02*
X203990896Y-93351380D01*
X204181372Y-93351380D01*
X204276610Y-93303761D01*
X204324229Y-93256142D01*
X204371848Y-93160904D01*
X204371848Y-92875190D01*
X204324229Y-92779952D01*
X204276610Y-92732333D01*
X204181372Y-92684714D01*
X203990896Y-92684714D01*
X203895658Y-92732333D01*
X202657562Y-93351380D02*
X202657562Y-92684714D01*
X202657562Y-92351380D02*
X202705181Y-92399000D01*
X202657562Y-92446619D01*
X202609943Y-92399000D01*
X202657562Y-92351380D01*
X202657562Y-92446619D01*
X202038515Y-93351380D02*
X202133753Y-93303761D01*
X202181372Y-93208523D01*
X202181372Y-92351380D01*
X201657562Y-93351380D02*
X201657562Y-92684714D01*
X201657562Y-92779952D02*
X201609943Y-92732333D01*
X201514705Y-92684714D01*
X201371848Y-92684714D01*
X201276610Y-92732333D01*
X201228991Y-92827571D01*
X201228991Y-93351380D01*
X201228991Y-92827571D02*
X201181372Y-92732333D01*
X201086134Y-92684714D01*
X200943277Y-92684714D01*
X200848039Y-92732333D01*
X200800420Y-92827571D01*
X200800420Y-93351380D01*
X200371848Y-93303761D02*
X200276610Y-93351380D01*
X200086134Y-93351380D01*
X199990896Y-93303761D01*
X199943277Y-93208523D01*
X199943277Y-93160904D01*
X199990896Y-93065666D01*
X200086134Y-93018047D01*
X200228991Y-93018047D01*
X200324229Y-92970428D01*
X200371848Y-92875190D01*
X200371848Y-92827571D01*
X200324229Y-92732333D01*
X200228991Y-92684714D01*
X200086134Y-92684714D01*
X199990896Y-92732333D01*
X199133753Y-93303761D02*
X199228991Y-93351380D01*
X199419467Y-93351380D01*
X199514705Y-93303761D01*
X199562324Y-93208523D01*
X199562324Y-92827571D01*
X199514705Y-92732333D01*
X199419467Y-92684714D01*
X199228991Y-92684714D01*
X199133753Y-92732333D01*
X199086134Y-92827571D01*
X199086134Y-92922809D01*
X199562324Y-93018047D01*
X198514705Y-93351380D02*
X198609943Y-93303761D01*
X198657562Y-93208523D01*
X198657562Y-92351380D01*
X198276610Y-92684714D02*
X197895658Y-92684714D01*
X198133753Y-92351380D02*
X198133753Y-93208523D01*
X198086134Y-93303761D01*
X197990896Y-93351380D01*
X197895658Y-93351380D01*
X196371848Y-93351380D02*
X196371848Y-92827571D01*
X196419467Y-92732333D01*
X196514705Y-92684714D01*
X196705181Y-92684714D01*
X196800420Y-92732333D01*
X196371848Y-93303761D02*
X196467086Y-93351380D01*
X196705181Y-93351380D01*
X196800420Y-93303761D01*
X196848039Y-93208523D01*
X196848039Y-93113285D01*
X196800420Y-93018047D01*
X196705181Y-92970428D01*
X196467086Y-92970428D01*
X196371848Y-92922809D01*
X195943277Y-93303761D02*
X195848039Y-93351380D01*
X195657562Y-93351380D01*
X195562324Y-93303761D01*
X195514705Y-93208523D01*
X195514705Y-93160904D01*
X195562324Y-93065666D01*
X195657562Y-93018047D01*
X195800420Y-93018047D01*
X195895658Y-92970428D01*
X195943277Y-92875190D01*
X195943277Y-92827571D01*
X195895658Y-92732333D01*
X195800420Y-92684714D01*
X195657562Y-92684714D01*
X195562324Y-92732333D01*
X194705181Y-93303761D02*
X194800420Y-93351380D01*
X194990896Y-93351380D01*
X195086134Y-93303761D01*
X195133753Y-93208523D01*
X195133753Y-92827571D01*
X195086134Y-92732333D01*
X194990896Y-92684714D01*
X194800420Y-92684714D01*
X194705181Y-92732333D01*
X194657562Y-92827571D01*
X194657562Y-92922809D01*
X195133753Y-93018047D01*
X194228991Y-92684714D02*
X194228991Y-93351380D01*
X194228991Y-92779952D02*
X194181372Y-92732333D01*
X194086134Y-92684714D01*
X193943277Y-92684714D01*
X193848039Y-92732333D01*
X193800420Y-92827571D01*
X193800420Y-93351380D01*
X192895658Y-93351380D02*
X192895658Y-92351380D01*
X192895658Y-93303761D02*
X192990896Y-93351380D01*
X193181372Y-93351380D01*
X193276610Y-93303761D01*
X193324229Y-93256142D01*
X193371848Y-93160904D01*
X193371848Y-92875190D01*
X193324229Y-92779952D01*
X193276610Y-92732333D01*
X193181372Y-92684714D01*
X192990896Y-92684714D01*
X192895658Y-92732333D01*
X191990896Y-92684714D02*
X191990896Y-93351380D01*
X192419467Y-92684714D02*
X192419467Y-93208523D01*
X192371848Y-93303761D01*
X192276610Y-93351380D01*
X192133753Y-93351380D01*
X192038515Y-93303761D01*
X191990896Y-93256142D01*
X191562324Y-93303761D02*
X191467086Y-93351380D01*
X191276610Y-93351380D01*
X191181372Y-93303761D01*
X191133753Y-93208523D01*
X191133753Y-93160904D01*
X191181372Y-93065666D01*
X191276610Y-93018047D01*
X191419467Y-93018047D01*
X191514705Y-92970428D01*
X191562324Y-92875190D01*
X191562324Y-92827571D01*
X191514705Y-92732333D01*
X191419467Y-92684714D01*
X191276610Y-92684714D01*
X191181372Y-92732333D01*
X190324229Y-93303761D02*
X190419467Y-93351380D01*
X190609943Y-93351380D01*
X190705181Y-93303761D01*
X190752800Y-93208523D01*
X190752800Y-92827571D01*
X190705181Y-92732333D01*
X190609943Y-92684714D01*
X190419467Y-92684714D01*
X190324229Y-92732333D01*
X190276610Y-92827571D01*
X190276610Y-92922809D01*
X190752800Y-93018047D01*
X189848039Y-93351380D02*
X189848039Y-92351380D01*
X189752800Y-92970428D02*
X189467086Y-93351380D01*
X189467086Y-92684714D02*
X189848039Y-93065666D01*
X189038515Y-93351380D02*
X189038515Y-92684714D01*
X189038515Y-92875190D02*
X188990896Y-92779952D01*
X188943277Y-92732333D01*
X188848039Y-92684714D01*
X188752800Y-92684714D01*
X187990896Y-93351380D02*
X187990896Y-92827571D01*
X188038515Y-92732333D01*
X188133753Y-92684714D01*
X188324229Y-92684714D01*
X188419467Y-92732333D01*
X187990896Y-93303761D02*
X188086134Y-93351380D01*
X188324229Y-93351380D01*
X188419467Y-93303761D01*
X188467086Y-93208523D01*
X188467086Y-93113285D01*
X188419467Y-93018047D01*
X188324229Y-92970428D01*
X188086134Y-92970428D01*
X187990896Y-92922809D01*
X187086134Y-93351380D02*
X187086134Y-92827571D01*
X187133753Y-92732333D01*
X187228991Y-92684714D01*
X187419467Y-92684714D01*
X187514705Y-92732333D01*
X187086134Y-93303761D02*
X187181372Y-93351380D01*
X187419467Y-93351380D01*
X187514705Y-93303761D01*
X187562324Y-93208523D01*
X187562324Y-93113285D01*
X187514705Y-93018047D01*
X187419467Y-92970428D01*
X187181372Y-92970428D01*
X187086134Y-92922809D01*
X186609943Y-92684714D02*
X186609943Y-93351380D01*
X186609943Y-92779952D02*
X186562324Y-92732333D01*
X186467086Y-92684714D01*
X186324229Y-92684714D01*
X186228991Y-92732333D01*
X186181372Y-92827571D01*
X186181372Y-93351380D01*
X185705181Y-93351380D02*
X185705181Y-92684714D01*
X185705181Y-92351380D02*
X185752800Y-92399000D01*
X185705181Y-92446619D01*
X185657562Y-92399000D01*
X185705181Y-92351380D01*
X185705181Y-92446619D01*
X185228991Y-93256142D02*
X185181372Y-93303761D01*
X185228991Y-93351380D01*
X185276610Y-93303761D01*
X185228991Y-93256142D01*
X185228991Y-93351380D01*
X226395658Y-94953761D02*
X226252800Y-95001380D01*
X226014705Y-95001380D01*
X225919467Y-94953761D01*
X225871848Y-94906142D01*
X225824229Y-94810904D01*
X225824229Y-94715666D01*
X225871848Y-94620428D01*
X225919467Y-94572809D01*
X226014705Y-94525190D01*
X226205181Y-94477571D01*
X226300420Y-94429952D01*
X226348039Y-94382333D01*
X226395658Y-94287095D01*
X226395658Y-94191857D01*
X226348039Y-94096619D01*
X226300420Y-94049000D01*
X226205181Y-94001380D01*
X225967086Y-94001380D01*
X225824229Y-94049000D01*
X225252800Y-95001380D02*
X225348039Y-94953761D01*
X225395658Y-94906142D01*
X225443277Y-94810904D01*
X225443277Y-94525190D01*
X225395658Y-94429952D01*
X225348039Y-94382333D01*
X225252800Y-94334714D01*
X225109943Y-94334714D01*
X225014705Y-94382333D01*
X224967086Y-94429952D01*
X224919467Y-94525190D01*
X224919467Y-94810904D01*
X224967086Y-94906142D01*
X225014705Y-94953761D01*
X225109943Y-95001380D01*
X225252800Y-95001380D01*
X224490896Y-95001380D02*
X224490896Y-94001380D01*
X224490896Y-94382333D02*
X224395658Y-94334714D01*
X224205181Y-94334714D01*
X224109943Y-94382333D01*
X224062324Y-94429952D01*
X224014705Y-94525190D01*
X224014705Y-94810904D01*
X224062324Y-94906142D01*
X224109943Y-94953761D01*
X224205181Y-95001380D01*
X224395658Y-95001380D01*
X224490896Y-94953761D01*
X223586134Y-95001380D02*
X223586134Y-94334714D01*
X223586134Y-94001380D02*
X223633753Y-94049000D01*
X223586134Y-94096619D01*
X223538515Y-94049000D01*
X223586134Y-94001380D01*
X223586134Y-94096619D01*
X223205181Y-94334714D02*
X222967086Y-95001380D01*
X222728991Y-94334714D01*
X221919467Y-95001380D02*
X221919467Y-94477571D01*
X221967086Y-94382333D01*
X222062324Y-94334714D01*
X222252800Y-94334714D01*
X222348039Y-94382333D01*
X221919467Y-94953761D02*
X222014705Y-95001380D01*
X222252800Y-95001380D01*
X222348039Y-94953761D01*
X222395658Y-94858523D01*
X222395658Y-94763285D01*
X222348039Y-94668047D01*
X222252800Y-94620428D01*
X222014705Y-94620428D01*
X221919467Y-94572809D01*
X221014705Y-95001380D02*
X221014705Y-94001380D01*
X221014705Y-94953761D02*
X221109943Y-95001380D01*
X221300420Y-95001380D01*
X221395658Y-94953761D01*
X221443277Y-94906142D01*
X221490896Y-94810904D01*
X221490896Y-94525190D01*
X221443277Y-94429952D01*
X221395658Y-94382333D01*
X221300420Y-94334714D01*
X221109943Y-94334714D01*
X221014705Y-94382333D01*
X219871848Y-94001380D02*
X219633753Y-95001380D01*
X219443277Y-94287095D01*
X219252800Y-95001380D01*
X219014705Y-94001380D01*
X218205181Y-95001380D02*
X218205181Y-94477571D01*
X218252800Y-94382333D01*
X218348039Y-94334714D01*
X218538515Y-94334714D01*
X218633753Y-94382333D01*
X218205181Y-94953761D02*
X218300420Y-95001380D01*
X218538515Y-95001380D01*
X218633753Y-94953761D01*
X218681372Y-94858523D01*
X218681372Y-94763285D01*
X218633753Y-94668047D01*
X218538515Y-94620428D01*
X218300420Y-94620428D01*
X218205181Y-94572809D01*
X217824229Y-94334714D02*
X217586134Y-95001380D01*
X217348039Y-94334714D01*
X216586134Y-94953761D02*
X216681372Y-95001380D01*
X216871848Y-95001380D01*
X216967086Y-94953761D01*
X217014705Y-94858523D01*
X217014705Y-94477571D01*
X216967086Y-94382333D01*
X216871848Y-94334714D01*
X216681372Y-94334714D01*
X216586134Y-94382333D01*
X216538515Y-94477571D01*
X216538515Y-94572809D01*
X217014705Y-94668047D01*
X216157562Y-94953761D02*
X216062324Y-95001380D01*
X215871848Y-95001380D01*
X215776610Y-94953761D01*
X215728991Y-94858523D01*
X215728991Y-94810904D01*
X215776610Y-94715666D01*
X215871848Y-94668047D01*
X216014705Y-94668047D01*
X216109943Y-94620428D01*
X216157562Y-94525190D01*
X216157562Y-94477571D01*
X216109943Y-94382333D01*
X216014705Y-94334714D01*
X215871848Y-94334714D01*
X215776610Y-94382333D01*
X215300420Y-95001380D02*
X215300420Y-94001380D01*
X214871848Y-95001380D02*
X214871848Y-94477571D01*
X214919467Y-94382333D01*
X215014705Y-94334714D01*
X215157562Y-94334714D01*
X215252800Y-94382333D01*
X215300420Y-94429952D01*
X213967086Y-95001380D02*
X213967086Y-94477571D01*
X214014705Y-94382333D01*
X214109943Y-94334714D01*
X214300420Y-94334714D01*
X214395658Y-94382333D01*
X213967086Y-94953761D02*
X214062324Y-95001380D01*
X214300420Y-95001380D01*
X214395658Y-94953761D01*
X214443277Y-94858523D01*
X214443277Y-94763285D01*
X214395658Y-94668047D01*
X214300420Y-94620428D01*
X214062324Y-94620428D01*
X213967086Y-94572809D01*
X213490896Y-95001380D02*
X213490896Y-94334714D01*
X213490896Y-94525190D02*
X213443277Y-94429952D01*
X213395658Y-94382333D01*
X213300420Y-94334714D01*
X213205181Y-94334714D01*
X212490896Y-94953761D02*
X212586134Y-95001380D01*
X212776610Y-95001380D01*
X212871848Y-94953761D01*
X212919467Y-94858523D01*
X212919467Y-94477571D01*
X212871848Y-94382333D01*
X212776610Y-94334714D01*
X212586134Y-94334714D01*
X212490896Y-94382333D01*
X212443277Y-94477571D01*
X212443277Y-94572809D01*
X212919467Y-94668047D01*
X211967086Y-94001380D02*
X212062324Y-94191857D01*
X211538515Y-95001380D02*
X211538515Y-94334714D01*
X211538515Y-94001380D02*
X211586134Y-94049000D01*
X211538515Y-94096619D01*
X211490896Y-94049000D01*
X211538515Y-94001380D01*
X211538515Y-94096619D01*
X210300420Y-95001380D02*
X210300420Y-94001380D01*
X210205181Y-94620428D02*
X209919467Y-95001380D01*
X209919467Y-94334714D02*
X210300420Y-94715666D01*
X209348039Y-95001380D02*
X209443277Y-94953761D01*
X209490896Y-94906142D01*
X209538515Y-94810904D01*
X209538515Y-94525190D01*
X209490896Y-94429952D01*
X209443277Y-94382333D01*
X209348039Y-94334714D01*
X209205181Y-94334714D01*
X209109943Y-94382333D01*
X209062324Y-94429952D01*
X209014705Y-94525190D01*
X209014705Y-94810904D01*
X209062324Y-94906142D01*
X209109943Y-94953761D01*
X209205181Y-95001380D01*
X209348039Y-95001380D01*
X208443277Y-95001380D02*
X208538515Y-94953761D01*
X208586134Y-94858523D01*
X208586134Y-94001380D01*
X208062324Y-95001380D02*
X208062324Y-94334714D01*
X208062324Y-94429952D02*
X208014705Y-94382333D01*
X207919467Y-94334714D01*
X207776610Y-94334714D01*
X207681372Y-94382333D01*
X207633753Y-94477571D01*
X207633753Y-95001380D01*
X207633753Y-94477571D02*
X207586134Y-94382333D01*
X207490896Y-94334714D01*
X207348039Y-94334714D01*
X207252800Y-94382333D01*
X207205181Y-94477571D01*
X207205181Y-95001380D01*
X206348039Y-94953761D02*
X206443277Y-95001380D01*
X206633753Y-95001380D01*
X206728991Y-94953761D01*
X206776610Y-94858523D01*
X206776610Y-94477571D01*
X206728991Y-94382333D01*
X206633753Y-94334714D01*
X206443277Y-94334714D01*
X206348039Y-94382333D01*
X206300420Y-94477571D01*
X206300420Y-94572809D01*
X206776610Y-94668047D01*
X205967086Y-94334714D02*
X205728991Y-95001380D01*
X205490896Y-94334714D01*
X204681372Y-95001380D02*
X204681372Y-94477571D01*
X204728991Y-94382333D01*
X204824229Y-94334714D01*
X205014705Y-94334714D01*
X205109943Y-94382333D01*
X204681372Y-94953761D02*
X204776610Y-95001380D01*
X205014705Y-95001380D01*
X205109943Y-94953761D01*
X205157562Y-94858523D01*
X205157562Y-94763285D01*
X205109943Y-94668047D01*
X205014705Y-94620428D01*
X204776610Y-94620428D01*
X204681372Y-94572809D01*
X205109943Y-94001380D02*
X205062324Y-94049000D01*
X205109943Y-94096619D01*
X205157562Y-94049000D01*
X205109943Y-94001380D01*
X205109943Y-94096619D01*
X204728991Y-94001380D02*
X204681372Y-94049000D01*
X204728991Y-94096619D01*
X204776610Y-94049000D01*
X204728991Y-94001380D01*
X204728991Y-94096619D01*
X204205181Y-95001380D02*
X204205181Y-94334714D01*
X204205181Y-94525190D02*
X204157562Y-94429952D01*
X204109943Y-94382333D01*
X204014705Y-94334714D01*
X203919467Y-94334714D01*
X203681372Y-94334714D02*
X203443277Y-95001380D01*
X203205181Y-94334714D01*
X202824229Y-95001380D02*
X202824229Y-94334714D01*
X202824229Y-94001380D02*
X202871848Y-94049000D01*
X202824229Y-94096619D01*
X202776610Y-94049000D01*
X202824229Y-94001380D01*
X202824229Y-94096619D01*
X202205181Y-95001380D02*
X202300420Y-94953761D01*
X202348039Y-94858523D01*
X202348039Y-94001380D01*
X201824229Y-95001380D02*
X201824229Y-94334714D01*
X201824229Y-94001380D02*
X201871848Y-94049000D01*
X201824229Y-94096619D01*
X201776610Y-94049000D01*
X201824229Y-94001380D01*
X201824229Y-94096619D01*
X201395658Y-94953761D02*
X201300420Y-95001380D01*
X201109943Y-95001380D01*
X201014705Y-94953761D01*
X200967086Y-94858523D01*
X200967086Y-94810904D01*
X201014705Y-94715666D01*
X201109943Y-94668047D01*
X201252800Y-94668047D01*
X201348039Y-94620428D01*
X201395658Y-94525190D01*
X201395658Y-94477571D01*
X201348039Y-94382333D01*
X201252800Y-94334714D01*
X201109943Y-94334714D01*
X201014705Y-94382333D01*
X200157562Y-94953761D02*
X200252800Y-95001380D01*
X200443277Y-95001380D01*
X200538515Y-94953761D01*
X200586134Y-94858523D01*
X200586134Y-94477571D01*
X200538515Y-94382333D01*
X200443277Y-94334714D01*
X200252800Y-94334714D01*
X200157562Y-94382333D01*
X200109943Y-94477571D01*
X200109943Y-94572809D01*
X200586134Y-94668047D01*
X199252800Y-95001380D02*
X199252800Y-94001380D01*
X199252800Y-94953761D02*
X199348039Y-95001380D01*
X199538515Y-95001380D01*
X199633753Y-94953761D01*
X199681372Y-94906142D01*
X199728991Y-94810904D01*
X199728991Y-94525190D01*
X199681372Y-94429952D01*
X199633753Y-94382333D01*
X199538515Y-94334714D01*
X199348039Y-94334714D01*
X199252800Y-94382333D01*
X198490896Y-95382333D02*
X198538515Y-95334714D01*
X198633753Y-95191857D01*
X198681372Y-95096619D01*
X198728991Y-94953761D01*
X198776610Y-94715666D01*
X198776610Y-94525190D01*
X198728991Y-94287095D01*
X198681372Y-94144238D01*
X198633753Y-94049000D01*
X198538515Y-93906142D01*
X198490896Y-93858523D01*
X197538515Y-95001380D02*
X197871848Y-94525190D01*
X198109943Y-95001380D02*
X198109943Y-94001380D01*
X197728991Y-94001380D01*
X197633753Y-94049000D01*
X197586134Y-94096619D01*
X197538515Y-94191857D01*
X197538515Y-94334714D01*
X197586134Y-94429952D01*
X197633753Y-94477571D01*
X197728991Y-94525190D01*
X198109943Y-94525190D01*
X196776610Y-94477571D02*
X196633753Y-94525190D01*
X196586134Y-94572809D01*
X196538515Y-94668047D01*
X196538515Y-94810904D01*
X196586134Y-94906142D01*
X196633753Y-94953761D01*
X196728991Y-95001380D01*
X197109943Y-95001380D01*
X197109943Y-94001380D01*
X196776610Y-94001380D01*
X196681372Y-94049000D01*
X196633753Y-94096619D01*
X196586134Y-94191857D01*
X196586134Y-94287095D01*
X196633753Y-94382333D01*
X196681372Y-94429952D01*
X196776610Y-94477571D01*
X197109943Y-94477571D01*
X196205181Y-94001380D02*
X195967086Y-95001380D01*
X195776610Y-94287095D01*
X195586134Y-95001380D01*
X195348039Y-94001380D01*
X195062324Y-95382333D02*
X195014705Y-95334714D01*
X194919467Y-95191857D01*
X194871848Y-95096619D01*
X194824229Y-94953761D01*
X194776610Y-94715666D01*
X194776610Y-94525190D01*
X194824229Y-94287095D01*
X194871848Y-94144238D01*
X194919467Y-94049000D01*
X195014705Y-93906142D01*
X195062324Y-93858523D01*
X193586134Y-94096619D02*
X193538515Y-94049000D01*
X193443277Y-94001380D01*
X193205181Y-94001380D01*
X193109943Y-94049000D01*
X193062324Y-94096619D01*
X193014705Y-94191857D01*
X193014705Y-94287095D01*
X193062324Y-94429952D01*
X193633753Y-95001380D01*
X193014705Y-95001380D01*
X192586134Y-94906142D02*
X192538515Y-94953761D01*
X192586134Y-95001380D01*
X192633753Y-94953761D01*
X192586134Y-94906142D01*
X192586134Y-95001380D01*
X191586134Y-95001380D02*
X192157562Y-95001380D01*
X191871848Y-95001380D02*
X191871848Y-94001380D01*
X191967086Y-94144238D01*
X192062324Y-94239476D01*
X192157562Y-94287095D01*
X191252800Y-94001380D02*
X190633753Y-94001380D01*
X190967086Y-94382333D01*
X190824229Y-94382333D01*
X190728991Y-94429952D01*
X190681372Y-94477571D01*
X190633753Y-94572809D01*
X190633753Y-94810904D01*
X190681372Y-94906142D01*
X190728991Y-94953761D01*
X190824229Y-95001380D01*
X191109943Y-95001380D01*
X191205181Y-94953761D01*
X191252800Y-94906142D01*
X190252800Y-94001380D02*
X190252800Y-94191857D01*
X189871848Y-94001380D02*
X189871848Y-94191857D01*
X188300420Y-94953761D02*
X188395658Y-95001380D01*
X188586134Y-95001380D01*
X188681372Y-94953761D01*
X188728991Y-94858523D01*
X188728991Y-94477571D01*
X188681372Y-94382333D01*
X188586134Y-94334714D01*
X188395658Y-94334714D01*
X188300420Y-94382333D01*
X188252800Y-94477571D01*
X188252800Y-94572809D01*
X188728991Y-94668047D01*
X187824229Y-94620428D02*
X187062324Y-94620428D01*
X186586134Y-94334714D02*
X186586134Y-95334714D01*
X186586134Y-94382333D02*
X186490896Y-94334714D01*
X186300420Y-94334714D01*
X186205181Y-94382333D01*
X186157562Y-94429952D01*
X186109943Y-94525190D01*
X186109943Y-94810904D01*
X186157562Y-94906142D01*
X186205181Y-94953761D01*
X186300420Y-95001380D01*
X186490896Y-95001380D01*
X186586134Y-94953761D01*
X185252800Y-95001380D02*
X185252800Y-94477571D01*
X185300420Y-94382333D01*
X185395658Y-94334714D01*
X185586134Y-94334714D01*
X185681372Y-94382333D01*
X185252800Y-94953761D02*
X185348039Y-95001380D01*
X185586134Y-95001380D01*
X185681372Y-94953761D01*
X185728991Y-94858523D01*
X185728991Y-94763285D01*
X185681372Y-94668047D01*
X185586134Y-94620428D01*
X185348039Y-94620428D01*
X185252800Y-94572809D01*
X184776610Y-95001380D02*
X184776610Y-94001380D01*
X184776610Y-94382333D02*
X184681372Y-94334714D01*
X184490896Y-94334714D01*
X184395658Y-94382333D01*
X184348039Y-94429952D01*
X184300420Y-94525190D01*
X184300420Y-94810904D01*
X184348039Y-94906142D01*
X184395658Y-94953761D01*
X184490896Y-95001380D01*
X184681372Y-95001380D01*
X184776610Y-94953761D01*
X183490896Y-94953761D02*
X183586134Y-95001380D01*
X183776610Y-95001380D01*
X183871848Y-94953761D01*
X183919467Y-94858523D01*
X183919467Y-94477571D01*
X183871848Y-94382333D01*
X183776610Y-94334714D01*
X183586134Y-94334714D01*
X183490896Y-94382333D01*
X183443277Y-94477571D01*
X183443277Y-94572809D01*
X183919467Y-94668047D01*
X183014705Y-95001380D02*
X183014705Y-94334714D01*
X183014705Y-94525190D02*
X182967086Y-94429952D01*
X182919467Y-94382333D01*
X182824229Y-94334714D01*
X182728991Y-94334714D01*
X182395658Y-95001380D02*
X182395658Y-94334714D01*
X182395658Y-94001380D02*
X182443277Y-94049000D01*
X182395658Y-94096619D01*
X182348039Y-94049000D01*
X182395658Y-94001380D01*
X182395658Y-94096619D01*
X181490896Y-95001380D02*
X181490896Y-94001380D01*
X181490896Y-94953761D02*
X181586134Y-95001380D01*
X181776610Y-95001380D01*
X181871848Y-94953761D01*
X181919467Y-94906142D01*
X181967086Y-94810904D01*
X181967086Y-94525190D01*
X181919467Y-94429952D01*
X181871848Y-94382333D01*
X181776610Y-94334714D01*
X181586134Y-94334714D01*
X181490896Y-94382333D01*
X181014705Y-94906142D02*
X180967086Y-94953761D01*
X181014705Y-95001380D01*
X181062324Y-94953761D01*
X181014705Y-94906142D01*
X181014705Y-95001380D01*
M02*
