%TF.GenerationSoftware,KiCad,Pcbnew,(5.1.9)-1*%
%TF.CreationDate,2021-02-10T20:47:27+02:00*%
%TF.ProjectId,RVP_saatja,5256505f-7361-4617-946a-612e6b696361,rev?*%
%TF.SameCoordinates,Original*%
%TF.FileFunction,Copper,L2,Bot*%
%TF.FilePolarity,Positive*%
%FSLAX46Y46*%
G04 Gerber Fmt 4.6, Leading zero omitted, Abs format (unit mm)*
G04 Created by KiCad (PCBNEW (5.1.9)-1) date 2021-02-10 20:47:27*
%MOMM*%
%LPD*%
G01*
G04 APERTURE LIST*
%TA.AperFunction,ComponentPad*%
%ADD10O,1.700000X1.700000*%
%TD*%
%TA.AperFunction,ComponentPad*%
%ADD11R,1.700000X1.700000*%
%TD*%
%TA.AperFunction,ComponentPad*%
%ADD12C,0.500000*%
%TD*%
%TA.AperFunction,ViaPad*%
%ADD13C,0.450000*%
%TD*%
%TA.AperFunction,ViaPad*%
%ADD14C,0.800000*%
%TD*%
%TA.AperFunction,Conductor*%
%ADD15C,0.200000*%
%TD*%
%TA.AperFunction,Conductor*%
%ADD16C,0.250000*%
%TD*%
%TA.AperFunction,Conductor*%
%ADD17C,0.254000*%
%TD*%
%TA.AperFunction,Conductor*%
%ADD18C,0.100000*%
%TD*%
G04 APERTURE END LIST*
D10*
%TO.P,J2,8*%
%TO.N,Net-(J2-Pad8)*%
X120904000Y-83058000D03*
%TO.P,J2,7*%
%TO.N,MOSI*%
X123444000Y-83058000D03*
%TO.P,J2,6*%
%TO.N,PROG_RESET*%
X120904000Y-85598000D03*
%TO.P,J2,5*%
%TO.N,MISO*%
X123444000Y-85598000D03*
%TO.P,J2,4*%
%TO.N,PROG_RESET*%
X120904000Y-88138000D03*
%TO.P,J2,3*%
%TO.N,SCK*%
X123444000Y-88138000D03*
%TO.P,J2,2*%
%TO.N,GND*%
X120904000Y-90678000D03*
D11*
%TO.P,J2,1*%
%TO.N,VCC_FTDI*%
X123444000Y-90678000D03*
%TD*%
D12*
%TO.P,U1,11*%
%TO.N,GND*%
X153162000Y-62574000D03*
X152212000Y-63149000D03*
X152212000Y-61999000D03*
X151262000Y-62574000D03*
%TD*%
D13*
%TO.N,GND*%
X139282000Y-61270000D03*
X141478000Y-66548000D03*
X141986000Y-67056000D03*
X140716000Y-66802000D03*
X149606000Y-77724000D03*
X150606000Y-77724000D03*
X151606000Y-77724000D03*
X152606000Y-77724000D03*
X153606000Y-77724000D03*
X149606000Y-78724000D03*
X150606000Y-78724000D03*
X151606000Y-78724000D03*
X152606000Y-78724000D03*
X153606000Y-78724000D03*
X149606000Y-79724000D03*
X150606000Y-79724000D03*
X151606000Y-79724000D03*
X152606000Y-79724000D03*
X153606000Y-79724000D03*
X149606000Y-80724000D03*
X150606000Y-80724000D03*
X151606000Y-80724000D03*
X152606000Y-80724000D03*
X153606000Y-80724000D03*
X149606000Y-81724000D03*
X150606000Y-81724000D03*
X151606000Y-81724000D03*
X152606000Y-81724000D03*
X153606000Y-81724000D03*
X149860000Y-93154000D03*
X150860000Y-93154000D03*
X151860000Y-93154000D03*
X152860000Y-91154000D03*
X152860000Y-89154000D03*
X153860000Y-89154000D03*
X153860000Y-91154000D03*
X149860000Y-92154000D03*
X149860000Y-90154000D03*
X153860000Y-92154000D03*
X153860000Y-90154000D03*
X151860000Y-91154000D03*
X151860000Y-92154000D03*
X152860000Y-93154000D03*
X153860000Y-93154000D03*
X149860000Y-89154000D03*
X151860000Y-89154000D03*
X150860000Y-90154000D03*
X150860000Y-89154000D03*
X151860000Y-90154000D03*
X152860000Y-90154000D03*
X149860000Y-91154000D03*
X150860000Y-91154000D03*
X150860000Y-92154000D03*
X152860000Y-92154000D03*
X130492000Y-90916000D03*
X127492000Y-89916000D03*
X130492000Y-93916000D03*
X126492000Y-92916000D03*
X126492000Y-91916000D03*
X128492000Y-92916000D03*
X129492000Y-93916000D03*
X129492000Y-90916000D03*
X128492000Y-91916000D03*
X127492000Y-91916000D03*
X127492000Y-93916000D03*
X129492000Y-91916000D03*
X130492000Y-89916000D03*
X130492000Y-92916000D03*
X128492000Y-89916000D03*
X129492000Y-89916000D03*
X126492000Y-90916000D03*
X127492000Y-90916000D03*
X126492000Y-93916000D03*
X128492000Y-93916000D03*
X129492000Y-92916000D03*
X130492000Y-91916000D03*
X126492000Y-89916000D03*
X128492000Y-90916000D03*
X127492000Y-92916000D03*
X134302000Y-75946000D03*
X134302000Y-74946000D03*
X134302000Y-73946000D03*
X133302000Y-75946000D03*
X133302000Y-71946000D03*
X133302000Y-73946000D03*
X134302000Y-72946000D03*
X134302000Y-71946000D03*
X133302000Y-74946000D03*
X133302000Y-72946000D03*
X143764000Y-61706000D03*
X143764000Y-60706000D03*
X144764000Y-61706000D03*
X144764000Y-60706000D03*
X134604000Y-61452000D03*
X133604000Y-61452000D03*
X133604000Y-60452000D03*
X134604000Y-60452000D03*
%TO.N,MISO*%
X126943575Y-82352425D03*
X128669475Y-80118525D03*
%TO.N,MOSI*%
X126676550Y-81095450D03*
X127907475Y-79356525D03*
%TO.N,SCK*%
X126409525Y-79838475D03*
X126637475Y-78086525D03*
%TO.N,CE*%
X126746000Y-83312000D03*
X124206000Y-76962000D03*
%TO.N,Net-(C7-Pad1)*%
X140889519Y-65612481D03*
X142748000Y-64770000D03*
%TO.N,VCC_FTDI*%
X144773406Y-68042459D03*
X124968000Y-89916000D03*
X141986000Y-70866000D03*
X147066000Y-65532000D03*
X147190000Y-59436000D03*
X140462000Y-67818000D03*
%TO.N,RX*%
X144771701Y-67301701D03*
X143510000Y-77724000D03*
%TO.N,TX*%
X144054482Y-71337518D03*
X142859997Y-77724000D03*
%TO.N,Net-(FB1-Pad2)*%
X136847107Y-70319001D03*
X136906000Y-68118000D03*
%TO.N,VCC*%
X142240000Y-84328000D03*
X144386000Y-84444000D03*
X125222000Y-79248000D03*
X129194475Y-79502000D03*
X134874000Y-90424000D03*
X133350000Y-90424000D03*
D14*
X119888000Y-76962000D03*
X121474000Y-75486000D03*
D13*
X140402000Y-84328000D03*
X136144000Y-79502000D03*
%TO.N,Net-(C15-Pad2)*%
X133008501Y-83619238D03*
X136144000Y-83566000D03*
%TD*%
D15*
%TO.N,MISO*%
X128669475Y-80626525D02*
X128669475Y-80118525D01*
X126943575Y-82352425D02*
X128669475Y-80626525D01*
%TO.N,MOSI*%
X127907475Y-79864525D02*
X127907475Y-79356525D01*
X126676550Y-81095450D02*
X127907475Y-79864525D01*
%TO.N,SCK*%
X126409525Y-78314475D02*
X126637475Y-78086525D01*
X126409525Y-79838475D02*
X126409525Y-78314475D01*
%TO.N,CE*%
X124206000Y-80772000D02*
X124206000Y-76962000D01*
X126746000Y-83312000D02*
X124206000Y-80772000D01*
%TO.N,Net-(C7-Pad1)*%
X141732000Y-64770000D02*
X142748000Y-64770000D01*
X140889519Y-65612481D02*
X141732000Y-64770000D01*
%TO.N,VCC_FTDI*%
X143094662Y-68042459D02*
X142921201Y-67868998D01*
X141986000Y-72898000D02*
X141986000Y-70866000D01*
X124968000Y-89916000D02*
X141986000Y-72898000D01*
D16*
X147066000Y-59560000D02*
X147190000Y-59436000D01*
X147066000Y-65532000D02*
X147066000Y-59560000D01*
D15*
X144773406Y-68042459D02*
X143285541Y-68042459D01*
X143285541Y-68042459D02*
X143094662Y-68042459D01*
D16*
X140512998Y-67868998D02*
X140462000Y-67818000D01*
X142921201Y-67868998D02*
X140512998Y-67868998D01*
D15*
%TO.N,RX*%
X145298407Y-75935593D02*
X143510000Y-77724000D01*
X145298407Y-67510209D02*
X145298407Y-75935593D01*
X145089899Y-67301701D02*
X145298407Y-67510209D01*
X144771701Y-67301701D02*
X145089899Y-67301701D01*
%TO.N,TX*%
X142859997Y-72532003D02*
X142859997Y-77724000D01*
X144054482Y-71337518D02*
X142859997Y-72532003D01*
%TO.N,Net-(FB1-Pad2)*%
X136847107Y-68176893D02*
X136906000Y-68118000D01*
X136847107Y-70319001D02*
X136847107Y-68176893D01*
%TO.N,VCC*%
X144270000Y-84328000D02*
X144386000Y-84444000D01*
X142240000Y-84328000D02*
X144270000Y-84328000D01*
X128523999Y-78831524D02*
X129194475Y-79502000D01*
X127655474Y-78831524D02*
X128523999Y-78831524D01*
X127382474Y-79642528D02*
X127382474Y-79104524D01*
X126661526Y-80363476D02*
X127382474Y-79642528D01*
X126019278Y-80363476D02*
X126661526Y-80363476D01*
X127382474Y-79104524D02*
X127655474Y-78831524D01*
X125222000Y-79566198D02*
X126019278Y-80363476D01*
X125222000Y-79248000D02*
X125222000Y-79566198D01*
X134874000Y-90424000D02*
X133350000Y-90424000D01*
D16*
X119998000Y-76962000D02*
X121474000Y-75486000D01*
X119888000Y-76962000D02*
X119998000Y-76962000D01*
D15*
X140402000Y-84328000D02*
X140402000Y-83626000D01*
X136278000Y-79502000D02*
X136144000Y-79502000D01*
X140402000Y-83626000D02*
X136278000Y-79502000D01*
%TO.N,Net-(C15-Pad2)*%
X136090762Y-83619238D02*
X136144000Y-83566000D01*
X133008501Y-83619238D02*
X136090762Y-83619238D01*
%TD*%
D17*
%TO.N,GND*%
X155321000Y-94361000D02*
X118491000Y-94361000D01*
X118491000Y-91034890D01*
X119462524Y-91034890D01*
X119507175Y-91182099D01*
X119632359Y-91444920D01*
X119806412Y-91678269D01*
X120022645Y-91873178D01*
X120272748Y-92022157D01*
X120547109Y-92119481D01*
X120777000Y-91998814D01*
X120777000Y-90805000D01*
X119583845Y-90805000D01*
X119462524Y-91034890D01*
X118491000Y-91034890D01*
X118491000Y-90321110D01*
X119462524Y-90321110D01*
X119583845Y-90551000D01*
X120777000Y-90551000D01*
X120777000Y-90531000D01*
X121031000Y-90531000D01*
X121031000Y-90551000D01*
X121051000Y-90551000D01*
X121051000Y-90805000D01*
X121031000Y-90805000D01*
X121031000Y-91998814D01*
X121260891Y-92119481D01*
X121535252Y-92022157D01*
X121785355Y-91873178D01*
X122001588Y-91678269D01*
X122175641Y-91444920D01*
X122265418Y-91256435D01*
X122265418Y-91528000D01*
X122271732Y-91592103D01*
X122290430Y-91653743D01*
X122320794Y-91710550D01*
X122361657Y-91760343D01*
X122411450Y-91801206D01*
X122468257Y-91831570D01*
X122529897Y-91850268D01*
X122594000Y-91856582D01*
X124294000Y-91856582D01*
X124358103Y-91850268D01*
X124419743Y-91831570D01*
X124476550Y-91801206D01*
X124526343Y-91760343D01*
X124567206Y-91710550D01*
X124597570Y-91653743D01*
X124616268Y-91592103D01*
X124622582Y-91528000D01*
X124622582Y-90349084D01*
X124706530Y-90405176D01*
X124806988Y-90446787D01*
X124913633Y-90468000D01*
X125022367Y-90468000D01*
X125129012Y-90446787D01*
X125229470Y-90405176D01*
X125282663Y-90369633D01*
X132798000Y-90369633D01*
X132798000Y-90478367D01*
X132819213Y-90585012D01*
X132860824Y-90685470D01*
X132921234Y-90775880D01*
X132998120Y-90852766D01*
X133088530Y-90913176D01*
X133188988Y-90954787D01*
X133295633Y-90976000D01*
X133404367Y-90976000D01*
X133511012Y-90954787D01*
X133611470Y-90913176D01*
X133701880Y-90852766D01*
X133703646Y-90851000D01*
X134520354Y-90851000D01*
X134522120Y-90852766D01*
X134612530Y-90913176D01*
X134712988Y-90954787D01*
X134819633Y-90976000D01*
X134928367Y-90976000D01*
X135035012Y-90954787D01*
X135135470Y-90913176D01*
X135225880Y-90852766D01*
X135302766Y-90775880D01*
X135363176Y-90685470D01*
X135404787Y-90585012D01*
X135426000Y-90478367D01*
X135426000Y-90369633D01*
X135404787Y-90262988D01*
X135363176Y-90162530D01*
X135302766Y-90072120D01*
X135225880Y-89995234D01*
X135135470Y-89934824D01*
X135035012Y-89893213D01*
X134928367Y-89872000D01*
X134819633Y-89872000D01*
X134712988Y-89893213D01*
X134612530Y-89934824D01*
X134522120Y-89995234D01*
X134520354Y-89997000D01*
X133703646Y-89997000D01*
X133701880Y-89995234D01*
X133611470Y-89934824D01*
X133511012Y-89893213D01*
X133404367Y-89872000D01*
X133295633Y-89872000D01*
X133188988Y-89893213D01*
X133088530Y-89934824D01*
X132998120Y-89995234D01*
X132921234Y-90072120D01*
X132860824Y-90162530D01*
X132819213Y-90262988D01*
X132798000Y-90369633D01*
X125282663Y-90369633D01*
X125319880Y-90344766D01*
X125396766Y-90267880D01*
X125457176Y-90177470D01*
X125498787Y-90077012D01*
X125520000Y-89970367D01*
X125520000Y-89967868D01*
X131922997Y-83564871D01*
X132456501Y-83564871D01*
X132456501Y-83673605D01*
X132477714Y-83780250D01*
X132519325Y-83880708D01*
X132579735Y-83971118D01*
X132656621Y-84048004D01*
X132747031Y-84108414D01*
X132847489Y-84150025D01*
X132954134Y-84171238D01*
X133062868Y-84171238D01*
X133169513Y-84150025D01*
X133269971Y-84108414D01*
X133360381Y-84048004D01*
X133362147Y-84046238D01*
X135869153Y-84046238D01*
X135882530Y-84055176D01*
X135982988Y-84096787D01*
X136089633Y-84118000D01*
X136198367Y-84118000D01*
X136305012Y-84096787D01*
X136405470Y-84055176D01*
X136495880Y-83994766D01*
X136572766Y-83917880D01*
X136633176Y-83827470D01*
X136674787Y-83727012D01*
X136696000Y-83620367D01*
X136696000Y-83511633D01*
X136674787Y-83404988D01*
X136633176Y-83304530D01*
X136572766Y-83214120D01*
X136495880Y-83137234D01*
X136405470Y-83076824D01*
X136305012Y-83035213D01*
X136198367Y-83014000D01*
X136089633Y-83014000D01*
X135982988Y-83035213D01*
X135882530Y-83076824D01*
X135792120Y-83137234D01*
X135737116Y-83192238D01*
X133362147Y-83192238D01*
X133360381Y-83190472D01*
X133269971Y-83130062D01*
X133169513Y-83088451D01*
X133062868Y-83067238D01*
X132954134Y-83067238D01*
X132847489Y-83088451D01*
X132747031Y-83130062D01*
X132656621Y-83190472D01*
X132579735Y-83267358D01*
X132519325Y-83357768D01*
X132477714Y-83458226D01*
X132456501Y-83564871D01*
X131922997Y-83564871D01*
X135682692Y-79805177D01*
X135715234Y-79853880D01*
X135792120Y-79930766D01*
X135882530Y-79991176D01*
X135982988Y-80032787D01*
X136089633Y-80054000D01*
X136198367Y-80054000D01*
X136221525Y-80049394D01*
X139975001Y-83802870D01*
X139975001Y-83974353D01*
X139973234Y-83976120D01*
X139912824Y-84066530D01*
X139871213Y-84166988D01*
X139850000Y-84273633D01*
X139850000Y-84382367D01*
X139871213Y-84489012D01*
X139912824Y-84589470D01*
X139973234Y-84679880D01*
X140050120Y-84756766D01*
X140140530Y-84817176D01*
X140240988Y-84858787D01*
X140347633Y-84880000D01*
X140456367Y-84880000D01*
X140563012Y-84858787D01*
X140663470Y-84817176D01*
X140753880Y-84756766D01*
X140830766Y-84679880D01*
X140891176Y-84589470D01*
X140932787Y-84489012D01*
X140954000Y-84382367D01*
X140954000Y-84273633D01*
X141688000Y-84273633D01*
X141688000Y-84382367D01*
X141709213Y-84489012D01*
X141750824Y-84589470D01*
X141811234Y-84679880D01*
X141888120Y-84756766D01*
X141978530Y-84817176D01*
X142078988Y-84858787D01*
X142185633Y-84880000D01*
X142294367Y-84880000D01*
X142401012Y-84858787D01*
X142501470Y-84817176D01*
X142591880Y-84756766D01*
X142593646Y-84755000D01*
X143929919Y-84755000D01*
X143957234Y-84795880D01*
X144034120Y-84872766D01*
X144124530Y-84933176D01*
X144224988Y-84974787D01*
X144331633Y-84996000D01*
X144440367Y-84996000D01*
X144547012Y-84974787D01*
X144647470Y-84933176D01*
X144737880Y-84872766D01*
X144814766Y-84795880D01*
X144875176Y-84705470D01*
X144916787Y-84605012D01*
X144938000Y-84498367D01*
X144938000Y-84389633D01*
X144916787Y-84282988D01*
X144875176Y-84182530D01*
X144814766Y-84092120D01*
X144737880Y-84015234D01*
X144647470Y-83954824D01*
X144547012Y-83913213D01*
X144440367Y-83892000D01*
X144331633Y-83892000D01*
X144287904Y-83900698D01*
X144270000Y-83898935D01*
X144249033Y-83901000D01*
X142593646Y-83901000D01*
X142591880Y-83899234D01*
X142501470Y-83838824D01*
X142401012Y-83797213D01*
X142294367Y-83776000D01*
X142185633Y-83776000D01*
X142078988Y-83797213D01*
X141978530Y-83838824D01*
X141888120Y-83899234D01*
X141811234Y-83976120D01*
X141750824Y-84066530D01*
X141709213Y-84166988D01*
X141688000Y-84273633D01*
X140954000Y-84273633D01*
X140932787Y-84166988D01*
X140891176Y-84066530D01*
X140830766Y-83976120D01*
X140829000Y-83974354D01*
X140829000Y-83646967D01*
X140831065Y-83626000D01*
X140829000Y-83605033D01*
X140829000Y-83605022D01*
X140822822Y-83542293D01*
X140798405Y-83461804D01*
X140789176Y-83444538D01*
X140758756Y-83387623D01*
X140718768Y-83338899D01*
X140718764Y-83338895D01*
X140705395Y-83322605D01*
X140689105Y-83309236D01*
X136642211Y-79262343D01*
X136633176Y-79240530D01*
X136572766Y-79150120D01*
X136495880Y-79073234D01*
X136447177Y-79040692D01*
X142273107Y-73214762D01*
X142289395Y-73201395D01*
X142302764Y-73185105D01*
X142302767Y-73185102D01*
X142342755Y-73136377D01*
X142382404Y-73062197D01*
X142382405Y-73062196D01*
X142406822Y-72981707D01*
X142413000Y-72918978D01*
X142413000Y-72918966D01*
X142415065Y-72898001D01*
X142413000Y-72877036D01*
X142413000Y-71219646D01*
X142414766Y-71217880D01*
X142475176Y-71127470D01*
X142516787Y-71027012D01*
X142538000Y-70920367D01*
X142538000Y-70811633D01*
X142516787Y-70704988D01*
X142475176Y-70604530D01*
X142414766Y-70514120D01*
X142337880Y-70437234D01*
X142247470Y-70376824D01*
X142147012Y-70335213D01*
X142040367Y-70314000D01*
X141931633Y-70314000D01*
X141824988Y-70335213D01*
X141724530Y-70376824D01*
X141634120Y-70437234D01*
X141557234Y-70514120D01*
X141496824Y-70604530D01*
X141455213Y-70704988D01*
X141434000Y-70811633D01*
X141434000Y-70920367D01*
X141455213Y-71027012D01*
X141496824Y-71127470D01*
X141557234Y-71217880D01*
X141559001Y-71219647D01*
X141559000Y-72721131D01*
X124916132Y-89364000D01*
X124913633Y-89364000D01*
X124806988Y-89385213D01*
X124706530Y-89426824D01*
X124616120Y-89487234D01*
X124539234Y-89564120D01*
X124521059Y-89591321D01*
X124476550Y-89554794D01*
X124419743Y-89524430D01*
X124358103Y-89505732D01*
X124294000Y-89499418D01*
X122594000Y-89499418D01*
X122529897Y-89505732D01*
X122468257Y-89524430D01*
X122411450Y-89554794D01*
X122361657Y-89595657D01*
X122320794Y-89645450D01*
X122290430Y-89702257D01*
X122271732Y-89763897D01*
X122265418Y-89828000D01*
X122265418Y-90099565D01*
X122175641Y-89911080D01*
X122001588Y-89677731D01*
X121785355Y-89482822D01*
X121535252Y-89333843D01*
X121296821Y-89249264D01*
X121461519Y-89181044D01*
X121654294Y-89052236D01*
X121818236Y-88888294D01*
X121947044Y-88695519D01*
X122035769Y-88481318D01*
X122081000Y-88253924D01*
X122081000Y-88022076D01*
X122267000Y-88022076D01*
X122267000Y-88253924D01*
X122312231Y-88481318D01*
X122400956Y-88695519D01*
X122529764Y-88888294D01*
X122693706Y-89052236D01*
X122886481Y-89181044D01*
X123100682Y-89269769D01*
X123328076Y-89315000D01*
X123559924Y-89315000D01*
X123787318Y-89269769D01*
X124001519Y-89181044D01*
X124194294Y-89052236D01*
X124358236Y-88888294D01*
X124487044Y-88695519D01*
X124575769Y-88481318D01*
X124621000Y-88253924D01*
X124621000Y-88022076D01*
X124575769Y-87794682D01*
X124487044Y-87580481D01*
X124358236Y-87387706D01*
X124194294Y-87223764D01*
X124001519Y-87094956D01*
X123787318Y-87006231D01*
X123559924Y-86961000D01*
X123328076Y-86961000D01*
X123100682Y-87006231D01*
X122886481Y-87094956D01*
X122693706Y-87223764D01*
X122529764Y-87387706D01*
X122400956Y-87580481D01*
X122312231Y-87794682D01*
X122267000Y-88022076D01*
X122081000Y-88022076D01*
X122035769Y-87794682D01*
X121947044Y-87580481D01*
X121818236Y-87387706D01*
X121654294Y-87223764D01*
X121461519Y-87094956D01*
X121247318Y-87006231D01*
X121019924Y-86961000D01*
X120788076Y-86961000D01*
X120560682Y-87006231D01*
X120346481Y-87094956D01*
X120153706Y-87223764D01*
X119989764Y-87387706D01*
X119860956Y-87580481D01*
X119772231Y-87794682D01*
X119727000Y-88022076D01*
X119727000Y-88253924D01*
X119772231Y-88481318D01*
X119860956Y-88695519D01*
X119989764Y-88888294D01*
X120153706Y-89052236D01*
X120346481Y-89181044D01*
X120511179Y-89249264D01*
X120272748Y-89333843D01*
X120022645Y-89482822D01*
X119806412Y-89677731D01*
X119632359Y-89911080D01*
X119507175Y-90173901D01*
X119462524Y-90321110D01*
X118491000Y-90321110D01*
X118491000Y-85482076D01*
X119727000Y-85482076D01*
X119727000Y-85713924D01*
X119772231Y-85941318D01*
X119860956Y-86155519D01*
X119989764Y-86348294D01*
X120153706Y-86512236D01*
X120346481Y-86641044D01*
X120560682Y-86729769D01*
X120788076Y-86775000D01*
X121019924Y-86775000D01*
X121247318Y-86729769D01*
X121461519Y-86641044D01*
X121654294Y-86512236D01*
X121818236Y-86348294D01*
X121947044Y-86155519D01*
X122035769Y-85941318D01*
X122081000Y-85713924D01*
X122081000Y-85482076D01*
X122267000Y-85482076D01*
X122267000Y-85713924D01*
X122312231Y-85941318D01*
X122400956Y-86155519D01*
X122529764Y-86348294D01*
X122693706Y-86512236D01*
X122886481Y-86641044D01*
X123100682Y-86729769D01*
X123328076Y-86775000D01*
X123559924Y-86775000D01*
X123787318Y-86729769D01*
X124001519Y-86641044D01*
X124194294Y-86512236D01*
X124358236Y-86348294D01*
X124487044Y-86155519D01*
X124575769Y-85941318D01*
X124621000Y-85713924D01*
X124621000Y-85482076D01*
X124575769Y-85254682D01*
X124487044Y-85040481D01*
X124358236Y-84847706D01*
X124194294Y-84683764D01*
X124001519Y-84554956D01*
X123787318Y-84466231D01*
X123559924Y-84421000D01*
X123328076Y-84421000D01*
X123100682Y-84466231D01*
X122886481Y-84554956D01*
X122693706Y-84683764D01*
X122529764Y-84847706D01*
X122400956Y-85040481D01*
X122312231Y-85254682D01*
X122267000Y-85482076D01*
X122081000Y-85482076D01*
X122035769Y-85254682D01*
X121947044Y-85040481D01*
X121818236Y-84847706D01*
X121654294Y-84683764D01*
X121461519Y-84554956D01*
X121247318Y-84466231D01*
X121019924Y-84421000D01*
X120788076Y-84421000D01*
X120560682Y-84466231D01*
X120346481Y-84554956D01*
X120153706Y-84683764D01*
X119989764Y-84847706D01*
X119860956Y-85040481D01*
X119772231Y-85254682D01*
X119727000Y-85482076D01*
X118491000Y-85482076D01*
X118491000Y-82942076D01*
X119727000Y-82942076D01*
X119727000Y-83173924D01*
X119772231Y-83401318D01*
X119860956Y-83615519D01*
X119989764Y-83808294D01*
X120153706Y-83972236D01*
X120346481Y-84101044D01*
X120560682Y-84189769D01*
X120788076Y-84235000D01*
X121019924Y-84235000D01*
X121247318Y-84189769D01*
X121461519Y-84101044D01*
X121654294Y-83972236D01*
X121818236Y-83808294D01*
X121947044Y-83615519D01*
X122035769Y-83401318D01*
X122081000Y-83173924D01*
X122081000Y-82942076D01*
X122267000Y-82942076D01*
X122267000Y-83173924D01*
X122312231Y-83401318D01*
X122400956Y-83615519D01*
X122529764Y-83808294D01*
X122693706Y-83972236D01*
X122886481Y-84101044D01*
X123100682Y-84189769D01*
X123328076Y-84235000D01*
X123559924Y-84235000D01*
X123787318Y-84189769D01*
X124001519Y-84101044D01*
X124194294Y-83972236D01*
X124358236Y-83808294D01*
X124487044Y-83615519D01*
X124575769Y-83401318D01*
X124621000Y-83173924D01*
X124621000Y-82942076D01*
X124575769Y-82714682D01*
X124487044Y-82500481D01*
X124358236Y-82307706D01*
X124194294Y-82143764D01*
X124001519Y-82014956D01*
X123787318Y-81926231D01*
X123559924Y-81881000D01*
X123328076Y-81881000D01*
X123100682Y-81926231D01*
X122886481Y-82014956D01*
X122693706Y-82143764D01*
X122529764Y-82307706D01*
X122400956Y-82500481D01*
X122312231Y-82714682D01*
X122267000Y-82942076D01*
X122081000Y-82942076D01*
X122035769Y-82714682D01*
X121947044Y-82500481D01*
X121818236Y-82307706D01*
X121654294Y-82143764D01*
X121461519Y-82014956D01*
X121247318Y-81926231D01*
X121019924Y-81881000D01*
X120788076Y-81881000D01*
X120560682Y-81926231D01*
X120346481Y-82014956D01*
X120153706Y-82143764D01*
X119989764Y-82307706D01*
X119860956Y-82500481D01*
X119772231Y-82714682D01*
X119727000Y-82942076D01*
X118491000Y-82942076D01*
X118491000Y-76890397D01*
X119161000Y-76890397D01*
X119161000Y-77033603D01*
X119188938Y-77174058D01*
X119243741Y-77306364D01*
X119323302Y-77425436D01*
X119424564Y-77526698D01*
X119543636Y-77606259D01*
X119675942Y-77661062D01*
X119816397Y-77689000D01*
X119959603Y-77689000D01*
X120100058Y-77661062D01*
X120232364Y-77606259D01*
X120351436Y-77526698D01*
X120452698Y-77425436D01*
X120532259Y-77306364D01*
X120587062Y-77174058D01*
X120615000Y-77033603D01*
X120615000Y-76984223D01*
X120691590Y-76907633D01*
X123654000Y-76907633D01*
X123654000Y-77016367D01*
X123675213Y-77123012D01*
X123716824Y-77223470D01*
X123777234Y-77313880D01*
X123779001Y-77315647D01*
X123779000Y-80751033D01*
X123776935Y-80772000D01*
X123779000Y-80792967D01*
X123779000Y-80792977D01*
X123785178Y-80855706D01*
X123809595Y-80936195D01*
X123809596Y-80936196D01*
X123849245Y-81010376D01*
X123874446Y-81041083D01*
X123902605Y-81075395D01*
X123918900Y-81088768D01*
X126194000Y-83363869D01*
X126194000Y-83366367D01*
X126215213Y-83473012D01*
X126256824Y-83573470D01*
X126317234Y-83663880D01*
X126394120Y-83740766D01*
X126484530Y-83801176D01*
X126584988Y-83842787D01*
X126691633Y-83864000D01*
X126800367Y-83864000D01*
X126907012Y-83842787D01*
X127007470Y-83801176D01*
X127097880Y-83740766D01*
X127174766Y-83663880D01*
X127235176Y-83573470D01*
X127276787Y-83473012D01*
X127298000Y-83366367D01*
X127298000Y-83257633D01*
X127276787Y-83150988D01*
X127235176Y-83050530D01*
X127174766Y-82960120D01*
X127098974Y-82884328D01*
X127104587Y-82883212D01*
X127205045Y-82841601D01*
X127295455Y-82781191D01*
X127372341Y-82704305D01*
X127432751Y-82613895D01*
X127474362Y-82513437D01*
X127495575Y-82406792D01*
X127495575Y-82404293D01*
X128956587Y-80943283D01*
X128972870Y-80929920D01*
X128986234Y-80913636D01*
X128986243Y-80913627D01*
X129026230Y-80864902D01*
X129056457Y-80808350D01*
X129065880Y-80790721D01*
X129090297Y-80710232D01*
X129096475Y-80647503D01*
X129096475Y-80647493D01*
X129098540Y-80626526D01*
X129096475Y-80605559D01*
X129096475Y-80472171D01*
X129098241Y-80470405D01*
X129158651Y-80379995D01*
X129200262Y-80279537D01*
X129221475Y-80172892D01*
X129221475Y-80064158D01*
X129219454Y-80054000D01*
X129248842Y-80054000D01*
X129355487Y-80032787D01*
X129455945Y-79991176D01*
X129546355Y-79930766D01*
X129623241Y-79853880D01*
X129683651Y-79763470D01*
X129725262Y-79663012D01*
X129746475Y-79556367D01*
X129746475Y-79447633D01*
X129725262Y-79340988D01*
X129683651Y-79240530D01*
X129623241Y-79150120D01*
X129546355Y-79073234D01*
X129455945Y-79012824D01*
X129355487Y-78971213D01*
X129248842Y-78950000D01*
X129246344Y-78950000D01*
X128840767Y-78544424D01*
X128827394Y-78528129D01*
X128762375Y-78474769D01*
X128688195Y-78435119D01*
X128607706Y-78410702D01*
X128544977Y-78404524D01*
X128544966Y-78404524D01*
X128523999Y-78402459D01*
X128503032Y-78404524D01*
X127676438Y-78404524D01*
X127655473Y-78402459D01*
X127634508Y-78404524D01*
X127634496Y-78404524D01*
X127571767Y-78410702D01*
X127491278Y-78435119D01*
X127456747Y-78453576D01*
X127417097Y-78474769D01*
X127368373Y-78514756D01*
X127368369Y-78514760D01*
X127352079Y-78528129D01*
X127338710Y-78544419D01*
X127095369Y-78787761D01*
X127079080Y-78801129D01*
X127065711Y-78817419D01*
X127065706Y-78817424D01*
X127025719Y-78866148D01*
X126992788Y-78927759D01*
X126986070Y-78940328D01*
X126965049Y-79009624D01*
X126961653Y-79020818D01*
X126953409Y-79104524D01*
X126955475Y-79125501D01*
X126955474Y-79465659D01*
X126876842Y-79544291D01*
X126838291Y-79486595D01*
X126836525Y-79484829D01*
X126836525Y-78601556D01*
X126898945Y-78575701D01*
X126989355Y-78515291D01*
X127066241Y-78438405D01*
X127126651Y-78347995D01*
X127168262Y-78247537D01*
X127189475Y-78140892D01*
X127189475Y-78032158D01*
X127168262Y-77925513D01*
X127126651Y-77825055D01*
X127066241Y-77734645D01*
X126989355Y-77657759D01*
X126898945Y-77597349D01*
X126798487Y-77555738D01*
X126691842Y-77534525D01*
X126583108Y-77534525D01*
X126476463Y-77555738D01*
X126376005Y-77597349D01*
X126285595Y-77657759D01*
X126208709Y-77734645D01*
X126148299Y-77825055D01*
X126106688Y-77925513D01*
X126085475Y-78032158D01*
X126085475Y-78036248D01*
X126052770Y-78076099D01*
X126029089Y-78120405D01*
X126013121Y-78150279D01*
X125988704Y-78230768D01*
X125984249Y-78276000D01*
X125980460Y-78314475D01*
X125982526Y-78335452D01*
X125982525Y-79484829D01*
X125980759Y-79486595D01*
X125920349Y-79577005D01*
X125895842Y-79636171D01*
X125728153Y-79468483D01*
X125752787Y-79409012D01*
X125774000Y-79302367D01*
X125774000Y-79193633D01*
X125752787Y-79086988D01*
X125711176Y-78986530D01*
X125650766Y-78896120D01*
X125573880Y-78819234D01*
X125483470Y-78758824D01*
X125383012Y-78717213D01*
X125276367Y-78696000D01*
X125167633Y-78696000D01*
X125060988Y-78717213D01*
X124960530Y-78758824D01*
X124870120Y-78819234D01*
X124793234Y-78896120D01*
X124732824Y-78986530D01*
X124691213Y-79086988D01*
X124670000Y-79193633D01*
X124670000Y-79302367D01*
X124691213Y-79409012D01*
X124732824Y-79509470D01*
X124793234Y-79599880D01*
X124796581Y-79603227D01*
X124801178Y-79649905D01*
X124823086Y-79722120D01*
X124825596Y-79730394D01*
X124865245Y-79804574D01*
X124905232Y-79853298D01*
X124905237Y-79853303D01*
X124918606Y-79869593D01*
X124934895Y-79882961D01*
X125702519Y-80650587D01*
X125715883Y-80666871D01*
X125732167Y-80680235D01*
X125732176Y-80680244D01*
X125780901Y-80720231D01*
X125820551Y-80741424D01*
X125855082Y-80759881D01*
X125935571Y-80784298D01*
X125998300Y-80790476D01*
X125998312Y-80790476D01*
X126019277Y-80792541D01*
X126040242Y-80790476D01*
X126216442Y-80790476D01*
X126187374Y-80833980D01*
X126145763Y-80934438D01*
X126124550Y-81041083D01*
X126124550Y-81149817D01*
X126145763Y-81256462D01*
X126187374Y-81356920D01*
X126247784Y-81447330D01*
X126324670Y-81524216D01*
X126415080Y-81584626D01*
X126515538Y-81626237D01*
X126622183Y-81647450D01*
X126730917Y-81647450D01*
X126837562Y-81626237D01*
X126938020Y-81584626D01*
X127028430Y-81524216D01*
X127105316Y-81447330D01*
X127165726Y-81356920D01*
X127207337Y-81256462D01*
X127228550Y-81149817D01*
X127228550Y-81147318D01*
X128131661Y-80244208D01*
X128138688Y-80279537D01*
X128180299Y-80379995D01*
X128233105Y-80459025D01*
X126891707Y-81800425D01*
X126889208Y-81800425D01*
X126782563Y-81821638D01*
X126682105Y-81863249D01*
X126591695Y-81923659D01*
X126514809Y-82000545D01*
X126454399Y-82090955D01*
X126412788Y-82191413D01*
X126391575Y-82298058D01*
X126391575Y-82353706D01*
X124633000Y-80595132D01*
X124633000Y-77315646D01*
X124634766Y-77313880D01*
X124695176Y-77223470D01*
X124736787Y-77123012D01*
X124758000Y-77016367D01*
X124758000Y-76907633D01*
X124736787Y-76800988D01*
X124695176Y-76700530D01*
X124634766Y-76610120D01*
X124557880Y-76533234D01*
X124467470Y-76472824D01*
X124367012Y-76431213D01*
X124260367Y-76410000D01*
X124151633Y-76410000D01*
X124044988Y-76431213D01*
X123944530Y-76472824D01*
X123854120Y-76533234D01*
X123777234Y-76610120D01*
X123716824Y-76700530D01*
X123675213Y-76800988D01*
X123654000Y-76907633D01*
X120691590Y-76907633D01*
X121388908Y-76210317D01*
X121402397Y-76213000D01*
X121545603Y-76213000D01*
X121686058Y-76185062D01*
X121818364Y-76130259D01*
X121937436Y-76050698D01*
X122038698Y-75949436D01*
X122118259Y-75830364D01*
X122173062Y-75698058D01*
X122201000Y-75557603D01*
X122201000Y-75414397D01*
X122173062Y-75273942D01*
X122118259Y-75141636D01*
X122038698Y-75022564D01*
X121937436Y-74921302D01*
X121818364Y-74841741D01*
X121686058Y-74786938D01*
X121545603Y-74759000D01*
X121402397Y-74759000D01*
X121261942Y-74786938D01*
X121129636Y-74841741D01*
X121010564Y-74921302D01*
X120909302Y-75022564D01*
X120829741Y-75141636D01*
X120774938Y-75273942D01*
X120747000Y-75414397D01*
X120747000Y-75557603D01*
X120749683Y-75571092D01*
X120064843Y-76255933D01*
X119959603Y-76235000D01*
X119816397Y-76235000D01*
X119675942Y-76262938D01*
X119543636Y-76317741D01*
X119424564Y-76397302D01*
X119323302Y-76498564D01*
X119243741Y-76617636D01*
X119188938Y-76749942D01*
X119161000Y-76890397D01*
X118491000Y-76890397D01*
X118491000Y-74166851D01*
X132335154Y-74040995D01*
X132358776Y-74038560D01*
X132382601Y-74031333D01*
X132404557Y-74019597D01*
X132423803Y-74003803D01*
X132439597Y-73984557D01*
X132451333Y-73962601D01*
X132458560Y-73938776D01*
X132461000Y-73914000D01*
X132461000Y-70264634D01*
X136295107Y-70264634D01*
X136295107Y-70373368D01*
X136316320Y-70480013D01*
X136357931Y-70580471D01*
X136418341Y-70670881D01*
X136495227Y-70747767D01*
X136585637Y-70808177D01*
X136686095Y-70849788D01*
X136792740Y-70871001D01*
X136901474Y-70871001D01*
X137008119Y-70849788D01*
X137108577Y-70808177D01*
X137198987Y-70747767D01*
X137275873Y-70670881D01*
X137336283Y-70580471D01*
X137377894Y-70480013D01*
X137399107Y-70373368D01*
X137399107Y-70264634D01*
X137377894Y-70157989D01*
X137336283Y-70057531D01*
X137275873Y-69967121D01*
X137274107Y-69965355D01*
X137274107Y-68530539D01*
X137334766Y-68469880D01*
X137395176Y-68379470D01*
X137436787Y-68279012D01*
X137458000Y-68172367D01*
X137458000Y-68063633D01*
X137436787Y-67956988D01*
X137395176Y-67856530D01*
X137334766Y-67766120D01*
X137332279Y-67763633D01*
X139910000Y-67763633D01*
X139910000Y-67872367D01*
X139931213Y-67979012D01*
X139972824Y-68079470D01*
X140033234Y-68169880D01*
X140110120Y-68246766D01*
X140200530Y-68307176D01*
X140300988Y-68348787D01*
X140407633Y-68370000D01*
X140516367Y-68370000D01*
X140623012Y-68348787D01*
X140690101Y-68320998D01*
X142769333Y-68320998D01*
X142777894Y-68329559D01*
X142791267Y-68345854D01*
X142856286Y-68399214D01*
X142930466Y-68438864D01*
X143010955Y-68463281D01*
X143073684Y-68469459D01*
X143073695Y-68469459D01*
X143094662Y-68471524D01*
X143115629Y-68469459D01*
X144419760Y-68469459D01*
X144421526Y-68471225D01*
X144511936Y-68531635D01*
X144612394Y-68573246D01*
X144719039Y-68594459D01*
X144827773Y-68594459D01*
X144871407Y-68585780D01*
X144871408Y-75758723D01*
X143458132Y-77172000D01*
X143455633Y-77172000D01*
X143348988Y-77193213D01*
X143286997Y-77218890D01*
X143286997Y-72708871D01*
X144106351Y-71889518D01*
X144108849Y-71889518D01*
X144215494Y-71868305D01*
X144315952Y-71826694D01*
X144406362Y-71766284D01*
X144483248Y-71689398D01*
X144543658Y-71598988D01*
X144585269Y-71498530D01*
X144606482Y-71391885D01*
X144606482Y-71283151D01*
X144585269Y-71176506D01*
X144543658Y-71076048D01*
X144483248Y-70985638D01*
X144406362Y-70908752D01*
X144315952Y-70848342D01*
X144215494Y-70806731D01*
X144108849Y-70785518D01*
X144000115Y-70785518D01*
X143893470Y-70806731D01*
X143793012Y-70848342D01*
X143702602Y-70908752D01*
X143625716Y-70985638D01*
X143565306Y-71076048D01*
X143523695Y-71176506D01*
X143502482Y-71283151D01*
X143502482Y-71285649D01*
X142572897Y-72215235D01*
X142556602Y-72228608D01*
X142543230Y-72244902D01*
X142543229Y-72244903D01*
X142503242Y-72293627D01*
X142482049Y-72333277D01*
X142463592Y-72367808D01*
X142439175Y-72448297D01*
X142432997Y-72511026D01*
X142432997Y-72511036D01*
X142430932Y-72532003D01*
X142432997Y-72552970D01*
X142432998Y-77370353D01*
X142431231Y-77372120D01*
X142370821Y-77462530D01*
X142329210Y-77562988D01*
X142307997Y-77669633D01*
X142307997Y-77778367D01*
X142329210Y-77885012D01*
X142370821Y-77985470D01*
X142431231Y-78075880D01*
X142508117Y-78152766D01*
X142598527Y-78213176D01*
X142698985Y-78254787D01*
X142805630Y-78276000D01*
X142914364Y-78276000D01*
X143021009Y-78254787D01*
X143121467Y-78213176D01*
X143184999Y-78170726D01*
X143248530Y-78213176D01*
X143348988Y-78254787D01*
X143455633Y-78276000D01*
X143564367Y-78276000D01*
X143671012Y-78254787D01*
X143771470Y-78213176D01*
X143861880Y-78152766D01*
X143938766Y-78075880D01*
X143999176Y-77985470D01*
X144040787Y-77885012D01*
X144062000Y-77778367D01*
X144062000Y-77775868D01*
X145585512Y-76252357D01*
X145601802Y-76238988D01*
X145615171Y-76222698D01*
X145615174Y-76222695D01*
X145655162Y-76173970D01*
X145694811Y-76099790D01*
X145694812Y-76099789D01*
X145719229Y-76019300D01*
X145725407Y-75956571D01*
X145725407Y-75956559D01*
X145727472Y-75935594D01*
X145725407Y-75914629D01*
X145725407Y-67531176D01*
X145727472Y-67510209D01*
X145725407Y-67489242D01*
X145725407Y-67489231D01*
X145719229Y-67426502D01*
X145694812Y-67346013D01*
X145655162Y-67271833D01*
X145601802Y-67206814D01*
X145585508Y-67193442D01*
X145406667Y-67014601D01*
X145393294Y-66998306D01*
X145328275Y-66944946D01*
X145254095Y-66905296D01*
X145173606Y-66880879D01*
X145126928Y-66876282D01*
X145123581Y-66872935D01*
X145033171Y-66812525D01*
X144932713Y-66770914D01*
X144826068Y-66749701D01*
X144717334Y-66749701D01*
X144610689Y-66770914D01*
X144510231Y-66812525D01*
X144419821Y-66872935D01*
X144342935Y-66949821D01*
X144282525Y-67040231D01*
X144240914Y-67140689D01*
X144219701Y-67247334D01*
X144219701Y-67356068D01*
X144240914Y-67462713D01*
X144282525Y-67563171D01*
X144317463Y-67615459D01*
X143297854Y-67615459D01*
X143242360Y-67547839D01*
X143173534Y-67491355D01*
X143095011Y-67449384D01*
X143009808Y-67423538D01*
X142943406Y-67416998D01*
X140841644Y-67416998D01*
X140813880Y-67389234D01*
X140723470Y-67328824D01*
X140623012Y-67287213D01*
X140516367Y-67266000D01*
X140407633Y-67266000D01*
X140300988Y-67287213D01*
X140200530Y-67328824D01*
X140110120Y-67389234D01*
X140033234Y-67466120D01*
X139972824Y-67556530D01*
X139931213Y-67656988D01*
X139910000Y-67763633D01*
X137332279Y-67763633D01*
X137257880Y-67689234D01*
X137167470Y-67628824D01*
X137067012Y-67587213D01*
X136960367Y-67566000D01*
X136851633Y-67566000D01*
X136744988Y-67587213D01*
X136644530Y-67628824D01*
X136554120Y-67689234D01*
X136477234Y-67766120D01*
X136416824Y-67856530D01*
X136375213Y-67956988D01*
X136354000Y-68063633D01*
X136354000Y-68172367D01*
X136375213Y-68279012D01*
X136416824Y-68379470D01*
X136420108Y-68384385D01*
X136420107Y-69965355D01*
X136418341Y-69967121D01*
X136357931Y-70057531D01*
X136316320Y-70157989D01*
X136295107Y-70264634D01*
X132461000Y-70264634D01*
X132461000Y-65558114D01*
X140337519Y-65558114D01*
X140337519Y-65666848D01*
X140358732Y-65773493D01*
X140400343Y-65873951D01*
X140460753Y-65964361D01*
X140537639Y-66041247D01*
X140628049Y-66101657D01*
X140728507Y-66143268D01*
X140835152Y-66164481D01*
X140943886Y-66164481D01*
X141050531Y-66143268D01*
X141150989Y-66101657D01*
X141241399Y-66041247D01*
X141318285Y-65964361D01*
X141378695Y-65873951D01*
X141420306Y-65773493D01*
X141441519Y-65666848D01*
X141441519Y-65664349D01*
X141628235Y-65477633D01*
X146514000Y-65477633D01*
X146514000Y-65586367D01*
X146535213Y-65693012D01*
X146576824Y-65793470D01*
X146637234Y-65883880D01*
X146714120Y-65960766D01*
X146804530Y-66021176D01*
X146904988Y-66062787D01*
X147011633Y-66084000D01*
X147120367Y-66084000D01*
X147227012Y-66062787D01*
X147327470Y-66021176D01*
X147417880Y-65960766D01*
X147494766Y-65883880D01*
X147555176Y-65793470D01*
X147596787Y-65693012D01*
X147618000Y-65586367D01*
X147618000Y-65477633D01*
X147596787Y-65370988D01*
X147555176Y-65270530D01*
X147518000Y-65214892D01*
X147518000Y-63745164D01*
X151789784Y-63745164D01*
X151793826Y-63933827D01*
X151954974Y-64000328D01*
X152125998Y-64034113D01*
X152300328Y-64033884D01*
X152471264Y-63999649D01*
X152630174Y-63933827D01*
X152634216Y-63745164D01*
X152212000Y-63322948D01*
X151789784Y-63745164D01*
X147518000Y-63745164D01*
X147518000Y-62487998D01*
X150376887Y-62487998D01*
X150377116Y-62662328D01*
X150411351Y-62833264D01*
X150477173Y-62992174D01*
X150665836Y-62996216D01*
X151088052Y-62574000D01*
X150665836Y-62151784D01*
X150477173Y-62155826D01*
X150410672Y-62316974D01*
X150376887Y-62487998D01*
X147518000Y-62487998D01*
X147518000Y-61977836D01*
X150839784Y-61977836D01*
X151262000Y-62400052D01*
X151278971Y-62383081D01*
X151452919Y-62557029D01*
X151435948Y-62574000D01*
X151452919Y-62590971D01*
X151278971Y-62764919D01*
X151262000Y-62747948D01*
X150839784Y-63170164D01*
X150843826Y-63358827D01*
X151004974Y-63425328D01*
X151175998Y-63459113D01*
X151350328Y-63458884D01*
X151379868Y-63452968D01*
X151427173Y-63567174D01*
X151615836Y-63571216D01*
X152038052Y-63149000D01*
X152021081Y-63132029D01*
X152195029Y-62958081D01*
X152212000Y-62975052D01*
X152228971Y-62958081D01*
X152402919Y-63132029D01*
X152385948Y-63149000D01*
X152808164Y-63571216D01*
X152996827Y-63567174D01*
X153044027Y-63452797D01*
X153075998Y-63459113D01*
X153250328Y-63458884D01*
X153421264Y-63424649D01*
X153580174Y-63358827D01*
X153584216Y-63170164D01*
X153162000Y-62747948D01*
X153145029Y-62764919D01*
X152971081Y-62590971D01*
X152988052Y-62574000D01*
X153335948Y-62574000D01*
X153758164Y-62996216D01*
X153946827Y-62992174D01*
X154013328Y-62831026D01*
X154047113Y-62660002D01*
X154046884Y-62485672D01*
X154012649Y-62314736D01*
X153946827Y-62155826D01*
X153758164Y-62151784D01*
X153335948Y-62574000D01*
X152988052Y-62574000D01*
X152971081Y-62557029D01*
X153145029Y-62383081D01*
X153162000Y-62400052D01*
X153584216Y-61977836D01*
X153580174Y-61789173D01*
X153419026Y-61722672D01*
X153248002Y-61688887D01*
X153073672Y-61689116D01*
X153044132Y-61695032D01*
X152996827Y-61580826D01*
X152808164Y-61576784D01*
X152385948Y-61999000D01*
X152402919Y-62015971D01*
X152228971Y-62189919D01*
X152212000Y-62172948D01*
X152195029Y-62189919D01*
X152021081Y-62015971D01*
X152038052Y-61999000D01*
X151615836Y-61576784D01*
X151427173Y-61580826D01*
X151379973Y-61695203D01*
X151348002Y-61688887D01*
X151173672Y-61689116D01*
X151002736Y-61723351D01*
X150843826Y-61789173D01*
X150839784Y-61977836D01*
X147518000Y-61977836D01*
X147518000Y-61402836D01*
X151789784Y-61402836D01*
X152212000Y-61825052D01*
X152634216Y-61402836D01*
X152630174Y-61214173D01*
X152469026Y-61147672D01*
X152298002Y-61113887D01*
X152123672Y-61114116D01*
X151952736Y-61148351D01*
X151793826Y-61214173D01*
X151789784Y-61402836D01*
X147518000Y-61402836D01*
X147518000Y-59880722D01*
X147541880Y-59864766D01*
X147618766Y-59787880D01*
X147679176Y-59697470D01*
X147720787Y-59597012D01*
X147742000Y-59490367D01*
X147742000Y-59381633D01*
X147720787Y-59274988D01*
X147679176Y-59174530D01*
X147618766Y-59084120D01*
X147541880Y-59007234D01*
X147451470Y-58946824D01*
X147351012Y-58905213D01*
X147244367Y-58884000D01*
X147135633Y-58884000D01*
X147028988Y-58905213D01*
X146928530Y-58946824D01*
X146838120Y-59007234D01*
X146761234Y-59084120D01*
X146700824Y-59174530D01*
X146659213Y-59274988D01*
X146638000Y-59381633D01*
X146638000Y-59413836D01*
X146620540Y-59471393D01*
X146611813Y-59560000D01*
X146614001Y-59582215D01*
X146614000Y-65214892D01*
X146576824Y-65270530D01*
X146535213Y-65370988D01*
X146514000Y-65477633D01*
X141628235Y-65477633D01*
X141908869Y-65197000D01*
X142394354Y-65197000D01*
X142396120Y-65198766D01*
X142486530Y-65259176D01*
X142586988Y-65300787D01*
X142693633Y-65322000D01*
X142802367Y-65322000D01*
X142909012Y-65300787D01*
X143009470Y-65259176D01*
X143099880Y-65198766D01*
X143176766Y-65121880D01*
X143237176Y-65031470D01*
X143278787Y-64931012D01*
X143300000Y-64824367D01*
X143300000Y-64715633D01*
X143278787Y-64608988D01*
X143237176Y-64508530D01*
X143176766Y-64418120D01*
X143099880Y-64341234D01*
X143009470Y-64280824D01*
X142909012Y-64239213D01*
X142802367Y-64218000D01*
X142693633Y-64218000D01*
X142586988Y-64239213D01*
X142486530Y-64280824D01*
X142396120Y-64341234D01*
X142394354Y-64343000D01*
X141752966Y-64343000D01*
X141731999Y-64340935D01*
X141711032Y-64343000D01*
X141711022Y-64343000D01*
X141648293Y-64349178D01*
X141567804Y-64373595D01*
X141533273Y-64392052D01*
X141493623Y-64413245D01*
X141444899Y-64453232D01*
X141444895Y-64453236D01*
X141428605Y-64466605D01*
X141415236Y-64482895D01*
X140837651Y-65060481D01*
X140835152Y-65060481D01*
X140728507Y-65081694D01*
X140628049Y-65123305D01*
X140537639Y-65183715D01*
X140460753Y-65260601D01*
X140400343Y-65351011D01*
X140358732Y-65451469D01*
X140337519Y-65558114D01*
X132461000Y-65558114D01*
X132461000Y-57531000D01*
X155321000Y-57531000D01*
X155321000Y-94361000D01*
%TA.AperFunction,Conductor*%
D18*
G36*
X155321000Y-94361000D02*
G01*
X118491000Y-94361000D01*
X118491000Y-91034890D01*
X119462524Y-91034890D01*
X119507175Y-91182099D01*
X119632359Y-91444920D01*
X119806412Y-91678269D01*
X120022645Y-91873178D01*
X120272748Y-92022157D01*
X120547109Y-92119481D01*
X120777000Y-91998814D01*
X120777000Y-90805000D01*
X119583845Y-90805000D01*
X119462524Y-91034890D01*
X118491000Y-91034890D01*
X118491000Y-90321110D01*
X119462524Y-90321110D01*
X119583845Y-90551000D01*
X120777000Y-90551000D01*
X120777000Y-90531000D01*
X121031000Y-90531000D01*
X121031000Y-90551000D01*
X121051000Y-90551000D01*
X121051000Y-90805000D01*
X121031000Y-90805000D01*
X121031000Y-91998814D01*
X121260891Y-92119481D01*
X121535252Y-92022157D01*
X121785355Y-91873178D01*
X122001588Y-91678269D01*
X122175641Y-91444920D01*
X122265418Y-91256435D01*
X122265418Y-91528000D01*
X122271732Y-91592103D01*
X122290430Y-91653743D01*
X122320794Y-91710550D01*
X122361657Y-91760343D01*
X122411450Y-91801206D01*
X122468257Y-91831570D01*
X122529897Y-91850268D01*
X122594000Y-91856582D01*
X124294000Y-91856582D01*
X124358103Y-91850268D01*
X124419743Y-91831570D01*
X124476550Y-91801206D01*
X124526343Y-91760343D01*
X124567206Y-91710550D01*
X124597570Y-91653743D01*
X124616268Y-91592103D01*
X124622582Y-91528000D01*
X124622582Y-90349084D01*
X124706530Y-90405176D01*
X124806988Y-90446787D01*
X124913633Y-90468000D01*
X125022367Y-90468000D01*
X125129012Y-90446787D01*
X125229470Y-90405176D01*
X125282663Y-90369633D01*
X132798000Y-90369633D01*
X132798000Y-90478367D01*
X132819213Y-90585012D01*
X132860824Y-90685470D01*
X132921234Y-90775880D01*
X132998120Y-90852766D01*
X133088530Y-90913176D01*
X133188988Y-90954787D01*
X133295633Y-90976000D01*
X133404367Y-90976000D01*
X133511012Y-90954787D01*
X133611470Y-90913176D01*
X133701880Y-90852766D01*
X133703646Y-90851000D01*
X134520354Y-90851000D01*
X134522120Y-90852766D01*
X134612530Y-90913176D01*
X134712988Y-90954787D01*
X134819633Y-90976000D01*
X134928367Y-90976000D01*
X135035012Y-90954787D01*
X135135470Y-90913176D01*
X135225880Y-90852766D01*
X135302766Y-90775880D01*
X135363176Y-90685470D01*
X135404787Y-90585012D01*
X135426000Y-90478367D01*
X135426000Y-90369633D01*
X135404787Y-90262988D01*
X135363176Y-90162530D01*
X135302766Y-90072120D01*
X135225880Y-89995234D01*
X135135470Y-89934824D01*
X135035012Y-89893213D01*
X134928367Y-89872000D01*
X134819633Y-89872000D01*
X134712988Y-89893213D01*
X134612530Y-89934824D01*
X134522120Y-89995234D01*
X134520354Y-89997000D01*
X133703646Y-89997000D01*
X133701880Y-89995234D01*
X133611470Y-89934824D01*
X133511012Y-89893213D01*
X133404367Y-89872000D01*
X133295633Y-89872000D01*
X133188988Y-89893213D01*
X133088530Y-89934824D01*
X132998120Y-89995234D01*
X132921234Y-90072120D01*
X132860824Y-90162530D01*
X132819213Y-90262988D01*
X132798000Y-90369633D01*
X125282663Y-90369633D01*
X125319880Y-90344766D01*
X125396766Y-90267880D01*
X125457176Y-90177470D01*
X125498787Y-90077012D01*
X125520000Y-89970367D01*
X125520000Y-89967868D01*
X131922997Y-83564871D01*
X132456501Y-83564871D01*
X132456501Y-83673605D01*
X132477714Y-83780250D01*
X132519325Y-83880708D01*
X132579735Y-83971118D01*
X132656621Y-84048004D01*
X132747031Y-84108414D01*
X132847489Y-84150025D01*
X132954134Y-84171238D01*
X133062868Y-84171238D01*
X133169513Y-84150025D01*
X133269971Y-84108414D01*
X133360381Y-84048004D01*
X133362147Y-84046238D01*
X135869153Y-84046238D01*
X135882530Y-84055176D01*
X135982988Y-84096787D01*
X136089633Y-84118000D01*
X136198367Y-84118000D01*
X136305012Y-84096787D01*
X136405470Y-84055176D01*
X136495880Y-83994766D01*
X136572766Y-83917880D01*
X136633176Y-83827470D01*
X136674787Y-83727012D01*
X136696000Y-83620367D01*
X136696000Y-83511633D01*
X136674787Y-83404988D01*
X136633176Y-83304530D01*
X136572766Y-83214120D01*
X136495880Y-83137234D01*
X136405470Y-83076824D01*
X136305012Y-83035213D01*
X136198367Y-83014000D01*
X136089633Y-83014000D01*
X135982988Y-83035213D01*
X135882530Y-83076824D01*
X135792120Y-83137234D01*
X135737116Y-83192238D01*
X133362147Y-83192238D01*
X133360381Y-83190472D01*
X133269971Y-83130062D01*
X133169513Y-83088451D01*
X133062868Y-83067238D01*
X132954134Y-83067238D01*
X132847489Y-83088451D01*
X132747031Y-83130062D01*
X132656621Y-83190472D01*
X132579735Y-83267358D01*
X132519325Y-83357768D01*
X132477714Y-83458226D01*
X132456501Y-83564871D01*
X131922997Y-83564871D01*
X135682692Y-79805177D01*
X135715234Y-79853880D01*
X135792120Y-79930766D01*
X135882530Y-79991176D01*
X135982988Y-80032787D01*
X136089633Y-80054000D01*
X136198367Y-80054000D01*
X136221525Y-80049394D01*
X139975001Y-83802870D01*
X139975001Y-83974353D01*
X139973234Y-83976120D01*
X139912824Y-84066530D01*
X139871213Y-84166988D01*
X139850000Y-84273633D01*
X139850000Y-84382367D01*
X139871213Y-84489012D01*
X139912824Y-84589470D01*
X139973234Y-84679880D01*
X140050120Y-84756766D01*
X140140530Y-84817176D01*
X140240988Y-84858787D01*
X140347633Y-84880000D01*
X140456367Y-84880000D01*
X140563012Y-84858787D01*
X140663470Y-84817176D01*
X140753880Y-84756766D01*
X140830766Y-84679880D01*
X140891176Y-84589470D01*
X140932787Y-84489012D01*
X140954000Y-84382367D01*
X140954000Y-84273633D01*
X141688000Y-84273633D01*
X141688000Y-84382367D01*
X141709213Y-84489012D01*
X141750824Y-84589470D01*
X141811234Y-84679880D01*
X141888120Y-84756766D01*
X141978530Y-84817176D01*
X142078988Y-84858787D01*
X142185633Y-84880000D01*
X142294367Y-84880000D01*
X142401012Y-84858787D01*
X142501470Y-84817176D01*
X142591880Y-84756766D01*
X142593646Y-84755000D01*
X143929919Y-84755000D01*
X143957234Y-84795880D01*
X144034120Y-84872766D01*
X144124530Y-84933176D01*
X144224988Y-84974787D01*
X144331633Y-84996000D01*
X144440367Y-84996000D01*
X144547012Y-84974787D01*
X144647470Y-84933176D01*
X144737880Y-84872766D01*
X144814766Y-84795880D01*
X144875176Y-84705470D01*
X144916787Y-84605012D01*
X144938000Y-84498367D01*
X144938000Y-84389633D01*
X144916787Y-84282988D01*
X144875176Y-84182530D01*
X144814766Y-84092120D01*
X144737880Y-84015234D01*
X144647470Y-83954824D01*
X144547012Y-83913213D01*
X144440367Y-83892000D01*
X144331633Y-83892000D01*
X144287904Y-83900698D01*
X144270000Y-83898935D01*
X144249033Y-83901000D01*
X142593646Y-83901000D01*
X142591880Y-83899234D01*
X142501470Y-83838824D01*
X142401012Y-83797213D01*
X142294367Y-83776000D01*
X142185633Y-83776000D01*
X142078988Y-83797213D01*
X141978530Y-83838824D01*
X141888120Y-83899234D01*
X141811234Y-83976120D01*
X141750824Y-84066530D01*
X141709213Y-84166988D01*
X141688000Y-84273633D01*
X140954000Y-84273633D01*
X140932787Y-84166988D01*
X140891176Y-84066530D01*
X140830766Y-83976120D01*
X140829000Y-83974354D01*
X140829000Y-83646967D01*
X140831065Y-83626000D01*
X140829000Y-83605033D01*
X140829000Y-83605022D01*
X140822822Y-83542293D01*
X140798405Y-83461804D01*
X140789176Y-83444538D01*
X140758756Y-83387623D01*
X140718768Y-83338899D01*
X140718764Y-83338895D01*
X140705395Y-83322605D01*
X140689105Y-83309236D01*
X136642211Y-79262343D01*
X136633176Y-79240530D01*
X136572766Y-79150120D01*
X136495880Y-79073234D01*
X136447177Y-79040692D01*
X142273107Y-73214762D01*
X142289395Y-73201395D01*
X142302764Y-73185105D01*
X142302767Y-73185102D01*
X142342755Y-73136377D01*
X142382404Y-73062197D01*
X142382405Y-73062196D01*
X142406822Y-72981707D01*
X142413000Y-72918978D01*
X142413000Y-72918966D01*
X142415065Y-72898001D01*
X142413000Y-72877036D01*
X142413000Y-71219646D01*
X142414766Y-71217880D01*
X142475176Y-71127470D01*
X142516787Y-71027012D01*
X142538000Y-70920367D01*
X142538000Y-70811633D01*
X142516787Y-70704988D01*
X142475176Y-70604530D01*
X142414766Y-70514120D01*
X142337880Y-70437234D01*
X142247470Y-70376824D01*
X142147012Y-70335213D01*
X142040367Y-70314000D01*
X141931633Y-70314000D01*
X141824988Y-70335213D01*
X141724530Y-70376824D01*
X141634120Y-70437234D01*
X141557234Y-70514120D01*
X141496824Y-70604530D01*
X141455213Y-70704988D01*
X141434000Y-70811633D01*
X141434000Y-70920367D01*
X141455213Y-71027012D01*
X141496824Y-71127470D01*
X141557234Y-71217880D01*
X141559001Y-71219647D01*
X141559000Y-72721131D01*
X124916132Y-89364000D01*
X124913633Y-89364000D01*
X124806988Y-89385213D01*
X124706530Y-89426824D01*
X124616120Y-89487234D01*
X124539234Y-89564120D01*
X124521059Y-89591321D01*
X124476550Y-89554794D01*
X124419743Y-89524430D01*
X124358103Y-89505732D01*
X124294000Y-89499418D01*
X122594000Y-89499418D01*
X122529897Y-89505732D01*
X122468257Y-89524430D01*
X122411450Y-89554794D01*
X122361657Y-89595657D01*
X122320794Y-89645450D01*
X122290430Y-89702257D01*
X122271732Y-89763897D01*
X122265418Y-89828000D01*
X122265418Y-90099565D01*
X122175641Y-89911080D01*
X122001588Y-89677731D01*
X121785355Y-89482822D01*
X121535252Y-89333843D01*
X121296821Y-89249264D01*
X121461519Y-89181044D01*
X121654294Y-89052236D01*
X121818236Y-88888294D01*
X121947044Y-88695519D01*
X122035769Y-88481318D01*
X122081000Y-88253924D01*
X122081000Y-88022076D01*
X122267000Y-88022076D01*
X122267000Y-88253924D01*
X122312231Y-88481318D01*
X122400956Y-88695519D01*
X122529764Y-88888294D01*
X122693706Y-89052236D01*
X122886481Y-89181044D01*
X123100682Y-89269769D01*
X123328076Y-89315000D01*
X123559924Y-89315000D01*
X123787318Y-89269769D01*
X124001519Y-89181044D01*
X124194294Y-89052236D01*
X124358236Y-88888294D01*
X124487044Y-88695519D01*
X124575769Y-88481318D01*
X124621000Y-88253924D01*
X124621000Y-88022076D01*
X124575769Y-87794682D01*
X124487044Y-87580481D01*
X124358236Y-87387706D01*
X124194294Y-87223764D01*
X124001519Y-87094956D01*
X123787318Y-87006231D01*
X123559924Y-86961000D01*
X123328076Y-86961000D01*
X123100682Y-87006231D01*
X122886481Y-87094956D01*
X122693706Y-87223764D01*
X122529764Y-87387706D01*
X122400956Y-87580481D01*
X122312231Y-87794682D01*
X122267000Y-88022076D01*
X122081000Y-88022076D01*
X122035769Y-87794682D01*
X121947044Y-87580481D01*
X121818236Y-87387706D01*
X121654294Y-87223764D01*
X121461519Y-87094956D01*
X121247318Y-87006231D01*
X121019924Y-86961000D01*
X120788076Y-86961000D01*
X120560682Y-87006231D01*
X120346481Y-87094956D01*
X120153706Y-87223764D01*
X119989764Y-87387706D01*
X119860956Y-87580481D01*
X119772231Y-87794682D01*
X119727000Y-88022076D01*
X119727000Y-88253924D01*
X119772231Y-88481318D01*
X119860956Y-88695519D01*
X119989764Y-88888294D01*
X120153706Y-89052236D01*
X120346481Y-89181044D01*
X120511179Y-89249264D01*
X120272748Y-89333843D01*
X120022645Y-89482822D01*
X119806412Y-89677731D01*
X119632359Y-89911080D01*
X119507175Y-90173901D01*
X119462524Y-90321110D01*
X118491000Y-90321110D01*
X118491000Y-85482076D01*
X119727000Y-85482076D01*
X119727000Y-85713924D01*
X119772231Y-85941318D01*
X119860956Y-86155519D01*
X119989764Y-86348294D01*
X120153706Y-86512236D01*
X120346481Y-86641044D01*
X120560682Y-86729769D01*
X120788076Y-86775000D01*
X121019924Y-86775000D01*
X121247318Y-86729769D01*
X121461519Y-86641044D01*
X121654294Y-86512236D01*
X121818236Y-86348294D01*
X121947044Y-86155519D01*
X122035769Y-85941318D01*
X122081000Y-85713924D01*
X122081000Y-85482076D01*
X122267000Y-85482076D01*
X122267000Y-85713924D01*
X122312231Y-85941318D01*
X122400956Y-86155519D01*
X122529764Y-86348294D01*
X122693706Y-86512236D01*
X122886481Y-86641044D01*
X123100682Y-86729769D01*
X123328076Y-86775000D01*
X123559924Y-86775000D01*
X123787318Y-86729769D01*
X124001519Y-86641044D01*
X124194294Y-86512236D01*
X124358236Y-86348294D01*
X124487044Y-86155519D01*
X124575769Y-85941318D01*
X124621000Y-85713924D01*
X124621000Y-85482076D01*
X124575769Y-85254682D01*
X124487044Y-85040481D01*
X124358236Y-84847706D01*
X124194294Y-84683764D01*
X124001519Y-84554956D01*
X123787318Y-84466231D01*
X123559924Y-84421000D01*
X123328076Y-84421000D01*
X123100682Y-84466231D01*
X122886481Y-84554956D01*
X122693706Y-84683764D01*
X122529764Y-84847706D01*
X122400956Y-85040481D01*
X122312231Y-85254682D01*
X122267000Y-85482076D01*
X122081000Y-85482076D01*
X122035769Y-85254682D01*
X121947044Y-85040481D01*
X121818236Y-84847706D01*
X121654294Y-84683764D01*
X121461519Y-84554956D01*
X121247318Y-84466231D01*
X121019924Y-84421000D01*
X120788076Y-84421000D01*
X120560682Y-84466231D01*
X120346481Y-84554956D01*
X120153706Y-84683764D01*
X119989764Y-84847706D01*
X119860956Y-85040481D01*
X119772231Y-85254682D01*
X119727000Y-85482076D01*
X118491000Y-85482076D01*
X118491000Y-82942076D01*
X119727000Y-82942076D01*
X119727000Y-83173924D01*
X119772231Y-83401318D01*
X119860956Y-83615519D01*
X119989764Y-83808294D01*
X120153706Y-83972236D01*
X120346481Y-84101044D01*
X120560682Y-84189769D01*
X120788076Y-84235000D01*
X121019924Y-84235000D01*
X121247318Y-84189769D01*
X121461519Y-84101044D01*
X121654294Y-83972236D01*
X121818236Y-83808294D01*
X121947044Y-83615519D01*
X122035769Y-83401318D01*
X122081000Y-83173924D01*
X122081000Y-82942076D01*
X122267000Y-82942076D01*
X122267000Y-83173924D01*
X122312231Y-83401318D01*
X122400956Y-83615519D01*
X122529764Y-83808294D01*
X122693706Y-83972236D01*
X122886481Y-84101044D01*
X123100682Y-84189769D01*
X123328076Y-84235000D01*
X123559924Y-84235000D01*
X123787318Y-84189769D01*
X124001519Y-84101044D01*
X124194294Y-83972236D01*
X124358236Y-83808294D01*
X124487044Y-83615519D01*
X124575769Y-83401318D01*
X124621000Y-83173924D01*
X124621000Y-82942076D01*
X124575769Y-82714682D01*
X124487044Y-82500481D01*
X124358236Y-82307706D01*
X124194294Y-82143764D01*
X124001519Y-82014956D01*
X123787318Y-81926231D01*
X123559924Y-81881000D01*
X123328076Y-81881000D01*
X123100682Y-81926231D01*
X122886481Y-82014956D01*
X122693706Y-82143764D01*
X122529764Y-82307706D01*
X122400956Y-82500481D01*
X122312231Y-82714682D01*
X122267000Y-82942076D01*
X122081000Y-82942076D01*
X122035769Y-82714682D01*
X121947044Y-82500481D01*
X121818236Y-82307706D01*
X121654294Y-82143764D01*
X121461519Y-82014956D01*
X121247318Y-81926231D01*
X121019924Y-81881000D01*
X120788076Y-81881000D01*
X120560682Y-81926231D01*
X120346481Y-82014956D01*
X120153706Y-82143764D01*
X119989764Y-82307706D01*
X119860956Y-82500481D01*
X119772231Y-82714682D01*
X119727000Y-82942076D01*
X118491000Y-82942076D01*
X118491000Y-76890397D01*
X119161000Y-76890397D01*
X119161000Y-77033603D01*
X119188938Y-77174058D01*
X119243741Y-77306364D01*
X119323302Y-77425436D01*
X119424564Y-77526698D01*
X119543636Y-77606259D01*
X119675942Y-77661062D01*
X119816397Y-77689000D01*
X119959603Y-77689000D01*
X120100058Y-77661062D01*
X120232364Y-77606259D01*
X120351436Y-77526698D01*
X120452698Y-77425436D01*
X120532259Y-77306364D01*
X120587062Y-77174058D01*
X120615000Y-77033603D01*
X120615000Y-76984223D01*
X120691590Y-76907633D01*
X123654000Y-76907633D01*
X123654000Y-77016367D01*
X123675213Y-77123012D01*
X123716824Y-77223470D01*
X123777234Y-77313880D01*
X123779001Y-77315647D01*
X123779000Y-80751033D01*
X123776935Y-80772000D01*
X123779000Y-80792967D01*
X123779000Y-80792977D01*
X123785178Y-80855706D01*
X123809595Y-80936195D01*
X123809596Y-80936196D01*
X123849245Y-81010376D01*
X123874446Y-81041083D01*
X123902605Y-81075395D01*
X123918900Y-81088768D01*
X126194000Y-83363869D01*
X126194000Y-83366367D01*
X126215213Y-83473012D01*
X126256824Y-83573470D01*
X126317234Y-83663880D01*
X126394120Y-83740766D01*
X126484530Y-83801176D01*
X126584988Y-83842787D01*
X126691633Y-83864000D01*
X126800367Y-83864000D01*
X126907012Y-83842787D01*
X127007470Y-83801176D01*
X127097880Y-83740766D01*
X127174766Y-83663880D01*
X127235176Y-83573470D01*
X127276787Y-83473012D01*
X127298000Y-83366367D01*
X127298000Y-83257633D01*
X127276787Y-83150988D01*
X127235176Y-83050530D01*
X127174766Y-82960120D01*
X127098974Y-82884328D01*
X127104587Y-82883212D01*
X127205045Y-82841601D01*
X127295455Y-82781191D01*
X127372341Y-82704305D01*
X127432751Y-82613895D01*
X127474362Y-82513437D01*
X127495575Y-82406792D01*
X127495575Y-82404293D01*
X128956587Y-80943283D01*
X128972870Y-80929920D01*
X128986234Y-80913636D01*
X128986243Y-80913627D01*
X129026230Y-80864902D01*
X129056457Y-80808350D01*
X129065880Y-80790721D01*
X129090297Y-80710232D01*
X129096475Y-80647503D01*
X129096475Y-80647493D01*
X129098540Y-80626526D01*
X129096475Y-80605559D01*
X129096475Y-80472171D01*
X129098241Y-80470405D01*
X129158651Y-80379995D01*
X129200262Y-80279537D01*
X129221475Y-80172892D01*
X129221475Y-80064158D01*
X129219454Y-80054000D01*
X129248842Y-80054000D01*
X129355487Y-80032787D01*
X129455945Y-79991176D01*
X129546355Y-79930766D01*
X129623241Y-79853880D01*
X129683651Y-79763470D01*
X129725262Y-79663012D01*
X129746475Y-79556367D01*
X129746475Y-79447633D01*
X129725262Y-79340988D01*
X129683651Y-79240530D01*
X129623241Y-79150120D01*
X129546355Y-79073234D01*
X129455945Y-79012824D01*
X129355487Y-78971213D01*
X129248842Y-78950000D01*
X129246344Y-78950000D01*
X128840767Y-78544424D01*
X128827394Y-78528129D01*
X128762375Y-78474769D01*
X128688195Y-78435119D01*
X128607706Y-78410702D01*
X128544977Y-78404524D01*
X128544966Y-78404524D01*
X128523999Y-78402459D01*
X128503032Y-78404524D01*
X127676438Y-78404524D01*
X127655473Y-78402459D01*
X127634508Y-78404524D01*
X127634496Y-78404524D01*
X127571767Y-78410702D01*
X127491278Y-78435119D01*
X127456747Y-78453576D01*
X127417097Y-78474769D01*
X127368373Y-78514756D01*
X127368369Y-78514760D01*
X127352079Y-78528129D01*
X127338710Y-78544419D01*
X127095369Y-78787761D01*
X127079080Y-78801129D01*
X127065711Y-78817419D01*
X127065706Y-78817424D01*
X127025719Y-78866148D01*
X126992788Y-78927759D01*
X126986070Y-78940328D01*
X126965049Y-79009624D01*
X126961653Y-79020818D01*
X126953409Y-79104524D01*
X126955475Y-79125501D01*
X126955474Y-79465659D01*
X126876842Y-79544291D01*
X126838291Y-79486595D01*
X126836525Y-79484829D01*
X126836525Y-78601556D01*
X126898945Y-78575701D01*
X126989355Y-78515291D01*
X127066241Y-78438405D01*
X127126651Y-78347995D01*
X127168262Y-78247537D01*
X127189475Y-78140892D01*
X127189475Y-78032158D01*
X127168262Y-77925513D01*
X127126651Y-77825055D01*
X127066241Y-77734645D01*
X126989355Y-77657759D01*
X126898945Y-77597349D01*
X126798487Y-77555738D01*
X126691842Y-77534525D01*
X126583108Y-77534525D01*
X126476463Y-77555738D01*
X126376005Y-77597349D01*
X126285595Y-77657759D01*
X126208709Y-77734645D01*
X126148299Y-77825055D01*
X126106688Y-77925513D01*
X126085475Y-78032158D01*
X126085475Y-78036248D01*
X126052770Y-78076099D01*
X126029089Y-78120405D01*
X126013121Y-78150279D01*
X125988704Y-78230768D01*
X125984249Y-78276000D01*
X125980460Y-78314475D01*
X125982526Y-78335452D01*
X125982525Y-79484829D01*
X125980759Y-79486595D01*
X125920349Y-79577005D01*
X125895842Y-79636171D01*
X125728153Y-79468483D01*
X125752787Y-79409012D01*
X125774000Y-79302367D01*
X125774000Y-79193633D01*
X125752787Y-79086988D01*
X125711176Y-78986530D01*
X125650766Y-78896120D01*
X125573880Y-78819234D01*
X125483470Y-78758824D01*
X125383012Y-78717213D01*
X125276367Y-78696000D01*
X125167633Y-78696000D01*
X125060988Y-78717213D01*
X124960530Y-78758824D01*
X124870120Y-78819234D01*
X124793234Y-78896120D01*
X124732824Y-78986530D01*
X124691213Y-79086988D01*
X124670000Y-79193633D01*
X124670000Y-79302367D01*
X124691213Y-79409012D01*
X124732824Y-79509470D01*
X124793234Y-79599880D01*
X124796581Y-79603227D01*
X124801178Y-79649905D01*
X124823086Y-79722120D01*
X124825596Y-79730394D01*
X124865245Y-79804574D01*
X124905232Y-79853298D01*
X124905237Y-79853303D01*
X124918606Y-79869593D01*
X124934895Y-79882961D01*
X125702519Y-80650587D01*
X125715883Y-80666871D01*
X125732167Y-80680235D01*
X125732176Y-80680244D01*
X125780901Y-80720231D01*
X125820551Y-80741424D01*
X125855082Y-80759881D01*
X125935571Y-80784298D01*
X125998300Y-80790476D01*
X125998312Y-80790476D01*
X126019277Y-80792541D01*
X126040242Y-80790476D01*
X126216442Y-80790476D01*
X126187374Y-80833980D01*
X126145763Y-80934438D01*
X126124550Y-81041083D01*
X126124550Y-81149817D01*
X126145763Y-81256462D01*
X126187374Y-81356920D01*
X126247784Y-81447330D01*
X126324670Y-81524216D01*
X126415080Y-81584626D01*
X126515538Y-81626237D01*
X126622183Y-81647450D01*
X126730917Y-81647450D01*
X126837562Y-81626237D01*
X126938020Y-81584626D01*
X127028430Y-81524216D01*
X127105316Y-81447330D01*
X127165726Y-81356920D01*
X127207337Y-81256462D01*
X127228550Y-81149817D01*
X127228550Y-81147318D01*
X128131661Y-80244208D01*
X128138688Y-80279537D01*
X128180299Y-80379995D01*
X128233105Y-80459025D01*
X126891707Y-81800425D01*
X126889208Y-81800425D01*
X126782563Y-81821638D01*
X126682105Y-81863249D01*
X126591695Y-81923659D01*
X126514809Y-82000545D01*
X126454399Y-82090955D01*
X126412788Y-82191413D01*
X126391575Y-82298058D01*
X126391575Y-82353706D01*
X124633000Y-80595132D01*
X124633000Y-77315646D01*
X124634766Y-77313880D01*
X124695176Y-77223470D01*
X124736787Y-77123012D01*
X124758000Y-77016367D01*
X124758000Y-76907633D01*
X124736787Y-76800988D01*
X124695176Y-76700530D01*
X124634766Y-76610120D01*
X124557880Y-76533234D01*
X124467470Y-76472824D01*
X124367012Y-76431213D01*
X124260367Y-76410000D01*
X124151633Y-76410000D01*
X124044988Y-76431213D01*
X123944530Y-76472824D01*
X123854120Y-76533234D01*
X123777234Y-76610120D01*
X123716824Y-76700530D01*
X123675213Y-76800988D01*
X123654000Y-76907633D01*
X120691590Y-76907633D01*
X121388908Y-76210317D01*
X121402397Y-76213000D01*
X121545603Y-76213000D01*
X121686058Y-76185062D01*
X121818364Y-76130259D01*
X121937436Y-76050698D01*
X122038698Y-75949436D01*
X122118259Y-75830364D01*
X122173062Y-75698058D01*
X122201000Y-75557603D01*
X122201000Y-75414397D01*
X122173062Y-75273942D01*
X122118259Y-75141636D01*
X122038698Y-75022564D01*
X121937436Y-74921302D01*
X121818364Y-74841741D01*
X121686058Y-74786938D01*
X121545603Y-74759000D01*
X121402397Y-74759000D01*
X121261942Y-74786938D01*
X121129636Y-74841741D01*
X121010564Y-74921302D01*
X120909302Y-75022564D01*
X120829741Y-75141636D01*
X120774938Y-75273942D01*
X120747000Y-75414397D01*
X120747000Y-75557603D01*
X120749683Y-75571092D01*
X120064843Y-76255933D01*
X119959603Y-76235000D01*
X119816397Y-76235000D01*
X119675942Y-76262938D01*
X119543636Y-76317741D01*
X119424564Y-76397302D01*
X119323302Y-76498564D01*
X119243741Y-76617636D01*
X119188938Y-76749942D01*
X119161000Y-76890397D01*
X118491000Y-76890397D01*
X118491000Y-74166851D01*
X132335154Y-74040995D01*
X132358776Y-74038560D01*
X132382601Y-74031333D01*
X132404557Y-74019597D01*
X132423803Y-74003803D01*
X132439597Y-73984557D01*
X132451333Y-73962601D01*
X132458560Y-73938776D01*
X132461000Y-73914000D01*
X132461000Y-70264634D01*
X136295107Y-70264634D01*
X136295107Y-70373368D01*
X136316320Y-70480013D01*
X136357931Y-70580471D01*
X136418341Y-70670881D01*
X136495227Y-70747767D01*
X136585637Y-70808177D01*
X136686095Y-70849788D01*
X136792740Y-70871001D01*
X136901474Y-70871001D01*
X137008119Y-70849788D01*
X137108577Y-70808177D01*
X137198987Y-70747767D01*
X137275873Y-70670881D01*
X137336283Y-70580471D01*
X137377894Y-70480013D01*
X137399107Y-70373368D01*
X137399107Y-70264634D01*
X137377894Y-70157989D01*
X137336283Y-70057531D01*
X137275873Y-69967121D01*
X137274107Y-69965355D01*
X137274107Y-68530539D01*
X137334766Y-68469880D01*
X137395176Y-68379470D01*
X137436787Y-68279012D01*
X137458000Y-68172367D01*
X137458000Y-68063633D01*
X137436787Y-67956988D01*
X137395176Y-67856530D01*
X137334766Y-67766120D01*
X137332279Y-67763633D01*
X139910000Y-67763633D01*
X139910000Y-67872367D01*
X139931213Y-67979012D01*
X139972824Y-68079470D01*
X140033234Y-68169880D01*
X140110120Y-68246766D01*
X140200530Y-68307176D01*
X140300988Y-68348787D01*
X140407633Y-68370000D01*
X140516367Y-68370000D01*
X140623012Y-68348787D01*
X140690101Y-68320998D01*
X142769333Y-68320998D01*
X142777894Y-68329559D01*
X142791267Y-68345854D01*
X142856286Y-68399214D01*
X142930466Y-68438864D01*
X143010955Y-68463281D01*
X143073684Y-68469459D01*
X143073695Y-68469459D01*
X143094662Y-68471524D01*
X143115629Y-68469459D01*
X144419760Y-68469459D01*
X144421526Y-68471225D01*
X144511936Y-68531635D01*
X144612394Y-68573246D01*
X144719039Y-68594459D01*
X144827773Y-68594459D01*
X144871407Y-68585780D01*
X144871408Y-75758723D01*
X143458132Y-77172000D01*
X143455633Y-77172000D01*
X143348988Y-77193213D01*
X143286997Y-77218890D01*
X143286997Y-72708871D01*
X144106351Y-71889518D01*
X144108849Y-71889518D01*
X144215494Y-71868305D01*
X144315952Y-71826694D01*
X144406362Y-71766284D01*
X144483248Y-71689398D01*
X144543658Y-71598988D01*
X144585269Y-71498530D01*
X144606482Y-71391885D01*
X144606482Y-71283151D01*
X144585269Y-71176506D01*
X144543658Y-71076048D01*
X144483248Y-70985638D01*
X144406362Y-70908752D01*
X144315952Y-70848342D01*
X144215494Y-70806731D01*
X144108849Y-70785518D01*
X144000115Y-70785518D01*
X143893470Y-70806731D01*
X143793012Y-70848342D01*
X143702602Y-70908752D01*
X143625716Y-70985638D01*
X143565306Y-71076048D01*
X143523695Y-71176506D01*
X143502482Y-71283151D01*
X143502482Y-71285649D01*
X142572897Y-72215235D01*
X142556602Y-72228608D01*
X142543230Y-72244902D01*
X142543229Y-72244903D01*
X142503242Y-72293627D01*
X142482049Y-72333277D01*
X142463592Y-72367808D01*
X142439175Y-72448297D01*
X142432997Y-72511026D01*
X142432997Y-72511036D01*
X142430932Y-72532003D01*
X142432997Y-72552970D01*
X142432998Y-77370353D01*
X142431231Y-77372120D01*
X142370821Y-77462530D01*
X142329210Y-77562988D01*
X142307997Y-77669633D01*
X142307997Y-77778367D01*
X142329210Y-77885012D01*
X142370821Y-77985470D01*
X142431231Y-78075880D01*
X142508117Y-78152766D01*
X142598527Y-78213176D01*
X142698985Y-78254787D01*
X142805630Y-78276000D01*
X142914364Y-78276000D01*
X143021009Y-78254787D01*
X143121467Y-78213176D01*
X143184999Y-78170726D01*
X143248530Y-78213176D01*
X143348988Y-78254787D01*
X143455633Y-78276000D01*
X143564367Y-78276000D01*
X143671012Y-78254787D01*
X143771470Y-78213176D01*
X143861880Y-78152766D01*
X143938766Y-78075880D01*
X143999176Y-77985470D01*
X144040787Y-77885012D01*
X144062000Y-77778367D01*
X144062000Y-77775868D01*
X145585512Y-76252357D01*
X145601802Y-76238988D01*
X145615171Y-76222698D01*
X145615174Y-76222695D01*
X145655162Y-76173970D01*
X145694811Y-76099790D01*
X145694812Y-76099789D01*
X145719229Y-76019300D01*
X145725407Y-75956571D01*
X145725407Y-75956559D01*
X145727472Y-75935594D01*
X145725407Y-75914629D01*
X145725407Y-67531176D01*
X145727472Y-67510209D01*
X145725407Y-67489242D01*
X145725407Y-67489231D01*
X145719229Y-67426502D01*
X145694812Y-67346013D01*
X145655162Y-67271833D01*
X145601802Y-67206814D01*
X145585508Y-67193442D01*
X145406667Y-67014601D01*
X145393294Y-66998306D01*
X145328275Y-66944946D01*
X145254095Y-66905296D01*
X145173606Y-66880879D01*
X145126928Y-66876282D01*
X145123581Y-66872935D01*
X145033171Y-66812525D01*
X144932713Y-66770914D01*
X144826068Y-66749701D01*
X144717334Y-66749701D01*
X144610689Y-66770914D01*
X144510231Y-66812525D01*
X144419821Y-66872935D01*
X144342935Y-66949821D01*
X144282525Y-67040231D01*
X144240914Y-67140689D01*
X144219701Y-67247334D01*
X144219701Y-67356068D01*
X144240914Y-67462713D01*
X144282525Y-67563171D01*
X144317463Y-67615459D01*
X143297854Y-67615459D01*
X143242360Y-67547839D01*
X143173534Y-67491355D01*
X143095011Y-67449384D01*
X143009808Y-67423538D01*
X142943406Y-67416998D01*
X140841644Y-67416998D01*
X140813880Y-67389234D01*
X140723470Y-67328824D01*
X140623012Y-67287213D01*
X140516367Y-67266000D01*
X140407633Y-67266000D01*
X140300988Y-67287213D01*
X140200530Y-67328824D01*
X140110120Y-67389234D01*
X140033234Y-67466120D01*
X139972824Y-67556530D01*
X139931213Y-67656988D01*
X139910000Y-67763633D01*
X137332279Y-67763633D01*
X137257880Y-67689234D01*
X137167470Y-67628824D01*
X137067012Y-67587213D01*
X136960367Y-67566000D01*
X136851633Y-67566000D01*
X136744988Y-67587213D01*
X136644530Y-67628824D01*
X136554120Y-67689234D01*
X136477234Y-67766120D01*
X136416824Y-67856530D01*
X136375213Y-67956988D01*
X136354000Y-68063633D01*
X136354000Y-68172367D01*
X136375213Y-68279012D01*
X136416824Y-68379470D01*
X136420108Y-68384385D01*
X136420107Y-69965355D01*
X136418341Y-69967121D01*
X136357931Y-70057531D01*
X136316320Y-70157989D01*
X136295107Y-70264634D01*
X132461000Y-70264634D01*
X132461000Y-65558114D01*
X140337519Y-65558114D01*
X140337519Y-65666848D01*
X140358732Y-65773493D01*
X140400343Y-65873951D01*
X140460753Y-65964361D01*
X140537639Y-66041247D01*
X140628049Y-66101657D01*
X140728507Y-66143268D01*
X140835152Y-66164481D01*
X140943886Y-66164481D01*
X141050531Y-66143268D01*
X141150989Y-66101657D01*
X141241399Y-66041247D01*
X141318285Y-65964361D01*
X141378695Y-65873951D01*
X141420306Y-65773493D01*
X141441519Y-65666848D01*
X141441519Y-65664349D01*
X141628235Y-65477633D01*
X146514000Y-65477633D01*
X146514000Y-65586367D01*
X146535213Y-65693012D01*
X146576824Y-65793470D01*
X146637234Y-65883880D01*
X146714120Y-65960766D01*
X146804530Y-66021176D01*
X146904988Y-66062787D01*
X147011633Y-66084000D01*
X147120367Y-66084000D01*
X147227012Y-66062787D01*
X147327470Y-66021176D01*
X147417880Y-65960766D01*
X147494766Y-65883880D01*
X147555176Y-65793470D01*
X147596787Y-65693012D01*
X147618000Y-65586367D01*
X147618000Y-65477633D01*
X147596787Y-65370988D01*
X147555176Y-65270530D01*
X147518000Y-65214892D01*
X147518000Y-63745164D01*
X151789784Y-63745164D01*
X151793826Y-63933827D01*
X151954974Y-64000328D01*
X152125998Y-64034113D01*
X152300328Y-64033884D01*
X152471264Y-63999649D01*
X152630174Y-63933827D01*
X152634216Y-63745164D01*
X152212000Y-63322948D01*
X151789784Y-63745164D01*
X147518000Y-63745164D01*
X147518000Y-62487998D01*
X150376887Y-62487998D01*
X150377116Y-62662328D01*
X150411351Y-62833264D01*
X150477173Y-62992174D01*
X150665836Y-62996216D01*
X151088052Y-62574000D01*
X150665836Y-62151784D01*
X150477173Y-62155826D01*
X150410672Y-62316974D01*
X150376887Y-62487998D01*
X147518000Y-62487998D01*
X147518000Y-61977836D01*
X150839784Y-61977836D01*
X151262000Y-62400052D01*
X151278971Y-62383081D01*
X151452919Y-62557029D01*
X151435948Y-62574000D01*
X151452919Y-62590971D01*
X151278971Y-62764919D01*
X151262000Y-62747948D01*
X150839784Y-63170164D01*
X150843826Y-63358827D01*
X151004974Y-63425328D01*
X151175998Y-63459113D01*
X151350328Y-63458884D01*
X151379868Y-63452968D01*
X151427173Y-63567174D01*
X151615836Y-63571216D01*
X152038052Y-63149000D01*
X152021081Y-63132029D01*
X152195029Y-62958081D01*
X152212000Y-62975052D01*
X152228971Y-62958081D01*
X152402919Y-63132029D01*
X152385948Y-63149000D01*
X152808164Y-63571216D01*
X152996827Y-63567174D01*
X153044027Y-63452797D01*
X153075998Y-63459113D01*
X153250328Y-63458884D01*
X153421264Y-63424649D01*
X153580174Y-63358827D01*
X153584216Y-63170164D01*
X153162000Y-62747948D01*
X153145029Y-62764919D01*
X152971081Y-62590971D01*
X152988052Y-62574000D01*
X153335948Y-62574000D01*
X153758164Y-62996216D01*
X153946827Y-62992174D01*
X154013328Y-62831026D01*
X154047113Y-62660002D01*
X154046884Y-62485672D01*
X154012649Y-62314736D01*
X153946827Y-62155826D01*
X153758164Y-62151784D01*
X153335948Y-62574000D01*
X152988052Y-62574000D01*
X152971081Y-62557029D01*
X153145029Y-62383081D01*
X153162000Y-62400052D01*
X153584216Y-61977836D01*
X153580174Y-61789173D01*
X153419026Y-61722672D01*
X153248002Y-61688887D01*
X153073672Y-61689116D01*
X153044132Y-61695032D01*
X152996827Y-61580826D01*
X152808164Y-61576784D01*
X152385948Y-61999000D01*
X152402919Y-62015971D01*
X152228971Y-62189919D01*
X152212000Y-62172948D01*
X152195029Y-62189919D01*
X152021081Y-62015971D01*
X152038052Y-61999000D01*
X151615836Y-61576784D01*
X151427173Y-61580826D01*
X151379973Y-61695203D01*
X151348002Y-61688887D01*
X151173672Y-61689116D01*
X151002736Y-61723351D01*
X150843826Y-61789173D01*
X150839784Y-61977836D01*
X147518000Y-61977836D01*
X147518000Y-61402836D01*
X151789784Y-61402836D01*
X152212000Y-61825052D01*
X152634216Y-61402836D01*
X152630174Y-61214173D01*
X152469026Y-61147672D01*
X152298002Y-61113887D01*
X152123672Y-61114116D01*
X151952736Y-61148351D01*
X151793826Y-61214173D01*
X151789784Y-61402836D01*
X147518000Y-61402836D01*
X147518000Y-59880722D01*
X147541880Y-59864766D01*
X147618766Y-59787880D01*
X147679176Y-59697470D01*
X147720787Y-59597012D01*
X147742000Y-59490367D01*
X147742000Y-59381633D01*
X147720787Y-59274988D01*
X147679176Y-59174530D01*
X147618766Y-59084120D01*
X147541880Y-59007234D01*
X147451470Y-58946824D01*
X147351012Y-58905213D01*
X147244367Y-58884000D01*
X147135633Y-58884000D01*
X147028988Y-58905213D01*
X146928530Y-58946824D01*
X146838120Y-59007234D01*
X146761234Y-59084120D01*
X146700824Y-59174530D01*
X146659213Y-59274988D01*
X146638000Y-59381633D01*
X146638000Y-59413836D01*
X146620540Y-59471393D01*
X146611813Y-59560000D01*
X146614001Y-59582215D01*
X146614000Y-65214892D01*
X146576824Y-65270530D01*
X146535213Y-65370988D01*
X146514000Y-65477633D01*
X141628235Y-65477633D01*
X141908869Y-65197000D01*
X142394354Y-65197000D01*
X142396120Y-65198766D01*
X142486530Y-65259176D01*
X142586988Y-65300787D01*
X142693633Y-65322000D01*
X142802367Y-65322000D01*
X142909012Y-65300787D01*
X143009470Y-65259176D01*
X143099880Y-65198766D01*
X143176766Y-65121880D01*
X143237176Y-65031470D01*
X143278787Y-64931012D01*
X143300000Y-64824367D01*
X143300000Y-64715633D01*
X143278787Y-64608988D01*
X143237176Y-64508530D01*
X143176766Y-64418120D01*
X143099880Y-64341234D01*
X143009470Y-64280824D01*
X142909012Y-64239213D01*
X142802367Y-64218000D01*
X142693633Y-64218000D01*
X142586988Y-64239213D01*
X142486530Y-64280824D01*
X142396120Y-64341234D01*
X142394354Y-64343000D01*
X141752966Y-64343000D01*
X141731999Y-64340935D01*
X141711032Y-64343000D01*
X141711022Y-64343000D01*
X141648293Y-64349178D01*
X141567804Y-64373595D01*
X141533273Y-64392052D01*
X141493623Y-64413245D01*
X141444899Y-64453232D01*
X141444895Y-64453236D01*
X141428605Y-64466605D01*
X141415236Y-64482895D01*
X140837651Y-65060481D01*
X140835152Y-65060481D01*
X140728507Y-65081694D01*
X140628049Y-65123305D01*
X140537639Y-65183715D01*
X140460753Y-65260601D01*
X140400343Y-65351011D01*
X140358732Y-65451469D01*
X140337519Y-65558114D01*
X132461000Y-65558114D01*
X132461000Y-57531000D01*
X155321000Y-57531000D01*
X155321000Y-94361000D01*
G37*
%TD.AperFunction*%
%TD*%
M02*
