%TF.GenerationSoftware,KiCad,Pcbnew,(5.1.9)-1*%
%TF.CreationDate,2021-02-10T20:47:27+02:00*%
%TF.ProjectId,RVP_saatja,5256505f-7361-4617-946a-612e6b696361,rev?*%
%TF.SameCoordinates,Original*%
%TF.FileFunction,Copper,L1,Top*%
%TF.FilePolarity,Positive*%
%FSLAX46Y46*%
G04 Gerber Fmt 4.6, Leading zero omitted, Abs format (unit mm)*
G04 Created by KiCad (PCBNEW (5.1.9)-1) date 2021-02-10 20:47:27*
%MOMM*%
%LPD*%
G01*
G04 APERTURE LIST*
%TA.AperFunction,SMDPad,CuDef*%
%ADD10R,0.900000X1.200000*%
%TD*%
%TA.AperFunction,ComponentPad*%
%ADD11O,1.700000X1.700000*%
%TD*%
%TA.AperFunction,ComponentPad*%
%ADD12R,1.700000X1.700000*%
%TD*%
%TA.AperFunction,SMDPad,CuDef*%
%ADD13R,0.400000X1.400000*%
%TD*%
%TA.AperFunction,SMDPad,CuDef*%
%ADD14R,2.300000X1.900000*%
%TD*%
%TA.AperFunction,SMDPad,CuDef*%
%ADD15R,1.800000X1.900000*%
%TD*%
%TA.AperFunction,SMDPad,CuDef*%
%ADD16R,1.700000X2.400000*%
%TD*%
%TA.AperFunction,SMDPad,CuDef*%
%ADD17R,0.400000X1.200000*%
%TD*%
%TA.AperFunction,SMDPad,CuDef*%
%ADD18R,1.000000X2.000000*%
%TD*%
%TA.AperFunction,SMDPad,CuDef*%
%ADD19R,0.550000X1.500000*%
%TD*%
%TA.AperFunction,SMDPad,CuDef*%
%ADD20R,1.500000X0.550000*%
%TD*%
%TA.AperFunction,ComponentPad*%
%ADD21C,0.500000*%
%TD*%
%TA.AperFunction,SMDPad,CuDef*%
%ADD22C,0.100000*%
%TD*%
%TA.AperFunction,SMDPad,CuDef*%
%ADD23R,0.240000X0.600000*%
%TD*%
%TA.AperFunction,ViaPad*%
%ADD24C,0.450000*%
%TD*%
%TA.AperFunction,ViaPad*%
%ADD25C,0.800000*%
%TD*%
%TA.AperFunction,Conductor*%
%ADD26C,0.250000*%
%TD*%
%TA.AperFunction,Conductor*%
%ADD27C,0.200000*%
%TD*%
%TA.AperFunction,Conductor*%
%ADD28C,0.254000*%
%TD*%
%TA.AperFunction,Conductor*%
%ADD29C,0.100000*%
%TD*%
G04 APERTURE END LIST*
D10*
%TO.P,D4,2*%
%TO.N,PROG_RESET_FLIP*%
X135812800Y-91846400D03*
%TO.P,D4,1*%
%TO.N,PROG_RESET*%
X132512800Y-91846400D03*
%TD*%
%TO.P,C9,2*%
%TO.N,GND*%
%TA.AperFunction,SMDPad,CuDef*%
G36*
G01*
X146308000Y-90736000D02*
X146808000Y-90736000D01*
G75*
G02*
X147033000Y-90961000I0J-225000D01*
G01*
X147033000Y-91411000D01*
G75*
G02*
X146808000Y-91636000I-225000J0D01*
G01*
X146308000Y-91636000D01*
G75*
G02*
X146083000Y-91411000I0J225000D01*
G01*
X146083000Y-90961000D01*
G75*
G02*
X146308000Y-90736000I225000J0D01*
G01*
G37*
%TD.AperFunction*%
%TO.P,C9,1*%
%TO.N,Net-(C9-Pad1)*%
%TA.AperFunction,SMDPad,CuDef*%
G36*
G01*
X146308000Y-89186000D02*
X146808000Y-89186000D01*
G75*
G02*
X147033000Y-89411000I0J-225000D01*
G01*
X147033000Y-89861000D01*
G75*
G02*
X146808000Y-90086000I-225000J0D01*
G01*
X146308000Y-90086000D01*
G75*
G02*
X146083000Y-89861000I0J225000D01*
G01*
X146083000Y-89411000D01*
G75*
G02*
X146308000Y-89186000I225000J0D01*
G01*
G37*
%TD.AperFunction*%
%TD*%
%TO.P,R10,2*%
%TO.N,VCC*%
%TA.AperFunction,SMDPad,CuDef*%
G36*
G01*
X124947000Y-78911000D02*
X125497000Y-78911000D01*
G75*
G02*
X125697000Y-79111000I0J-200000D01*
G01*
X125697000Y-79511000D01*
G75*
G02*
X125497000Y-79711000I-200000J0D01*
G01*
X124947000Y-79711000D01*
G75*
G02*
X124747000Y-79511000I0J200000D01*
G01*
X124747000Y-79111000D01*
G75*
G02*
X124947000Y-78911000I200000J0D01*
G01*
G37*
%TD.AperFunction*%
%TO.P,R10,1*%
%TO.N,CSN*%
%TA.AperFunction,SMDPad,CuDef*%
G36*
G01*
X124947000Y-77261000D02*
X125497000Y-77261000D01*
G75*
G02*
X125697000Y-77461000I0J-200000D01*
G01*
X125697000Y-77861000D01*
G75*
G02*
X125497000Y-78061000I-200000J0D01*
G01*
X124947000Y-78061000D01*
G75*
G02*
X124747000Y-77861000I0J200000D01*
G01*
X124747000Y-77461000D01*
G75*
G02*
X124947000Y-77261000I200000J0D01*
G01*
G37*
%TD.AperFunction*%
%TD*%
%TO.P,C17,2*%
%TO.N,VCC*%
%TA.AperFunction,SMDPad,CuDef*%
G36*
G01*
X145979000Y-74172000D02*
X145979000Y-74672000D01*
G75*
G02*
X145754000Y-74897000I-225000J0D01*
G01*
X145304000Y-74897000D01*
G75*
G02*
X145079000Y-74672000I0J225000D01*
G01*
X145079000Y-74172000D01*
G75*
G02*
X145304000Y-73947000I225000J0D01*
G01*
X145754000Y-73947000D01*
G75*
G02*
X145979000Y-74172000I0J-225000D01*
G01*
G37*
%TD.AperFunction*%
%TO.P,C17,1*%
%TO.N,GND*%
%TA.AperFunction,SMDPad,CuDef*%
G36*
G01*
X147529000Y-74172000D02*
X147529000Y-74672000D01*
G75*
G02*
X147304000Y-74897000I-225000J0D01*
G01*
X146854000Y-74897000D01*
G75*
G02*
X146629000Y-74672000I0J225000D01*
G01*
X146629000Y-74172000D01*
G75*
G02*
X146854000Y-73947000I225000J0D01*
G01*
X147304000Y-73947000D01*
G75*
G02*
X147529000Y-74172000I0J-225000D01*
G01*
G37*
%TD.AperFunction*%
%TD*%
%TO.P,C16,2*%
%TO.N,VCC*%
%TA.AperFunction,SMDPad,CuDef*%
G36*
G01*
X137851000Y-89412000D02*
X137851000Y-89912000D01*
G75*
G02*
X137626000Y-90137000I-225000J0D01*
G01*
X137176000Y-90137000D01*
G75*
G02*
X136951000Y-89912000I0J225000D01*
G01*
X136951000Y-89412000D01*
G75*
G02*
X137176000Y-89187000I225000J0D01*
G01*
X137626000Y-89187000D01*
G75*
G02*
X137851000Y-89412000I0J-225000D01*
G01*
G37*
%TD.AperFunction*%
%TO.P,C16,1*%
%TO.N,GND*%
%TA.AperFunction,SMDPad,CuDef*%
G36*
G01*
X139401000Y-89412000D02*
X139401000Y-89912000D01*
G75*
G02*
X139176000Y-90137000I-225000J0D01*
G01*
X138726000Y-90137000D01*
G75*
G02*
X138501000Y-89912000I0J225000D01*
G01*
X138501000Y-89412000D01*
G75*
G02*
X138726000Y-89187000I225000J0D01*
G01*
X139176000Y-89187000D01*
G75*
G02*
X139401000Y-89412000I0J-225000D01*
G01*
G37*
%TD.AperFunction*%
%TD*%
%TO.P,C15,2*%
%TO.N,Net-(C15-Pad2)*%
%TA.AperFunction,SMDPad,CuDef*%
G36*
G01*
X132592000Y-83129000D02*
X133092000Y-83129000D01*
G75*
G02*
X133317000Y-83354000I0J-225000D01*
G01*
X133317000Y-83804000D01*
G75*
G02*
X133092000Y-84029000I-225000J0D01*
G01*
X132592000Y-84029000D01*
G75*
G02*
X132367000Y-83804000I0J225000D01*
G01*
X132367000Y-83354000D01*
G75*
G02*
X132592000Y-83129000I225000J0D01*
G01*
G37*
%TD.AperFunction*%
%TO.P,C15,1*%
%TO.N,GND*%
%TA.AperFunction,SMDPad,CuDef*%
G36*
G01*
X132592000Y-81579000D02*
X133092000Y-81579000D01*
G75*
G02*
X133317000Y-81804000I0J-225000D01*
G01*
X133317000Y-82254000D01*
G75*
G02*
X133092000Y-82479000I-225000J0D01*
G01*
X132592000Y-82479000D01*
G75*
G02*
X132367000Y-82254000I0J225000D01*
G01*
X132367000Y-81804000D01*
G75*
G02*
X132592000Y-81579000I225000J0D01*
G01*
G37*
%TD.AperFunction*%
%TD*%
%TO.P,C14,2*%
%TO.N,VCC*%
%TA.AperFunction,SMDPad,CuDef*%
G36*
G01*
X148332000Y-85527000D02*
X147832000Y-85527000D01*
G75*
G02*
X147607000Y-85302000I0J225000D01*
G01*
X147607000Y-84852000D01*
G75*
G02*
X147832000Y-84627000I225000J0D01*
G01*
X148332000Y-84627000D01*
G75*
G02*
X148557000Y-84852000I0J-225000D01*
G01*
X148557000Y-85302000D01*
G75*
G02*
X148332000Y-85527000I-225000J0D01*
G01*
G37*
%TD.AperFunction*%
%TO.P,C14,1*%
%TO.N,GND*%
%TA.AperFunction,SMDPad,CuDef*%
G36*
G01*
X148332000Y-87077000D02*
X147832000Y-87077000D01*
G75*
G02*
X147607000Y-86852000I0J225000D01*
G01*
X147607000Y-86402000D01*
G75*
G02*
X147832000Y-86177000I225000J0D01*
G01*
X148332000Y-86177000D01*
G75*
G02*
X148557000Y-86402000I0J-225000D01*
G01*
X148557000Y-86852000D01*
G75*
G02*
X148332000Y-87077000I-225000J0D01*
G01*
G37*
%TD.AperFunction*%
%TD*%
%TO.P,C13,2*%
%TO.N,VCC*%
%TA.AperFunction,SMDPad,CuDef*%
G36*
G01*
X133092000Y-79431000D02*
X132592000Y-79431000D01*
G75*
G02*
X132367000Y-79206000I0J225000D01*
G01*
X132367000Y-78756000D01*
G75*
G02*
X132592000Y-78531000I225000J0D01*
G01*
X133092000Y-78531000D01*
G75*
G02*
X133317000Y-78756000I0J-225000D01*
G01*
X133317000Y-79206000D01*
G75*
G02*
X133092000Y-79431000I-225000J0D01*
G01*
G37*
%TD.AperFunction*%
%TO.P,C13,1*%
%TO.N,GND*%
%TA.AperFunction,SMDPad,CuDef*%
G36*
G01*
X133092000Y-80981000D02*
X132592000Y-80981000D01*
G75*
G02*
X132367000Y-80756000I0J225000D01*
G01*
X132367000Y-80306000D01*
G75*
G02*
X132592000Y-80081000I225000J0D01*
G01*
X133092000Y-80081000D01*
G75*
G02*
X133317000Y-80306000I0J-225000D01*
G01*
X133317000Y-80756000D01*
G75*
G02*
X133092000Y-80981000I-225000J0D01*
G01*
G37*
%TD.AperFunction*%
%TD*%
%TO.P,C12,2*%
%TO.N,Net-(C12-Pad2)*%
%TA.AperFunction,SMDPad,CuDef*%
G36*
G01*
X149602000Y-61905000D02*
X149102000Y-61905000D01*
G75*
G02*
X148877000Y-61680000I0J225000D01*
G01*
X148877000Y-61230000D01*
G75*
G02*
X149102000Y-61005000I225000J0D01*
G01*
X149602000Y-61005000D01*
G75*
G02*
X149827000Y-61230000I0J-225000D01*
G01*
X149827000Y-61680000D01*
G75*
G02*
X149602000Y-61905000I-225000J0D01*
G01*
G37*
%TD.AperFunction*%
%TO.P,C12,1*%
%TO.N,GND*%
%TA.AperFunction,SMDPad,CuDef*%
G36*
G01*
X149602000Y-63455000D02*
X149102000Y-63455000D01*
G75*
G02*
X148877000Y-63230000I0J225000D01*
G01*
X148877000Y-62780000D01*
G75*
G02*
X149102000Y-62555000I225000J0D01*
G01*
X149602000Y-62555000D01*
G75*
G02*
X149827000Y-62780000I0J-225000D01*
G01*
X149827000Y-63230000D01*
G75*
G02*
X149602000Y-63455000I-225000J0D01*
G01*
G37*
%TD.AperFunction*%
%TD*%
%TO.P,C11,2*%
%TO.N,VCC*%
%TA.AperFunction,SMDPad,CuDef*%
G36*
G01*
X136835000Y-74172000D02*
X136835000Y-74672000D01*
G75*
G02*
X136610000Y-74897000I-225000J0D01*
G01*
X136160000Y-74897000D01*
G75*
G02*
X135935000Y-74672000I0J225000D01*
G01*
X135935000Y-74172000D01*
G75*
G02*
X136160000Y-73947000I225000J0D01*
G01*
X136610000Y-73947000D01*
G75*
G02*
X136835000Y-74172000I0J-225000D01*
G01*
G37*
%TD.AperFunction*%
%TO.P,C11,1*%
%TO.N,GND*%
%TA.AperFunction,SMDPad,CuDef*%
G36*
G01*
X138385000Y-74172000D02*
X138385000Y-74672000D01*
G75*
G02*
X138160000Y-74897000I-225000J0D01*
G01*
X137710000Y-74897000D01*
G75*
G02*
X137485000Y-74672000I0J225000D01*
G01*
X137485000Y-74172000D01*
G75*
G02*
X137710000Y-73947000I225000J0D01*
G01*
X138160000Y-73947000D01*
G75*
G02*
X138385000Y-74172000I0J-225000D01*
G01*
G37*
%TD.AperFunction*%
%TD*%
%TO.P,C4,2*%
%TO.N,GND*%
%TA.AperFunction,SMDPad,CuDef*%
G36*
G01*
X122541000Y-79411003D02*
X122541000Y-77560997D01*
G75*
G02*
X122790997Y-77311000I249997J0D01*
G01*
X123616003Y-77311000D01*
G75*
G02*
X123866000Y-77560997I0J-249997D01*
G01*
X123866000Y-79411003D01*
G75*
G02*
X123616003Y-79661000I-249997J0D01*
G01*
X122790997Y-79661000D01*
G75*
G02*
X122541000Y-79411003I0J249997D01*
G01*
G37*
%TD.AperFunction*%
%TO.P,C4,1*%
%TO.N,VCC*%
%TA.AperFunction,SMDPad,CuDef*%
G36*
G01*
X119466000Y-79411003D02*
X119466000Y-77560997D01*
G75*
G02*
X119715997Y-77311000I249997J0D01*
G01*
X120541003Y-77311000D01*
G75*
G02*
X120791000Y-77560997I0J-249997D01*
G01*
X120791000Y-79411003D01*
G75*
G02*
X120541003Y-79661000I-249997J0D01*
G01*
X119715997Y-79661000D01*
G75*
G02*
X119466000Y-79411003I0J249997D01*
G01*
G37*
%TD.AperFunction*%
%TD*%
D11*
%TO.P,J2,8*%
%TO.N,Net-(J2-Pad8)*%
X120904000Y-83058000D03*
%TO.P,J2,7*%
%TO.N,MOSI*%
X123444000Y-83058000D03*
%TO.P,J2,6*%
%TO.N,PROG_RESET*%
X120904000Y-85598000D03*
%TO.P,J2,5*%
%TO.N,MISO*%
X123444000Y-85598000D03*
%TO.P,J2,4*%
%TO.N,PROG_RESET*%
X120904000Y-88138000D03*
%TO.P,J2,3*%
%TO.N,SCK*%
X123444000Y-88138000D03*
%TO.P,J2,2*%
%TO.N,GND*%
X120904000Y-90678000D03*
D12*
%TO.P,J2,1*%
%TO.N,VCC_FTDI*%
X123444000Y-90678000D03*
%TD*%
%TO.P,F1,2*%
%TO.N,VCC_FTDI*%
%TA.AperFunction,SMDPad,CuDef*%
G36*
G01*
X147815000Y-58811000D02*
X147815000Y-60061000D01*
G75*
G02*
X147565000Y-60311000I-250000J0D01*
G01*
X146815000Y-60311000D01*
G75*
G02*
X146565000Y-60061000I0J250000D01*
G01*
X146565000Y-58811000D01*
G75*
G02*
X146815000Y-58561000I250000J0D01*
G01*
X147565000Y-58561000D01*
G75*
G02*
X147815000Y-58811000I0J-250000D01*
G01*
G37*
%TD.AperFunction*%
%TO.P,F1,1*%
%TO.N,Net-(C12-Pad2)*%
%TA.AperFunction,SMDPad,CuDef*%
G36*
G01*
X150615000Y-58811000D02*
X150615000Y-60061000D01*
G75*
G02*
X150365000Y-60311000I-250000J0D01*
G01*
X149615000Y-60311000D01*
G75*
G02*
X149365000Y-60061000I0J250000D01*
G01*
X149365000Y-58811000D01*
G75*
G02*
X149615000Y-58561000I250000J0D01*
G01*
X150365000Y-58561000D01*
G75*
G02*
X150615000Y-58811000I0J-250000D01*
G01*
G37*
%TD.AperFunction*%
%TD*%
%TO.P,FB1,2*%
%TO.N,Net-(FB1-Pad2)*%
%TA.AperFunction,SMDPad,CuDef*%
G36*
G01*
X137665750Y-71724000D02*
X138178250Y-71724000D01*
G75*
G02*
X138397000Y-71942750I0J-218750D01*
G01*
X138397000Y-72380250D01*
G75*
G02*
X138178250Y-72599000I-218750J0D01*
G01*
X137665750Y-72599000D01*
G75*
G02*
X137447000Y-72380250I0J218750D01*
G01*
X137447000Y-71942750D01*
G75*
G02*
X137665750Y-71724000I218750J0D01*
G01*
G37*
%TD.AperFunction*%
%TO.P,FB1,1*%
%TO.N,VCC_FTDI*%
%TA.AperFunction,SMDPad,CuDef*%
G36*
G01*
X137665750Y-70149000D02*
X138178250Y-70149000D01*
G75*
G02*
X138397000Y-70367750I0J-218750D01*
G01*
X138397000Y-70805250D01*
G75*
G02*
X138178250Y-71024000I-218750J0D01*
G01*
X137665750Y-71024000D01*
G75*
G02*
X137447000Y-70805250I0J218750D01*
G01*
X137447000Y-70367750D01*
G75*
G02*
X137665750Y-70149000I218750J0D01*
G01*
G37*
%TD.AperFunction*%
%TD*%
D13*
%TO.P,J1,1*%
%TO.N,Net-(FB1-Pad2)*%
X141882000Y-61270000D03*
%TO.P,J1,2*%
%TO.N,D-*%
X141232000Y-61270000D03*
%TO.P,J1,3*%
%TO.N,D+*%
X140582000Y-61270000D03*
%TO.P,J1,4*%
%TO.N,GND*%
X139932000Y-61270000D03*
%TO.P,J1,5*%
X139282000Y-61270000D03*
D14*
%TO.P,J1,6*%
X144332000Y-58420000D03*
X136832000Y-58420000D03*
D15*
X141732000Y-58420000D03*
X139432000Y-58420000D03*
%TD*%
D16*
%TO.P,Y1,2*%
%TO.N,Net-(C10-Pad1)*%
X140898000Y-90678000D03*
%TO.P,Y1,1*%
%TO.N,Net-(C9-Pad1)*%
X144598000Y-90678000D03*
%TD*%
D17*
%TO.P,U4,20*%
%TO.N,TX*%
X143573500Y-68894000D03*
%TO.P,U4,19*%
%TO.N,Net-(U4-Pad19)*%
X142938500Y-68894000D03*
%TO.P,U4,18*%
%TO.N,Net-(U4-Pad18)*%
X142303500Y-68894000D03*
%TO.P,U4,17*%
%TO.N,Net-(D1-Pad1)*%
X141668500Y-68894000D03*
%TO.P,U4,16*%
%TO.N,GND*%
X141033500Y-68894000D03*
%TO.P,U4,15*%
%TO.N,VCC_FTDI*%
X140398500Y-68894000D03*
%TO.P,U4,14*%
%TO.N,Net-(C7-Pad1)*%
X139763500Y-68894000D03*
%TO.P,U4,13*%
X139128500Y-68894000D03*
%TO.P,U4,12*%
%TO.N,Net-(R3-Pad2)*%
X138493500Y-68894000D03*
%TO.P,U4,11*%
%TO.N,Net-(R2-Pad2)*%
X137858500Y-68894000D03*
%TO.P,U4,10*%
%TO.N,Net-(D2-Pad1)*%
X137858500Y-63694000D03*
%TO.P,U4,9*%
%TO.N,Net-(U4-Pad9)*%
X138493500Y-63694000D03*
%TO.P,U4,8*%
%TO.N,Net-(U4-Pad8)*%
X139128500Y-63694000D03*
%TO.P,U4,7*%
%TO.N,Net-(U4-Pad7)*%
X139763500Y-63694000D03*
%TO.P,U4,6*%
%TO.N,GND*%
X140398500Y-63694000D03*
%TO.P,U4,5*%
%TO.N,Net-(U4-Pad5)*%
X141033500Y-63694000D03*
%TO.P,U4,4*%
%TO.N,RX*%
X141668500Y-63694000D03*
%TO.P,U4,3*%
%TO.N,Net-(C7-Pad1)*%
X142303500Y-63694000D03*
%TO.P,U4,2*%
%TO.N,Net-(U4-Pad2)*%
X142938500Y-63694000D03*
%TO.P,U4,1*%
%TO.N,Net-(U4-Pad1)*%
X143573500Y-63694000D03*
%TD*%
%TO.P,R7,2*%
%TO.N,Net-(D3-Pad2)*%
%TA.AperFunction,SMDPad,CuDef*%
G36*
G01*
X140633000Y-74697000D02*
X140633000Y-74147000D01*
G75*
G02*
X140833000Y-73947000I200000J0D01*
G01*
X141233000Y-73947000D01*
G75*
G02*
X141433000Y-74147000I0J-200000D01*
G01*
X141433000Y-74697000D01*
G75*
G02*
X141233000Y-74897000I-200000J0D01*
G01*
X140833000Y-74897000D01*
G75*
G02*
X140633000Y-74697000I0J200000D01*
G01*
G37*
%TD.AperFunction*%
%TO.P,R7,1*%
%TO.N,Net-(R7-Pad1)*%
%TA.AperFunction,SMDPad,CuDef*%
G36*
G01*
X138983000Y-74697000D02*
X138983000Y-74147000D01*
G75*
G02*
X139183000Y-73947000I200000J0D01*
G01*
X139583000Y-73947000D01*
G75*
G02*
X139783000Y-74147000I0J-200000D01*
G01*
X139783000Y-74697000D01*
G75*
G02*
X139583000Y-74897000I-200000J0D01*
G01*
X139183000Y-74897000D01*
G75*
G02*
X138983000Y-74697000I0J200000D01*
G01*
G37*
%TD.AperFunction*%
%TD*%
%TO.P,R6,2*%
%TO.N,VCC*%
%TA.AperFunction,SMDPad,CuDef*%
G36*
G01*
X132925000Y-89387000D02*
X132925000Y-89937000D01*
G75*
G02*
X132725000Y-90137000I-200000J0D01*
G01*
X132325000Y-90137000D01*
G75*
G02*
X132125000Y-89937000I0J200000D01*
G01*
X132125000Y-89387000D01*
G75*
G02*
X132325000Y-89187000I200000J0D01*
G01*
X132725000Y-89187000D01*
G75*
G02*
X132925000Y-89387000I0J-200000D01*
G01*
G37*
%TD.AperFunction*%
%TO.P,R6,1*%
%TO.N,PROG_RESET_FLIP*%
%TA.AperFunction,SMDPad,CuDef*%
G36*
G01*
X134575000Y-89387000D02*
X134575000Y-89937000D01*
G75*
G02*
X134375000Y-90137000I-200000J0D01*
G01*
X133975000Y-90137000D01*
G75*
G02*
X133775000Y-89937000I0J200000D01*
G01*
X133775000Y-89387000D01*
G75*
G02*
X133975000Y-89187000I200000J0D01*
G01*
X134375000Y-89187000D01*
G75*
G02*
X134575000Y-89387000I0J-200000D01*
G01*
G37*
%TD.AperFunction*%
%TD*%
%TO.P,R5,2*%
%TO.N,Net-(D2-Pad2)*%
%TA.AperFunction,SMDPad,CuDef*%
G36*
G01*
X146029000Y-67735000D02*
X146579000Y-67735000D01*
G75*
G02*
X146779000Y-67935000I0J-200000D01*
G01*
X146779000Y-68335000D01*
G75*
G02*
X146579000Y-68535000I-200000J0D01*
G01*
X146029000Y-68535000D01*
G75*
G02*
X145829000Y-68335000I0J200000D01*
G01*
X145829000Y-67935000D01*
G75*
G02*
X146029000Y-67735000I200000J0D01*
G01*
G37*
%TD.AperFunction*%
%TO.P,R5,1*%
%TO.N,VCC_FTDI*%
%TA.AperFunction,SMDPad,CuDef*%
G36*
G01*
X146029000Y-66085000D02*
X146579000Y-66085000D01*
G75*
G02*
X146779000Y-66285000I0J-200000D01*
G01*
X146779000Y-66685000D01*
G75*
G02*
X146579000Y-66885000I-200000J0D01*
G01*
X146029000Y-66885000D01*
G75*
G02*
X145829000Y-66685000I0J200000D01*
G01*
X145829000Y-66285000D01*
G75*
G02*
X146029000Y-66085000I200000J0D01*
G01*
G37*
%TD.AperFunction*%
%TD*%
%TO.P,R4,2*%
%TO.N,Net-(D1-Pad2)*%
%TA.AperFunction,SMDPad,CuDef*%
G36*
G01*
X147553000Y-67735000D02*
X148103000Y-67735000D01*
G75*
G02*
X148303000Y-67935000I0J-200000D01*
G01*
X148303000Y-68335000D01*
G75*
G02*
X148103000Y-68535000I-200000J0D01*
G01*
X147553000Y-68535000D01*
G75*
G02*
X147353000Y-68335000I0J200000D01*
G01*
X147353000Y-67935000D01*
G75*
G02*
X147553000Y-67735000I200000J0D01*
G01*
G37*
%TD.AperFunction*%
%TO.P,R4,1*%
%TO.N,VCC_FTDI*%
%TA.AperFunction,SMDPad,CuDef*%
G36*
G01*
X147553000Y-66085000D02*
X148103000Y-66085000D01*
G75*
G02*
X148303000Y-66285000I0J-200000D01*
G01*
X148303000Y-66685000D01*
G75*
G02*
X148103000Y-66885000I-200000J0D01*
G01*
X147553000Y-66885000D01*
G75*
G02*
X147353000Y-66685000I0J200000D01*
G01*
X147353000Y-66285000D01*
G75*
G02*
X147553000Y-66085000I200000J0D01*
G01*
G37*
%TD.AperFunction*%
%TD*%
%TO.P,R3,2*%
%TO.N,Net-(R3-Pad2)*%
%TA.AperFunction,SMDPad,CuDef*%
G36*
G01*
X133329000Y-68243000D02*
X133879000Y-68243000D01*
G75*
G02*
X134079000Y-68443000I0J-200000D01*
G01*
X134079000Y-68843000D01*
G75*
G02*
X133879000Y-69043000I-200000J0D01*
G01*
X133329000Y-69043000D01*
G75*
G02*
X133129000Y-68843000I0J200000D01*
G01*
X133129000Y-68443000D01*
G75*
G02*
X133329000Y-68243000I200000J0D01*
G01*
G37*
%TD.AperFunction*%
%TO.P,R3,1*%
%TO.N,D-*%
%TA.AperFunction,SMDPad,CuDef*%
G36*
G01*
X133329000Y-66593000D02*
X133879000Y-66593000D01*
G75*
G02*
X134079000Y-66793000I0J-200000D01*
G01*
X134079000Y-67193000D01*
G75*
G02*
X133879000Y-67393000I-200000J0D01*
G01*
X133329000Y-67393000D01*
G75*
G02*
X133129000Y-67193000I0J200000D01*
G01*
X133129000Y-66793000D01*
G75*
G02*
X133329000Y-66593000I200000J0D01*
G01*
G37*
%TD.AperFunction*%
%TD*%
%TO.P,R2,2*%
%TO.N,Net-(R2-Pad2)*%
%TA.AperFunction,SMDPad,CuDef*%
G36*
G01*
X134853000Y-68243000D02*
X135403000Y-68243000D01*
G75*
G02*
X135603000Y-68443000I0J-200000D01*
G01*
X135603000Y-68843000D01*
G75*
G02*
X135403000Y-69043000I-200000J0D01*
G01*
X134853000Y-69043000D01*
G75*
G02*
X134653000Y-68843000I0J200000D01*
G01*
X134653000Y-68443000D01*
G75*
G02*
X134853000Y-68243000I200000J0D01*
G01*
G37*
%TD.AperFunction*%
%TO.P,R2,1*%
%TO.N,D+*%
%TA.AperFunction,SMDPad,CuDef*%
G36*
G01*
X134853000Y-66593000D02*
X135403000Y-66593000D01*
G75*
G02*
X135603000Y-66793000I0J-200000D01*
G01*
X135603000Y-67193000D01*
G75*
G02*
X135403000Y-67393000I-200000J0D01*
G01*
X134853000Y-67393000D01*
G75*
G02*
X134653000Y-67193000I0J200000D01*
G01*
X134653000Y-66793000D01*
G75*
G02*
X134853000Y-66593000I200000J0D01*
G01*
G37*
%TD.AperFunction*%
%TD*%
%TO.P,D3,2*%
%TO.N,Net-(D3-Pad2)*%
%TA.AperFunction,SMDPad,CuDef*%
G36*
G01*
X142931500Y-74165750D02*
X142931500Y-74678250D01*
G75*
G02*
X142712750Y-74897000I-218750J0D01*
G01*
X142275250Y-74897000D01*
G75*
G02*
X142056500Y-74678250I0J218750D01*
G01*
X142056500Y-74165750D01*
G75*
G02*
X142275250Y-73947000I218750J0D01*
G01*
X142712750Y-73947000D01*
G75*
G02*
X142931500Y-74165750I0J-218750D01*
G01*
G37*
%TD.AperFunction*%
%TO.P,D3,1*%
%TO.N,GND*%
%TA.AperFunction,SMDPad,CuDef*%
G36*
G01*
X144506500Y-74165750D02*
X144506500Y-74678250D01*
G75*
G02*
X144287750Y-74897000I-218750J0D01*
G01*
X143850250Y-74897000D01*
G75*
G02*
X143631500Y-74678250I0J218750D01*
G01*
X143631500Y-74165750D01*
G75*
G02*
X143850250Y-73947000I218750J0D01*
G01*
X144287750Y-73947000D01*
G75*
G02*
X144506500Y-74165750I0J-218750D01*
G01*
G37*
%TD.AperFunction*%
%TD*%
%TO.P,D2,2*%
%TO.N,Net-(D2-Pad2)*%
%TA.AperFunction,SMDPad,CuDef*%
G36*
G01*
X146560250Y-70008000D02*
X146047750Y-70008000D01*
G75*
G02*
X145829000Y-69789250I0J218750D01*
G01*
X145829000Y-69351750D01*
G75*
G02*
X146047750Y-69133000I218750J0D01*
G01*
X146560250Y-69133000D01*
G75*
G02*
X146779000Y-69351750I0J-218750D01*
G01*
X146779000Y-69789250D01*
G75*
G02*
X146560250Y-70008000I-218750J0D01*
G01*
G37*
%TD.AperFunction*%
%TO.P,D2,1*%
%TO.N,Net-(D2-Pad1)*%
%TA.AperFunction,SMDPad,CuDef*%
G36*
G01*
X146560250Y-71583000D02*
X146047750Y-71583000D01*
G75*
G02*
X145829000Y-71364250I0J218750D01*
G01*
X145829000Y-70926750D01*
G75*
G02*
X146047750Y-70708000I218750J0D01*
G01*
X146560250Y-70708000D01*
G75*
G02*
X146779000Y-70926750I0J-218750D01*
G01*
X146779000Y-71364250D01*
G75*
G02*
X146560250Y-71583000I-218750J0D01*
G01*
G37*
%TD.AperFunction*%
%TD*%
%TO.P,D1,2*%
%TO.N,Net-(D1-Pad2)*%
%TA.AperFunction,SMDPad,CuDef*%
G36*
G01*
X148084250Y-70008000D02*
X147571750Y-70008000D01*
G75*
G02*
X147353000Y-69789250I0J218750D01*
G01*
X147353000Y-69351750D01*
G75*
G02*
X147571750Y-69133000I218750J0D01*
G01*
X148084250Y-69133000D01*
G75*
G02*
X148303000Y-69351750I0J-218750D01*
G01*
X148303000Y-69789250D01*
G75*
G02*
X148084250Y-70008000I-218750J0D01*
G01*
G37*
%TD.AperFunction*%
%TO.P,D1,1*%
%TO.N,Net-(D1-Pad1)*%
%TA.AperFunction,SMDPad,CuDef*%
G36*
G01*
X148084250Y-71583000D02*
X147571750Y-71583000D01*
G75*
G02*
X147353000Y-71364250I0J218750D01*
G01*
X147353000Y-70926750D01*
G75*
G02*
X147571750Y-70708000I218750J0D01*
G01*
X148084250Y-70708000D01*
G75*
G02*
X148303000Y-70926750I0J-218750D01*
G01*
X148303000Y-71364250D01*
G75*
G02*
X148084250Y-71583000I-218750J0D01*
G01*
G37*
%TD.AperFunction*%
%TD*%
%TO.P,C10,2*%
%TO.N,GND*%
%TA.AperFunction,SMDPad,CuDef*%
G36*
G01*
X137851000Y-90936000D02*
X137851000Y-91436000D01*
G75*
G02*
X137626000Y-91661000I-225000J0D01*
G01*
X137176000Y-91661000D01*
G75*
G02*
X136951000Y-91436000I0J225000D01*
G01*
X136951000Y-90936000D01*
G75*
G02*
X137176000Y-90711000I225000J0D01*
G01*
X137626000Y-90711000D01*
G75*
G02*
X137851000Y-90936000I0J-225000D01*
G01*
G37*
%TD.AperFunction*%
%TO.P,C10,1*%
%TO.N,Net-(C10-Pad1)*%
%TA.AperFunction,SMDPad,CuDef*%
G36*
G01*
X139401000Y-90936000D02*
X139401000Y-91436000D01*
G75*
G02*
X139176000Y-91661000I-225000J0D01*
G01*
X138726000Y-91661000D01*
G75*
G02*
X138501000Y-91436000I0J225000D01*
G01*
X138501000Y-90936000D01*
G75*
G02*
X138726000Y-90711000I225000J0D01*
G01*
X139176000Y-90711000D01*
G75*
G02*
X139401000Y-90936000I0J-225000D01*
G01*
G37*
%TD.AperFunction*%
%TD*%
%TO.P,C8,2*%
%TO.N,GND*%
%TA.AperFunction,SMDPad,CuDef*%
G36*
G01*
X140720000Y-71699000D02*
X141220000Y-71699000D01*
G75*
G02*
X141445000Y-71924000I0J-225000D01*
G01*
X141445000Y-72374000D01*
G75*
G02*
X141220000Y-72599000I-225000J0D01*
G01*
X140720000Y-72599000D01*
G75*
G02*
X140495000Y-72374000I0J225000D01*
G01*
X140495000Y-71924000D01*
G75*
G02*
X140720000Y-71699000I225000J0D01*
G01*
G37*
%TD.AperFunction*%
%TO.P,C8,1*%
%TO.N,VCC_FTDI*%
%TA.AperFunction,SMDPad,CuDef*%
G36*
G01*
X140720000Y-70149000D02*
X141220000Y-70149000D01*
G75*
G02*
X141445000Y-70374000I0J-225000D01*
G01*
X141445000Y-70824000D01*
G75*
G02*
X141220000Y-71049000I-225000J0D01*
G01*
X140720000Y-71049000D01*
G75*
G02*
X140495000Y-70824000I0J225000D01*
G01*
X140495000Y-70374000D01*
G75*
G02*
X140720000Y-70149000I225000J0D01*
G01*
G37*
%TD.AperFunction*%
%TD*%
%TO.P,C7,2*%
%TO.N,GND*%
%TA.AperFunction,SMDPad,CuDef*%
G36*
G01*
X139196000Y-71699000D02*
X139696000Y-71699000D01*
G75*
G02*
X139921000Y-71924000I0J-225000D01*
G01*
X139921000Y-72374000D01*
G75*
G02*
X139696000Y-72599000I-225000J0D01*
G01*
X139196000Y-72599000D01*
G75*
G02*
X138971000Y-72374000I0J225000D01*
G01*
X138971000Y-71924000D01*
G75*
G02*
X139196000Y-71699000I225000J0D01*
G01*
G37*
%TD.AperFunction*%
%TO.P,C7,1*%
%TO.N,Net-(C7-Pad1)*%
%TA.AperFunction,SMDPad,CuDef*%
G36*
G01*
X139196000Y-70149000D02*
X139696000Y-70149000D01*
G75*
G02*
X139921000Y-70374000I0J-225000D01*
G01*
X139921000Y-70824000D01*
G75*
G02*
X139696000Y-71049000I-225000J0D01*
G01*
X139196000Y-71049000D01*
G75*
G02*
X138971000Y-70824000I0J225000D01*
G01*
X138971000Y-70374000D01*
G75*
G02*
X139196000Y-70149000I225000J0D01*
G01*
G37*
%TD.AperFunction*%
%TD*%
%TO.P,C6,2*%
%TO.N,GND*%
%TA.AperFunction,SMDPad,CuDef*%
G36*
G01*
X133854000Y-64445000D02*
X133354000Y-64445000D01*
G75*
G02*
X133129000Y-64220000I0J225000D01*
G01*
X133129000Y-63770000D01*
G75*
G02*
X133354000Y-63545000I225000J0D01*
G01*
X133854000Y-63545000D01*
G75*
G02*
X134079000Y-63770000I0J-225000D01*
G01*
X134079000Y-64220000D01*
G75*
G02*
X133854000Y-64445000I-225000J0D01*
G01*
G37*
%TD.AperFunction*%
%TO.P,C6,1*%
%TO.N,D-*%
%TA.AperFunction,SMDPad,CuDef*%
G36*
G01*
X133854000Y-65995000D02*
X133354000Y-65995000D01*
G75*
G02*
X133129000Y-65770000I0J225000D01*
G01*
X133129000Y-65320000D01*
G75*
G02*
X133354000Y-65095000I225000J0D01*
G01*
X133854000Y-65095000D01*
G75*
G02*
X134079000Y-65320000I0J-225000D01*
G01*
X134079000Y-65770000D01*
G75*
G02*
X133854000Y-65995000I-225000J0D01*
G01*
G37*
%TD.AperFunction*%
%TD*%
%TO.P,C5,2*%
%TO.N,GND*%
%TA.AperFunction,SMDPad,CuDef*%
G36*
G01*
X135378000Y-64445000D02*
X134878000Y-64445000D01*
G75*
G02*
X134653000Y-64220000I0J225000D01*
G01*
X134653000Y-63770000D01*
G75*
G02*
X134878000Y-63545000I225000J0D01*
G01*
X135378000Y-63545000D01*
G75*
G02*
X135603000Y-63770000I0J-225000D01*
G01*
X135603000Y-64220000D01*
G75*
G02*
X135378000Y-64445000I-225000J0D01*
G01*
G37*
%TD.AperFunction*%
%TO.P,C5,1*%
%TO.N,D+*%
%TA.AperFunction,SMDPad,CuDef*%
G36*
G01*
X135378000Y-65995000D02*
X134878000Y-65995000D01*
G75*
G02*
X134653000Y-65770000I0J225000D01*
G01*
X134653000Y-65320000D01*
G75*
G02*
X134878000Y-65095000I225000J0D01*
G01*
X135378000Y-65095000D01*
G75*
G02*
X135603000Y-65320000I0J-225000D01*
G01*
X135603000Y-65770000D01*
G75*
G02*
X135378000Y-65995000I-225000J0D01*
G01*
G37*
%TD.AperFunction*%
%TD*%
%TO.P,R1,2*%
%TO.N,Net-(C12-Pad2)*%
%TA.AperFunction,SMDPad,CuDef*%
G36*
G01*
X148103000Y-61805000D02*
X147553000Y-61805000D01*
G75*
G02*
X147353000Y-61605000I0J200000D01*
G01*
X147353000Y-61205000D01*
G75*
G02*
X147553000Y-61005000I200000J0D01*
G01*
X148103000Y-61005000D01*
G75*
G02*
X148303000Y-61205000I0J-200000D01*
G01*
X148303000Y-61605000D01*
G75*
G02*
X148103000Y-61805000I-200000J0D01*
G01*
G37*
%TD.AperFunction*%
%TO.P,R1,1*%
%TO.N,Net-(C1-Pad2)*%
%TA.AperFunction,SMDPad,CuDef*%
G36*
G01*
X148103000Y-63455000D02*
X147553000Y-63455000D01*
G75*
G02*
X147353000Y-63255000I0J200000D01*
G01*
X147353000Y-62855000D01*
G75*
G02*
X147553000Y-62655000I200000J0D01*
G01*
X148103000Y-62655000D01*
G75*
G02*
X148303000Y-62855000I0J-200000D01*
G01*
X148303000Y-63255000D01*
G75*
G02*
X148103000Y-63455000I-200000J0D01*
G01*
G37*
%TD.AperFunction*%
%TD*%
%TO.P,L1,2*%
%TO.N,Net-(L1-Pad2)*%
%TA.AperFunction,SMDPad,CuDef*%
G36*
G01*
X152750000Y-59946250D02*
X152750000Y-59433750D01*
G75*
G02*
X152968750Y-59215000I218750J0D01*
G01*
X153406250Y-59215000D01*
G75*
G02*
X153625000Y-59433750I0J-218750D01*
G01*
X153625000Y-59946250D01*
G75*
G02*
X153406250Y-60165000I-218750J0D01*
G01*
X152968750Y-60165000D01*
G75*
G02*
X152750000Y-59946250I0J218750D01*
G01*
G37*
%TD.AperFunction*%
%TO.P,L1,1*%
%TO.N,Net-(L1-Pad1)*%
%TA.AperFunction,SMDPad,CuDef*%
G36*
G01*
X151175000Y-59946250D02*
X151175000Y-59433750D01*
G75*
G02*
X151393750Y-59215000I218750J0D01*
G01*
X151831250Y-59215000D01*
G75*
G02*
X152050000Y-59433750I0J-218750D01*
G01*
X152050000Y-59946250D01*
G75*
G02*
X151831250Y-60165000I-218750J0D01*
G01*
X151393750Y-60165000D01*
G75*
G02*
X151175000Y-59946250I0J218750D01*
G01*
G37*
%TD.AperFunction*%
%TD*%
%TO.P,C3,2*%
%TO.N,GND*%
%TA.AperFunction,SMDPad,CuDef*%
G36*
G01*
X151379000Y-68330000D02*
X151379000Y-68830000D01*
G75*
G02*
X151154000Y-69055000I-225000J0D01*
G01*
X150704000Y-69055000D01*
G75*
G02*
X150479000Y-68830000I0J225000D01*
G01*
X150479000Y-68330000D01*
G75*
G02*
X150704000Y-68105000I225000J0D01*
G01*
X151154000Y-68105000D01*
G75*
G02*
X151379000Y-68330000I0J-225000D01*
G01*
G37*
%TD.AperFunction*%
%TO.P,C3,1*%
%TO.N,VCC*%
%TA.AperFunction,SMDPad,CuDef*%
G36*
G01*
X152929000Y-68330000D02*
X152929000Y-68830000D01*
G75*
G02*
X152704000Y-69055000I-225000J0D01*
G01*
X152254000Y-69055000D01*
G75*
G02*
X152029000Y-68830000I0J225000D01*
G01*
X152029000Y-68330000D01*
G75*
G02*
X152254000Y-68105000I225000J0D01*
G01*
X152704000Y-68105000D01*
G75*
G02*
X152929000Y-68330000I0J-225000D01*
G01*
G37*
%TD.AperFunction*%
%TD*%
%TO.P,C2,2*%
%TO.N,GND*%
%TA.AperFunction,SMDPad,CuDef*%
G36*
G01*
X151379000Y-66806000D02*
X151379000Y-67306000D01*
G75*
G02*
X151154000Y-67531000I-225000J0D01*
G01*
X150704000Y-67531000D01*
G75*
G02*
X150479000Y-67306000I0J225000D01*
G01*
X150479000Y-66806000D01*
G75*
G02*
X150704000Y-66581000I225000J0D01*
G01*
X151154000Y-66581000D01*
G75*
G02*
X151379000Y-66806000I0J-225000D01*
G01*
G37*
%TD.AperFunction*%
%TO.P,C2,1*%
%TO.N,VCC*%
%TA.AperFunction,SMDPad,CuDef*%
G36*
G01*
X152929000Y-66806000D02*
X152929000Y-67306000D01*
G75*
G02*
X152704000Y-67531000I-225000J0D01*
G01*
X152254000Y-67531000D01*
G75*
G02*
X152029000Y-67306000I0J225000D01*
G01*
X152029000Y-66806000D01*
G75*
G02*
X152254000Y-66581000I225000J0D01*
G01*
X152704000Y-66581000D01*
G75*
G02*
X152929000Y-66806000I0J-225000D01*
G01*
G37*
%TD.AperFunction*%
%TD*%
%TO.P,C1,2*%
%TO.N,Net-(C1-Pad2)*%
%TA.AperFunction,SMDPad,CuDef*%
G36*
G01*
X151379000Y-65282000D02*
X151379000Y-65782000D01*
G75*
G02*
X151154000Y-66007000I-225000J0D01*
G01*
X150704000Y-66007000D01*
G75*
G02*
X150479000Y-65782000I0J225000D01*
G01*
X150479000Y-65282000D01*
G75*
G02*
X150704000Y-65057000I225000J0D01*
G01*
X151154000Y-65057000D01*
G75*
G02*
X151379000Y-65282000I0J-225000D01*
G01*
G37*
%TD.AperFunction*%
%TO.P,C1,1*%
%TO.N,GND*%
%TA.AperFunction,SMDPad,CuDef*%
G36*
G01*
X152929000Y-65282000D02*
X152929000Y-65782000D01*
G75*
G02*
X152704000Y-66007000I-225000J0D01*
G01*
X152254000Y-66007000D01*
G75*
G02*
X152029000Y-65782000I0J225000D01*
G01*
X152029000Y-65282000D01*
G75*
G02*
X152254000Y-65057000I225000J0D01*
G01*
X152704000Y-65057000D01*
G75*
G02*
X152929000Y-65282000I0J-225000D01*
G01*
G37*
%TD.AperFunction*%
%TD*%
D18*
%TO.P,U3,8*%
%TO.N,Net-(U3-Pad8)*%
X130364000Y-75486000D03*
%TO.P,U3,7*%
%TO.N,MISO*%
X129094000Y-75486000D03*
%TO.P,U3,6*%
%TO.N,MOSI*%
X127824000Y-75486000D03*
%TO.P,U3,5*%
%TO.N,SCK*%
X126554000Y-75486000D03*
%TO.P,U3,4*%
%TO.N,CSN*%
X125284000Y-75486000D03*
%TO.P,U3,3*%
%TO.N,CE*%
X124014000Y-75486000D03*
%TO.P,U3,2*%
%TO.N,GND*%
X122744000Y-75486000D03*
%TO.P,U3,1*%
%TO.N,VCC*%
X121474000Y-75486000D03*
%TD*%
D19*
%TO.P,U2,44*%
%TO.N,VCC*%
X136386000Y-76294000D03*
%TO.P,U2,43*%
%TO.N,GND*%
X137186000Y-76294000D03*
%TO.P,U2,42*%
%TO.N,Net-(U2-Pad42)*%
X137986000Y-76294000D03*
%TO.P,U2,41*%
%TO.N,Net-(R7-Pad1)*%
X138786000Y-76294000D03*
%TO.P,U2,40*%
%TO.N,Net-(U2-Pad40)*%
X139586000Y-76294000D03*
%TO.P,U2,39*%
%TO.N,Net-(U2-Pad39)*%
X140386000Y-76294000D03*
%TO.P,U2,38*%
%TO.N,Net-(U2-Pad38)*%
X141186000Y-76294000D03*
%TO.P,U2,37*%
%TO.N,Net-(U2-Pad37)*%
X141986000Y-76294000D03*
%TO.P,U2,36*%
%TO.N,Net-(U2-Pad36)*%
X142786000Y-76294000D03*
%TO.P,U2,35*%
%TO.N,GND*%
X143586000Y-76294000D03*
%TO.P,U2,34*%
%TO.N,VCC*%
X144386000Y-76294000D03*
D20*
%TO.P,U2,33*%
%TO.N,Net-(U2-Pad33)*%
X146086000Y-77994000D03*
%TO.P,U2,32*%
%TO.N,Net-(U2-Pad32)*%
X146086000Y-78794000D03*
%TO.P,U2,31*%
%TO.N,Net-(U2-Pad31)*%
X146086000Y-79594000D03*
%TO.P,U2,30*%
%TO.N,Net-(U2-Pad30)*%
X146086000Y-80394000D03*
%TO.P,U2,29*%
%TO.N,Net-(U2-Pad29)*%
X146086000Y-81194000D03*
%TO.P,U2,28*%
%TO.N,Net-(U2-Pad28)*%
X146086000Y-81994000D03*
%TO.P,U2,27*%
%TO.N,Net-(U2-Pad27)*%
X146086000Y-82794000D03*
%TO.P,U2,26*%
%TO.N,Net-(U2-Pad26)*%
X146086000Y-83594000D03*
%TO.P,U2,25*%
%TO.N,Net-(U2-Pad25)*%
X146086000Y-84394000D03*
%TO.P,U2,24*%
%TO.N,VCC*%
X146086000Y-85194000D03*
%TO.P,U2,23*%
%TO.N,GND*%
X146086000Y-85994000D03*
D19*
%TO.P,U2,22*%
%TO.N,Net-(U2-Pad22)*%
X144386000Y-87694000D03*
%TO.P,U2,21*%
%TO.N,RX*%
X143586000Y-87694000D03*
%TO.P,U2,20*%
%TO.N,TX*%
X142786000Y-87694000D03*
%TO.P,U2,19*%
%TO.N,Net-(U2-Pad19)*%
X141986000Y-87694000D03*
%TO.P,U2,18*%
%TO.N,Net-(U2-Pad18)*%
X141186000Y-87694000D03*
%TO.P,U2,17*%
%TO.N,Net-(C9-Pad1)*%
X140386000Y-87694000D03*
%TO.P,U2,16*%
%TO.N,Net-(C10-Pad1)*%
X139586000Y-87694000D03*
%TO.P,U2,15*%
%TO.N,GND*%
X138786000Y-87694000D03*
%TO.P,U2,14*%
%TO.N,VCC*%
X137986000Y-87694000D03*
%TO.P,U2,13*%
%TO.N,PROG_RESET_FLIP*%
X137186000Y-87694000D03*
%TO.P,U2,12*%
%TO.N,CE*%
X136386000Y-87694000D03*
D20*
%TO.P,U2,11*%
%TO.N,MISO*%
X134686000Y-85994000D03*
%TO.P,U2,10*%
%TO.N,MOSI*%
X134686000Y-85194000D03*
%TO.P,U2,9*%
%TO.N,SCK*%
X134686000Y-84394000D03*
%TO.P,U2,8*%
%TO.N,CSN*%
X134686000Y-83594000D03*
%TO.P,U2,7*%
%TO.N,Net-(U2-Pad7)*%
X134686000Y-82794000D03*
%TO.P,U2,6*%
%TO.N,Net-(C15-Pad2)*%
X134686000Y-81994000D03*
%TO.P,U2,5*%
%TO.N,GND*%
X134686000Y-81194000D03*
%TO.P,U2,4*%
%TO.N,Net-(U2-Pad4)*%
X134686000Y-80394000D03*
%TO.P,U2,3*%
%TO.N,Net-(U2-Pad3)*%
X134686000Y-79594000D03*
%TO.P,U2,2*%
%TO.N,VCC*%
X134686000Y-78794000D03*
%TO.P,U2,1*%
%TO.N,Net-(U2-Pad1)*%
X134686000Y-77994000D03*
%TD*%
D21*
%TO.P,U1,11*%
%TO.N,GND*%
X153162000Y-62574000D03*
X152212000Y-63149000D03*
X152212000Y-61999000D03*
X151262000Y-62574000D03*
%TA.AperFunction,SMDPad,CuDef*%
D22*
G36*
X153412000Y-62449000D02*
G01*
X153412000Y-62699000D01*
X153912000Y-62699000D01*
X153912000Y-62949000D01*
X153412000Y-62949000D01*
X153412000Y-63399000D01*
X151012000Y-63399000D01*
X151012000Y-62949000D01*
X150512000Y-62949000D01*
X150512000Y-62699000D01*
X151012000Y-62699000D01*
X151012000Y-62449000D01*
X150512000Y-62449000D01*
X150512000Y-62199000D01*
X151012000Y-62199000D01*
X151012000Y-61749000D01*
X153412000Y-61749000D01*
X153412000Y-62199000D01*
X153912000Y-62199000D01*
X153912000Y-62449000D01*
X153412000Y-62449000D01*
G37*
%TD.AperFunction*%
D23*
%TO.P,U1,10*%
%TO.N,VCC*%
X153212000Y-63974000D03*
%TO.P,U1,9*%
%TO.N,GND*%
X152712000Y-63974000D03*
%TO.P,U1,8*%
%TO.N,Net-(C1-Pad2)*%
X152212000Y-63974000D03*
%TO.P,U1,7*%
X151712000Y-63974000D03*
%TO.P,U1,6*%
X151212000Y-63974000D03*
%TO.P,U1,5*%
%TO.N,Net-(C12-Pad2)*%
X151212000Y-61174000D03*
%TO.P,U1,4*%
%TO.N,Net-(L1-Pad1)*%
X151712000Y-61174000D03*
%TO.P,U1,3*%
%TO.N,GND*%
X152212000Y-61174000D03*
%TO.P,U1,2*%
%TO.N,Net-(L1-Pad2)*%
X152712000Y-61174000D03*
%TO.P,U1,1*%
%TO.N,VCC*%
X153212000Y-61174000D03*
%TD*%
D24*
%TO.N,GND*%
X139282000Y-61270000D03*
X141478000Y-66548000D03*
X141986000Y-67056000D03*
X140716000Y-66802000D03*
X149606000Y-77724000D03*
X150606000Y-77724000D03*
X151606000Y-77724000D03*
X152606000Y-77724000D03*
X153606000Y-77724000D03*
X149606000Y-78724000D03*
X150606000Y-78724000D03*
X151606000Y-78724000D03*
X152606000Y-78724000D03*
X153606000Y-78724000D03*
X149606000Y-79724000D03*
X150606000Y-79724000D03*
X151606000Y-79724000D03*
X152606000Y-79724000D03*
X153606000Y-79724000D03*
X149606000Y-80724000D03*
X150606000Y-80724000D03*
X151606000Y-80724000D03*
X152606000Y-80724000D03*
X153606000Y-80724000D03*
X149606000Y-81724000D03*
X150606000Y-81724000D03*
X151606000Y-81724000D03*
X152606000Y-81724000D03*
X153606000Y-81724000D03*
X149860000Y-93154000D03*
X150860000Y-93154000D03*
X151860000Y-93154000D03*
X152860000Y-91154000D03*
X152860000Y-89154000D03*
X153860000Y-89154000D03*
X153860000Y-91154000D03*
X149860000Y-92154000D03*
X149860000Y-90154000D03*
X153860000Y-92154000D03*
X153860000Y-90154000D03*
X151860000Y-91154000D03*
X151860000Y-92154000D03*
X152860000Y-93154000D03*
X153860000Y-93154000D03*
X149860000Y-89154000D03*
X151860000Y-89154000D03*
X150860000Y-90154000D03*
X150860000Y-89154000D03*
X151860000Y-90154000D03*
X152860000Y-90154000D03*
X149860000Y-91154000D03*
X150860000Y-91154000D03*
X150860000Y-92154000D03*
X152860000Y-92154000D03*
X130492000Y-90916000D03*
X127492000Y-89916000D03*
X130492000Y-93916000D03*
X126492000Y-92916000D03*
X126492000Y-91916000D03*
X128492000Y-92916000D03*
X129492000Y-93916000D03*
X129492000Y-90916000D03*
X128492000Y-91916000D03*
X127492000Y-91916000D03*
X127492000Y-93916000D03*
X129492000Y-91916000D03*
X130492000Y-89916000D03*
X130492000Y-92916000D03*
X128492000Y-89916000D03*
X129492000Y-89916000D03*
X126492000Y-90916000D03*
X127492000Y-90916000D03*
X126492000Y-93916000D03*
X128492000Y-93916000D03*
X129492000Y-92916000D03*
X130492000Y-91916000D03*
X126492000Y-89916000D03*
X128492000Y-90916000D03*
X127492000Y-92916000D03*
X134302000Y-75946000D03*
X134302000Y-74946000D03*
X134302000Y-73946000D03*
X133302000Y-75946000D03*
X133302000Y-71946000D03*
X133302000Y-73946000D03*
X134302000Y-72946000D03*
X134302000Y-71946000D03*
X133302000Y-74946000D03*
X133302000Y-72946000D03*
X143764000Y-61706000D03*
X143764000Y-60706000D03*
X144764000Y-61706000D03*
X144764000Y-60706000D03*
X134604000Y-61452000D03*
X133604000Y-61452000D03*
X133604000Y-60452000D03*
X134604000Y-60452000D03*
%TO.N,MISO*%
X126943575Y-82352425D03*
X128669475Y-80118525D03*
%TO.N,MOSI*%
X126676550Y-81095450D03*
X127907475Y-79356525D03*
%TO.N,SCK*%
X126409525Y-79838475D03*
X126637475Y-78086525D03*
%TO.N,CE*%
X126746000Y-83312000D03*
X124206000Y-76962000D03*
%TO.N,Net-(C7-Pad1)*%
X140889519Y-65612481D03*
X142748000Y-64770000D03*
%TO.N,VCC_FTDI*%
X144773406Y-68042459D03*
X124968000Y-89916000D03*
X141986000Y-70866000D03*
X147066000Y-65532000D03*
X147190000Y-59436000D03*
X140462000Y-67818000D03*
%TO.N,RX*%
X144771701Y-67301701D03*
X143510000Y-77724000D03*
%TO.N,TX*%
X144054482Y-71337518D03*
X142859997Y-77724000D03*
%TO.N,Net-(FB1-Pad2)*%
X136847107Y-70319001D03*
X136906000Y-68118000D03*
%TO.N,VCC*%
X142240000Y-84328000D03*
X144386000Y-84444000D03*
X125222000Y-79248000D03*
X129194475Y-79502000D03*
X134874000Y-90424000D03*
X133350000Y-90424000D03*
D25*
X119888000Y-76962000D03*
X121474000Y-75486000D03*
D24*
X140402000Y-84328000D03*
X136144000Y-79502000D03*
%TO.N,Net-(C15-Pad2)*%
X133008501Y-83619238D03*
X136144000Y-83566000D03*
%TD*%
D26*
%TO.N,GND*%
X146719000Y-86627000D02*
X146086000Y-85994000D01*
X148082000Y-86627000D02*
X148082000Y-86627000D01*
X138951000Y-87859000D02*
X138786000Y-87694000D01*
X138951000Y-89662000D02*
X138951000Y-89662000D01*
X133505000Y-81194000D02*
X134686000Y-81194000D01*
X132842000Y-80531000D02*
X132842000Y-80531000D01*
X137186000Y-75171000D02*
X137928500Y-74428500D01*
X137186000Y-76294000D02*
X137186000Y-75171000D01*
X143586000Y-74905000D02*
X144043500Y-74447500D01*
X143586000Y-76294000D02*
X143586000Y-74905000D01*
D27*
X152712000Y-65299000D02*
X152479000Y-65532000D01*
X152712000Y-63974000D02*
X152712000Y-65299000D01*
X152387000Y-63149000D02*
X152212000Y-63149000D01*
X152712000Y-63474000D02*
X152387000Y-63149000D01*
X152712000Y-63974000D02*
X152712000Y-63474000D01*
X152212000Y-61174000D02*
X152212000Y-61999000D01*
D26*
X132842000Y-80531000D02*
X133505000Y-81194000D01*
X137928500Y-74428500D02*
X137935000Y-74422000D01*
X144043500Y-74447500D02*
X144069000Y-74422000D01*
D27*
X142238987Y-62670011D02*
X142240000Y-62668998D01*
X150831000Y-63005000D02*
X151262000Y-62574000D01*
X149352000Y-63005000D02*
X150831000Y-63005000D01*
D26*
X138951000Y-89662000D02*
X138951000Y-87859000D01*
X148082000Y-86627000D02*
X146719000Y-86627000D01*
X122744000Y-78026500D02*
X122744000Y-75486000D01*
X123203500Y-78486000D02*
X122744000Y-78026500D01*
X138925000Y-89662000D02*
X137401000Y-91186000D01*
X138951000Y-89662000D02*
X138925000Y-89662000D01*
X142213987Y-62695011D02*
X142238987Y-62670011D01*
X140647487Y-62695011D02*
X142213987Y-62695011D01*
X140398500Y-62943998D02*
X140647487Y-62695011D01*
X140398500Y-63694000D02*
X140398500Y-62943998D01*
X139932000Y-61270000D02*
X139282000Y-61270000D01*
X139282000Y-61270000D02*
X139282000Y-61270000D01*
D27*
%TO.N,Net-(C1-Pad2)*%
X150929000Y-64257000D02*
X151212000Y-63974000D01*
X150929000Y-65532000D02*
X150929000Y-64257000D01*
X151212000Y-63974000D02*
X151712000Y-63974000D01*
X151712000Y-63974000D02*
X152212000Y-63974000D01*
X148747000Y-63974000D02*
X151212000Y-63974000D01*
X147828000Y-63055000D02*
X148747000Y-63974000D01*
%TO.N,Net-(L1-Pad1)*%
X151712000Y-59789500D02*
X151612500Y-59690000D01*
X151712000Y-61174000D02*
X151712000Y-59789500D01*
%TO.N,Net-(L1-Pad2)*%
X152712000Y-60165500D02*
X153187500Y-59690000D01*
X152712000Y-61174000D02*
X152712000Y-60165500D01*
%TO.N,MISO*%
X130585150Y-85994000D02*
X126943575Y-82352425D01*
X134686000Y-85994000D02*
X130585150Y-85994000D01*
X128669475Y-75910525D02*
X129094000Y-75486000D01*
X128669475Y-80118525D02*
X128669475Y-75910525D01*
X126689575Y-82352425D02*
X126943575Y-82352425D01*
X123444000Y-85598000D02*
X126689575Y-82352425D01*
%TO.N,MOSI*%
X130775100Y-85194000D02*
X126676550Y-81095450D01*
X134686000Y-85194000D02*
X130775100Y-85194000D01*
X127907475Y-75569475D02*
X127824000Y-75486000D01*
X127907475Y-79356525D02*
X127907475Y-75569475D01*
X124714000Y-83058000D02*
X126676550Y-81095450D01*
X123444000Y-83058000D02*
X124714000Y-83058000D01*
%TO.N,SCK*%
X130965050Y-84394000D02*
X126409525Y-79838475D01*
X134686000Y-84394000D02*
X130965050Y-84394000D01*
X126637475Y-75569475D02*
X126554000Y-75486000D01*
X126637475Y-78086525D02*
X126637475Y-75569475D01*
X122293999Y-86987999D02*
X123444000Y-88138000D01*
X122293999Y-82505999D02*
X122293999Y-86987999D01*
X124561524Y-80238474D02*
X122293999Y-82505999D01*
X126009526Y-80238474D02*
X124561524Y-80238474D01*
X126409525Y-79838475D02*
X126009526Y-80238474D01*
D26*
%TO.N,CSN*%
X125284000Y-77599000D02*
X125222000Y-77661000D01*
X125284000Y-75486000D02*
X125284000Y-77599000D01*
D27*
X130340010Y-82779010D02*
X125222000Y-77661000D01*
X133259488Y-82779010D02*
X130340010Y-82779010D01*
X133635999Y-83155521D02*
X133259488Y-82779010D01*
X133635999Y-83309001D02*
X133635999Y-83155521D01*
X133920998Y-83594000D02*
X133635999Y-83309001D01*
X134686000Y-83594000D02*
X133920998Y-83594000D01*
%TO.N,CE*%
X131128000Y-87694000D02*
X126746000Y-83312000D01*
X136386000Y-87694000D02*
X131128000Y-87694000D01*
X124206000Y-75678000D02*
X124014000Y-75486000D01*
X124206000Y-76962000D02*
X124206000Y-75678000D01*
%TO.N,Net-(C7-Pad1)*%
X139128500Y-68894000D02*
X139763500Y-68894000D01*
X139128500Y-70281500D02*
X139446000Y-70599000D01*
X139128500Y-68894000D02*
X139128500Y-70281500D01*
X139763500Y-66738500D02*
X140889519Y-65612481D01*
X139763500Y-68894000D02*
X139763500Y-66738500D01*
X142303500Y-64325500D02*
X142303500Y-63694000D01*
X142748000Y-64770000D02*
X142303500Y-64325500D01*
%TO.N,VCC_FTDI*%
X140219990Y-71349010D02*
X140970000Y-70599000D01*
X138684510Y-71349010D02*
X140219990Y-71349010D01*
X137922000Y-70586500D02*
X138684510Y-71349010D01*
X140398500Y-70027500D02*
X140398500Y-68894000D01*
X140970000Y-70599000D02*
X140398500Y-70027500D01*
X146304000Y-66485000D02*
X147828000Y-66485000D01*
X146304000Y-66511865D02*
X144773406Y-68042459D01*
X146304000Y-66485000D02*
X146304000Y-66511865D01*
X147052990Y-59573010D02*
X147190000Y-59436000D01*
X147828000Y-66485000D02*
X147052990Y-65709990D01*
X124206000Y-90678000D02*
X124968000Y-89916000D01*
X123444000Y-90678000D02*
X124206000Y-90678000D01*
X141237000Y-70866000D02*
X140970000Y-70599000D01*
X141986000Y-70866000D02*
X141237000Y-70866000D01*
D26*
X147052990Y-65545010D02*
X147066000Y-65532000D01*
X147052990Y-65709990D02*
X147052990Y-65545010D01*
X140462000Y-68830500D02*
X140398500Y-68894000D01*
X140462000Y-67818000D02*
X140462000Y-68326000D01*
X140462000Y-68326000D02*
X140462000Y-68830500D01*
X140462000Y-68072000D02*
X140462000Y-68326000D01*
D27*
%TO.N,Net-(C9-Pad1)*%
X145640000Y-89636000D02*
X144598000Y-90678000D01*
X146558000Y-89636000D02*
X145640000Y-89636000D01*
X140386000Y-88644000D02*
X140386000Y-87694000D01*
X140919999Y-89177999D02*
X140386000Y-88644000D01*
X143097999Y-89177999D02*
X140919999Y-89177999D01*
X144598000Y-90678000D02*
X143097999Y-89177999D01*
%TO.N,Net-(C10-Pad1)*%
X139586000Y-89016000D02*
X139586000Y-87694000D01*
X140898000Y-90328000D02*
X139586000Y-89016000D01*
X140898000Y-90678000D02*
X140898000Y-90328000D01*
X140390000Y-91186000D02*
X140898000Y-90678000D01*
X138951000Y-91186000D02*
X140390000Y-91186000D01*
%TO.N,Net-(D1-Pad2)*%
X147828000Y-69570500D02*
X147828000Y-68135000D01*
%TO.N,Net-(D1-Pad1)*%
X143857510Y-71883010D02*
X147090490Y-71883010D01*
X147090490Y-71883010D02*
X147828000Y-71145500D01*
X141668500Y-69694000D02*
X143857510Y-71883010D01*
X141668500Y-68894000D02*
X141668500Y-69694000D01*
%TO.N,Net-(D2-Pad2)*%
X146304000Y-69570500D02*
X146304000Y-68135000D01*
%TO.N,Net-(D2-Pad1)*%
X137858500Y-64399002D02*
X137858500Y-63694000D01*
X140613503Y-64594001D02*
X138053499Y-64594001D01*
X144073501Y-68053999D02*
X140613503Y-64594001D01*
X144073501Y-69390001D02*
X144073501Y-68053999D01*
X138053499Y-64594001D02*
X137858500Y-64399002D01*
X145829000Y-71145500D02*
X144073501Y-69390001D01*
X146304000Y-71145500D02*
X145829000Y-71145500D01*
D26*
%TO.N,Net-(D3-Pad2)*%
X141033000Y-74422000D02*
X142494000Y-74422000D01*
D27*
%TO.N,Net-(R2-Pad2)*%
X137607500Y-68643000D02*
X137858500Y-68894000D01*
X135128000Y-68643000D02*
X137607500Y-68643000D01*
%TO.N,Net-(R3-Pad2)*%
X138493500Y-69599002D02*
X138493500Y-68894000D01*
X138298501Y-69794001D02*
X138493500Y-69599002D01*
X134755001Y-69794001D02*
X138298501Y-69794001D01*
X133604000Y-68643000D02*
X134755001Y-69794001D01*
D26*
%TO.N,Net-(R7-Pad1)*%
X138786000Y-75019000D02*
X139383000Y-74422000D01*
X138786000Y-76294000D02*
X138786000Y-75019000D01*
D27*
%TO.N,RX*%
X144476201Y-67301701D02*
X144771701Y-67301701D01*
X141668500Y-64494000D02*
X144476201Y-67301701D01*
X141668500Y-63694000D02*
X141668500Y-64494000D01*
X143510000Y-87618000D02*
X143586000Y-87694000D01*
X143510000Y-77724000D02*
X143510000Y-87618000D01*
%TO.N,TX*%
X143573500Y-70856536D02*
X144054482Y-71337518D01*
X143573500Y-68894000D02*
X143573500Y-70856536D01*
X142859997Y-87620003D02*
X142786000Y-87694000D01*
X142859997Y-77724000D02*
X142859997Y-87620003D01*
%TO.N,Net-(FB1-Pad2)*%
X136847107Y-71086607D02*
X136847107Y-70319001D01*
X137922000Y-72161500D02*
X136847107Y-71086607D01*
X141882000Y-62170000D02*
X141882000Y-61270000D01*
X137942497Y-62270001D02*
X141781999Y-62270001D01*
X136906000Y-63306498D02*
X137942497Y-62270001D01*
X141781999Y-62270001D02*
X141882000Y-62170000D01*
X136906000Y-68118000D02*
X136906000Y-63306498D01*
%TO.N,D+*%
X135128000Y-66993000D02*
X135128000Y-65545000D01*
X140582000Y-61270000D02*
X140432001Y-61270000D01*
X140432001Y-61270000D02*
X140432001Y-60329999D01*
X140432001Y-60329999D02*
X140372001Y-60269999D01*
X140372001Y-60269999D02*
X138841999Y-60269999D01*
X138841999Y-60269999D02*
X136353001Y-62758997D01*
X135128000Y-65195001D02*
X135128000Y-65545000D01*
X136353001Y-62758997D02*
X136353001Y-64623860D01*
X136353001Y-64623860D02*
X135781860Y-65195001D01*
X135781860Y-65195001D02*
X135128000Y-65195001D01*
%TO.N,D-*%
X133604000Y-66993000D02*
X133604000Y-65545000D01*
X134532261Y-64616739D02*
X133604000Y-65545000D01*
X134660532Y-64745010D02*
X134532261Y-64616739D01*
X135903010Y-62572605D02*
X135903010Y-64437468D01*
X138655607Y-59820008D02*
X135903010Y-62572605D01*
X135903010Y-64437468D02*
X135595468Y-64745010D01*
X141232000Y-61270000D02*
X141082001Y-61120001D01*
X141082001Y-61120001D02*
X141082001Y-60343616D01*
X135595468Y-64745010D02*
X134660532Y-64745010D01*
X141082001Y-60343616D02*
X140558393Y-59820008D01*
X140558393Y-59820008D02*
X138655607Y-59820008D01*
%TO.N,PROG_RESET*%
X120904000Y-88138000D02*
X120904000Y-85598000D01*
D26*
X122079001Y-89313001D02*
X120904000Y-88138000D01*
X130829401Y-89313001D02*
X122079001Y-89313001D01*
X132512800Y-90996400D02*
X130829401Y-89313001D01*
X132512800Y-91846400D02*
X132512800Y-90996400D01*
%TO.N,VCC*%
X137986000Y-89077000D02*
X137986000Y-87694000D01*
X137401000Y-89662000D02*
X137986000Y-89077000D01*
X134499000Y-78981000D02*
X134686000Y-78794000D01*
X132842000Y-78981000D02*
X134499000Y-78981000D01*
X136386000Y-74423000D02*
X136385000Y-74422000D01*
X136386000Y-76294000D02*
X136386000Y-74423000D01*
X147965000Y-85194000D02*
X148082000Y-85077000D01*
X146086000Y-85194000D02*
X147965000Y-85194000D01*
X144386000Y-75565000D02*
X145529000Y-74422000D01*
X144386000Y-76294000D02*
X144386000Y-75565000D01*
D27*
X152479000Y-68580000D02*
X152479000Y-67056000D01*
X153229010Y-66305990D02*
X153229010Y-63991010D01*
X153229010Y-63991010D02*
X153212000Y-63974000D01*
X152479000Y-67056000D02*
X153229010Y-66305990D01*
X153532000Y-61174000D02*
X153212000Y-61174000D01*
X154212010Y-61854010D02*
X153532000Y-61174000D01*
X154212010Y-63293990D02*
X154212010Y-61854010D01*
X153532000Y-63974000D02*
X154212010Y-63293990D01*
X153212000Y-63974000D02*
X153532000Y-63974000D01*
X147667980Y-72283020D02*
X145529000Y-74422000D01*
X148775980Y-72283020D02*
X147667980Y-72283020D01*
X152479000Y-68580000D02*
X148775980Y-72283020D01*
X144386000Y-84444000D02*
X144386000Y-76294000D01*
X145136000Y-85194000D02*
X144386000Y-84444000D01*
X146086000Y-85194000D02*
X145136000Y-85194000D01*
X140402000Y-84328000D02*
X142240000Y-84328000D01*
X137986000Y-86744000D02*
X140402000Y-84328000D01*
X137986000Y-87694000D02*
X137986000Y-86744000D01*
X135636000Y-78794000D02*
X134686000Y-78794000D01*
X136386000Y-78044000D02*
X136386000Y-76294000D01*
X135636000Y-78794000D02*
X136386000Y-78044000D01*
X125222000Y-79311000D02*
X125222000Y-79248000D01*
X129715475Y-78981000D02*
X132842000Y-78981000D01*
X129194475Y-79502000D02*
X129715475Y-78981000D01*
X121603510Y-79961010D02*
X120128500Y-78486000D01*
X123843826Y-79961010D02*
X121603510Y-79961010D01*
X124556836Y-79248000D02*
X123843826Y-79961010D01*
X125222000Y-79248000D02*
X124556836Y-79248000D01*
X136639000Y-90424000D02*
X134874000Y-90424000D01*
X137401000Y-89662000D02*
X136639000Y-90424000D01*
X133287000Y-90424000D02*
X132525000Y-89662000D01*
X133350000Y-90424000D02*
X133287000Y-90424000D01*
D26*
X120128500Y-77202500D02*
X119888000Y-76962000D01*
X120128500Y-78486000D02*
X120128500Y-77202500D01*
D27*
X135636000Y-78994000D02*
X135636000Y-78794000D01*
X136144000Y-79502000D02*
X135636000Y-78994000D01*
D26*
%TO.N,PROG_RESET_FLIP*%
X134953010Y-88883990D02*
X134175000Y-89662000D01*
X136806012Y-88883990D02*
X134953010Y-88883990D01*
X137186000Y-88504002D02*
X136806012Y-88883990D01*
X137186000Y-87694000D02*
X137186000Y-88504002D01*
X134175000Y-89662000D02*
X134175000Y-91186000D01*
D27*
X135678020Y-89609000D02*
X134953010Y-88883990D01*
X135692000Y-89609000D02*
X135678020Y-89609000D01*
D26*
X134835400Y-91846400D02*
X134175000Y-91186000D01*
X135812800Y-91846400D02*
X134835400Y-91846400D01*
D27*
%TO.N,Net-(C12-Pad2)*%
X147878000Y-61455000D02*
X147828000Y-61405000D01*
X149352000Y-61455000D02*
X147878000Y-61455000D01*
X149990000Y-60817000D02*
X149352000Y-61455000D01*
X149990000Y-59436000D02*
X149990000Y-60817000D01*
X150931000Y-61455000D02*
X151212000Y-61174000D01*
X149352000Y-61455000D02*
X150931000Y-61455000D01*
D26*
%TO.N,Net-(C15-Pad2)*%
X134651000Y-82029000D02*
X134686000Y-81994000D01*
D27*
X132968263Y-83579000D02*
X133008501Y-83619238D01*
X132842000Y-83579000D02*
X132968263Y-83579000D01*
X135451002Y-81994000D02*
X134686000Y-81994000D01*
X136144000Y-82686998D02*
X135451002Y-81994000D01*
X136144000Y-83566000D02*
X136144000Y-82686998D01*
%TD*%
D28*
%TO.N,GND*%
X135047000Y-58134250D02*
X135205750Y-58293000D01*
X136705000Y-58293000D01*
X136705000Y-58273000D01*
X136959000Y-58273000D01*
X136959000Y-58293000D01*
X139305000Y-58293000D01*
X139305000Y-58273000D01*
X139559000Y-58273000D01*
X139559000Y-58293000D01*
X141605000Y-58293000D01*
X141605000Y-58273000D01*
X141859000Y-58273000D01*
X141859000Y-58293000D01*
X144205000Y-58293000D01*
X144205000Y-58273000D01*
X144459000Y-58273000D01*
X144459000Y-58293000D01*
X145958250Y-58293000D01*
X146117000Y-58134250D01*
X146119790Y-57531000D01*
X155321000Y-57531000D01*
X155321000Y-94361000D01*
X118491000Y-94361000D01*
X118491000Y-91034890D01*
X119462524Y-91034890D01*
X119507175Y-91182099D01*
X119632359Y-91444920D01*
X119806412Y-91678269D01*
X120022645Y-91873178D01*
X120272748Y-92022157D01*
X120547109Y-92119481D01*
X120777000Y-91998814D01*
X120777000Y-90805000D01*
X119583845Y-90805000D01*
X119462524Y-91034890D01*
X118491000Y-91034890D01*
X118491000Y-74166851D01*
X121710213Y-74137585D01*
X121699613Y-74157418D01*
X120974000Y-74157418D01*
X120909897Y-74163732D01*
X120848257Y-74182430D01*
X120791450Y-74212794D01*
X120741657Y-74253657D01*
X120700794Y-74303450D01*
X120670430Y-74360257D01*
X120651732Y-74421897D01*
X120645418Y-74486000D01*
X120645418Y-76486000D01*
X120651732Y-76550103D01*
X120670430Y-76611743D01*
X120700794Y-76668550D01*
X120741657Y-76718343D01*
X120791450Y-76759206D01*
X120848257Y-76789570D01*
X120909897Y-76808268D01*
X120974000Y-76814582D01*
X121699613Y-76814582D01*
X121713463Y-76840494D01*
X121792815Y-76937185D01*
X121889506Y-77016537D01*
X121958627Y-77053483D01*
X121951498Y-77066820D01*
X121915188Y-77186518D01*
X121902928Y-77311000D01*
X121906000Y-78200250D01*
X122064750Y-78359000D01*
X123076500Y-78359000D01*
X123076500Y-78339000D01*
X123330500Y-78339000D01*
X123330500Y-78359000D01*
X124342250Y-78359000D01*
X124501000Y-78200250D01*
X124501198Y-78142874D01*
X124507500Y-78154664D01*
X124573236Y-78234764D01*
X124653336Y-78300500D01*
X124744720Y-78349346D01*
X124843879Y-78379425D01*
X124947000Y-78389582D01*
X125346714Y-78389582D01*
X125544199Y-78587067D01*
X125497000Y-78582418D01*
X124947000Y-78582418D01*
X124843879Y-78592575D01*
X124744720Y-78622654D01*
X124653336Y-78671500D01*
X124573236Y-78737236D01*
X124507500Y-78817336D01*
X124503857Y-78824152D01*
X124501182Y-78824415D01*
X124501000Y-78771750D01*
X124342250Y-78613000D01*
X123330500Y-78613000D01*
X123330500Y-78633000D01*
X123076500Y-78633000D01*
X123076500Y-78613000D01*
X122064750Y-78613000D01*
X121906000Y-78771750D01*
X121903367Y-79534010D01*
X121780380Y-79534010D01*
X121119582Y-78873213D01*
X121119582Y-77560997D01*
X121108465Y-77448122D01*
X121075540Y-77339584D01*
X121022074Y-77239556D01*
X120950120Y-77151880D01*
X120862444Y-77079926D01*
X120762416Y-77026460D01*
X120653878Y-76993535D01*
X120615000Y-76989706D01*
X120615000Y-76890397D01*
X120587062Y-76749942D01*
X120532259Y-76617636D01*
X120452698Y-76498564D01*
X120351436Y-76397302D01*
X120232364Y-76317741D01*
X120100058Y-76262938D01*
X119959603Y-76235000D01*
X119816397Y-76235000D01*
X119675942Y-76262938D01*
X119543636Y-76317741D01*
X119424564Y-76397302D01*
X119323302Y-76498564D01*
X119243741Y-76617636D01*
X119188938Y-76749942D01*
X119161000Y-76890397D01*
X119161000Y-77033603D01*
X119188938Y-77174058D01*
X119224302Y-77259433D01*
X119181460Y-77339584D01*
X119148535Y-77448122D01*
X119137418Y-77560997D01*
X119137418Y-79411003D01*
X119148535Y-79523878D01*
X119181460Y-79632416D01*
X119234926Y-79732444D01*
X119306880Y-79820120D01*
X119394556Y-79892074D01*
X119494584Y-79945540D01*
X119603122Y-79978465D01*
X119715997Y-79989582D01*
X120541003Y-79989582D01*
X120653878Y-79978465D01*
X120762416Y-79945540D01*
X120862444Y-79892074D01*
X120899936Y-79861305D01*
X121286751Y-80248121D01*
X121300115Y-80264405D01*
X121316399Y-80277769D01*
X121316408Y-80277778D01*
X121365133Y-80317765D01*
X121404783Y-80338958D01*
X121439314Y-80357415D01*
X121519803Y-80381832D01*
X121582532Y-80388010D01*
X121582542Y-80388010D01*
X121603509Y-80390075D01*
X121624476Y-80388010D01*
X123808119Y-80388010D01*
X122006899Y-82189231D01*
X121990604Y-82202604D01*
X121977232Y-82218898D01*
X121977231Y-82218899D01*
X121937244Y-82267623D01*
X121924967Y-82290593D01*
X121897594Y-82341804D01*
X121879929Y-82400036D01*
X121818236Y-82307706D01*
X121654294Y-82143764D01*
X121461519Y-82014956D01*
X121247318Y-81926231D01*
X121019924Y-81881000D01*
X120788076Y-81881000D01*
X120560682Y-81926231D01*
X120346481Y-82014956D01*
X120153706Y-82143764D01*
X119989764Y-82307706D01*
X119860956Y-82500481D01*
X119772231Y-82714682D01*
X119727000Y-82942076D01*
X119727000Y-83173924D01*
X119772231Y-83401318D01*
X119860956Y-83615519D01*
X119989764Y-83808294D01*
X120153706Y-83972236D01*
X120346481Y-84101044D01*
X120560682Y-84189769D01*
X120788076Y-84235000D01*
X121019924Y-84235000D01*
X121247318Y-84189769D01*
X121461519Y-84101044D01*
X121654294Y-83972236D01*
X121818236Y-83808294D01*
X121866999Y-83735315D01*
X121867000Y-84920686D01*
X121818236Y-84847706D01*
X121654294Y-84683764D01*
X121461519Y-84554956D01*
X121247318Y-84466231D01*
X121019924Y-84421000D01*
X120788076Y-84421000D01*
X120560682Y-84466231D01*
X120346481Y-84554956D01*
X120153706Y-84683764D01*
X119989764Y-84847706D01*
X119860956Y-85040481D01*
X119772231Y-85254682D01*
X119727000Y-85482076D01*
X119727000Y-85713924D01*
X119772231Y-85941318D01*
X119860956Y-86155519D01*
X119989764Y-86348294D01*
X120153706Y-86512236D01*
X120346481Y-86641044D01*
X120477001Y-86695107D01*
X120477000Y-87040893D01*
X120346481Y-87094956D01*
X120153706Y-87223764D01*
X119989764Y-87387706D01*
X119860956Y-87580481D01*
X119772231Y-87794682D01*
X119727000Y-88022076D01*
X119727000Y-88253924D01*
X119772231Y-88481318D01*
X119860956Y-88695519D01*
X119989764Y-88888294D01*
X120153706Y-89052236D01*
X120346481Y-89181044D01*
X120511179Y-89249264D01*
X120272748Y-89333843D01*
X120022645Y-89482822D01*
X119806412Y-89677731D01*
X119632359Y-89911080D01*
X119507175Y-90173901D01*
X119462524Y-90321110D01*
X119583845Y-90551000D01*
X120777000Y-90551000D01*
X120777000Y-90531000D01*
X121031000Y-90531000D01*
X121031000Y-90551000D01*
X121051000Y-90551000D01*
X121051000Y-90805000D01*
X121031000Y-90805000D01*
X121031000Y-91998814D01*
X121260891Y-92119481D01*
X121535252Y-92022157D01*
X121785355Y-91873178D01*
X122001588Y-91678269D01*
X122175641Y-91444920D01*
X122265418Y-91256435D01*
X122265418Y-91528000D01*
X122271732Y-91592103D01*
X122290430Y-91653743D01*
X122320794Y-91710550D01*
X122361657Y-91760343D01*
X122411450Y-91801206D01*
X122468257Y-91831570D01*
X122529897Y-91850268D01*
X122594000Y-91856582D01*
X124294000Y-91856582D01*
X124358103Y-91850268D01*
X124419743Y-91831570D01*
X124476550Y-91801206D01*
X124526343Y-91760343D01*
X124567206Y-91710550D01*
X124597570Y-91653743D01*
X124616268Y-91592103D01*
X124622582Y-91528000D01*
X124622582Y-90865286D01*
X125019869Y-90468000D01*
X125022367Y-90468000D01*
X125129012Y-90446787D01*
X125229470Y-90405176D01*
X125319880Y-90344766D01*
X125396766Y-90267880D01*
X125457176Y-90177470D01*
X125498787Y-90077012D01*
X125520000Y-89970367D01*
X125520000Y-89861633D01*
X125500779Y-89765001D01*
X130642178Y-89765001D01*
X131863838Y-90986662D01*
X131830457Y-91014057D01*
X131789594Y-91063850D01*
X131759230Y-91120657D01*
X131740532Y-91182297D01*
X131734218Y-91246400D01*
X131734218Y-92446400D01*
X131740532Y-92510503D01*
X131759230Y-92572143D01*
X131789594Y-92628950D01*
X131830457Y-92678743D01*
X131880250Y-92719606D01*
X131937057Y-92749970D01*
X131998697Y-92768668D01*
X132062800Y-92774982D01*
X132962800Y-92774982D01*
X133026903Y-92768668D01*
X133088543Y-92749970D01*
X133145350Y-92719606D01*
X133195143Y-92678743D01*
X133236006Y-92628950D01*
X133266370Y-92572143D01*
X133285068Y-92510503D01*
X133291382Y-92446400D01*
X133291382Y-91246400D01*
X133285068Y-91182297D01*
X133266370Y-91120657D01*
X133236006Y-91063850D01*
X133195143Y-91014057D01*
X133145350Y-90973194D01*
X133088543Y-90942830D01*
X133026903Y-90924132D01*
X132962800Y-90917818D01*
X132959247Y-90917818D01*
X132958260Y-90907792D01*
X132932414Y-90822590D01*
X132910053Y-90780756D01*
X132890443Y-90744067D01*
X132833959Y-90675241D01*
X132816705Y-90661081D01*
X132621206Y-90465582D01*
X132724713Y-90465582D01*
X132813023Y-90553892D01*
X132819213Y-90585012D01*
X132860824Y-90685470D01*
X132921234Y-90775880D01*
X132998120Y-90852766D01*
X133088530Y-90913176D01*
X133188988Y-90954787D01*
X133295633Y-90976000D01*
X133404367Y-90976000D01*
X133511012Y-90954787D01*
X133611470Y-90913176D01*
X133701880Y-90852766D01*
X133723001Y-90831645D01*
X133723001Y-91163785D01*
X133720813Y-91186000D01*
X133729540Y-91274607D01*
X133755386Y-91359809D01*
X133777371Y-91400940D01*
X133797358Y-91438333D01*
X133853842Y-91507159D01*
X133871096Y-91521319D01*
X134500081Y-92150305D01*
X134514241Y-92167559D01*
X134583067Y-92224043D01*
X134632569Y-92250502D01*
X134661590Y-92266014D01*
X134746792Y-92291860D01*
X134835400Y-92300587D01*
X134857605Y-92298400D01*
X135034218Y-92298400D01*
X135034218Y-92446400D01*
X135040532Y-92510503D01*
X135059230Y-92572143D01*
X135089594Y-92628950D01*
X135130457Y-92678743D01*
X135180250Y-92719606D01*
X135237057Y-92749970D01*
X135298697Y-92768668D01*
X135362800Y-92774982D01*
X136262800Y-92774982D01*
X136326903Y-92768668D01*
X136388543Y-92749970D01*
X136445350Y-92719606D01*
X136495143Y-92678743D01*
X136536006Y-92628950D01*
X136566370Y-92572143D01*
X136585068Y-92510503D01*
X136591382Y-92446400D01*
X136591382Y-92187332D01*
X136596506Y-92191537D01*
X136706820Y-92250502D01*
X136826518Y-92286812D01*
X136951000Y-92299072D01*
X137115250Y-92296000D01*
X137274000Y-92137250D01*
X137274000Y-91313000D01*
X137254000Y-91313000D01*
X137254000Y-91059000D01*
X137274000Y-91059000D01*
X137274000Y-91039000D01*
X137528000Y-91039000D01*
X137528000Y-91059000D01*
X137548000Y-91059000D01*
X137548000Y-91313000D01*
X137528000Y-91313000D01*
X137528000Y-92137250D01*
X137686750Y-92296000D01*
X137851000Y-92299072D01*
X137975482Y-92286812D01*
X138095180Y-92250502D01*
X138205494Y-92191537D01*
X138302185Y-92112185D01*
X138381537Y-92015494D01*
X138439298Y-91907433D01*
X138514153Y-91947443D01*
X138618002Y-91978945D01*
X138726000Y-91989582D01*
X139176000Y-91989582D01*
X139283998Y-91978945D01*
X139387847Y-91947443D01*
X139483554Y-91896287D01*
X139567442Y-91827442D01*
X139636287Y-91743554D01*
X139687443Y-91647847D01*
X139698014Y-91613000D01*
X139719418Y-91613000D01*
X139719418Y-91878000D01*
X139725732Y-91942103D01*
X139744430Y-92003743D01*
X139774794Y-92060550D01*
X139815657Y-92110343D01*
X139865450Y-92151206D01*
X139922257Y-92181570D01*
X139983897Y-92200268D01*
X140048000Y-92206582D01*
X141748000Y-92206582D01*
X141812103Y-92200268D01*
X141873743Y-92181570D01*
X141930550Y-92151206D01*
X141980343Y-92110343D01*
X142021206Y-92060550D01*
X142051570Y-92003743D01*
X142070268Y-91942103D01*
X142076582Y-91878000D01*
X142076582Y-89604999D01*
X142921131Y-89604999D01*
X143419418Y-90103286D01*
X143419418Y-91878000D01*
X143425732Y-91942103D01*
X143444430Y-92003743D01*
X143474794Y-92060550D01*
X143515657Y-92110343D01*
X143565450Y-92151206D01*
X143622257Y-92181570D01*
X143683897Y-92200268D01*
X143748000Y-92206582D01*
X145448000Y-92206582D01*
X145512103Y-92200268D01*
X145573743Y-92181570D01*
X145630550Y-92151206D01*
X145670188Y-92118677D01*
X145728506Y-92166537D01*
X145838820Y-92225502D01*
X145958518Y-92261812D01*
X146083000Y-92274072D01*
X146272250Y-92271000D01*
X146431000Y-92112250D01*
X146431000Y-91313000D01*
X146685000Y-91313000D01*
X146685000Y-92112250D01*
X146843750Y-92271000D01*
X147033000Y-92274072D01*
X147157482Y-92261812D01*
X147277180Y-92225502D01*
X147387494Y-92166537D01*
X147484185Y-92087185D01*
X147563537Y-91990494D01*
X147622502Y-91880180D01*
X147658812Y-91760482D01*
X147671072Y-91636000D01*
X147668000Y-91471750D01*
X147509250Y-91313000D01*
X146685000Y-91313000D01*
X146431000Y-91313000D01*
X146411000Y-91313000D01*
X146411000Y-91059000D01*
X146431000Y-91059000D01*
X146431000Y-91039000D01*
X146685000Y-91039000D01*
X146685000Y-91059000D01*
X147509250Y-91059000D01*
X147668000Y-90900250D01*
X147671072Y-90736000D01*
X147658812Y-90611518D01*
X147622502Y-90491820D01*
X147563537Y-90381506D01*
X147484185Y-90284815D01*
X147387494Y-90205463D01*
X147279433Y-90147702D01*
X147319443Y-90072847D01*
X147350945Y-89968998D01*
X147361582Y-89861000D01*
X147361582Y-89411000D01*
X147350945Y-89303002D01*
X147319443Y-89199153D01*
X147268287Y-89103446D01*
X147199442Y-89019558D01*
X147115554Y-88950713D01*
X147019847Y-88899557D01*
X146915998Y-88868055D01*
X146808000Y-88857418D01*
X146308000Y-88857418D01*
X146200002Y-88868055D01*
X146096153Y-88899557D01*
X146000446Y-88950713D01*
X145916558Y-89019558D01*
X145847713Y-89103446D01*
X145796557Y-89199153D01*
X145793570Y-89209000D01*
X145660967Y-89209000D01*
X145640000Y-89206935D01*
X145633892Y-89207537D01*
X145630550Y-89204794D01*
X145573743Y-89174430D01*
X145512103Y-89155732D01*
X145448000Y-89149418D01*
X143748000Y-89149418D01*
X143683897Y-89155732D01*
X143680600Y-89156732D01*
X143414766Y-88890898D01*
X143401394Y-88874604D01*
X143336375Y-88821244D01*
X143262195Y-88781594D01*
X143181706Y-88757177D01*
X143161600Y-88755197D01*
X143186000Y-88747795D01*
X143246897Y-88766268D01*
X143311000Y-88772582D01*
X143861000Y-88772582D01*
X143925103Y-88766268D01*
X143986000Y-88747795D01*
X144046897Y-88766268D01*
X144111000Y-88772582D01*
X144661000Y-88772582D01*
X144725103Y-88766268D01*
X144786743Y-88747570D01*
X144843550Y-88717206D01*
X144893343Y-88676343D01*
X144934206Y-88626550D01*
X144964570Y-88569743D01*
X144983268Y-88508103D01*
X144989582Y-88444000D01*
X144989582Y-86944000D01*
X144983268Y-86879897D01*
X144964570Y-86818257D01*
X144934206Y-86761450D01*
X144932412Y-86759264D01*
X144984182Y-86801316D01*
X145094792Y-86859724D01*
X145214671Y-86895430D01*
X145339213Y-86907064D01*
X145800250Y-86904000D01*
X145959000Y-86745250D01*
X145959000Y-86121000D01*
X144859750Y-86121000D01*
X144701000Y-86279750D01*
X144710823Y-86396631D01*
X144747735Y-86516145D01*
X144807254Y-86626161D01*
X144845775Y-86672620D01*
X144843550Y-86670794D01*
X144786743Y-86640430D01*
X144725103Y-86621732D01*
X144661000Y-86615418D01*
X144111000Y-86615418D01*
X144046897Y-86621732D01*
X143986000Y-86640205D01*
X143937000Y-86625341D01*
X143937000Y-84765598D01*
X143957234Y-84795880D01*
X144034120Y-84872766D01*
X144124530Y-84933176D01*
X144224988Y-84974787D01*
X144331633Y-84996000D01*
X144334131Y-84996000D01*
X144769589Y-85431459D01*
X144747735Y-85471855D01*
X144710823Y-85591369D01*
X144701000Y-85708250D01*
X144859750Y-85867000D01*
X145959000Y-85867000D01*
X145959000Y-85847000D01*
X146213000Y-85847000D01*
X146213000Y-85867000D01*
X146233000Y-85867000D01*
X146233000Y-86121000D01*
X146213000Y-86121000D01*
X146213000Y-86745250D01*
X146371750Y-86904000D01*
X146832787Y-86907064D01*
X146957329Y-86895430D01*
X147002891Y-86881859D01*
X146972000Y-86912750D01*
X146968928Y-87077000D01*
X146981188Y-87201482D01*
X147017498Y-87321180D01*
X147076463Y-87431494D01*
X147155815Y-87528185D01*
X147252506Y-87607537D01*
X147362820Y-87666502D01*
X147482518Y-87702812D01*
X147607000Y-87715072D01*
X147796250Y-87712000D01*
X147955000Y-87553250D01*
X147955000Y-86754000D01*
X148209000Y-86754000D01*
X148209000Y-87553250D01*
X148367750Y-87712000D01*
X148557000Y-87715072D01*
X148681482Y-87702812D01*
X148801180Y-87666502D01*
X148911494Y-87607537D01*
X149008185Y-87528185D01*
X149087537Y-87431494D01*
X149146502Y-87321180D01*
X149182812Y-87201482D01*
X149195072Y-87077000D01*
X149192000Y-86912750D01*
X149033250Y-86754000D01*
X148209000Y-86754000D01*
X147955000Y-86754000D01*
X147935000Y-86754000D01*
X147935000Y-86500000D01*
X147955000Y-86500000D01*
X147955000Y-86480000D01*
X148209000Y-86480000D01*
X148209000Y-86500000D01*
X149033250Y-86500000D01*
X149192000Y-86341250D01*
X149195072Y-86177000D01*
X149182812Y-86052518D01*
X149146502Y-85932820D01*
X149087537Y-85822506D01*
X149008185Y-85725815D01*
X148911494Y-85646463D01*
X148803433Y-85588702D01*
X148843443Y-85513847D01*
X148874945Y-85409998D01*
X148885582Y-85302000D01*
X148885582Y-84852000D01*
X148874945Y-84744002D01*
X148843443Y-84640153D01*
X148792287Y-84544446D01*
X148723442Y-84460558D01*
X148639554Y-84391713D01*
X148543847Y-84340557D01*
X148439998Y-84309055D01*
X148332000Y-84298418D01*
X147832000Y-84298418D01*
X147724002Y-84309055D01*
X147620153Y-84340557D01*
X147524446Y-84391713D01*
X147440558Y-84460558D01*
X147371713Y-84544446D01*
X147320557Y-84640153D01*
X147289662Y-84742000D01*
X147155569Y-84742000D01*
X147158268Y-84733103D01*
X147164582Y-84669000D01*
X147164582Y-84119000D01*
X147158268Y-84054897D01*
X147139795Y-83994000D01*
X147158268Y-83933103D01*
X147164582Y-83869000D01*
X147164582Y-83319000D01*
X147158268Y-83254897D01*
X147139795Y-83194000D01*
X147158268Y-83133103D01*
X147164582Y-83069000D01*
X147164582Y-82519000D01*
X147158268Y-82454897D01*
X147139795Y-82394000D01*
X147158268Y-82333103D01*
X147164582Y-82269000D01*
X147164582Y-81719000D01*
X147158268Y-81654897D01*
X147139795Y-81594000D01*
X147158268Y-81533103D01*
X147164582Y-81469000D01*
X147164582Y-80919000D01*
X147158268Y-80854897D01*
X147139795Y-80794000D01*
X147158268Y-80733103D01*
X147164582Y-80669000D01*
X147164582Y-80119000D01*
X147158268Y-80054897D01*
X147139795Y-79994000D01*
X147158268Y-79933103D01*
X147164582Y-79869000D01*
X147164582Y-79319000D01*
X147158268Y-79254897D01*
X147139795Y-79194000D01*
X147158268Y-79133103D01*
X147164582Y-79069000D01*
X147164582Y-78519000D01*
X147158268Y-78454897D01*
X147139795Y-78394000D01*
X147158268Y-78333103D01*
X147164582Y-78269000D01*
X147164582Y-77719000D01*
X147158268Y-77654897D01*
X147139570Y-77593257D01*
X147109206Y-77536450D01*
X147068343Y-77486657D01*
X147018550Y-77445794D01*
X146961743Y-77415430D01*
X146900103Y-77396732D01*
X146836000Y-77390418D01*
X145336000Y-77390418D01*
X145271897Y-77396732D01*
X145210257Y-77415430D01*
X145153450Y-77445794D01*
X145103657Y-77486657D01*
X145062794Y-77536450D01*
X145032430Y-77593257D01*
X145013732Y-77654897D01*
X145007418Y-77719000D01*
X145007418Y-78269000D01*
X145013732Y-78333103D01*
X145032205Y-78394000D01*
X145013732Y-78454897D01*
X145007418Y-78519000D01*
X145007418Y-79069000D01*
X145013732Y-79133103D01*
X145032205Y-79194000D01*
X145013732Y-79254897D01*
X145007418Y-79319000D01*
X145007418Y-79869000D01*
X145013732Y-79933103D01*
X145032205Y-79994000D01*
X145013732Y-80054897D01*
X145007418Y-80119000D01*
X145007418Y-80669000D01*
X145013732Y-80733103D01*
X145032205Y-80794000D01*
X145013732Y-80854897D01*
X145007418Y-80919000D01*
X145007418Y-81469000D01*
X145013732Y-81533103D01*
X145032205Y-81594000D01*
X145013732Y-81654897D01*
X145007418Y-81719000D01*
X145007418Y-82269000D01*
X145013732Y-82333103D01*
X145032205Y-82394000D01*
X145013732Y-82454897D01*
X145007418Y-82519000D01*
X145007418Y-83069000D01*
X145013732Y-83133103D01*
X145032205Y-83194000D01*
X145013732Y-83254897D01*
X145007418Y-83319000D01*
X145007418Y-83869000D01*
X145013732Y-83933103D01*
X145032205Y-83994000D01*
X145013732Y-84054897D01*
X145007418Y-84119000D01*
X145007418Y-84461549D01*
X144938000Y-84392131D01*
X144938000Y-84389633D01*
X144916787Y-84282988D01*
X144875176Y-84182530D01*
X144814766Y-84092120D01*
X144813000Y-84090354D01*
X144813000Y-77333535D01*
X144843550Y-77317206D01*
X144893343Y-77276343D01*
X144934206Y-77226550D01*
X144964570Y-77169743D01*
X144983268Y-77108103D01*
X144989582Y-77044000D01*
X144989582Y-75600642D01*
X145364642Y-75225582D01*
X145754000Y-75225582D01*
X145861998Y-75214945D01*
X145965847Y-75183443D01*
X146040702Y-75143433D01*
X146098463Y-75251494D01*
X146177815Y-75348185D01*
X146274506Y-75427537D01*
X146384820Y-75486502D01*
X146504518Y-75522812D01*
X146629000Y-75535072D01*
X146793250Y-75532000D01*
X146952000Y-75373250D01*
X146952000Y-74549000D01*
X147206000Y-74549000D01*
X147206000Y-75373250D01*
X147364750Y-75532000D01*
X147529000Y-75535072D01*
X147653482Y-75522812D01*
X147773180Y-75486502D01*
X147883494Y-75427537D01*
X147980185Y-75348185D01*
X148059537Y-75251494D01*
X148118502Y-75141180D01*
X148154812Y-75021482D01*
X148167072Y-74897000D01*
X148164000Y-74707750D01*
X148005250Y-74549000D01*
X147206000Y-74549000D01*
X146952000Y-74549000D01*
X146932000Y-74549000D01*
X146932000Y-74295000D01*
X146952000Y-74295000D01*
X146952000Y-74275000D01*
X147206000Y-74275000D01*
X147206000Y-74295000D01*
X148005250Y-74295000D01*
X148164000Y-74136250D01*
X148167072Y-73947000D01*
X148154812Y-73822518D01*
X148118502Y-73702820D01*
X148059537Y-73592506D01*
X147980185Y-73495815D01*
X147883494Y-73416463D01*
X147773180Y-73357498D01*
X147653482Y-73321188D01*
X147529000Y-73308928D01*
X147364750Y-73312000D01*
X147206002Y-73470748D01*
X147206002Y-73348867D01*
X147844849Y-72710020D01*
X148755013Y-72710020D01*
X148775980Y-72712085D01*
X148796947Y-72710020D01*
X148796958Y-72710020D01*
X148859687Y-72703842D01*
X148940176Y-72679425D01*
X149014356Y-72639775D01*
X149079375Y-72586415D01*
X149092748Y-72570120D01*
X152279287Y-69383582D01*
X152704000Y-69383582D01*
X152811998Y-69372945D01*
X152915847Y-69341443D01*
X153011554Y-69290287D01*
X153095442Y-69221442D01*
X153164287Y-69137554D01*
X153215443Y-69041847D01*
X153246945Y-68937998D01*
X153257582Y-68830000D01*
X153257582Y-68330000D01*
X153246945Y-68222002D01*
X153215443Y-68118153D01*
X153164287Y-68022446D01*
X153095442Y-67938558D01*
X153011554Y-67869713D01*
X152915847Y-67818557D01*
X152914011Y-67818000D01*
X152915847Y-67817443D01*
X153011554Y-67766287D01*
X153095442Y-67697442D01*
X153164287Y-67613554D01*
X153215443Y-67517847D01*
X153246945Y-67413998D01*
X153257582Y-67306000D01*
X153257582Y-66881287D01*
X153516122Y-66622748D01*
X153532405Y-66609385D01*
X153545769Y-66593101D01*
X153545778Y-66593092D01*
X153585765Y-66544367D01*
X153610310Y-66498446D01*
X153625415Y-66470186D01*
X153649832Y-66389697D01*
X153656010Y-66326968D01*
X153656010Y-66326956D01*
X153658075Y-66305991D01*
X153656010Y-66285026D01*
X153656010Y-64382596D01*
X153696196Y-64370405D01*
X153770376Y-64330755D01*
X153835395Y-64277395D01*
X153848768Y-64261100D01*
X154499122Y-63610748D01*
X154515405Y-63597385D01*
X154528769Y-63581101D01*
X154528778Y-63581092D01*
X154568765Y-63532367D01*
X154590635Y-63491450D01*
X154608415Y-63458186D01*
X154632832Y-63377697D01*
X154639010Y-63314968D01*
X154639010Y-63314956D01*
X154641075Y-63293991D01*
X154639010Y-63273026D01*
X154639010Y-61874974D01*
X154641075Y-61854009D01*
X154639010Y-61833044D01*
X154639010Y-61833032D01*
X154632832Y-61770303D01*
X154608415Y-61689814D01*
X154589958Y-61655283D01*
X154568765Y-61615633D01*
X154528778Y-61566908D01*
X154528769Y-61566899D01*
X154515405Y-61550615D01*
X154499121Y-61537251D01*
X153848768Y-60886900D01*
X153835395Y-60870605D01*
X153770376Y-60817245D01*
X153696196Y-60777595D01*
X153639227Y-60760313D01*
X153635570Y-60748257D01*
X153605206Y-60691450D01*
X153564343Y-60641657D01*
X153514550Y-60600794D01*
X153457743Y-60570430D01*
X153396103Y-60551732D01*
X153332000Y-60545418D01*
X153139000Y-60545418D01*
X153139000Y-60493582D01*
X153406250Y-60493582D01*
X153513029Y-60483065D01*
X153615705Y-60451919D01*
X153710331Y-60401340D01*
X153793272Y-60333272D01*
X153861340Y-60250331D01*
X153911919Y-60155705D01*
X153943065Y-60053029D01*
X153953582Y-59946250D01*
X153953582Y-59433750D01*
X153943065Y-59326971D01*
X153911919Y-59224295D01*
X153861340Y-59129669D01*
X153793272Y-59046728D01*
X153710331Y-58978660D01*
X153615705Y-58928081D01*
X153513029Y-58896935D01*
X153406250Y-58886418D01*
X152968750Y-58886418D01*
X152861971Y-58896935D01*
X152759295Y-58928081D01*
X152664669Y-58978660D01*
X152581728Y-59046728D01*
X152513660Y-59129669D01*
X152463081Y-59224295D01*
X152431935Y-59326971D01*
X152421418Y-59433750D01*
X152421418Y-59851590D01*
X152408606Y-59862105D01*
X152395237Y-59878395D01*
X152395232Y-59878400D01*
X152378582Y-59898688D01*
X152378582Y-59433750D01*
X152368065Y-59326971D01*
X152336919Y-59224295D01*
X152286340Y-59129669D01*
X152218272Y-59046728D01*
X152135331Y-58978660D01*
X152040705Y-58928081D01*
X151938029Y-58896935D01*
X151831250Y-58886418D01*
X151393750Y-58886418D01*
X151286971Y-58896935D01*
X151184295Y-58928081D01*
X151089669Y-58978660D01*
X151006728Y-59046728D01*
X150943582Y-59123672D01*
X150943582Y-58811000D01*
X150932465Y-58698124D01*
X150899540Y-58589586D01*
X150846073Y-58489557D01*
X150774119Y-58401881D01*
X150686443Y-58329927D01*
X150586414Y-58276460D01*
X150477876Y-58243535D01*
X150365000Y-58232418D01*
X149615000Y-58232418D01*
X149502124Y-58243535D01*
X149393586Y-58276460D01*
X149293557Y-58329927D01*
X149205881Y-58401881D01*
X149133927Y-58489557D01*
X149080460Y-58589586D01*
X149047535Y-58698124D01*
X149036418Y-58811000D01*
X149036418Y-60061000D01*
X149047535Y-60173876D01*
X149080460Y-60282414D01*
X149133927Y-60382443D01*
X149205881Y-60470119D01*
X149293557Y-60542073D01*
X149393586Y-60595540D01*
X149502124Y-60628465D01*
X149563001Y-60634461D01*
X149563001Y-60640130D01*
X149526713Y-60676418D01*
X149102000Y-60676418D01*
X148994002Y-60687055D01*
X148890153Y-60718557D01*
X148794446Y-60769713D01*
X148710558Y-60838558D01*
X148641713Y-60922446D01*
X148594047Y-61011624D01*
X148591346Y-61002720D01*
X148542500Y-60911336D01*
X148476764Y-60831236D01*
X148396664Y-60765500D01*
X148305280Y-60716654D01*
X148206121Y-60686575D01*
X148103000Y-60676418D01*
X147553000Y-60676418D01*
X147449879Y-60686575D01*
X147350720Y-60716654D01*
X147259336Y-60765500D01*
X147179236Y-60831236D01*
X147113500Y-60911336D01*
X147064654Y-61002720D01*
X147034575Y-61101879D01*
X147024418Y-61205000D01*
X147024418Y-61605000D01*
X147034575Y-61708121D01*
X147064654Y-61807280D01*
X147113500Y-61898664D01*
X147179236Y-61978764D01*
X147259336Y-62044500D01*
X147350720Y-62093346D01*
X147449879Y-62123425D01*
X147553000Y-62133582D01*
X148103000Y-62133582D01*
X148206121Y-62123425D01*
X148305280Y-62093346D01*
X148396664Y-62044500D01*
X148476764Y-61978764D01*
X148542500Y-61898664D01*
X148551407Y-61882000D01*
X148587570Y-61882000D01*
X148590557Y-61891847D01*
X148630567Y-61966702D01*
X148522506Y-62024463D01*
X148425815Y-62103815D01*
X148346463Y-62200506D01*
X148287498Y-62310820D01*
X148273486Y-62357010D01*
X148206121Y-62336575D01*
X148103000Y-62326418D01*
X147553000Y-62326418D01*
X147449879Y-62336575D01*
X147350720Y-62366654D01*
X147259336Y-62415500D01*
X147179236Y-62481236D01*
X147113500Y-62561336D01*
X147064654Y-62652720D01*
X147034575Y-62751879D01*
X147024418Y-62855000D01*
X147024418Y-63255000D01*
X147034575Y-63358121D01*
X147064654Y-63457280D01*
X147113500Y-63548664D01*
X147179236Y-63628764D01*
X147259336Y-63694500D01*
X147350720Y-63743346D01*
X147449879Y-63773425D01*
X147553000Y-63783582D01*
X147952713Y-63783582D01*
X148430241Y-64261111D01*
X148443605Y-64277395D01*
X148459889Y-64290759D01*
X148459898Y-64290768D01*
X148508623Y-64330755D01*
X148540449Y-64347766D01*
X148582804Y-64370405D01*
X148663293Y-64394822D01*
X148726022Y-64401000D01*
X148726034Y-64401000D01*
X148746999Y-64403065D01*
X148767964Y-64401000D01*
X150502001Y-64401000D01*
X150502001Y-64767570D01*
X150492153Y-64770557D01*
X150396446Y-64821713D01*
X150312558Y-64890558D01*
X150243713Y-64974446D01*
X150192557Y-65070153D01*
X150161055Y-65174002D01*
X150150418Y-65282000D01*
X150150418Y-65782000D01*
X150161055Y-65889998D01*
X150192557Y-65993847D01*
X150200972Y-66009590D01*
X150124506Y-66050463D01*
X150027815Y-66129815D01*
X149948463Y-66226506D01*
X149889498Y-66336820D01*
X149853188Y-66456518D01*
X149840928Y-66581000D01*
X149844000Y-66770250D01*
X150002750Y-66929000D01*
X150802000Y-66929000D01*
X150802000Y-66909000D01*
X151056000Y-66909000D01*
X151056000Y-66929000D01*
X151076000Y-66929000D01*
X151076000Y-67183000D01*
X151056000Y-67183000D01*
X151056000Y-68453000D01*
X151076000Y-68453000D01*
X151076000Y-68707000D01*
X151056000Y-68707000D01*
X151056000Y-68727000D01*
X150802000Y-68727000D01*
X150802000Y-68707000D01*
X150002750Y-68707000D01*
X149844000Y-68865750D01*
X149840928Y-69055000D01*
X149853188Y-69179482D01*
X149889498Y-69299180D01*
X149948463Y-69409494D01*
X150027815Y-69506185D01*
X150124506Y-69585537D01*
X150234820Y-69644502D01*
X150354518Y-69680812D01*
X150479000Y-69693072D01*
X150643250Y-69690000D01*
X150801998Y-69531252D01*
X150801998Y-69653133D01*
X148599112Y-71856020D01*
X148319708Y-71856020D01*
X148388331Y-71819340D01*
X148471272Y-71751272D01*
X148539340Y-71668331D01*
X148589919Y-71573705D01*
X148621065Y-71471029D01*
X148631582Y-71364250D01*
X148631582Y-70926750D01*
X148621065Y-70819971D01*
X148589919Y-70717295D01*
X148539340Y-70622669D01*
X148471272Y-70539728D01*
X148388331Y-70471660D01*
X148293705Y-70421081D01*
X148191029Y-70389935D01*
X148084250Y-70379418D01*
X147571750Y-70379418D01*
X147464971Y-70389935D01*
X147362295Y-70421081D01*
X147267669Y-70471660D01*
X147184728Y-70539728D01*
X147116660Y-70622669D01*
X147066081Y-70717295D01*
X147066000Y-70717562D01*
X147065919Y-70717295D01*
X147015340Y-70622669D01*
X146947272Y-70539728D01*
X146864331Y-70471660D01*
X146769705Y-70421081D01*
X146667029Y-70389935D01*
X146560250Y-70379418D01*
X146047750Y-70379418D01*
X145940971Y-70389935D01*
X145838295Y-70421081D01*
X145753679Y-70466310D01*
X144500501Y-69213133D01*
X144500501Y-68523994D01*
X144511936Y-68531635D01*
X144612394Y-68573246D01*
X144719039Y-68594459D01*
X144827773Y-68594459D01*
X144934418Y-68573246D01*
X145034876Y-68531635D01*
X145125286Y-68471225D01*
X145202172Y-68394339D01*
X145262582Y-68303929D01*
X145304193Y-68203471D01*
X145325406Y-68096826D01*
X145325406Y-68094327D01*
X145502132Y-67917602D01*
X145500418Y-67935000D01*
X145500418Y-68335000D01*
X145510575Y-68438121D01*
X145540654Y-68537280D01*
X145589500Y-68628664D01*
X145655236Y-68708764D01*
X145735336Y-68774500D01*
X145826720Y-68823346D01*
X145869982Y-68836469D01*
X145838295Y-68846081D01*
X145743669Y-68896660D01*
X145660728Y-68964728D01*
X145592660Y-69047669D01*
X145542081Y-69142295D01*
X145510935Y-69244971D01*
X145500418Y-69351750D01*
X145500418Y-69789250D01*
X145510935Y-69896029D01*
X145542081Y-69998705D01*
X145592660Y-70093331D01*
X145660728Y-70176272D01*
X145743669Y-70244340D01*
X145838295Y-70294919D01*
X145940971Y-70326065D01*
X146047750Y-70336582D01*
X146560250Y-70336582D01*
X146667029Y-70326065D01*
X146769705Y-70294919D01*
X146864331Y-70244340D01*
X146947272Y-70176272D01*
X147015340Y-70093331D01*
X147065919Y-69998705D01*
X147066000Y-69998438D01*
X147066081Y-69998705D01*
X147116660Y-70093331D01*
X147184728Y-70176272D01*
X147267669Y-70244340D01*
X147362295Y-70294919D01*
X147464971Y-70326065D01*
X147571750Y-70336582D01*
X148084250Y-70336582D01*
X148191029Y-70326065D01*
X148293705Y-70294919D01*
X148388331Y-70244340D01*
X148471272Y-70176272D01*
X148539340Y-70093331D01*
X148589919Y-69998705D01*
X148621065Y-69896029D01*
X148631582Y-69789250D01*
X148631582Y-69351750D01*
X148621065Y-69244971D01*
X148589919Y-69142295D01*
X148539340Y-69047669D01*
X148471272Y-68964728D01*
X148388331Y-68896660D01*
X148293705Y-68846081D01*
X148262018Y-68836469D01*
X148305280Y-68823346D01*
X148396664Y-68774500D01*
X148476764Y-68708764D01*
X148542500Y-68628664D01*
X148591346Y-68537280D01*
X148621425Y-68438121D01*
X148631582Y-68335000D01*
X148631582Y-67935000D01*
X148621425Y-67831879D01*
X148591346Y-67732720D01*
X148542500Y-67641336D01*
X148476764Y-67561236D01*
X148439922Y-67531000D01*
X149840928Y-67531000D01*
X149853188Y-67655482D01*
X149889498Y-67775180D01*
X149912386Y-67818000D01*
X149889498Y-67860820D01*
X149853188Y-67980518D01*
X149840928Y-68105000D01*
X149844000Y-68294250D01*
X150002750Y-68453000D01*
X150802000Y-68453000D01*
X150802000Y-67183000D01*
X150002750Y-67183000D01*
X149844000Y-67341750D01*
X149840928Y-67531000D01*
X148439922Y-67531000D01*
X148396664Y-67495500D01*
X148305280Y-67446654D01*
X148206121Y-67416575D01*
X148103000Y-67406418D01*
X147553000Y-67406418D01*
X147449879Y-67416575D01*
X147350720Y-67446654D01*
X147259336Y-67495500D01*
X147179236Y-67561236D01*
X147113500Y-67641336D01*
X147066000Y-67730202D01*
X147018500Y-67641336D01*
X146952764Y-67561236D01*
X146872664Y-67495500D01*
X146781280Y-67446654D01*
X146682121Y-67416575D01*
X146579000Y-67406418D01*
X146029000Y-67406418D01*
X146011602Y-67408132D01*
X146206152Y-67213582D01*
X146579000Y-67213582D01*
X146682121Y-67203425D01*
X146781280Y-67173346D01*
X146872664Y-67124500D01*
X146952764Y-67058764D01*
X147018500Y-66978664D01*
X147054133Y-66912000D01*
X147077867Y-66912000D01*
X147113500Y-66978664D01*
X147179236Y-67058764D01*
X147259336Y-67124500D01*
X147350720Y-67173346D01*
X147449879Y-67203425D01*
X147553000Y-67213582D01*
X148103000Y-67213582D01*
X148206121Y-67203425D01*
X148305280Y-67173346D01*
X148396664Y-67124500D01*
X148476764Y-67058764D01*
X148542500Y-66978664D01*
X148591346Y-66887280D01*
X148621425Y-66788121D01*
X148631582Y-66685000D01*
X148631582Y-66285000D01*
X148621425Y-66181879D01*
X148591346Y-66082720D01*
X148542500Y-65991336D01*
X148476764Y-65911236D01*
X148396664Y-65845500D01*
X148305280Y-65796654D01*
X148206121Y-65766575D01*
X148103000Y-65756418D01*
X147703286Y-65756418D01*
X147603937Y-65657068D01*
X147618000Y-65586367D01*
X147618000Y-65477633D01*
X147596787Y-65370988D01*
X147555176Y-65270530D01*
X147494766Y-65180120D01*
X147417880Y-65103234D01*
X147327470Y-65042824D01*
X147227012Y-65001213D01*
X147120367Y-64980000D01*
X147011633Y-64980000D01*
X146904988Y-65001213D01*
X146804530Y-65042824D01*
X146714120Y-65103234D01*
X146637234Y-65180120D01*
X146576824Y-65270530D01*
X146535213Y-65370988D01*
X146514000Y-65477633D01*
X146514000Y-65586367D01*
X146535213Y-65693012D01*
X146561477Y-65756418D01*
X146029000Y-65756418D01*
X145925879Y-65766575D01*
X145826720Y-65796654D01*
X145735336Y-65845500D01*
X145655236Y-65911236D01*
X145589500Y-65991336D01*
X145540654Y-66082720D01*
X145510575Y-66181879D01*
X145500418Y-66285000D01*
X145500418Y-66685000D01*
X145502801Y-66709195D01*
X145225184Y-66986813D01*
X145200467Y-66949821D01*
X145123581Y-66872935D01*
X145033171Y-66812525D01*
X144932713Y-66770914D01*
X144826068Y-66749701D01*
X144717334Y-66749701D01*
X144610689Y-66770914D01*
X144567268Y-66788899D01*
X143026299Y-65247931D01*
X143099880Y-65198766D01*
X143176766Y-65121880D01*
X143237176Y-65031470D01*
X143278787Y-64931012D01*
X143300000Y-64824367D01*
X143300000Y-64715633D01*
X143278787Y-64608988D01*
X143277837Y-64606695D01*
X143309397Y-64616268D01*
X143373500Y-64622582D01*
X143773500Y-64622582D01*
X143837603Y-64616268D01*
X143899243Y-64597570D01*
X143956050Y-64567206D01*
X144005843Y-64526343D01*
X144046706Y-64476550D01*
X144077070Y-64419743D01*
X144095768Y-64358103D01*
X144102082Y-64294000D01*
X144102082Y-63094000D01*
X144095768Y-63029897D01*
X144077070Y-62968257D01*
X144046706Y-62911450D01*
X144005843Y-62861657D01*
X143956050Y-62820794D01*
X143899243Y-62790430D01*
X143837603Y-62771732D01*
X143773500Y-62765418D01*
X143373500Y-62765418D01*
X143309397Y-62771732D01*
X143256000Y-62787930D01*
X143202603Y-62771732D01*
X143138500Y-62765418D01*
X142738500Y-62765418D01*
X142674397Y-62771732D01*
X142621000Y-62787930D01*
X142567603Y-62771732D01*
X142503500Y-62765418D01*
X142103500Y-62765418D01*
X142039397Y-62771732D01*
X141986000Y-62787930D01*
X141932603Y-62771732D01*
X141868500Y-62765418D01*
X141468500Y-62765418D01*
X141404397Y-62771732D01*
X141351000Y-62787930D01*
X141297603Y-62771732D01*
X141233500Y-62765418D01*
X141143639Y-62765418D01*
X141135091Y-62748737D01*
X141094109Y-62697001D01*
X141761032Y-62697001D01*
X141781999Y-62699066D01*
X141802966Y-62697001D01*
X141802977Y-62697001D01*
X141865706Y-62690823D01*
X141946195Y-62666406D01*
X142020375Y-62626756D01*
X142085394Y-62573396D01*
X142098767Y-62557101D01*
X142169101Y-62486767D01*
X142185395Y-62473395D01*
X142205416Y-62449000D01*
X142238756Y-62408376D01*
X142263227Y-62362592D01*
X142278405Y-62334196D01*
X142302822Y-62253707D01*
X142307312Y-62208113D01*
X142314343Y-62202343D01*
X142355206Y-62152550D01*
X142385570Y-62095743D01*
X142404268Y-62034103D01*
X142410582Y-61970000D01*
X142410582Y-60570000D01*
X142404268Y-60505897D01*
X142385570Y-60444257D01*
X142355206Y-60387450D01*
X142314343Y-60337657D01*
X142264550Y-60296794D01*
X142207743Y-60266430D01*
X142146103Y-60247732D01*
X142082000Y-60241418D01*
X141682000Y-60241418D01*
X141617897Y-60247732D01*
X141557000Y-60266205D01*
X141499436Y-60248743D01*
X141478406Y-60179420D01*
X141478406Y-60179419D01*
X141438757Y-60105240D01*
X141398769Y-60056515D01*
X141398765Y-60056511D01*
X141385396Y-60040221D01*
X141369106Y-60026852D01*
X141347747Y-60005493D01*
X141446250Y-60005000D01*
X141605000Y-59846250D01*
X141605000Y-58547000D01*
X141859000Y-58547000D01*
X141859000Y-59846250D01*
X142017750Y-60005000D01*
X142632000Y-60008072D01*
X142756482Y-59995812D01*
X142876180Y-59959502D01*
X142907000Y-59943028D01*
X142937820Y-59959502D01*
X143057518Y-59995812D01*
X143182000Y-60008072D01*
X144046250Y-60005000D01*
X144205000Y-59846250D01*
X144205000Y-58547000D01*
X144459000Y-58547000D01*
X144459000Y-59846250D01*
X144617750Y-60005000D01*
X145482000Y-60008072D01*
X145606482Y-59995812D01*
X145726180Y-59959502D01*
X145836494Y-59900537D01*
X145933185Y-59821185D01*
X146012537Y-59724494D01*
X146071502Y-59614180D01*
X146107812Y-59494482D01*
X146120072Y-59370000D01*
X146117487Y-58811000D01*
X146236418Y-58811000D01*
X146236418Y-60061000D01*
X146247535Y-60173876D01*
X146280460Y-60282414D01*
X146333927Y-60382443D01*
X146405881Y-60470119D01*
X146493557Y-60542073D01*
X146593586Y-60595540D01*
X146702124Y-60628465D01*
X146815000Y-60639582D01*
X147565000Y-60639582D01*
X147677876Y-60628465D01*
X147786414Y-60595540D01*
X147886443Y-60542073D01*
X147974119Y-60470119D01*
X148046073Y-60382443D01*
X148099540Y-60282414D01*
X148132465Y-60173876D01*
X148143582Y-60061000D01*
X148143582Y-58811000D01*
X148132465Y-58698124D01*
X148099540Y-58589586D01*
X148046073Y-58489557D01*
X147974119Y-58401881D01*
X147886443Y-58329927D01*
X147786414Y-58276460D01*
X147677876Y-58243535D01*
X147565000Y-58232418D01*
X146815000Y-58232418D01*
X146702124Y-58243535D01*
X146593586Y-58276460D01*
X146493557Y-58329927D01*
X146405881Y-58401881D01*
X146333927Y-58489557D01*
X146280460Y-58589586D01*
X146247535Y-58698124D01*
X146236418Y-58811000D01*
X146117487Y-58811000D01*
X146117000Y-58705750D01*
X145958250Y-58547000D01*
X144459000Y-58547000D01*
X144205000Y-58547000D01*
X141859000Y-58547000D01*
X141605000Y-58547000D01*
X139559000Y-58547000D01*
X139559000Y-58567000D01*
X139305000Y-58567000D01*
X139305000Y-58547000D01*
X136959000Y-58547000D01*
X136959000Y-59846250D01*
X137117750Y-60005000D01*
X137864093Y-60007653D01*
X135615910Y-62255837D01*
X135599615Y-62269210D01*
X135586243Y-62285504D01*
X135586242Y-62285505D01*
X135546255Y-62334229D01*
X135544146Y-62338175D01*
X135506605Y-62408410D01*
X135482188Y-62488899D01*
X135476010Y-62551628D01*
X135476010Y-62551638D01*
X135473945Y-62572605D01*
X135476010Y-62593572D01*
X135476010Y-62908989D01*
X135413750Y-62910000D01*
X135255000Y-63068750D01*
X135255000Y-63868000D01*
X135275000Y-63868000D01*
X135275000Y-64122000D01*
X135255000Y-64122000D01*
X135255000Y-64142000D01*
X135001000Y-64142000D01*
X135001000Y-64122000D01*
X133731000Y-64122000D01*
X133731000Y-64142000D01*
X133477000Y-64142000D01*
X133477000Y-64122000D01*
X132652750Y-64122000D01*
X132494000Y-64280750D01*
X132490928Y-64445000D01*
X132503188Y-64569482D01*
X132539498Y-64689180D01*
X132598463Y-64799494D01*
X132677815Y-64896185D01*
X132774506Y-64975537D01*
X132882567Y-65033298D01*
X132842557Y-65108153D01*
X132811055Y-65212002D01*
X132800418Y-65320000D01*
X132800418Y-65770000D01*
X132811055Y-65877998D01*
X132842557Y-65981847D01*
X132893713Y-66077554D01*
X132962558Y-66161442D01*
X133046446Y-66230287D01*
X133142153Y-66281443D01*
X133172695Y-66290708D01*
X133126720Y-66304654D01*
X133035336Y-66353500D01*
X132955236Y-66419236D01*
X132889500Y-66499336D01*
X132840654Y-66590720D01*
X132810575Y-66689879D01*
X132800418Y-66793000D01*
X132800418Y-67193000D01*
X132810575Y-67296121D01*
X132840654Y-67395280D01*
X132889500Y-67486664D01*
X132955236Y-67566764D01*
X133035336Y-67632500D01*
X133126720Y-67681346D01*
X133225879Y-67711425D01*
X133329000Y-67721582D01*
X133879000Y-67721582D01*
X133982121Y-67711425D01*
X134081280Y-67681346D01*
X134172664Y-67632500D01*
X134252764Y-67566764D01*
X134318500Y-67486664D01*
X134366000Y-67397798D01*
X134413500Y-67486664D01*
X134479236Y-67566764D01*
X134559336Y-67632500D01*
X134650720Y-67681346D01*
X134749879Y-67711425D01*
X134853000Y-67721582D01*
X135403000Y-67721582D01*
X135506121Y-67711425D01*
X135605280Y-67681346D01*
X135696664Y-67632500D01*
X135776764Y-67566764D01*
X135842500Y-67486664D01*
X135891346Y-67395280D01*
X135921425Y-67296121D01*
X135931582Y-67193000D01*
X135931582Y-66793000D01*
X135921425Y-66689879D01*
X135891346Y-66590720D01*
X135842500Y-66499336D01*
X135776764Y-66419236D01*
X135696664Y-66353500D01*
X135605280Y-66304654D01*
X135559305Y-66290708D01*
X135589847Y-66281443D01*
X135685554Y-66230287D01*
X135769442Y-66161442D01*
X135838287Y-66077554D01*
X135889443Y-65981847D01*
X135920945Y-65877998D01*
X135931582Y-65770000D01*
X135931582Y-65595797D01*
X135946056Y-65591406D01*
X136020236Y-65551756D01*
X136085255Y-65498396D01*
X136098628Y-65482101D01*
X136479001Y-65101730D01*
X136479000Y-67764354D01*
X136477234Y-67766120D01*
X136416824Y-67856530D01*
X136375213Y-67956988D01*
X136354000Y-68063633D01*
X136354000Y-68172367D01*
X136362679Y-68216000D01*
X135878133Y-68216000D01*
X135842500Y-68149336D01*
X135776764Y-68069236D01*
X135696664Y-68003500D01*
X135605280Y-67954654D01*
X135506121Y-67924575D01*
X135403000Y-67914418D01*
X134853000Y-67914418D01*
X134749879Y-67924575D01*
X134650720Y-67954654D01*
X134559336Y-68003500D01*
X134479236Y-68069236D01*
X134413500Y-68149336D01*
X134366000Y-68238202D01*
X134318500Y-68149336D01*
X134252764Y-68069236D01*
X134172664Y-68003500D01*
X134081280Y-67954654D01*
X133982121Y-67924575D01*
X133879000Y-67914418D01*
X133329000Y-67914418D01*
X133225879Y-67924575D01*
X133126720Y-67954654D01*
X133035336Y-68003500D01*
X132955236Y-68069236D01*
X132889500Y-68149336D01*
X132840654Y-68240720D01*
X132810575Y-68339879D01*
X132800418Y-68443000D01*
X132800418Y-68843000D01*
X132810575Y-68946121D01*
X132840654Y-69045280D01*
X132889500Y-69136664D01*
X132955236Y-69216764D01*
X133035336Y-69282500D01*
X133126720Y-69331346D01*
X133225879Y-69361425D01*
X133329000Y-69371582D01*
X133728713Y-69371582D01*
X134438242Y-70081112D01*
X134451606Y-70097396D01*
X134467890Y-70110760D01*
X134467899Y-70110769D01*
X134516624Y-70150756D01*
X134530729Y-70158295D01*
X134590805Y-70190406D01*
X134671294Y-70214823D01*
X134734023Y-70221001D01*
X134734033Y-70221001D01*
X134755000Y-70223066D01*
X134775967Y-70221001D01*
X136303786Y-70221001D01*
X136295107Y-70264634D01*
X136295107Y-70373368D01*
X136316320Y-70480013D01*
X136357931Y-70580471D01*
X136418341Y-70670881D01*
X136420108Y-70672648D01*
X136420107Y-71065639D01*
X136418042Y-71086607D01*
X136420107Y-71107574D01*
X136420107Y-71107584D01*
X136426285Y-71170313D01*
X136450702Y-71250802D01*
X136467993Y-71283151D01*
X136490352Y-71324983D01*
X136515131Y-71355176D01*
X136543712Y-71390002D01*
X136560007Y-71403375D01*
X137118418Y-71961787D01*
X137118418Y-72380250D01*
X137128935Y-72487029D01*
X137160081Y-72589705D01*
X137210660Y-72684331D01*
X137278728Y-72767272D01*
X137361669Y-72835340D01*
X137456295Y-72885919D01*
X137558971Y-72917065D01*
X137665750Y-72927582D01*
X138178250Y-72927582D01*
X138285029Y-72917065D01*
X138387705Y-72885919D01*
X138400646Y-72879002D01*
X138440463Y-72953494D01*
X138519815Y-73050185D01*
X138616506Y-73129537D01*
X138726820Y-73188502D01*
X138846518Y-73224812D01*
X138971000Y-73237072D01*
X139160250Y-73234000D01*
X139319000Y-73075250D01*
X139319000Y-72276000D01*
X139573000Y-72276000D01*
X139573000Y-73075250D01*
X139731750Y-73234000D01*
X139921000Y-73237072D01*
X140045482Y-73224812D01*
X140165180Y-73188502D01*
X140208000Y-73165614D01*
X140250820Y-73188502D01*
X140370518Y-73224812D01*
X140495000Y-73237072D01*
X140684250Y-73234000D01*
X140843000Y-73075250D01*
X140843000Y-72276000D01*
X141097000Y-72276000D01*
X141097000Y-73075250D01*
X141255750Y-73234000D01*
X141445000Y-73237072D01*
X141569482Y-73224812D01*
X141689180Y-73188502D01*
X141799494Y-73129537D01*
X141896185Y-73050185D01*
X141975537Y-72953494D01*
X142034502Y-72843180D01*
X142070812Y-72723482D01*
X142083072Y-72599000D01*
X142080000Y-72434750D01*
X141921250Y-72276000D01*
X141097000Y-72276000D01*
X140843000Y-72276000D01*
X139573000Y-72276000D01*
X139319000Y-72276000D01*
X139299000Y-72276000D01*
X139299000Y-72022000D01*
X139319000Y-72022000D01*
X139319000Y-72002000D01*
X139573000Y-72002000D01*
X139573000Y-72022000D01*
X140843000Y-72022000D01*
X140843000Y-72002000D01*
X141097000Y-72002000D01*
X141097000Y-72022000D01*
X141921250Y-72022000D01*
X142080000Y-71863250D01*
X142083072Y-71699000D01*
X142070812Y-71574518D01*
X142034502Y-71454820D01*
X142014821Y-71418000D01*
X142040367Y-71418000D01*
X142147012Y-71396787D01*
X142247470Y-71355176D01*
X142337880Y-71294766D01*
X142414766Y-71217880D01*
X142475176Y-71127470D01*
X142481891Y-71111259D01*
X143540746Y-72170115D01*
X143554115Y-72186405D01*
X143570405Y-72199774D01*
X143570409Y-72199778D01*
X143619133Y-72239766D01*
X143693313Y-72279415D01*
X143712047Y-72285098D01*
X143773803Y-72303832D01*
X143836532Y-72310010D01*
X143836543Y-72310010D01*
X143857510Y-72312075D01*
X143878477Y-72310010D01*
X147037121Y-72310010D01*
X145728714Y-73618418D01*
X145304000Y-73618418D01*
X145196002Y-73629055D01*
X145092153Y-73660557D01*
X145077576Y-73668348D01*
X145037037Y-73592506D01*
X144957685Y-73495815D01*
X144860994Y-73416463D01*
X144750680Y-73357498D01*
X144630982Y-73321188D01*
X144506500Y-73308928D01*
X144354750Y-73312000D01*
X144196000Y-73470750D01*
X144196000Y-74295000D01*
X144216000Y-74295000D01*
X144216000Y-74549000D01*
X144196000Y-74549000D01*
X144196000Y-74569000D01*
X143942000Y-74569000D01*
X143942000Y-74549000D01*
X143922000Y-74549000D01*
X143922000Y-74295000D01*
X143942000Y-74295000D01*
X143942000Y-73470750D01*
X143783250Y-73312000D01*
X143631500Y-73308928D01*
X143507018Y-73321188D01*
X143387320Y-73357498D01*
X143277006Y-73416463D01*
X143180315Y-73495815D01*
X143100963Y-73592506D01*
X143041998Y-73702820D01*
X143035077Y-73725634D01*
X143016831Y-73710660D01*
X142922205Y-73660081D01*
X142819529Y-73628935D01*
X142712750Y-73618418D01*
X142275250Y-73618418D01*
X142168471Y-73628935D01*
X142065795Y-73660081D01*
X141971169Y-73710660D01*
X141888228Y-73778728D01*
X141820160Y-73861669D01*
X141769581Y-73956295D01*
X141765424Y-73970000D01*
X141729014Y-73970000D01*
X141721346Y-73944720D01*
X141672500Y-73853336D01*
X141606764Y-73773236D01*
X141526664Y-73707500D01*
X141435280Y-73658654D01*
X141336121Y-73628575D01*
X141233000Y-73618418D01*
X140833000Y-73618418D01*
X140729879Y-73628575D01*
X140630720Y-73658654D01*
X140539336Y-73707500D01*
X140459236Y-73773236D01*
X140393500Y-73853336D01*
X140344654Y-73944720D01*
X140314575Y-74043879D01*
X140304418Y-74147000D01*
X140304418Y-74697000D01*
X140314575Y-74800121D01*
X140344654Y-74899280D01*
X140393500Y-74990664D01*
X140459236Y-75070764D01*
X140539336Y-75136500D01*
X140630720Y-75185346D01*
X140729879Y-75215425D01*
X140833000Y-75225582D01*
X140834205Y-75225582D01*
X140786000Y-75240205D01*
X140725103Y-75221732D01*
X140661000Y-75215418D01*
X140111000Y-75215418D01*
X140046897Y-75221732D01*
X139986000Y-75240205D01*
X139925103Y-75221732D01*
X139861000Y-75215418D01*
X139686144Y-75215418D01*
X139785280Y-75185346D01*
X139876664Y-75136500D01*
X139956764Y-75070764D01*
X140022500Y-74990664D01*
X140071346Y-74899280D01*
X140101425Y-74800121D01*
X140111582Y-74697000D01*
X140111582Y-74147000D01*
X140101425Y-74043879D01*
X140071346Y-73944720D01*
X140022500Y-73853336D01*
X139956764Y-73773236D01*
X139876664Y-73707500D01*
X139785280Y-73658654D01*
X139686121Y-73628575D01*
X139583000Y-73618418D01*
X139183000Y-73618418D01*
X139079879Y-73628575D01*
X138980720Y-73658654D01*
X138957522Y-73671054D01*
X138915537Y-73592506D01*
X138836185Y-73495815D01*
X138739494Y-73416463D01*
X138629180Y-73357498D01*
X138509482Y-73321188D01*
X138385000Y-73308928D01*
X138220750Y-73312000D01*
X138062000Y-73470750D01*
X138062000Y-74295000D01*
X138082000Y-74295000D01*
X138082000Y-74549000D01*
X138062000Y-74549000D01*
X138062000Y-74569000D01*
X137808000Y-74569000D01*
X137808000Y-74549000D01*
X137788000Y-74549000D01*
X137788000Y-74295000D01*
X137808000Y-74295000D01*
X137808000Y-73470750D01*
X137649250Y-73312000D01*
X137485000Y-73308928D01*
X137360518Y-73321188D01*
X137240820Y-73357498D01*
X137130506Y-73416463D01*
X137033815Y-73495815D01*
X136954463Y-73592506D01*
X136896702Y-73700567D01*
X136821847Y-73660557D01*
X136717998Y-73629055D01*
X136610000Y-73618418D01*
X136160000Y-73618418D01*
X136052002Y-73629055D01*
X135948153Y-73660557D01*
X135852446Y-73711713D01*
X135768558Y-73780558D01*
X135699713Y-73864446D01*
X135648557Y-73960153D01*
X135617055Y-74064002D01*
X135606418Y-74172000D01*
X135606418Y-74672000D01*
X135617055Y-74779998D01*
X135648557Y-74883847D01*
X135699713Y-74979554D01*
X135768558Y-75063442D01*
X135852446Y-75132287D01*
X135934001Y-75175878D01*
X135934001Y-75267827D01*
X135928450Y-75270794D01*
X135878657Y-75311657D01*
X135837794Y-75361450D01*
X135807430Y-75418257D01*
X135788732Y-75479897D01*
X135782418Y-75544000D01*
X135782418Y-77044000D01*
X135788732Y-77108103D01*
X135807430Y-77169743D01*
X135837794Y-77226550D01*
X135878657Y-77276343D01*
X135928450Y-77317206D01*
X135959000Y-77333536D01*
X135959000Y-77867130D01*
X135764582Y-78061549D01*
X135764582Y-77719000D01*
X135758268Y-77654897D01*
X135739570Y-77593257D01*
X135709206Y-77536450D01*
X135668343Y-77486657D01*
X135618550Y-77445794D01*
X135561743Y-77415430D01*
X135500103Y-77396732D01*
X135436000Y-77390418D01*
X133936000Y-77390418D01*
X133871897Y-77396732D01*
X133810257Y-77415430D01*
X133753450Y-77445794D01*
X133703657Y-77486657D01*
X133662794Y-77536450D01*
X133632430Y-77593257D01*
X133613732Y-77654897D01*
X133607418Y-77719000D01*
X133607418Y-78269000D01*
X133613732Y-78333103D01*
X133632205Y-78394000D01*
X133613732Y-78454897D01*
X133607418Y-78519000D01*
X133607418Y-78529000D01*
X133595344Y-78529000D01*
X133552287Y-78448446D01*
X133483442Y-78364558D01*
X133399554Y-78295713D01*
X133303847Y-78244557D01*
X133199998Y-78213055D01*
X133092000Y-78202418D01*
X132592000Y-78202418D01*
X132484002Y-78213055D01*
X132380153Y-78244557D01*
X132284446Y-78295713D01*
X132200558Y-78364558D01*
X132131713Y-78448446D01*
X132080557Y-78544153D01*
X132077570Y-78554000D01*
X129736439Y-78554000D01*
X129715474Y-78551935D01*
X129694509Y-78554000D01*
X129694497Y-78554000D01*
X129631768Y-78560178D01*
X129551279Y-78584595D01*
X129526982Y-78597582D01*
X129477098Y-78624245D01*
X129428373Y-78664232D01*
X129428364Y-78664241D01*
X129412080Y-78677605D01*
X129398715Y-78693890D01*
X129142606Y-78950000D01*
X129140108Y-78950000D01*
X129096475Y-78958679D01*
X129096475Y-76814582D01*
X129594000Y-76814582D01*
X129658103Y-76808268D01*
X129719743Y-76789570D01*
X129729000Y-76784622D01*
X129738257Y-76789570D01*
X129799897Y-76808268D01*
X129864000Y-76814582D01*
X130864000Y-76814582D01*
X130928103Y-76808268D01*
X130989743Y-76789570D01*
X131046550Y-76759206D01*
X131096343Y-76718343D01*
X131137206Y-76668550D01*
X131167570Y-76611743D01*
X131186268Y-76550103D01*
X131192582Y-76486000D01*
X131192582Y-74486000D01*
X131186268Y-74421897D01*
X131167570Y-74360257D01*
X131137206Y-74303450D01*
X131096343Y-74253657D01*
X131046550Y-74212794D01*
X130989743Y-74182430D01*
X130928103Y-74163732D01*
X130864000Y-74157418D01*
X129864000Y-74157418D01*
X129799897Y-74163732D01*
X129738257Y-74182430D01*
X129729000Y-74187378D01*
X129719743Y-74182430D01*
X129658103Y-74163732D01*
X129594000Y-74157418D01*
X128594000Y-74157418D01*
X128529897Y-74163732D01*
X128468257Y-74182430D01*
X128459000Y-74187378D01*
X128449743Y-74182430D01*
X128388103Y-74163732D01*
X128324000Y-74157418D01*
X127324000Y-74157418D01*
X127259897Y-74163732D01*
X127198257Y-74182430D01*
X127189000Y-74187378D01*
X127179743Y-74182430D01*
X127118103Y-74163732D01*
X127054000Y-74157418D01*
X126054000Y-74157418D01*
X125989897Y-74163732D01*
X125928257Y-74182430D01*
X125919000Y-74187378D01*
X125909743Y-74182430D01*
X125848103Y-74163732D01*
X125784000Y-74157418D01*
X124784000Y-74157418D01*
X124719897Y-74163732D01*
X124658257Y-74182430D01*
X124649000Y-74187378D01*
X124639743Y-74182430D01*
X124578103Y-74163732D01*
X124514000Y-74157418D01*
X123788387Y-74157418D01*
X123774537Y-74131506D01*
X123764202Y-74118913D01*
X132335154Y-74040995D01*
X132358776Y-74038560D01*
X132382601Y-74031333D01*
X132404557Y-74019597D01*
X132423803Y-74003803D01*
X132439597Y-73984557D01*
X132451333Y-73962601D01*
X132458560Y-73938776D01*
X132461000Y-73914000D01*
X132461000Y-63545000D01*
X132490928Y-63545000D01*
X132494000Y-63709250D01*
X132652750Y-63868000D01*
X133477000Y-63868000D01*
X133477000Y-63068750D01*
X133731000Y-63068750D01*
X133731000Y-63868000D01*
X135001000Y-63868000D01*
X135001000Y-63068750D01*
X134842250Y-62910000D01*
X134653000Y-62906928D01*
X134528518Y-62919188D01*
X134408820Y-62955498D01*
X134366000Y-62978386D01*
X134323180Y-62955498D01*
X134203482Y-62919188D01*
X134079000Y-62906928D01*
X133889750Y-62910000D01*
X133731000Y-63068750D01*
X133477000Y-63068750D01*
X133318250Y-62910000D01*
X133129000Y-62906928D01*
X133004518Y-62919188D01*
X132884820Y-62955498D01*
X132774506Y-63014463D01*
X132677815Y-63093815D01*
X132598463Y-63190506D01*
X132539498Y-63300820D01*
X132503188Y-63420518D01*
X132490928Y-63545000D01*
X132461000Y-63545000D01*
X132461000Y-59370000D01*
X135043928Y-59370000D01*
X135056188Y-59494482D01*
X135092498Y-59614180D01*
X135151463Y-59724494D01*
X135230815Y-59821185D01*
X135327506Y-59900537D01*
X135437820Y-59959502D01*
X135557518Y-59995812D01*
X135682000Y-60008072D01*
X136546250Y-60005000D01*
X136705000Y-59846250D01*
X136705000Y-58547000D01*
X135205750Y-58547000D01*
X135047000Y-58705750D01*
X135043928Y-59370000D01*
X132461000Y-59370000D01*
X132461000Y-57531000D01*
X135044210Y-57531000D01*
X135047000Y-58134250D01*
%TA.AperFunction,Conductor*%
D29*
G36*
X135047000Y-58134250D02*
G01*
X135205750Y-58293000D01*
X136705000Y-58293000D01*
X136705000Y-58273000D01*
X136959000Y-58273000D01*
X136959000Y-58293000D01*
X139305000Y-58293000D01*
X139305000Y-58273000D01*
X139559000Y-58273000D01*
X139559000Y-58293000D01*
X141605000Y-58293000D01*
X141605000Y-58273000D01*
X141859000Y-58273000D01*
X141859000Y-58293000D01*
X144205000Y-58293000D01*
X144205000Y-58273000D01*
X144459000Y-58273000D01*
X144459000Y-58293000D01*
X145958250Y-58293000D01*
X146117000Y-58134250D01*
X146119790Y-57531000D01*
X155321000Y-57531000D01*
X155321000Y-94361000D01*
X118491000Y-94361000D01*
X118491000Y-91034890D01*
X119462524Y-91034890D01*
X119507175Y-91182099D01*
X119632359Y-91444920D01*
X119806412Y-91678269D01*
X120022645Y-91873178D01*
X120272748Y-92022157D01*
X120547109Y-92119481D01*
X120777000Y-91998814D01*
X120777000Y-90805000D01*
X119583845Y-90805000D01*
X119462524Y-91034890D01*
X118491000Y-91034890D01*
X118491000Y-74166851D01*
X121710213Y-74137585D01*
X121699613Y-74157418D01*
X120974000Y-74157418D01*
X120909897Y-74163732D01*
X120848257Y-74182430D01*
X120791450Y-74212794D01*
X120741657Y-74253657D01*
X120700794Y-74303450D01*
X120670430Y-74360257D01*
X120651732Y-74421897D01*
X120645418Y-74486000D01*
X120645418Y-76486000D01*
X120651732Y-76550103D01*
X120670430Y-76611743D01*
X120700794Y-76668550D01*
X120741657Y-76718343D01*
X120791450Y-76759206D01*
X120848257Y-76789570D01*
X120909897Y-76808268D01*
X120974000Y-76814582D01*
X121699613Y-76814582D01*
X121713463Y-76840494D01*
X121792815Y-76937185D01*
X121889506Y-77016537D01*
X121958627Y-77053483D01*
X121951498Y-77066820D01*
X121915188Y-77186518D01*
X121902928Y-77311000D01*
X121906000Y-78200250D01*
X122064750Y-78359000D01*
X123076500Y-78359000D01*
X123076500Y-78339000D01*
X123330500Y-78339000D01*
X123330500Y-78359000D01*
X124342250Y-78359000D01*
X124501000Y-78200250D01*
X124501198Y-78142874D01*
X124507500Y-78154664D01*
X124573236Y-78234764D01*
X124653336Y-78300500D01*
X124744720Y-78349346D01*
X124843879Y-78379425D01*
X124947000Y-78389582D01*
X125346714Y-78389582D01*
X125544199Y-78587067D01*
X125497000Y-78582418D01*
X124947000Y-78582418D01*
X124843879Y-78592575D01*
X124744720Y-78622654D01*
X124653336Y-78671500D01*
X124573236Y-78737236D01*
X124507500Y-78817336D01*
X124503857Y-78824152D01*
X124501182Y-78824415D01*
X124501000Y-78771750D01*
X124342250Y-78613000D01*
X123330500Y-78613000D01*
X123330500Y-78633000D01*
X123076500Y-78633000D01*
X123076500Y-78613000D01*
X122064750Y-78613000D01*
X121906000Y-78771750D01*
X121903367Y-79534010D01*
X121780380Y-79534010D01*
X121119582Y-78873213D01*
X121119582Y-77560997D01*
X121108465Y-77448122D01*
X121075540Y-77339584D01*
X121022074Y-77239556D01*
X120950120Y-77151880D01*
X120862444Y-77079926D01*
X120762416Y-77026460D01*
X120653878Y-76993535D01*
X120615000Y-76989706D01*
X120615000Y-76890397D01*
X120587062Y-76749942D01*
X120532259Y-76617636D01*
X120452698Y-76498564D01*
X120351436Y-76397302D01*
X120232364Y-76317741D01*
X120100058Y-76262938D01*
X119959603Y-76235000D01*
X119816397Y-76235000D01*
X119675942Y-76262938D01*
X119543636Y-76317741D01*
X119424564Y-76397302D01*
X119323302Y-76498564D01*
X119243741Y-76617636D01*
X119188938Y-76749942D01*
X119161000Y-76890397D01*
X119161000Y-77033603D01*
X119188938Y-77174058D01*
X119224302Y-77259433D01*
X119181460Y-77339584D01*
X119148535Y-77448122D01*
X119137418Y-77560997D01*
X119137418Y-79411003D01*
X119148535Y-79523878D01*
X119181460Y-79632416D01*
X119234926Y-79732444D01*
X119306880Y-79820120D01*
X119394556Y-79892074D01*
X119494584Y-79945540D01*
X119603122Y-79978465D01*
X119715997Y-79989582D01*
X120541003Y-79989582D01*
X120653878Y-79978465D01*
X120762416Y-79945540D01*
X120862444Y-79892074D01*
X120899936Y-79861305D01*
X121286751Y-80248121D01*
X121300115Y-80264405D01*
X121316399Y-80277769D01*
X121316408Y-80277778D01*
X121365133Y-80317765D01*
X121404783Y-80338958D01*
X121439314Y-80357415D01*
X121519803Y-80381832D01*
X121582532Y-80388010D01*
X121582542Y-80388010D01*
X121603509Y-80390075D01*
X121624476Y-80388010D01*
X123808119Y-80388010D01*
X122006899Y-82189231D01*
X121990604Y-82202604D01*
X121977232Y-82218898D01*
X121977231Y-82218899D01*
X121937244Y-82267623D01*
X121924967Y-82290593D01*
X121897594Y-82341804D01*
X121879929Y-82400036D01*
X121818236Y-82307706D01*
X121654294Y-82143764D01*
X121461519Y-82014956D01*
X121247318Y-81926231D01*
X121019924Y-81881000D01*
X120788076Y-81881000D01*
X120560682Y-81926231D01*
X120346481Y-82014956D01*
X120153706Y-82143764D01*
X119989764Y-82307706D01*
X119860956Y-82500481D01*
X119772231Y-82714682D01*
X119727000Y-82942076D01*
X119727000Y-83173924D01*
X119772231Y-83401318D01*
X119860956Y-83615519D01*
X119989764Y-83808294D01*
X120153706Y-83972236D01*
X120346481Y-84101044D01*
X120560682Y-84189769D01*
X120788076Y-84235000D01*
X121019924Y-84235000D01*
X121247318Y-84189769D01*
X121461519Y-84101044D01*
X121654294Y-83972236D01*
X121818236Y-83808294D01*
X121866999Y-83735315D01*
X121867000Y-84920686D01*
X121818236Y-84847706D01*
X121654294Y-84683764D01*
X121461519Y-84554956D01*
X121247318Y-84466231D01*
X121019924Y-84421000D01*
X120788076Y-84421000D01*
X120560682Y-84466231D01*
X120346481Y-84554956D01*
X120153706Y-84683764D01*
X119989764Y-84847706D01*
X119860956Y-85040481D01*
X119772231Y-85254682D01*
X119727000Y-85482076D01*
X119727000Y-85713924D01*
X119772231Y-85941318D01*
X119860956Y-86155519D01*
X119989764Y-86348294D01*
X120153706Y-86512236D01*
X120346481Y-86641044D01*
X120477001Y-86695107D01*
X120477000Y-87040893D01*
X120346481Y-87094956D01*
X120153706Y-87223764D01*
X119989764Y-87387706D01*
X119860956Y-87580481D01*
X119772231Y-87794682D01*
X119727000Y-88022076D01*
X119727000Y-88253924D01*
X119772231Y-88481318D01*
X119860956Y-88695519D01*
X119989764Y-88888294D01*
X120153706Y-89052236D01*
X120346481Y-89181044D01*
X120511179Y-89249264D01*
X120272748Y-89333843D01*
X120022645Y-89482822D01*
X119806412Y-89677731D01*
X119632359Y-89911080D01*
X119507175Y-90173901D01*
X119462524Y-90321110D01*
X119583845Y-90551000D01*
X120777000Y-90551000D01*
X120777000Y-90531000D01*
X121031000Y-90531000D01*
X121031000Y-90551000D01*
X121051000Y-90551000D01*
X121051000Y-90805000D01*
X121031000Y-90805000D01*
X121031000Y-91998814D01*
X121260891Y-92119481D01*
X121535252Y-92022157D01*
X121785355Y-91873178D01*
X122001588Y-91678269D01*
X122175641Y-91444920D01*
X122265418Y-91256435D01*
X122265418Y-91528000D01*
X122271732Y-91592103D01*
X122290430Y-91653743D01*
X122320794Y-91710550D01*
X122361657Y-91760343D01*
X122411450Y-91801206D01*
X122468257Y-91831570D01*
X122529897Y-91850268D01*
X122594000Y-91856582D01*
X124294000Y-91856582D01*
X124358103Y-91850268D01*
X124419743Y-91831570D01*
X124476550Y-91801206D01*
X124526343Y-91760343D01*
X124567206Y-91710550D01*
X124597570Y-91653743D01*
X124616268Y-91592103D01*
X124622582Y-91528000D01*
X124622582Y-90865286D01*
X125019869Y-90468000D01*
X125022367Y-90468000D01*
X125129012Y-90446787D01*
X125229470Y-90405176D01*
X125319880Y-90344766D01*
X125396766Y-90267880D01*
X125457176Y-90177470D01*
X125498787Y-90077012D01*
X125520000Y-89970367D01*
X125520000Y-89861633D01*
X125500779Y-89765001D01*
X130642178Y-89765001D01*
X131863838Y-90986662D01*
X131830457Y-91014057D01*
X131789594Y-91063850D01*
X131759230Y-91120657D01*
X131740532Y-91182297D01*
X131734218Y-91246400D01*
X131734218Y-92446400D01*
X131740532Y-92510503D01*
X131759230Y-92572143D01*
X131789594Y-92628950D01*
X131830457Y-92678743D01*
X131880250Y-92719606D01*
X131937057Y-92749970D01*
X131998697Y-92768668D01*
X132062800Y-92774982D01*
X132962800Y-92774982D01*
X133026903Y-92768668D01*
X133088543Y-92749970D01*
X133145350Y-92719606D01*
X133195143Y-92678743D01*
X133236006Y-92628950D01*
X133266370Y-92572143D01*
X133285068Y-92510503D01*
X133291382Y-92446400D01*
X133291382Y-91246400D01*
X133285068Y-91182297D01*
X133266370Y-91120657D01*
X133236006Y-91063850D01*
X133195143Y-91014057D01*
X133145350Y-90973194D01*
X133088543Y-90942830D01*
X133026903Y-90924132D01*
X132962800Y-90917818D01*
X132959247Y-90917818D01*
X132958260Y-90907792D01*
X132932414Y-90822590D01*
X132910053Y-90780756D01*
X132890443Y-90744067D01*
X132833959Y-90675241D01*
X132816705Y-90661081D01*
X132621206Y-90465582D01*
X132724713Y-90465582D01*
X132813023Y-90553892D01*
X132819213Y-90585012D01*
X132860824Y-90685470D01*
X132921234Y-90775880D01*
X132998120Y-90852766D01*
X133088530Y-90913176D01*
X133188988Y-90954787D01*
X133295633Y-90976000D01*
X133404367Y-90976000D01*
X133511012Y-90954787D01*
X133611470Y-90913176D01*
X133701880Y-90852766D01*
X133723001Y-90831645D01*
X133723001Y-91163785D01*
X133720813Y-91186000D01*
X133729540Y-91274607D01*
X133755386Y-91359809D01*
X133777371Y-91400940D01*
X133797358Y-91438333D01*
X133853842Y-91507159D01*
X133871096Y-91521319D01*
X134500081Y-92150305D01*
X134514241Y-92167559D01*
X134583067Y-92224043D01*
X134632569Y-92250502D01*
X134661590Y-92266014D01*
X134746792Y-92291860D01*
X134835400Y-92300587D01*
X134857605Y-92298400D01*
X135034218Y-92298400D01*
X135034218Y-92446400D01*
X135040532Y-92510503D01*
X135059230Y-92572143D01*
X135089594Y-92628950D01*
X135130457Y-92678743D01*
X135180250Y-92719606D01*
X135237057Y-92749970D01*
X135298697Y-92768668D01*
X135362800Y-92774982D01*
X136262800Y-92774982D01*
X136326903Y-92768668D01*
X136388543Y-92749970D01*
X136445350Y-92719606D01*
X136495143Y-92678743D01*
X136536006Y-92628950D01*
X136566370Y-92572143D01*
X136585068Y-92510503D01*
X136591382Y-92446400D01*
X136591382Y-92187332D01*
X136596506Y-92191537D01*
X136706820Y-92250502D01*
X136826518Y-92286812D01*
X136951000Y-92299072D01*
X137115250Y-92296000D01*
X137274000Y-92137250D01*
X137274000Y-91313000D01*
X137254000Y-91313000D01*
X137254000Y-91059000D01*
X137274000Y-91059000D01*
X137274000Y-91039000D01*
X137528000Y-91039000D01*
X137528000Y-91059000D01*
X137548000Y-91059000D01*
X137548000Y-91313000D01*
X137528000Y-91313000D01*
X137528000Y-92137250D01*
X137686750Y-92296000D01*
X137851000Y-92299072D01*
X137975482Y-92286812D01*
X138095180Y-92250502D01*
X138205494Y-92191537D01*
X138302185Y-92112185D01*
X138381537Y-92015494D01*
X138439298Y-91907433D01*
X138514153Y-91947443D01*
X138618002Y-91978945D01*
X138726000Y-91989582D01*
X139176000Y-91989582D01*
X139283998Y-91978945D01*
X139387847Y-91947443D01*
X139483554Y-91896287D01*
X139567442Y-91827442D01*
X139636287Y-91743554D01*
X139687443Y-91647847D01*
X139698014Y-91613000D01*
X139719418Y-91613000D01*
X139719418Y-91878000D01*
X139725732Y-91942103D01*
X139744430Y-92003743D01*
X139774794Y-92060550D01*
X139815657Y-92110343D01*
X139865450Y-92151206D01*
X139922257Y-92181570D01*
X139983897Y-92200268D01*
X140048000Y-92206582D01*
X141748000Y-92206582D01*
X141812103Y-92200268D01*
X141873743Y-92181570D01*
X141930550Y-92151206D01*
X141980343Y-92110343D01*
X142021206Y-92060550D01*
X142051570Y-92003743D01*
X142070268Y-91942103D01*
X142076582Y-91878000D01*
X142076582Y-89604999D01*
X142921131Y-89604999D01*
X143419418Y-90103286D01*
X143419418Y-91878000D01*
X143425732Y-91942103D01*
X143444430Y-92003743D01*
X143474794Y-92060550D01*
X143515657Y-92110343D01*
X143565450Y-92151206D01*
X143622257Y-92181570D01*
X143683897Y-92200268D01*
X143748000Y-92206582D01*
X145448000Y-92206582D01*
X145512103Y-92200268D01*
X145573743Y-92181570D01*
X145630550Y-92151206D01*
X145670188Y-92118677D01*
X145728506Y-92166537D01*
X145838820Y-92225502D01*
X145958518Y-92261812D01*
X146083000Y-92274072D01*
X146272250Y-92271000D01*
X146431000Y-92112250D01*
X146431000Y-91313000D01*
X146685000Y-91313000D01*
X146685000Y-92112250D01*
X146843750Y-92271000D01*
X147033000Y-92274072D01*
X147157482Y-92261812D01*
X147277180Y-92225502D01*
X147387494Y-92166537D01*
X147484185Y-92087185D01*
X147563537Y-91990494D01*
X147622502Y-91880180D01*
X147658812Y-91760482D01*
X147671072Y-91636000D01*
X147668000Y-91471750D01*
X147509250Y-91313000D01*
X146685000Y-91313000D01*
X146431000Y-91313000D01*
X146411000Y-91313000D01*
X146411000Y-91059000D01*
X146431000Y-91059000D01*
X146431000Y-91039000D01*
X146685000Y-91039000D01*
X146685000Y-91059000D01*
X147509250Y-91059000D01*
X147668000Y-90900250D01*
X147671072Y-90736000D01*
X147658812Y-90611518D01*
X147622502Y-90491820D01*
X147563537Y-90381506D01*
X147484185Y-90284815D01*
X147387494Y-90205463D01*
X147279433Y-90147702D01*
X147319443Y-90072847D01*
X147350945Y-89968998D01*
X147361582Y-89861000D01*
X147361582Y-89411000D01*
X147350945Y-89303002D01*
X147319443Y-89199153D01*
X147268287Y-89103446D01*
X147199442Y-89019558D01*
X147115554Y-88950713D01*
X147019847Y-88899557D01*
X146915998Y-88868055D01*
X146808000Y-88857418D01*
X146308000Y-88857418D01*
X146200002Y-88868055D01*
X146096153Y-88899557D01*
X146000446Y-88950713D01*
X145916558Y-89019558D01*
X145847713Y-89103446D01*
X145796557Y-89199153D01*
X145793570Y-89209000D01*
X145660967Y-89209000D01*
X145640000Y-89206935D01*
X145633892Y-89207537D01*
X145630550Y-89204794D01*
X145573743Y-89174430D01*
X145512103Y-89155732D01*
X145448000Y-89149418D01*
X143748000Y-89149418D01*
X143683897Y-89155732D01*
X143680600Y-89156732D01*
X143414766Y-88890898D01*
X143401394Y-88874604D01*
X143336375Y-88821244D01*
X143262195Y-88781594D01*
X143181706Y-88757177D01*
X143161600Y-88755197D01*
X143186000Y-88747795D01*
X143246897Y-88766268D01*
X143311000Y-88772582D01*
X143861000Y-88772582D01*
X143925103Y-88766268D01*
X143986000Y-88747795D01*
X144046897Y-88766268D01*
X144111000Y-88772582D01*
X144661000Y-88772582D01*
X144725103Y-88766268D01*
X144786743Y-88747570D01*
X144843550Y-88717206D01*
X144893343Y-88676343D01*
X144934206Y-88626550D01*
X144964570Y-88569743D01*
X144983268Y-88508103D01*
X144989582Y-88444000D01*
X144989582Y-86944000D01*
X144983268Y-86879897D01*
X144964570Y-86818257D01*
X144934206Y-86761450D01*
X144932412Y-86759264D01*
X144984182Y-86801316D01*
X145094792Y-86859724D01*
X145214671Y-86895430D01*
X145339213Y-86907064D01*
X145800250Y-86904000D01*
X145959000Y-86745250D01*
X145959000Y-86121000D01*
X144859750Y-86121000D01*
X144701000Y-86279750D01*
X144710823Y-86396631D01*
X144747735Y-86516145D01*
X144807254Y-86626161D01*
X144845775Y-86672620D01*
X144843550Y-86670794D01*
X144786743Y-86640430D01*
X144725103Y-86621732D01*
X144661000Y-86615418D01*
X144111000Y-86615418D01*
X144046897Y-86621732D01*
X143986000Y-86640205D01*
X143937000Y-86625341D01*
X143937000Y-84765598D01*
X143957234Y-84795880D01*
X144034120Y-84872766D01*
X144124530Y-84933176D01*
X144224988Y-84974787D01*
X144331633Y-84996000D01*
X144334131Y-84996000D01*
X144769589Y-85431459D01*
X144747735Y-85471855D01*
X144710823Y-85591369D01*
X144701000Y-85708250D01*
X144859750Y-85867000D01*
X145959000Y-85867000D01*
X145959000Y-85847000D01*
X146213000Y-85847000D01*
X146213000Y-85867000D01*
X146233000Y-85867000D01*
X146233000Y-86121000D01*
X146213000Y-86121000D01*
X146213000Y-86745250D01*
X146371750Y-86904000D01*
X146832787Y-86907064D01*
X146957329Y-86895430D01*
X147002891Y-86881859D01*
X146972000Y-86912750D01*
X146968928Y-87077000D01*
X146981188Y-87201482D01*
X147017498Y-87321180D01*
X147076463Y-87431494D01*
X147155815Y-87528185D01*
X147252506Y-87607537D01*
X147362820Y-87666502D01*
X147482518Y-87702812D01*
X147607000Y-87715072D01*
X147796250Y-87712000D01*
X147955000Y-87553250D01*
X147955000Y-86754000D01*
X148209000Y-86754000D01*
X148209000Y-87553250D01*
X148367750Y-87712000D01*
X148557000Y-87715072D01*
X148681482Y-87702812D01*
X148801180Y-87666502D01*
X148911494Y-87607537D01*
X149008185Y-87528185D01*
X149087537Y-87431494D01*
X149146502Y-87321180D01*
X149182812Y-87201482D01*
X149195072Y-87077000D01*
X149192000Y-86912750D01*
X149033250Y-86754000D01*
X148209000Y-86754000D01*
X147955000Y-86754000D01*
X147935000Y-86754000D01*
X147935000Y-86500000D01*
X147955000Y-86500000D01*
X147955000Y-86480000D01*
X148209000Y-86480000D01*
X148209000Y-86500000D01*
X149033250Y-86500000D01*
X149192000Y-86341250D01*
X149195072Y-86177000D01*
X149182812Y-86052518D01*
X149146502Y-85932820D01*
X149087537Y-85822506D01*
X149008185Y-85725815D01*
X148911494Y-85646463D01*
X148803433Y-85588702D01*
X148843443Y-85513847D01*
X148874945Y-85409998D01*
X148885582Y-85302000D01*
X148885582Y-84852000D01*
X148874945Y-84744002D01*
X148843443Y-84640153D01*
X148792287Y-84544446D01*
X148723442Y-84460558D01*
X148639554Y-84391713D01*
X148543847Y-84340557D01*
X148439998Y-84309055D01*
X148332000Y-84298418D01*
X147832000Y-84298418D01*
X147724002Y-84309055D01*
X147620153Y-84340557D01*
X147524446Y-84391713D01*
X147440558Y-84460558D01*
X147371713Y-84544446D01*
X147320557Y-84640153D01*
X147289662Y-84742000D01*
X147155569Y-84742000D01*
X147158268Y-84733103D01*
X147164582Y-84669000D01*
X147164582Y-84119000D01*
X147158268Y-84054897D01*
X147139795Y-83994000D01*
X147158268Y-83933103D01*
X147164582Y-83869000D01*
X147164582Y-83319000D01*
X147158268Y-83254897D01*
X147139795Y-83194000D01*
X147158268Y-83133103D01*
X147164582Y-83069000D01*
X147164582Y-82519000D01*
X147158268Y-82454897D01*
X147139795Y-82394000D01*
X147158268Y-82333103D01*
X147164582Y-82269000D01*
X147164582Y-81719000D01*
X147158268Y-81654897D01*
X147139795Y-81594000D01*
X147158268Y-81533103D01*
X147164582Y-81469000D01*
X147164582Y-80919000D01*
X147158268Y-80854897D01*
X147139795Y-80794000D01*
X147158268Y-80733103D01*
X147164582Y-80669000D01*
X147164582Y-80119000D01*
X147158268Y-80054897D01*
X147139795Y-79994000D01*
X147158268Y-79933103D01*
X147164582Y-79869000D01*
X147164582Y-79319000D01*
X147158268Y-79254897D01*
X147139795Y-79194000D01*
X147158268Y-79133103D01*
X147164582Y-79069000D01*
X147164582Y-78519000D01*
X147158268Y-78454897D01*
X147139795Y-78394000D01*
X147158268Y-78333103D01*
X147164582Y-78269000D01*
X147164582Y-77719000D01*
X147158268Y-77654897D01*
X147139570Y-77593257D01*
X147109206Y-77536450D01*
X147068343Y-77486657D01*
X147018550Y-77445794D01*
X146961743Y-77415430D01*
X146900103Y-77396732D01*
X146836000Y-77390418D01*
X145336000Y-77390418D01*
X145271897Y-77396732D01*
X145210257Y-77415430D01*
X145153450Y-77445794D01*
X145103657Y-77486657D01*
X145062794Y-77536450D01*
X145032430Y-77593257D01*
X145013732Y-77654897D01*
X145007418Y-77719000D01*
X145007418Y-78269000D01*
X145013732Y-78333103D01*
X145032205Y-78394000D01*
X145013732Y-78454897D01*
X145007418Y-78519000D01*
X145007418Y-79069000D01*
X145013732Y-79133103D01*
X145032205Y-79194000D01*
X145013732Y-79254897D01*
X145007418Y-79319000D01*
X145007418Y-79869000D01*
X145013732Y-79933103D01*
X145032205Y-79994000D01*
X145013732Y-80054897D01*
X145007418Y-80119000D01*
X145007418Y-80669000D01*
X145013732Y-80733103D01*
X145032205Y-80794000D01*
X145013732Y-80854897D01*
X145007418Y-80919000D01*
X145007418Y-81469000D01*
X145013732Y-81533103D01*
X145032205Y-81594000D01*
X145013732Y-81654897D01*
X145007418Y-81719000D01*
X145007418Y-82269000D01*
X145013732Y-82333103D01*
X145032205Y-82394000D01*
X145013732Y-82454897D01*
X145007418Y-82519000D01*
X145007418Y-83069000D01*
X145013732Y-83133103D01*
X145032205Y-83194000D01*
X145013732Y-83254897D01*
X145007418Y-83319000D01*
X145007418Y-83869000D01*
X145013732Y-83933103D01*
X145032205Y-83994000D01*
X145013732Y-84054897D01*
X145007418Y-84119000D01*
X145007418Y-84461549D01*
X144938000Y-84392131D01*
X144938000Y-84389633D01*
X144916787Y-84282988D01*
X144875176Y-84182530D01*
X144814766Y-84092120D01*
X144813000Y-84090354D01*
X144813000Y-77333535D01*
X144843550Y-77317206D01*
X144893343Y-77276343D01*
X144934206Y-77226550D01*
X144964570Y-77169743D01*
X144983268Y-77108103D01*
X144989582Y-77044000D01*
X144989582Y-75600642D01*
X145364642Y-75225582D01*
X145754000Y-75225582D01*
X145861998Y-75214945D01*
X145965847Y-75183443D01*
X146040702Y-75143433D01*
X146098463Y-75251494D01*
X146177815Y-75348185D01*
X146274506Y-75427537D01*
X146384820Y-75486502D01*
X146504518Y-75522812D01*
X146629000Y-75535072D01*
X146793250Y-75532000D01*
X146952000Y-75373250D01*
X146952000Y-74549000D01*
X147206000Y-74549000D01*
X147206000Y-75373250D01*
X147364750Y-75532000D01*
X147529000Y-75535072D01*
X147653482Y-75522812D01*
X147773180Y-75486502D01*
X147883494Y-75427537D01*
X147980185Y-75348185D01*
X148059537Y-75251494D01*
X148118502Y-75141180D01*
X148154812Y-75021482D01*
X148167072Y-74897000D01*
X148164000Y-74707750D01*
X148005250Y-74549000D01*
X147206000Y-74549000D01*
X146952000Y-74549000D01*
X146932000Y-74549000D01*
X146932000Y-74295000D01*
X146952000Y-74295000D01*
X146952000Y-74275000D01*
X147206000Y-74275000D01*
X147206000Y-74295000D01*
X148005250Y-74295000D01*
X148164000Y-74136250D01*
X148167072Y-73947000D01*
X148154812Y-73822518D01*
X148118502Y-73702820D01*
X148059537Y-73592506D01*
X147980185Y-73495815D01*
X147883494Y-73416463D01*
X147773180Y-73357498D01*
X147653482Y-73321188D01*
X147529000Y-73308928D01*
X147364750Y-73312000D01*
X147206002Y-73470748D01*
X147206002Y-73348867D01*
X147844849Y-72710020D01*
X148755013Y-72710020D01*
X148775980Y-72712085D01*
X148796947Y-72710020D01*
X148796958Y-72710020D01*
X148859687Y-72703842D01*
X148940176Y-72679425D01*
X149014356Y-72639775D01*
X149079375Y-72586415D01*
X149092748Y-72570120D01*
X152279287Y-69383582D01*
X152704000Y-69383582D01*
X152811998Y-69372945D01*
X152915847Y-69341443D01*
X153011554Y-69290287D01*
X153095442Y-69221442D01*
X153164287Y-69137554D01*
X153215443Y-69041847D01*
X153246945Y-68937998D01*
X153257582Y-68830000D01*
X153257582Y-68330000D01*
X153246945Y-68222002D01*
X153215443Y-68118153D01*
X153164287Y-68022446D01*
X153095442Y-67938558D01*
X153011554Y-67869713D01*
X152915847Y-67818557D01*
X152914011Y-67818000D01*
X152915847Y-67817443D01*
X153011554Y-67766287D01*
X153095442Y-67697442D01*
X153164287Y-67613554D01*
X153215443Y-67517847D01*
X153246945Y-67413998D01*
X153257582Y-67306000D01*
X153257582Y-66881287D01*
X153516122Y-66622748D01*
X153532405Y-66609385D01*
X153545769Y-66593101D01*
X153545778Y-66593092D01*
X153585765Y-66544367D01*
X153610310Y-66498446D01*
X153625415Y-66470186D01*
X153649832Y-66389697D01*
X153656010Y-66326968D01*
X153656010Y-66326956D01*
X153658075Y-66305991D01*
X153656010Y-66285026D01*
X153656010Y-64382596D01*
X153696196Y-64370405D01*
X153770376Y-64330755D01*
X153835395Y-64277395D01*
X153848768Y-64261100D01*
X154499122Y-63610748D01*
X154515405Y-63597385D01*
X154528769Y-63581101D01*
X154528778Y-63581092D01*
X154568765Y-63532367D01*
X154590635Y-63491450D01*
X154608415Y-63458186D01*
X154632832Y-63377697D01*
X154639010Y-63314968D01*
X154639010Y-63314956D01*
X154641075Y-63293991D01*
X154639010Y-63273026D01*
X154639010Y-61874974D01*
X154641075Y-61854009D01*
X154639010Y-61833044D01*
X154639010Y-61833032D01*
X154632832Y-61770303D01*
X154608415Y-61689814D01*
X154589958Y-61655283D01*
X154568765Y-61615633D01*
X154528778Y-61566908D01*
X154528769Y-61566899D01*
X154515405Y-61550615D01*
X154499121Y-61537251D01*
X153848768Y-60886900D01*
X153835395Y-60870605D01*
X153770376Y-60817245D01*
X153696196Y-60777595D01*
X153639227Y-60760313D01*
X153635570Y-60748257D01*
X153605206Y-60691450D01*
X153564343Y-60641657D01*
X153514550Y-60600794D01*
X153457743Y-60570430D01*
X153396103Y-60551732D01*
X153332000Y-60545418D01*
X153139000Y-60545418D01*
X153139000Y-60493582D01*
X153406250Y-60493582D01*
X153513029Y-60483065D01*
X153615705Y-60451919D01*
X153710331Y-60401340D01*
X153793272Y-60333272D01*
X153861340Y-60250331D01*
X153911919Y-60155705D01*
X153943065Y-60053029D01*
X153953582Y-59946250D01*
X153953582Y-59433750D01*
X153943065Y-59326971D01*
X153911919Y-59224295D01*
X153861340Y-59129669D01*
X153793272Y-59046728D01*
X153710331Y-58978660D01*
X153615705Y-58928081D01*
X153513029Y-58896935D01*
X153406250Y-58886418D01*
X152968750Y-58886418D01*
X152861971Y-58896935D01*
X152759295Y-58928081D01*
X152664669Y-58978660D01*
X152581728Y-59046728D01*
X152513660Y-59129669D01*
X152463081Y-59224295D01*
X152431935Y-59326971D01*
X152421418Y-59433750D01*
X152421418Y-59851590D01*
X152408606Y-59862105D01*
X152395237Y-59878395D01*
X152395232Y-59878400D01*
X152378582Y-59898688D01*
X152378582Y-59433750D01*
X152368065Y-59326971D01*
X152336919Y-59224295D01*
X152286340Y-59129669D01*
X152218272Y-59046728D01*
X152135331Y-58978660D01*
X152040705Y-58928081D01*
X151938029Y-58896935D01*
X151831250Y-58886418D01*
X151393750Y-58886418D01*
X151286971Y-58896935D01*
X151184295Y-58928081D01*
X151089669Y-58978660D01*
X151006728Y-59046728D01*
X150943582Y-59123672D01*
X150943582Y-58811000D01*
X150932465Y-58698124D01*
X150899540Y-58589586D01*
X150846073Y-58489557D01*
X150774119Y-58401881D01*
X150686443Y-58329927D01*
X150586414Y-58276460D01*
X150477876Y-58243535D01*
X150365000Y-58232418D01*
X149615000Y-58232418D01*
X149502124Y-58243535D01*
X149393586Y-58276460D01*
X149293557Y-58329927D01*
X149205881Y-58401881D01*
X149133927Y-58489557D01*
X149080460Y-58589586D01*
X149047535Y-58698124D01*
X149036418Y-58811000D01*
X149036418Y-60061000D01*
X149047535Y-60173876D01*
X149080460Y-60282414D01*
X149133927Y-60382443D01*
X149205881Y-60470119D01*
X149293557Y-60542073D01*
X149393586Y-60595540D01*
X149502124Y-60628465D01*
X149563001Y-60634461D01*
X149563001Y-60640130D01*
X149526713Y-60676418D01*
X149102000Y-60676418D01*
X148994002Y-60687055D01*
X148890153Y-60718557D01*
X148794446Y-60769713D01*
X148710558Y-60838558D01*
X148641713Y-60922446D01*
X148594047Y-61011624D01*
X148591346Y-61002720D01*
X148542500Y-60911336D01*
X148476764Y-60831236D01*
X148396664Y-60765500D01*
X148305280Y-60716654D01*
X148206121Y-60686575D01*
X148103000Y-60676418D01*
X147553000Y-60676418D01*
X147449879Y-60686575D01*
X147350720Y-60716654D01*
X147259336Y-60765500D01*
X147179236Y-60831236D01*
X147113500Y-60911336D01*
X147064654Y-61002720D01*
X147034575Y-61101879D01*
X147024418Y-61205000D01*
X147024418Y-61605000D01*
X147034575Y-61708121D01*
X147064654Y-61807280D01*
X147113500Y-61898664D01*
X147179236Y-61978764D01*
X147259336Y-62044500D01*
X147350720Y-62093346D01*
X147449879Y-62123425D01*
X147553000Y-62133582D01*
X148103000Y-62133582D01*
X148206121Y-62123425D01*
X148305280Y-62093346D01*
X148396664Y-62044500D01*
X148476764Y-61978764D01*
X148542500Y-61898664D01*
X148551407Y-61882000D01*
X148587570Y-61882000D01*
X148590557Y-61891847D01*
X148630567Y-61966702D01*
X148522506Y-62024463D01*
X148425815Y-62103815D01*
X148346463Y-62200506D01*
X148287498Y-62310820D01*
X148273486Y-62357010D01*
X148206121Y-62336575D01*
X148103000Y-62326418D01*
X147553000Y-62326418D01*
X147449879Y-62336575D01*
X147350720Y-62366654D01*
X147259336Y-62415500D01*
X147179236Y-62481236D01*
X147113500Y-62561336D01*
X147064654Y-62652720D01*
X147034575Y-62751879D01*
X147024418Y-62855000D01*
X147024418Y-63255000D01*
X147034575Y-63358121D01*
X147064654Y-63457280D01*
X147113500Y-63548664D01*
X147179236Y-63628764D01*
X147259336Y-63694500D01*
X147350720Y-63743346D01*
X147449879Y-63773425D01*
X147553000Y-63783582D01*
X147952713Y-63783582D01*
X148430241Y-64261111D01*
X148443605Y-64277395D01*
X148459889Y-64290759D01*
X148459898Y-64290768D01*
X148508623Y-64330755D01*
X148540449Y-64347766D01*
X148582804Y-64370405D01*
X148663293Y-64394822D01*
X148726022Y-64401000D01*
X148726034Y-64401000D01*
X148746999Y-64403065D01*
X148767964Y-64401000D01*
X150502001Y-64401000D01*
X150502001Y-64767570D01*
X150492153Y-64770557D01*
X150396446Y-64821713D01*
X150312558Y-64890558D01*
X150243713Y-64974446D01*
X150192557Y-65070153D01*
X150161055Y-65174002D01*
X150150418Y-65282000D01*
X150150418Y-65782000D01*
X150161055Y-65889998D01*
X150192557Y-65993847D01*
X150200972Y-66009590D01*
X150124506Y-66050463D01*
X150027815Y-66129815D01*
X149948463Y-66226506D01*
X149889498Y-66336820D01*
X149853188Y-66456518D01*
X149840928Y-66581000D01*
X149844000Y-66770250D01*
X150002750Y-66929000D01*
X150802000Y-66929000D01*
X150802000Y-66909000D01*
X151056000Y-66909000D01*
X151056000Y-66929000D01*
X151076000Y-66929000D01*
X151076000Y-67183000D01*
X151056000Y-67183000D01*
X151056000Y-68453000D01*
X151076000Y-68453000D01*
X151076000Y-68707000D01*
X151056000Y-68707000D01*
X151056000Y-68727000D01*
X150802000Y-68727000D01*
X150802000Y-68707000D01*
X150002750Y-68707000D01*
X149844000Y-68865750D01*
X149840928Y-69055000D01*
X149853188Y-69179482D01*
X149889498Y-69299180D01*
X149948463Y-69409494D01*
X150027815Y-69506185D01*
X150124506Y-69585537D01*
X150234820Y-69644502D01*
X150354518Y-69680812D01*
X150479000Y-69693072D01*
X150643250Y-69690000D01*
X150801998Y-69531252D01*
X150801998Y-69653133D01*
X148599112Y-71856020D01*
X148319708Y-71856020D01*
X148388331Y-71819340D01*
X148471272Y-71751272D01*
X148539340Y-71668331D01*
X148589919Y-71573705D01*
X148621065Y-71471029D01*
X148631582Y-71364250D01*
X148631582Y-70926750D01*
X148621065Y-70819971D01*
X148589919Y-70717295D01*
X148539340Y-70622669D01*
X148471272Y-70539728D01*
X148388331Y-70471660D01*
X148293705Y-70421081D01*
X148191029Y-70389935D01*
X148084250Y-70379418D01*
X147571750Y-70379418D01*
X147464971Y-70389935D01*
X147362295Y-70421081D01*
X147267669Y-70471660D01*
X147184728Y-70539728D01*
X147116660Y-70622669D01*
X147066081Y-70717295D01*
X147066000Y-70717562D01*
X147065919Y-70717295D01*
X147015340Y-70622669D01*
X146947272Y-70539728D01*
X146864331Y-70471660D01*
X146769705Y-70421081D01*
X146667029Y-70389935D01*
X146560250Y-70379418D01*
X146047750Y-70379418D01*
X145940971Y-70389935D01*
X145838295Y-70421081D01*
X145753679Y-70466310D01*
X144500501Y-69213133D01*
X144500501Y-68523994D01*
X144511936Y-68531635D01*
X144612394Y-68573246D01*
X144719039Y-68594459D01*
X144827773Y-68594459D01*
X144934418Y-68573246D01*
X145034876Y-68531635D01*
X145125286Y-68471225D01*
X145202172Y-68394339D01*
X145262582Y-68303929D01*
X145304193Y-68203471D01*
X145325406Y-68096826D01*
X145325406Y-68094327D01*
X145502132Y-67917602D01*
X145500418Y-67935000D01*
X145500418Y-68335000D01*
X145510575Y-68438121D01*
X145540654Y-68537280D01*
X145589500Y-68628664D01*
X145655236Y-68708764D01*
X145735336Y-68774500D01*
X145826720Y-68823346D01*
X145869982Y-68836469D01*
X145838295Y-68846081D01*
X145743669Y-68896660D01*
X145660728Y-68964728D01*
X145592660Y-69047669D01*
X145542081Y-69142295D01*
X145510935Y-69244971D01*
X145500418Y-69351750D01*
X145500418Y-69789250D01*
X145510935Y-69896029D01*
X145542081Y-69998705D01*
X145592660Y-70093331D01*
X145660728Y-70176272D01*
X145743669Y-70244340D01*
X145838295Y-70294919D01*
X145940971Y-70326065D01*
X146047750Y-70336582D01*
X146560250Y-70336582D01*
X146667029Y-70326065D01*
X146769705Y-70294919D01*
X146864331Y-70244340D01*
X146947272Y-70176272D01*
X147015340Y-70093331D01*
X147065919Y-69998705D01*
X147066000Y-69998438D01*
X147066081Y-69998705D01*
X147116660Y-70093331D01*
X147184728Y-70176272D01*
X147267669Y-70244340D01*
X147362295Y-70294919D01*
X147464971Y-70326065D01*
X147571750Y-70336582D01*
X148084250Y-70336582D01*
X148191029Y-70326065D01*
X148293705Y-70294919D01*
X148388331Y-70244340D01*
X148471272Y-70176272D01*
X148539340Y-70093331D01*
X148589919Y-69998705D01*
X148621065Y-69896029D01*
X148631582Y-69789250D01*
X148631582Y-69351750D01*
X148621065Y-69244971D01*
X148589919Y-69142295D01*
X148539340Y-69047669D01*
X148471272Y-68964728D01*
X148388331Y-68896660D01*
X148293705Y-68846081D01*
X148262018Y-68836469D01*
X148305280Y-68823346D01*
X148396664Y-68774500D01*
X148476764Y-68708764D01*
X148542500Y-68628664D01*
X148591346Y-68537280D01*
X148621425Y-68438121D01*
X148631582Y-68335000D01*
X148631582Y-67935000D01*
X148621425Y-67831879D01*
X148591346Y-67732720D01*
X148542500Y-67641336D01*
X148476764Y-67561236D01*
X148439922Y-67531000D01*
X149840928Y-67531000D01*
X149853188Y-67655482D01*
X149889498Y-67775180D01*
X149912386Y-67818000D01*
X149889498Y-67860820D01*
X149853188Y-67980518D01*
X149840928Y-68105000D01*
X149844000Y-68294250D01*
X150002750Y-68453000D01*
X150802000Y-68453000D01*
X150802000Y-67183000D01*
X150002750Y-67183000D01*
X149844000Y-67341750D01*
X149840928Y-67531000D01*
X148439922Y-67531000D01*
X148396664Y-67495500D01*
X148305280Y-67446654D01*
X148206121Y-67416575D01*
X148103000Y-67406418D01*
X147553000Y-67406418D01*
X147449879Y-67416575D01*
X147350720Y-67446654D01*
X147259336Y-67495500D01*
X147179236Y-67561236D01*
X147113500Y-67641336D01*
X147066000Y-67730202D01*
X147018500Y-67641336D01*
X146952764Y-67561236D01*
X146872664Y-67495500D01*
X146781280Y-67446654D01*
X146682121Y-67416575D01*
X146579000Y-67406418D01*
X146029000Y-67406418D01*
X146011602Y-67408132D01*
X146206152Y-67213582D01*
X146579000Y-67213582D01*
X146682121Y-67203425D01*
X146781280Y-67173346D01*
X146872664Y-67124500D01*
X146952764Y-67058764D01*
X147018500Y-66978664D01*
X147054133Y-66912000D01*
X147077867Y-66912000D01*
X147113500Y-66978664D01*
X147179236Y-67058764D01*
X147259336Y-67124500D01*
X147350720Y-67173346D01*
X147449879Y-67203425D01*
X147553000Y-67213582D01*
X148103000Y-67213582D01*
X148206121Y-67203425D01*
X148305280Y-67173346D01*
X148396664Y-67124500D01*
X148476764Y-67058764D01*
X148542500Y-66978664D01*
X148591346Y-66887280D01*
X148621425Y-66788121D01*
X148631582Y-66685000D01*
X148631582Y-66285000D01*
X148621425Y-66181879D01*
X148591346Y-66082720D01*
X148542500Y-65991336D01*
X148476764Y-65911236D01*
X148396664Y-65845500D01*
X148305280Y-65796654D01*
X148206121Y-65766575D01*
X148103000Y-65756418D01*
X147703286Y-65756418D01*
X147603937Y-65657068D01*
X147618000Y-65586367D01*
X147618000Y-65477633D01*
X147596787Y-65370988D01*
X147555176Y-65270530D01*
X147494766Y-65180120D01*
X147417880Y-65103234D01*
X147327470Y-65042824D01*
X147227012Y-65001213D01*
X147120367Y-64980000D01*
X147011633Y-64980000D01*
X146904988Y-65001213D01*
X146804530Y-65042824D01*
X146714120Y-65103234D01*
X146637234Y-65180120D01*
X146576824Y-65270530D01*
X146535213Y-65370988D01*
X146514000Y-65477633D01*
X146514000Y-65586367D01*
X146535213Y-65693012D01*
X146561477Y-65756418D01*
X146029000Y-65756418D01*
X145925879Y-65766575D01*
X145826720Y-65796654D01*
X145735336Y-65845500D01*
X145655236Y-65911236D01*
X145589500Y-65991336D01*
X145540654Y-66082720D01*
X145510575Y-66181879D01*
X145500418Y-66285000D01*
X145500418Y-66685000D01*
X145502801Y-66709195D01*
X145225184Y-66986813D01*
X145200467Y-66949821D01*
X145123581Y-66872935D01*
X145033171Y-66812525D01*
X144932713Y-66770914D01*
X144826068Y-66749701D01*
X144717334Y-66749701D01*
X144610689Y-66770914D01*
X144567268Y-66788899D01*
X143026299Y-65247931D01*
X143099880Y-65198766D01*
X143176766Y-65121880D01*
X143237176Y-65031470D01*
X143278787Y-64931012D01*
X143300000Y-64824367D01*
X143300000Y-64715633D01*
X143278787Y-64608988D01*
X143277837Y-64606695D01*
X143309397Y-64616268D01*
X143373500Y-64622582D01*
X143773500Y-64622582D01*
X143837603Y-64616268D01*
X143899243Y-64597570D01*
X143956050Y-64567206D01*
X144005843Y-64526343D01*
X144046706Y-64476550D01*
X144077070Y-64419743D01*
X144095768Y-64358103D01*
X144102082Y-64294000D01*
X144102082Y-63094000D01*
X144095768Y-63029897D01*
X144077070Y-62968257D01*
X144046706Y-62911450D01*
X144005843Y-62861657D01*
X143956050Y-62820794D01*
X143899243Y-62790430D01*
X143837603Y-62771732D01*
X143773500Y-62765418D01*
X143373500Y-62765418D01*
X143309397Y-62771732D01*
X143256000Y-62787930D01*
X143202603Y-62771732D01*
X143138500Y-62765418D01*
X142738500Y-62765418D01*
X142674397Y-62771732D01*
X142621000Y-62787930D01*
X142567603Y-62771732D01*
X142503500Y-62765418D01*
X142103500Y-62765418D01*
X142039397Y-62771732D01*
X141986000Y-62787930D01*
X141932603Y-62771732D01*
X141868500Y-62765418D01*
X141468500Y-62765418D01*
X141404397Y-62771732D01*
X141351000Y-62787930D01*
X141297603Y-62771732D01*
X141233500Y-62765418D01*
X141143639Y-62765418D01*
X141135091Y-62748737D01*
X141094109Y-62697001D01*
X141761032Y-62697001D01*
X141781999Y-62699066D01*
X141802966Y-62697001D01*
X141802977Y-62697001D01*
X141865706Y-62690823D01*
X141946195Y-62666406D01*
X142020375Y-62626756D01*
X142085394Y-62573396D01*
X142098767Y-62557101D01*
X142169101Y-62486767D01*
X142185395Y-62473395D01*
X142205416Y-62449000D01*
X142238756Y-62408376D01*
X142263227Y-62362592D01*
X142278405Y-62334196D01*
X142302822Y-62253707D01*
X142307312Y-62208113D01*
X142314343Y-62202343D01*
X142355206Y-62152550D01*
X142385570Y-62095743D01*
X142404268Y-62034103D01*
X142410582Y-61970000D01*
X142410582Y-60570000D01*
X142404268Y-60505897D01*
X142385570Y-60444257D01*
X142355206Y-60387450D01*
X142314343Y-60337657D01*
X142264550Y-60296794D01*
X142207743Y-60266430D01*
X142146103Y-60247732D01*
X142082000Y-60241418D01*
X141682000Y-60241418D01*
X141617897Y-60247732D01*
X141557000Y-60266205D01*
X141499436Y-60248743D01*
X141478406Y-60179420D01*
X141478406Y-60179419D01*
X141438757Y-60105240D01*
X141398769Y-60056515D01*
X141398765Y-60056511D01*
X141385396Y-60040221D01*
X141369106Y-60026852D01*
X141347747Y-60005493D01*
X141446250Y-60005000D01*
X141605000Y-59846250D01*
X141605000Y-58547000D01*
X141859000Y-58547000D01*
X141859000Y-59846250D01*
X142017750Y-60005000D01*
X142632000Y-60008072D01*
X142756482Y-59995812D01*
X142876180Y-59959502D01*
X142907000Y-59943028D01*
X142937820Y-59959502D01*
X143057518Y-59995812D01*
X143182000Y-60008072D01*
X144046250Y-60005000D01*
X144205000Y-59846250D01*
X144205000Y-58547000D01*
X144459000Y-58547000D01*
X144459000Y-59846250D01*
X144617750Y-60005000D01*
X145482000Y-60008072D01*
X145606482Y-59995812D01*
X145726180Y-59959502D01*
X145836494Y-59900537D01*
X145933185Y-59821185D01*
X146012537Y-59724494D01*
X146071502Y-59614180D01*
X146107812Y-59494482D01*
X146120072Y-59370000D01*
X146117487Y-58811000D01*
X146236418Y-58811000D01*
X146236418Y-60061000D01*
X146247535Y-60173876D01*
X146280460Y-60282414D01*
X146333927Y-60382443D01*
X146405881Y-60470119D01*
X146493557Y-60542073D01*
X146593586Y-60595540D01*
X146702124Y-60628465D01*
X146815000Y-60639582D01*
X147565000Y-60639582D01*
X147677876Y-60628465D01*
X147786414Y-60595540D01*
X147886443Y-60542073D01*
X147974119Y-60470119D01*
X148046073Y-60382443D01*
X148099540Y-60282414D01*
X148132465Y-60173876D01*
X148143582Y-60061000D01*
X148143582Y-58811000D01*
X148132465Y-58698124D01*
X148099540Y-58589586D01*
X148046073Y-58489557D01*
X147974119Y-58401881D01*
X147886443Y-58329927D01*
X147786414Y-58276460D01*
X147677876Y-58243535D01*
X147565000Y-58232418D01*
X146815000Y-58232418D01*
X146702124Y-58243535D01*
X146593586Y-58276460D01*
X146493557Y-58329927D01*
X146405881Y-58401881D01*
X146333927Y-58489557D01*
X146280460Y-58589586D01*
X146247535Y-58698124D01*
X146236418Y-58811000D01*
X146117487Y-58811000D01*
X146117000Y-58705750D01*
X145958250Y-58547000D01*
X144459000Y-58547000D01*
X144205000Y-58547000D01*
X141859000Y-58547000D01*
X141605000Y-58547000D01*
X139559000Y-58547000D01*
X139559000Y-58567000D01*
X139305000Y-58567000D01*
X139305000Y-58547000D01*
X136959000Y-58547000D01*
X136959000Y-59846250D01*
X137117750Y-60005000D01*
X137864093Y-60007653D01*
X135615910Y-62255837D01*
X135599615Y-62269210D01*
X135586243Y-62285504D01*
X135586242Y-62285505D01*
X135546255Y-62334229D01*
X135544146Y-62338175D01*
X135506605Y-62408410D01*
X135482188Y-62488899D01*
X135476010Y-62551628D01*
X135476010Y-62551638D01*
X135473945Y-62572605D01*
X135476010Y-62593572D01*
X135476010Y-62908989D01*
X135413750Y-62910000D01*
X135255000Y-63068750D01*
X135255000Y-63868000D01*
X135275000Y-63868000D01*
X135275000Y-64122000D01*
X135255000Y-64122000D01*
X135255000Y-64142000D01*
X135001000Y-64142000D01*
X135001000Y-64122000D01*
X133731000Y-64122000D01*
X133731000Y-64142000D01*
X133477000Y-64142000D01*
X133477000Y-64122000D01*
X132652750Y-64122000D01*
X132494000Y-64280750D01*
X132490928Y-64445000D01*
X132503188Y-64569482D01*
X132539498Y-64689180D01*
X132598463Y-64799494D01*
X132677815Y-64896185D01*
X132774506Y-64975537D01*
X132882567Y-65033298D01*
X132842557Y-65108153D01*
X132811055Y-65212002D01*
X132800418Y-65320000D01*
X132800418Y-65770000D01*
X132811055Y-65877998D01*
X132842557Y-65981847D01*
X132893713Y-66077554D01*
X132962558Y-66161442D01*
X133046446Y-66230287D01*
X133142153Y-66281443D01*
X133172695Y-66290708D01*
X133126720Y-66304654D01*
X133035336Y-66353500D01*
X132955236Y-66419236D01*
X132889500Y-66499336D01*
X132840654Y-66590720D01*
X132810575Y-66689879D01*
X132800418Y-66793000D01*
X132800418Y-67193000D01*
X132810575Y-67296121D01*
X132840654Y-67395280D01*
X132889500Y-67486664D01*
X132955236Y-67566764D01*
X133035336Y-67632500D01*
X133126720Y-67681346D01*
X133225879Y-67711425D01*
X133329000Y-67721582D01*
X133879000Y-67721582D01*
X133982121Y-67711425D01*
X134081280Y-67681346D01*
X134172664Y-67632500D01*
X134252764Y-67566764D01*
X134318500Y-67486664D01*
X134366000Y-67397798D01*
X134413500Y-67486664D01*
X134479236Y-67566764D01*
X134559336Y-67632500D01*
X134650720Y-67681346D01*
X134749879Y-67711425D01*
X134853000Y-67721582D01*
X135403000Y-67721582D01*
X135506121Y-67711425D01*
X135605280Y-67681346D01*
X135696664Y-67632500D01*
X135776764Y-67566764D01*
X135842500Y-67486664D01*
X135891346Y-67395280D01*
X135921425Y-67296121D01*
X135931582Y-67193000D01*
X135931582Y-66793000D01*
X135921425Y-66689879D01*
X135891346Y-66590720D01*
X135842500Y-66499336D01*
X135776764Y-66419236D01*
X135696664Y-66353500D01*
X135605280Y-66304654D01*
X135559305Y-66290708D01*
X135589847Y-66281443D01*
X135685554Y-66230287D01*
X135769442Y-66161442D01*
X135838287Y-66077554D01*
X135889443Y-65981847D01*
X135920945Y-65877998D01*
X135931582Y-65770000D01*
X135931582Y-65595797D01*
X135946056Y-65591406D01*
X136020236Y-65551756D01*
X136085255Y-65498396D01*
X136098628Y-65482101D01*
X136479001Y-65101730D01*
X136479000Y-67764354D01*
X136477234Y-67766120D01*
X136416824Y-67856530D01*
X136375213Y-67956988D01*
X136354000Y-68063633D01*
X136354000Y-68172367D01*
X136362679Y-68216000D01*
X135878133Y-68216000D01*
X135842500Y-68149336D01*
X135776764Y-68069236D01*
X135696664Y-68003500D01*
X135605280Y-67954654D01*
X135506121Y-67924575D01*
X135403000Y-67914418D01*
X134853000Y-67914418D01*
X134749879Y-67924575D01*
X134650720Y-67954654D01*
X134559336Y-68003500D01*
X134479236Y-68069236D01*
X134413500Y-68149336D01*
X134366000Y-68238202D01*
X134318500Y-68149336D01*
X134252764Y-68069236D01*
X134172664Y-68003500D01*
X134081280Y-67954654D01*
X133982121Y-67924575D01*
X133879000Y-67914418D01*
X133329000Y-67914418D01*
X133225879Y-67924575D01*
X133126720Y-67954654D01*
X133035336Y-68003500D01*
X132955236Y-68069236D01*
X132889500Y-68149336D01*
X132840654Y-68240720D01*
X132810575Y-68339879D01*
X132800418Y-68443000D01*
X132800418Y-68843000D01*
X132810575Y-68946121D01*
X132840654Y-69045280D01*
X132889500Y-69136664D01*
X132955236Y-69216764D01*
X133035336Y-69282500D01*
X133126720Y-69331346D01*
X133225879Y-69361425D01*
X133329000Y-69371582D01*
X133728713Y-69371582D01*
X134438242Y-70081112D01*
X134451606Y-70097396D01*
X134467890Y-70110760D01*
X134467899Y-70110769D01*
X134516624Y-70150756D01*
X134530729Y-70158295D01*
X134590805Y-70190406D01*
X134671294Y-70214823D01*
X134734023Y-70221001D01*
X134734033Y-70221001D01*
X134755000Y-70223066D01*
X134775967Y-70221001D01*
X136303786Y-70221001D01*
X136295107Y-70264634D01*
X136295107Y-70373368D01*
X136316320Y-70480013D01*
X136357931Y-70580471D01*
X136418341Y-70670881D01*
X136420108Y-70672648D01*
X136420107Y-71065639D01*
X136418042Y-71086607D01*
X136420107Y-71107574D01*
X136420107Y-71107584D01*
X136426285Y-71170313D01*
X136450702Y-71250802D01*
X136467993Y-71283151D01*
X136490352Y-71324983D01*
X136515131Y-71355176D01*
X136543712Y-71390002D01*
X136560007Y-71403375D01*
X137118418Y-71961787D01*
X137118418Y-72380250D01*
X137128935Y-72487029D01*
X137160081Y-72589705D01*
X137210660Y-72684331D01*
X137278728Y-72767272D01*
X137361669Y-72835340D01*
X137456295Y-72885919D01*
X137558971Y-72917065D01*
X137665750Y-72927582D01*
X138178250Y-72927582D01*
X138285029Y-72917065D01*
X138387705Y-72885919D01*
X138400646Y-72879002D01*
X138440463Y-72953494D01*
X138519815Y-73050185D01*
X138616506Y-73129537D01*
X138726820Y-73188502D01*
X138846518Y-73224812D01*
X138971000Y-73237072D01*
X139160250Y-73234000D01*
X139319000Y-73075250D01*
X139319000Y-72276000D01*
X139573000Y-72276000D01*
X139573000Y-73075250D01*
X139731750Y-73234000D01*
X139921000Y-73237072D01*
X140045482Y-73224812D01*
X140165180Y-73188502D01*
X140208000Y-73165614D01*
X140250820Y-73188502D01*
X140370518Y-73224812D01*
X140495000Y-73237072D01*
X140684250Y-73234000D01*
X140843000Y-73075250D01*
X140843000Y-72276000D01*
X141097000Y-72276000D01*
X141097000Y-73075250D01*
X141255750Y-73234000D01*
X141445000Y-73237072D01*
X141569482Y-73224812D01*
X141689180Y-73188502D01*
X141799494Y-73129537D01*
X141896185Y-73050185D01*
X141975537Y-72953494D01*
X142034502Y-72843180D01*
X142070812Y-72723482D01*
X142083072Y-72599000D01*
X142080000Y-72434750D01*
X141921250Y-72276000D01*
X141097000Y-72276000D01*
X140843000Y-72276000D01*
X139573000Y-72276000D01*
X139319000Y-72276000D01*
X139299000Y-72276000D01*
X139299000Y-72022000D01*
X139319000Y-72022000D01*
X139319000Y-72002000D01*
X139573000Y-72002000D01*
X139573000Y-72022000D01*
X140843000Y-72022000D01*
X140843000Y-72002000D01*
X141097000Y-72002000D01*
X141097000Y-72022000D01*
X141921250Y-72022000D01*
X142080000Y-71863250D01*
X142083072Y-71699000D01*
X142070812Y-71574518D01*
X142034502Y-71454820D01*
X142014821Y-71418000D01*
X142040367Y-71418000D01*
X142147012Y-71396787D01*
X142247470Y-71355176D01*
X142337880Y-71294766D01*
X142414766Y-71217880D01*
X142475176Y-71127470D01*
X142481891Y-71111259D01*
X143540746Y-72170115D01*
X143554115Y-72186405D01*
X143570405Y-72199774D01*
X143570409Y-72199778D01*
X143619133Y-72239766D01*
X143693313Y-72279415D01*
X143712047Y-72285098D01*
X143773803Y-72303832D01*
X143836532Y-72310010D01*
X143836543Y-72310010D01*
X143857510Y-72312075D01*
X143878477Y-72310010D01*
X147037121Y-72310010D01*
X145728714Y-73618418D01*
X145304000Y-73618418D01*
X145196002Y-73629055D01*
X145092153Y-73660557D01*
X145077576Y-73668348D01*
X145037037Y-73592506D01*
X144957685Y-73495815D01*
X144860994Y-73416463D01*
X144750680Y-73357498D01*
X144630982Y-73321188D01*
X144506500Y-73308928D01*
X144354750Y-73312000D01*
X144196000Y-73470750D01*
X144196000Y-74295000D01*
X144216000Y-74295000D01*
X144216000Y-74549000D01*
X144196000Y-74549000D01*
X144196000Y-74569000D01*
X143942000Y-74569000D01*
X143942000Y-74549000D01*
X143922000Y-74549000D01*
X143922000Y-74295000D01*
X143942000Y-74295000D01*
X143942000Y-73470750D01*
X143783250Y-73312000D01*
X143631500Y-73308928D01*
X143507018Y-73321188D01*
X143387320Y-73357498D01*
X143277006Y-73416463D01*
X143180315Y-73495815D01*
X143100963Y-73592506D01*
X143041998Y-73702820D01*
X143035077Y-73725634D01*
X143016831Y-73710660D01*
X142922205Y-73660081D01*
X142819529Y-73628935D01*
X142712750Y-73618418D01*
X142275250Y-73618418D01*
X142168471Y-73628935D01*
X142065795Y-73660081D01*
X141971169Y-73710660D01*
X141888228Y-73778728D01*
X141820160Y-73861669D01*
X141769581Y-73956295D01*
X141765424Y-73970000D01*
X141729014Y-73970000D01*
X141721346Y-73944720D01*
X141672500Y-73853336D01*
X141606764Y-73773236D01*
X141526664Y-73707500D01*
X141435280Y-73658654D01*
X141336121Y-73628575D01*
X141233000Y-73618418D01*
X140833000Y-73618418D01*
X140729879Y-73628575D01*
X140630720Y-73658654D01*
X140539336Y-73707500D01*
X140459236Y-73773236D01*
X140393500Y-73853336D01*
X140344654Y-73944720D01*
X140314575Y-74043879D01*
X140304418Y-74147000D01*
X140304418Y-74697000D01*
X140314575Y-74800121D01*
X140344654Y-74899280D01*
X140393500Y-74990664D01*
X140459236Y-75070764D01*
X140539336Y-75136500D01*
X140630720Y-75185346D01*
X140729879Y-75215425D01*
X140833000Y-75225582D01*
X140834205Y-75225582D01*
X140786000Y-75240205D01*
X140725103Y-75221732D01*
X140661000Y-75215418D01*
X140111000Y-75215418D01*
X140046897Y-75221732D01*
X139986000Y-75240205D01*
X139925103Y-75221732D01*
X139861000Y-75215418D01*
X139686144Y-75215418D01*
X139785280Y-75185346D01*
X139876664Y-75136500D01*
X139956764Y-75070764D01*
X140022500Y-74990664D01*
X140071346Y-74899280D01*
X140101425Y-74800121D01*
X140111582Y-74697000D01*
X140111582Y-74147000D01*
X140101425Y-74043879D01*
X140071346Y-73944720D01*
X140022500Y-73853336D01*
X139956764Y-73773236D01*
X139876664Y-73707500D01*
X139785280Y-73658654D01*
X139686121Y-73628575D01*
X139583000Y-73618418D01*
X139183000Y-73618418D01*
X139079879Y-73628575D01*
X138980720Y-73658654D01*
X138957522Y-73671054D01*
X138915537Y-73592506D01*
X138836185Y-73495815D01*
X138739494Y-73416463D01*
X138629180Y-73357498D01*
X138509482Y-73321188D01*
X138385000Y-73308928D01*
X138220750Y-73312000D01*
X138062000Y-73470750D01*
X138062000Y-74295000D01*
X138082000Y-74295000D01*
X138082000Y-74549000D01*
X138062000Y-74549000D01*
X138062000Y-74569000D01*
X137808000Y-74569000D01*
X137808000Y-74549000D01*
X137788000Y-74549000D01*
X137788000Y-74295000D01*
X137808000Y-74295000D01*
X137808000Y-73470750D01*
X137649250Y-73312000D01*
X137485000Y-73308928D01*
X137360518Y-73321188D01*
X137240820Y-73357498D01*
X137130506Y-73416463D01*
X137033815Y-73495815D01*
X136954463Y-73592506D01*
X136896702Y-73700567D01*
X136821847Y-73660557D01*
X136717998Y-73629055D01*
X136610000Y-73618418D01*
X136160000Y-73618418D01*
X136052002Y-73629055D01*
X135948153Y-73660557D01*
X135852446Y-73711713D01*
X135768558Y-73780558D01*
X135699713Y-73864446D01*
X135648557Y-73960153D01*
X135617055Y-74064002D01*
X135606418Y-74172000D01*
X135606418Y-74672000D01*
X135617055Y-74779998D01*
X135648557Y-74883847D01*
X135699713Y-74979554D01*
X135768558Y-75063442D01*
X135852446Y-75132287D01*
X135934001Y-75175878D01*
X135934001Y-75267827D01*
X135928450Y-75270794D01*
X135878657Y-75311657D01*
X135837794Y-75361450D01*
X135807430Y-75418257D01*
X135788732Y-75479897D01*
X135782418Y-75544000D01*
X135782418Y-77044000D01*
X135788732Y-77108103D01*
X135807430Y-77169743D01*
X135837794Y-77226550D01*
X135878657Y-77276343D01*
X135928450Y-77317206D01*
X135959000Y-77333536D01*
X135959000Y-77867130D01*
X135764582Y-78061549D01*
X135764582Y-77719000D01*
X135758268Y-77654897D01*
X135739570Y-77593257D01*
X135709206Y-77536450D01*
X135668343Y-77486657D01*
X135618550Y-77445794D01*
X135561743Y-77415430D01*
X135500103Y-77396732D01*
X135436000Y-77390418D01*
X133936000Y-77390418D01*
X133871897Y-77396732D01*
X133810257Y-77415430D01*
X133753450Y-77445794D01*
X133703657Y-77486657D01*
X133662794Y-77536450D01*
X133632430Y-77593257D01*
X133613732Y-77654897D01*
X133607418Y-77719000D01*
X133607418Y-78269000D01*
X133613732Y-78333103D01*
X133632205Y-78394000D01*
X133613732Y-78454897D01*
X133607418Y-78519000D01*
X133607418Y-78529000D01*
X133595344Y-78529000D01*
X133552287Y-78448446D01*
X133483442Y-78364558D01*
X133399554Y-78295713D01*
X133303847Y-78244557D01*
X133199998Y-78213055D01*
X133092000Y-78202418D01*
X132592000Y-78202418D01*
X132484002Y-78213055D01*
X132380153Y-78244557D01*
X132284446Y-78295713D01*
X132200558Y-78364558D01*
X132131713Y-78448446D01*
X132080557Y-78544153D01*
X132077570Y-78554000D01*
X129736439Y-78554000D01*
X129715474Y-78551935D01*
X129694509Y-78554000D01*
X129694497Y-78554000D01*
X129631768Y-78560178D01*
X129551279Y-78584595D01*
X129526982Y-78597582D01*
X129477098Y-78624245D01*
X129428373Y-78664232D01*
X129428364Y-78664241D01*
X129412080Y-78677605D01*
X129398715Y-78693890D01*
X129142606Y-78950000D01*
X129140108Y-78950000D01*
X129096475Y-78958679D01*
X129096475Y-76814582D01*
X129594000Y-76814582D01*
X129658103Y-76808268D01*
X129719743Y-76789570D01*
X129729000Y-76784622D01*
X129738257Y-76789570D01*
X129799897Y-76808268D01*
X129864000Y-76814582D01*
X130864000Y-76814582D01*
X130928103Y-76808268D01*
X130989743Y-76789570D01*
X131046550Y-76759206D01*
X131096343Y-76718343D01*
X131137206Y-76668550D01*
X131167570Y-76611743D01*
X131186268Y-76550103D01*
X131192582Y-76486000D01*
X131192582Y-74486000D01*
X131186268Y-74421897D01*
X131167570Y-74360257D01*
X131137206Y-74303450D01*
X131096343Y-74253657D01*
X131046550Y-74212794D01*
X130989743Y-74182430D01*
X130928103Y-74163732D01*
X130864000Y-74157418D01*
X129864000Y-74157418D01*
X129799897Y-74163732D01*
X129738257Y-74182430D01*
X129729000Y-74187378D01*
X129719743Y-74182430D01*
X129658103Y-74163732D01*
X129594000Y-74157418D01*
X128594000Y-74157418D01*
X128529897Y-74163732D01*
X128468257Y-74182430D01*
X128459000Y-74187378D01*
X128449743Y-74182430D01*
X128388103Y-74163732D01*
X128324000Y-74157418D01*
X127324000Y-74157418D01*
X127259897Y-74163732D01*
X127198257Y-74182430D01*
X127189000Y-74187378D01*
X127179743Y-74182430D01*
X127118103Y-74163732D01*
X127054000Y-74157418D01*
X126054000Y-74157418D01*
X125989897Y-74163732D01*
X125928257Y-74182430D01*
X125919000Y-74187378D01*
X125909743Y-74182430D01*
X125848103Y-74163732D01*
X125784000Y-74157418D01*
X124784000Y-74157418D01*
X124719897Y-74163732D01*
X124658257Y-74182430D01*
X124649000Y-74187378D01*
X124639743Y-74182430D01*
X124578103Y-74163732D01*
X124514000Y-74157418D01*
X123788387Y-74157418D01*
X123774537Y-74131506D01*
X123764202Y-74118913D01*
X132335154Y-74040995D01*
X132358776Y-74038560D01*
X132382601Y-74031333D01*
X132404557Y-74019597D01*
X132423803Y-74003803D01*
X132439597Y-73984557D01*
X132451333Y-73962601D01*
X132458560Y-73938776D01*
X132461000Y-73914000D01*
X132461000Y-63545000D01*
X132490928Y-63545000D01*
X132494000Y-63709250D01*
X132652750Y-63868000D01*
X133477000Y-63868000D01*
X133477000Y-63068750D01*
X133731000Y-63068750D01*
X133731000Y-63868000D01*
X135001000Y-63868000D01*
X135001000Y-63068750D01*
X134842250Y-62910000D01*
X134653000Y-62906928D01*
X134528518Y-62919188D01*
X134408820Y-62955498D01*
X134366000Y-62978386D01*
X134323180Y-62955498D01*
X134203482Y-62919188D01*
X134079000Y-62906928D01*
X133889750Y-62910000D01*
X133731000Y-63068750D01*
X133477000Y-63068750D01*
X133318250Y-62910000D01*
X133129000Y-62906928D01*
X133004518Y-62919188D01*
X132884820Y-62955498D01*
X132774506Y-63014463D01*
X132677815Y-63093815D01*
X132598463Y-63190506D01*
X132539498Y-63300820D01*
X132503188Y-63420518D01*
X132490928Y-63545000D01*
X132461000Y-63545000D01*
X132461000Y-59370000D01*
X135043928Y-59370000D01*
X135056188Y-59494482D01*
X135092498Y-59614180D01*
X135151463Y-59724494D01*
X135230815Y-59821185D01*
X135327506Y-59900537D01*
X135437820Y-59959502D01*
X135557518Y-59995812D01*
X135682000Y-60008072D01*
X136546250Y-60005000D01*
X136705000Y-59846250D01*
X136705000Y-58547000D01*
X135205750Y-58547000D01*
X135047000Y-58705750D01*
X135043928Y-59370000D01*
X132461000Y-59370000D01*
X132461000Y-57531000D01*
X135044210Y-57531000D01*
X135047000Y-58134250D01*
G37*
%TD.AperFunction*%
D28*
X139078000Y-89535000D02*
X139098000Y-89535000D01*
X139098000Y-89789000D01*
X139078000Y-89789000D01*
X139078000Y-89809000D01*
X138824000Y-89809000D01*
X138824000Y-89789000D01*
X138804000Y-89789000D01*
X138804000Y-89535000D01*
X138824000Y-89535000D01*
X138824000Y-89515000D01*
X139078000Y-89515000D01*
X139078000Y-89535000D01*
%TA.AperFunction,Conductor*%
D29*
G36*
X139078000Y-89535000D02*
G01*
X139098000Y-89535000D01*
X139098000Y-89789000D01*
X139078000Y-89789000D01*
X139078000Y-89809000D01*
X138824000Y-89809000D01*
X138824000Y-89789000D01*
X138804000Y-89789000D01*
X138804000Y-89535000D01*
X138824000Y-89535000D01*
X138824000Y-89515000D01*
X139078000Y-89515000D01*
X139078000Y-89535000D01*
G37*
%TD.AperFunction*%
D28*
X138913000Y-87567000D02*
X138933000Y-87567000D01*
X138933000Y-87821000D01*
X138913000Y-87821000D01*
X138913000Y-87841000D01*
X138659000Y-87841000D01*
X138659000Y-87821000D01*
X138639000Y-87821000D01*
X138639000Y-87567000D01*
X138659000Y-87567000D01*
X138659000Y-87547000D01*
X138913000Y-87547000D01*
X138913000Y-87567000D01*
%TA.AperFunction,Conductor*%
D29*
G36*
X138913000Y-87567000D02*
G01*
X138933000Y-87567000D01*
X138933000Y-87821000D01*
X138913000Y-87821000D01*
X138913000Y-87841000D01*
X138659000Y-87841000D01*
X138659000Y-87821000D01*
X138639000Y-87821000D01*
X138639000Y-87567000D01*
X138659000Y-87567000D01*
X138659000Y-87547000D01*
X138913000Y-87547000D01*
X138913000Y-87567000D01*
G37*
%TD.AperFunction*%
D28*
X137313000Y-76167000D02*
X137333000Y-76167000D01*
X137333000Y-76421000D01*
X137313000Y-76421000D01*
X137313000Y-77520250D01*
X137471750Y-77679000D01*
X137588631Y-77669177D01*
X137708145Y-77632265D01*
X137818161Y-77572746D01*
X137914451Y-77492908D01*
X137993316Y-77395818D01*
X138005586Y-77372582D01*
X138261000Y-77372582D01*
X138325103Y-77366268D01*
X138386000Y-77347795D01*
X138446897Y-77366268D01*
X138511000Y-77372582D01*
X139061000Y-77372582D01*
X139125103Y-77366268D01*
X139186000Y-77347795D01*
X139246897Y-77366268D01*
X139311000Y-77372582D01*
X139861000Y-77372582D01*
X139925103Y-77366268D01*
X139986000Y-77347795D01*
X140046897Y-77366268D01*
X140111000Y-77372582D01*
X140661000Y-77372582D01*
X140725103Y-77366268D01*
X140786000Y-77347795D01*
X140846897Y-77366268D01*
X140911000Y-77372582D01*
X141461000Y-77372582D01*
X141525103Y-77366268D01*
X141586000Y-77347795D01*
X141646897Y-77366268D01*
X141711000Y-77372582D01*
X142261000Y-77372582D01*
X142325103Y-77366268D01*
X142386000Y-77347795D01*
X142439367Y-77363984D01*
X142431231Y-77372120D01*
X142370821Y-77462530D01*
X142329210Y-77562988D01*
X142307997Y-77669633D01*
X142307997Y-77778367D01*
X142329210Y-77885012D01*
X142370821Y-77985470D01*
X142431231Y-78075880D01*
X142432997Y-78077646D01*
X142432998Y-83810462D01*
X142401012Y-83797213D01*
X142294367Y-83776000D01*
X142185633Y-83776000D01*
X142078988Y-83797213D01*
X141978530Y-83838824D01*
X141888120Y-83899234D01*
X141886354Y-83901000D01*
X140755646Y-83901000D01*
X140753880Y-83899234D01*
X140663470Y-83838824D01*
X140563012Y-83797213D01*
X140456367Y-83776000D01*
X140347633Y-83776000D01*
X140240988Y-83797213D01*
X140140530Y-83838824D01*
X140050120Y-83899234D01*
X139973234Y-83976120D01*
X139912824Y-84066530D01*
X139871213Y-84166988D01*
X139850000Y-84273633D01*
X139850000Y-84276131D01*
X137698896Y-86427236D01*
X137682606Y-86440605D01*
X137669237Y-86456895D01*
X137669232Y-86456900D01*
X137629245Y-86505624D01*
X137600751Y-86558934D01*
X137589596Y-86579804D01*
X137572514Y-86636114D01*
X137525103Y-86621732D01*
X137461000Y-86615418D01*
X136911000Y-86615418D01*
X136846897Y-86621732D01*
X136786000Y-86640205D01*
X136725103Y-86621732D01*
X136661000Y-86615418D01*
X136111000Y-86615418D01*
X136046897Y-86621732D01*
X135985257Y-86640430D01*
X135928450Y-86670794D01*
X135878657Y-86711657D01*
X135837794Y-86761450D01*
X135807430Y-86818257D01*
X135788732Y-86879897D01*
X135782418Y-86944000D01*
X135782418Y-87267000D01*
X131304869Y-87267000D01*
X130431461Y-86393592D01*
X130501443Y-86414822D01*
X130564172Y-86421000D01*
X130564183Y-86421000D01*
X130585150Y-86423065D01*
X130606117Y-86421000D01*
X133646465Y-86421000D01*
X133662794Y-86451550D01*
X133703657Y-86501343D01*
X133753450Y-86542206D01*
X133810257Y-86572570D01*
X133871897Y-86591268D01*
X133936000Y-86597582D01*
X135436000Y-86597582D01*
X135500103Y-86591268D01*
X135561743Y-86572570D01*
X135618550Y-86542206D01*
X135668343Y-86501343D01*
X135709206Y-86451550D01*
X135739570Y-86394743D01*
X135758268Y-86333103D01*
X135764582Y-86269000D01*
X135764582Y-85719000D01*
X135758268Y-85654897D01*
X135739795Y-85594000D01*
X135758268Y-85533103D01*
X135764582Y-85469000D01*
X135764582Y-84919000D01*
X135758268Y-84854897D01*
X135739795Y-84794000D01*
X135758268Y-84733103D01*
X135764582Y-84669000D01*
X135764582Y-84119000D01*
X135758268Y-84054897D01*
X135739795Y-83994000D01*
X135751795Y-83954441D01*
X135792120Y-83994766D01*
X135882530Y-84055176D01*
X135982988Y-84096787D01*
X136089633Y-84118000D01*
X136198367Y-84118000D01*
X136305012Y-84096787D01*
X136405470Y-84055176D01*
X136495880Y-83994766D01*
X136572766Y-83917880D01*
X136633176Y-83827470D01*
X136674787Y-83727012D01*
X136696000Y-83620367D01*
X136696000Y-83511633D01*
X136674787Y-83404988D01*
X136633176Y-83304530D01*
X136572766Y-83214120D01*
X136571000Y-83212354D01*
X136571000Y-82707964D01*
X136573065Y-82686997D01*
X136571000Y-82666030D01*
X136571000Y-82666020D01*
X136564822Y-82603291D01*
X136540405Y-82522802D01*
X136508035Y-82462242D01*
X136500755Y-82448621D01*
X136460768Y-82399896D01*
X136460759Y-82399887D01*
X136447395Y-82383603D01*
X136431111Y-82370239D01*
X135929518Y-81868648D01*
X135964746Y-81826161D01*
X136024265Y-81716145D01*
X136061177Y-81596631D01*
X136071000Y-81479750D01*
X135912250Y-81321000D01*
X134813000Y-81321000D01*
X134813000Y-81341000D01*
X134559000Y-81341000D01*
X134559000Y-81321000D01*
X134539000Y-81321000D01*
X134539000Y-81067000D01*
X134559000Y-81067000D01*
X134559000Y-81047000D01*
X134813000Y-81047000D01*
X134813000Y-81067000D01*
X135912250Y-81067000D01*
X136071000Y-80908250D01*
X136061177Y-80791369D01*
X136024265Y-80671855D01*
X135964746Y-80561839D01*
X135884908Y-80465549D01*
X135787818Y-80386684D01*
X135764582Y-80374414D01*
X135764582Y-80119000D01*
X135758268Y-80054897D01*
X135739795Y-79994000D01*
X135758268Y-79933103D01*
X135761513Y-79900159D01*
X135792120Y-79930766D01*
X135882530Y-79991176D01*
X135982988Y-80032787D01*
X136089633Y-80054000D01*
X136198367Y-80054000D01*
X136305012Y-80032787D01*
X136405470Y-79991176D01*
X136495880Y-79930766D01*
X136572766Y-79853880D01*
X136633176Y-79763470D01*
X136674787Y-79663012D01*
X136696000Y-79556367D01*
X136696000Y-79447633D01*
X136674787Y-79340988D01*
X136633176Y-79240530D01*
X136572766Y-79150120D01*
X136495880Y-79073234D01*
X136405470Y-79012824D01*
X136305012Y-78971213D01*
X136198367Y-78950000D01*
X136195869Y-78950000D01*
X136139868Y-78894000D01*
X136673112Y-78360758D01*
X136689395Y-78347395D01*
X136702759Y-78331111D01*
X136702768Y-78331102D01*
X136742755Y-78282377D01*
X136779743Y-78213176D01*
X136782405Y-78208196D01*
X136806822Y-78127707D01*
X136813000Y-78064978D01*
X136813000Y-78064968D01*
X136815065Y-78044001D01*
X136813000Y-78023034D01*
X136813000Y-77671667D01*
X136900250Y-77679000D01*
X137059000Y-77520250D01*
X137059000Y-76421000D01*
X137039000Y-76421000D01*
X137039000Y-76167000D01*
X137059000Y-76167000D01*
X137059000Y-76147000D01*
X137313000Y-76147000D01*
X137313000Y-76167000D01*
%TA.AperFunction,Conductor*%
D29*
G36*
X137313000Y-76167000D02*
G01*
X137333000Y-76167000D01*
X137333000Y-76421000D01*
X137313000Y-76421000D01*
X137313000Y-77520250D01*
X137471750Y-77679000D01*
X137588631Y-77669177D01*
X137708145Y-77632265D01*
X137818161Y-77572746D01*
X137914451Y-77492908D01*
X137993316Y-77395818D01*
X138005586Y-77372582D01*
X138261000Y-77372582D01*
X138325103Y-77366268D01*
X138386000Y-77347795D01*
X138446897Y-77366268D01*
X138511000Y-77372582D01*
X139061000Y-77372582D01*
X139125103Y-77366268D01*
X139186000Y-77347795D01*
X139246897Y-77366268D01*
X139311000Y-77372582D01*
X139861000Y-77372582D01*
X139925103Y-77366268D01*
X139986000Y-77347795D01*
X140046897Y-77366268D01*
X140111000Y-77372582D01*
X140661000Y-77372582D01*
X140725103Y-77366268D01*
X140786000Y-77347795D01*
X140846897Y-77366268D01*
X140911000Y-77372582D01*
X141461000Y-77372582D01*
X141525103Y-77366268D01*
X141586000Y-77347795D01*
X141646897Y-77366268D01*
X141711000Y-77372582D01*
X142261000Y-77372582D01*
X142325103Y-77366268D01*
X142386000Y-77347795D01*
X142439367Y-77363984D01*
X142431231Y-77372120D01*
X142370821Y-77462530D01*
X142329210Y-77562988D01*
X142307997Y-77669633D01*
X142307997Y-77778367D01*
X142329210Y-77885012D01*
X142370821Y-77985470D01*
X142431231Y-78075880D01*
X142432997Y-78077646D01*
X142432998Y-83810462D01*
X142401012Y-83797213D01*
X142294367Y-83776000D01*
X142185633Y-83776000D01*
X142078988Y-83797213D01*
X141978530Y-83838824D01*
X141888120Y-83899234D01*
X141886354Y-83901000D01*
X140755646Y-83901000D01*
X140753880Y-83899234D01*
X140663470Y-83838824D01*
X140563012Y-83797213D01*
X140456367Y-83776000D01*
X140347633Y-83776000D01*
X140240988Y-83797213D01*
X140140530Y-83838824D01*
X140050120Y-83899234D01*
X139973234Y-83976120D01*
X139912824Y-84066530D01*
X139871213Y-84166988D01*
X139850000Y-84273633D01*
X139850000Y-84276131D01*
X137698896Y-86427236D01*
X137682606Y-86440605D01*
X137669237Y-86456895D01*
X137669232Y-86456900D01*
X137629245Y-86505624D01*
X137600751Y-86558934D01*
X137589596Y-86579804D01*
X137572514Y-86636114D01*
X137525103Y-86621732D01*
X137461000Y-86615418D01*
X136911000Y-86615418D01*
X136846897Y-86621732D01*
X136786000Y-86640205D01*
X136725103Y-86621732D01*
X136661000Y-86615418D01*
X136111000Y-86615418D01*
X136046897Y-86621732D01*
X135985257Y-86640430D01*
X135928450Y-86670794D01*
X135878657Y-86711657D01*
X135837794Y-86761450D01*
X135807430Y-86818257D01*
X135788732Y-86879897D01*
X135782418Y-86944000D01*
X135782418Y-87267000D01*
X131304869Y-87267000D01*
X130431461Y-86393592D01*
X130501443Y-86414822D01*
X130564172Y-86421000D01*
X130564183Y-86421000D01*
X130585150Y-86423065D01*
X130606117Y-86421000D01*
X133646465Y-86421000D01*
X133662794Y-86451550D01*
X133703657Y-86501343D01*
X133753450Y-86542206D01*
X133810257Y-86572570D01*
X133871897Y-86591268D01*
X133936000Y-86597582D01*
X135436000Y-86597582D01*
X135500103Y-86591268D01*
X135561743Y-86572570D01*
X135618550Y-86542206D01*
X135668343Y-86501343D01*
X135709206Y-86451550D01*
X135739570Y-86394743D01*
X135758268Y-86333103D01*
X135764582Y-86269000D01*
X135764582Y-85719000D01*
X135758268Y-85654897D01*
X135739795Y-85594000D01*
X135758268Y-85533103D01*
X135764582Y-85469000D01*
X135764582Y-84919000D01*
X135758268Y-84854897D01*
X135739795Y-84794000D01*
X135758268Y-84733103D01*
X135764582Y-84669000D01*
X135764582Y-84119000D01*
X135758268Y-84054897D01*
X135739795Y-83994000D01*
X135751795Y-83954441D01*
X135792120Y-83994766D01*
X135882530Y-84055176D01*
X135982988Y-84096787D01*
X136089633Y-84118000D01*
X136198367Y-84118000D01*
X136305012Y-84096787D01*
X136405470Y-84055176D01*
X136495880Y-83994766D01*
X136572766Y-83917880D01*
X136633176Y-83827470D01*
X136674787Y-83727012D01*
X136696000Y-83620367D01*
X136696000Y-83511633D01*
X136674787Y-83404988D01*
X136633176Y-83304530D01*
X136572766Y-83214120D01*
X136571000Y-83212354D01*
X136571000Y-82707964D01*
X136573065Y-82686997D01*
X136571000Y-82666030D01*
X136571000Y-82666020D01*
X136564822Y-82603291D01*
X136540405Y-82522802D01*
X136508035Y-82462242D01*
X136500755Y-82448621D01*
X136460768Y-82399896D01*
X136460759Y-82399887D01*
X136447395Y-82383603D01*
X136431111Y-82370239D01*
X135929518Y-81868648D01*
X135964746Y-81826161D01*
X136024265Y-81716145D01*
X136061177Y-81596631D01*
X136071000Y-81479750D01*
X135912250Y-81321000D01*
X134813000Y-81321000D01*
X134813000Y-81341000D01*
X134559000Y-81341000D01*
X134559000Y-81321000D01*
X134539000Y-81321000D01*
X134539000Y-81067000D01*
X134559000Y-81067000D01*
X134559000Y-81047000D01*
X134813000Y-81047000D01*
X134813000Y-81067000D01*
X135912250Y-81067000D01*
X136071000Y-80908250D01*
X136061177Y-80791369D01*
X136024265Y-80671855D01*
X135964746Y-80561839D01*
X135884908Y-80465549D01*
X135787818Y-80386684D01*
X135764582Y-80374414D01*
X135764582Y-80119000D01*
X135758268Y-80054897D01*
X135739795Y-79994000D01*
X135758268Y-79933103D01*
X135761513Y-79900159D01*
X135792120Y-79930766D01*
X135882530Y-79991176D01*
X135982988Y-80032787D01*
X136089633Y-80054000D01*
X136198367Y-80054000D01*
X136305012Y-80032787D01*
X136405470Y-79991176D01*
X136495880Y-79930766D01*
X136572766Y-79853880D01*
X136633176Y-79763470D01*
X136674787Y-79663012D01*
X136696000Y-79556367D01*
X136696000Y-79447633D01*
X136674787Y-79340988D01*
X136633176Y-79240530D01*
X136572766Y-79150120D01*
X136495880Y-79073234D01*
X136405470Y-79012824D01*
X136305012Y-78971213D01*
X136198367Y-78950000D01*
X136195869Y-78950000D01*
X136139868Y-78894000D01*
X136673112Y-78360758D01*
X136689395Y-78347395D01*
X136702759Y-78331111D01*
X136702768Y-78331102D01*
X136742755Y-78282377D01*
X136779743Y-78213176D01*
X136782405Y-78208196D01*
X136806822Y-78127707D01*
X136813000Y-78064978D01*
X136813000Y-78064968D01*
X136815065Y-78044001D01*
X136813000Y-78023034D01*
X136813000Y-77671667D01*
X136900250Y-77679000D01*
X137059000Y-77520250D01*
X137059000Y-76421000D01*
X137039000Y-76421000D01*
X137039000Y-76167000D01*
X137059000Y-76167000D01*
X137059000Y-76147000D01*
X137313000Y-76147000D01*
X137313000Y-76167000D01*
G37*
%TD.AperFunction*%
D28*
X132080557Y-79417847D02*
X132120567Y-79492702D01*
X132012506Y-79550463D01*
X131915815Y-79629815D01*
X131836463Y-79726506D01*
X131777498Y-79836820D01*
X131741188Y-79956518D01*
X131728928Y-80081000D01*
X131732000Y-80245250D01*
X131890750Y-80404000D01*
X132715000Y-80404000D01*
X132715000Y-80384000D01*
X132969000Y-80384000D01*
X132969000Y-80404000D01*
X132989000Y-80404000D01*
X132989000Y-80658000D01*
X132969000Y-80658000D01*
X132969000Y-81902000D01*
X132989000Y-81902000D01*
X132989000Y-82156000D01*
X132969000Y-82156000D01*
X132969000Y-82176000D01*
X132715000Y-82176000D01*
X132715000Y-82156000D01*
X131890750Y-82156000D01*
X131732000Y-82314750D01*
X131731303Y-82352010D01*
X130516880Y-82352010D01*
X129145870Y-80981000D01*
X131728928Y-80981000D01*
X131741188Y-81105482D01*
X131777498Y-81225180D01*
X131806800Y-81280000D01*
X131777498Y-81334820D01*
X131741188Y-81454518D01*
X131728928Y-81579000D01*
X131732000Y-81743250D01*
X131890750Y-81902000D01*
X132715000Y-81902000D01*
X132715000Y-80658000D01*
X131890750Y-80658000D01*
X131732000Y-80816750D01*
X131728928Y-80981000D01*
X129145870Y-80981000D01*
X128816887Y-80652017D01*
X128830487Y-80649312D01*
X128930945Y-80607701D01*
X129021355Y-80547291D01*
X129098241Y-80470405D01*
X129158651Y-80379995D01*
X129200262Y-80279537D01*
X129221475Y-80172892D01*
X129221475Y-80064158D01*
X129219454Y-80054000D01*
X129248842Y-80054000D01*
X129355487Y-80032787D01*
X129455945Y-79991176D01*
X129546355Y-79930766D01*
X129623241Y-79853880D01*
X129683651Y-79763470D01*
X129725262Y-79663012D01*
X129746475Y-79556367D01*
X129746475Y-79553869D01*
X129892344Y-79408000D01*
X132077570Y-79408000D01*
X132080557Y-79417847D01*
%TA.AperFunction,Conductor*%
D29*
G36*
X132080557Y-79417847D02*
G01*
X132120567Y-79492702D01*
X132012506Y-79550463D01*
X131915815Y-79629815D01*
X131836463Y-79726506D01*
X131777498Y-79836820D01*
X131741188Y-79956518D01*
X131728928Y-80081000D01*
X131732000Y-80245250D01*
X131890750Y-80404000D01*
X132715000Y-80404000D01*
X132715000Y-80384000D01*
X132969000Y-80384000D01*
X132969000Y-80404000D01*
X132989000Y-80404000D01*
X132989000Y-80658000D01*
X132969000Y-80658000D01*
X132969000Y-81902000D01*
X132989000Y-81902000D01*
X132989000Y-82156000D01*
X132969000Y-82156000D01*
X132969000Y-82176000D01*
X132715000Y-82176000D01*
X132715000Y-82156000D01*
X131890750Y-82156000D01*
X131732000Y-82314750D01*
X131731303Y-82352010D01*
X130516880Y-82352010D01*
X129145870Y-80981000D01*
X131728928Y-80981000D01*
X131741188Y-81105482D01*
X131777498Y-81225180D01*
X131806800Y-81280000D01*
X131777498Y-81334820D01*
X131741188Y-81454518D01*
X131728928Y-81579000D01*
X131732000Y-81743250D01*
X131890750Y-81902000D01*
X132715000Y-81902000D01*
X132715000Y-80658000D01*
X131890750Y-80658000D01*
X131732000Y-80816750D01*
X131728928Y-80981000D01*
X129145870Y-80981000D01*
X128816887Y-80652017D01*
X128830487Y-80649312D01*
X128930945Y-80607701D01*
X129021355Y-80547291D01*
X129098241Y-80470405D01*
X129158651Y-80379995D01*
X129200262Y-80279537D01*
X129221475Y-80172892D01*
X129221475Y-80064158D01*
X129219454Y-80054000D01*
X129248842Y-80054000D01*
X129355487Y-80032787D01*
X129455945Y-79991176D01*
X129546355Y-79930766D01*
X129623241Y-79853880D01*
X129683651Y-79763470D01*
X129725262Y-79663012D01*
X129746475Y-79556367D01*
X129746475Y-79553869D01*
X129892344Y-79408000D01*
X132077570Y-79408000D01*
X132080557Y-79417847D01*
G37*
%TD.AperFunction*%
D28*
X143713000Y-76167000D02*
X143733000Y-76167000D01*
X143733000Y-76421000D01*
X143713000Y-76421000D01*
X143713000Y-76441000D01*
X143459000Y-76441000D01*
X143459000Y-76421000D01*
X143439000Y-76421000D01*
X143439000Y-76167000D01*
X143459000Y-76167000D01*
X143459000Y-76147000D01*
X143713000Y-76147000D01*
X143713000Y-76167000D01*
%TA.AperFunction,Conductor*%
D29*
G36*
X143713000Y-76167000D02*
G01*
X143733000Y-76167000D01*
X143733000Y-76421000D01*
X143713000Y-76421000D01*
X143713000Y-76441000D01*
X143459000Y-76441000D01*
X143459000Y-76421000D01*
X143439000Y-76421000D01*
X143439000Y-76167000D01*
X143459000Y-76167000D01*
X143459000Y-76147000D01*
X143713000Y-76147000D01*
X143713000Y-76167000D01*
G37*
%TD.AperFunction*%
D28*
X122871000Y-75359000D02*
X122891000Y-75359000D01*
X122891000Y-75613000D01*
X122871000Y-75613000D01*
X122871000Y-75633000D01*
X122617000Y-75633000D01*
X122617000Y-75613000D01*
X122597000Y-75613000D01*
X122597000Y-75359000D01*
X122617000Y-75359000D01*
X122617000Y-75339000D01*
X122871000Y-75339000D01*
X122871000Y-75359000D01*
%TA.AperFunction,Conductor*%
D29*
G36*
X122871000Y-75359000D02*
G01*
X122891000Y-75359000D01*
X122891000Y-75613000D01*
X122871000Y-75613000D01*
X122871000Y-75633000D01*
X122617000Y-75633000D01*
X122617000Y-75613000D01*
X122597000Y-75613000D01*
X122597000Y-75359000D01*
X122617000Y-75359000D01*
X122617000Y-75339000D01*
X122871000Y-75339000D01*
X122871000Y-75359000D01*
G37*
%TD.AperFunction*%
D28*
X143381051Y-67965418D02*
X143373500Y-67965418D01*
X143309397Y-67971732D01*
X143256000Y-67987930D01*
X143202603Y-67971732D01*
X143138500Y-67965418D01*
X142738500Y-67965418D01*
X142674397Y-67971732D01*
X142621000Y-67987930D01*
X142567603Y-67971732D01*
X142503500Y-67965418D01*
X142103500Y-67965418D01*
X142039397Y-67971732D01*
X141986000Y-67987930D01*
X141932603Y-67971732D01*
X141868500Y-67965418D01*
X141778639Y-67965418D01*
X141770091Y-67948737D01*
X141692423Y-67850688D01*
X141597119Y-67769675D01*
X141487841Y-67708811D01*
X141368789Y-67670436D01*
X141265250Y-67659000D01*
X141106500Y-67817750D01*
X141106500Y-68767000D01*
X141139918Y-68767000D01*
X141139918Y-69021000D01*
X141106500Y-69021000D01*
X141106500Y-69041000D01*
X140960500Y-69041000D01*
X140960500Y-69021000D01*
X140927082Y-69021000D01*
X140927082Y-68767000D01*
X140960500Y-68767000D01*
X140960500Y-68056960D01*
X140992787Y-67979012D01*
X141014000Y-67872367D01*
X141014000Y-67763633D01*
X140992787Y-67656988D01*
X140951176Y-67556530D01*
X140890766Y-67466120D01*
X140813880Y-67389234D01*
X140723470Y-67328824D01*
X140623012Y-67287213D01*
X140516367Y-67266000D01*
X140407633Y-67266000D01*
X140300988Y-67287213D01*
X140200530Y-67328824D01*
X140190500Y-67335526D01*
X140190500Y-66915368D01*
X140941389Y-66164481D01*
X140943886Y-66164481D01*
X141050531Y-66143268D01*
X141150989Y-66101657D01*
X141241399Y-66041247D01*
X141318285Y-65964361D01*
X141343002Y-65927369D01*
X143381051Y-67965418D01*
%TA.AperFunction,Conductor*%
D29*
G36*
X143381051Y-67965418D02*
G01*
X143373500Y-67965418D01*
X143309397Y-67971732D01*
X143256000Y-67987930D01*
X143202603Y-67971732D01*
X143138500Y-67965418D01*
X142738500Y-67965418D01*
X142674397Y-67971732D01*
X142621000Y-67987930D01*
X142567603Y-67971732D01*
X142503500Y-67965418D01*
X142103500Y-67965418D01*
X142039397Y-67971732D01*
X141986000Y-67987930D01*
X141932603Y-67971732D01*
X141868500Y-67965418D01*
X141778639Y-67965418D01*
X141770091Y-67948737D01*
X141692423Y-67850688D01*
X141597119Y-67769675D01*
X141487841Y-67708811D01*
X141368789Y-67670436D01*
X141265250Y-67659000D01*
X141106500Y-67817750D01*
X141106500Y-68767000D01*
X141139918Y-68767000D01*
X141139918Y-69021000D01*
X141106500Y-69021000D01*
X141106500Y-69041000D01*
X140960500Y-69041000D01*
X140960500Y-69021000D01*
X140927082Y-69021000D01*
X140927082Y-68767000D01*
X140960500Y-68767000D01*
X140960500Y-68056960D01*
X140992787Y-67979012D01*
X141014000Y-67872367D01*
X141014000Y-67763633D01*
X140992787Y-67656988D01*
X140951176Y-67556530D01*
X140890766Y-67466120D01*
X140813880Y-67389234D01*
X140723470Y-67328824D01*
X140623012Y-67287213D01*
X140516367Y-67266000D01*
X140407633Y-67266000D01*
X140300988Y-67287213D01*
X140200530Y-67328824D01*
X140190500Y-67335526D01*
X140190500Y-66915368D01*
X140941389Y-66164481D01*
X140943886Y-66164481D01*
X141050531Y-66143268D01*
X141150989Y-66101657D01*
X141241399Y-66041247D01*
X141318285Y-65964361D01*
X141343002Y-65927369D01*
X143381051Y-67965418D01*
G37*
%TD.AperFunction*%
D28*
X152606000Y-65405000D02*
X152626000Y-65405000D01*
X152626000Y-65659000D01*
X152606000Y-65659000D01*
X152606000Y-65679000D01*
X152352000Y-65679000D01*
X152352000Y-65659000D01*
X152332000Y-65659000D01*
X152332000Y-65405000D01*
X152352000Y-65405000D01*
X152352000Y-65385000D01*
X152606000Y-65385000D01*
X152606000Y-65405000D01*
%TA.AperFunction,Conductor*%
D29*
G36*
X152606000Y-65405000D02*
G01*
X152626000Y-65405000D01*
X152626000Y-65659000D01*
X152606000Y-65659000D01*
X152606000Y-65679000D01*
X152352000Y-65679000D01*
X152352000Y-65659000D01*
X152332000Y-65659000D01*
X152332000Y-65405000D01*
X152352000Y-65405000D01*
X152352000Y-65385000D01*
X152606000Y-65385000D01*
X152606000Y-65405000D01*
G37*
%TD.AperFunction*%
D28*
X152763418Y-64101000D02*
X152660582Y-64101000D01*
X152660582Y-64037072D01*
X152763418Y-64037072D01*
X152763418Y-64101000D01*
%TA.AperFunction,Conductor*%
D29*
G36*
X152763418Y-64101000D02*
G01*
X152660582Y-64101000D01*
X152660582Y-64037072D01*
X152763418Y-64037072D01*
X152763418Y-64101000D01*
G37*
%TD.AperFunction*%
D28*
X140471500Y-63567000D02*
X140504918Y-63567000D01*
X140504918Y-63821000D01*
X140471500Y-63821000D01*
X140471500Y-63841000D01*
X140325500Y-63841000D01*
X140325500Y-63821000D01*
X140292082Y-63821000D01*
X140292082Y-63567000D01*
X140325500Y-63567000D01*
X140325500Y-63547000D01*
X140471500Y-63547000D01*
X140471500Y-63567000D01*
%TA.AperFunction,Conductor*%
D29*
G36*
X140471500Y-63567000D02*
G01*
X140504918Y-63567000D01*
X140504918Y-63821000D01*
X140471500Y-63821000D01*
X140471500Y-63841000D01*
X140325500Y-63841000D01*
X140325500Y-63821000D01*
X140292082Y-63821000D01*
X140292082Y-63567000D01*
X140325500Y-63567000D01*
X140325500Y-63547000D01*
X140471500Y-63547000D01*
X140471500Y-63567000D01*
G37*
%TD.AperFunction*%
D28*
X149479000Y-62878000D02*
X149499000Y-62878000D01*
X149499000Y-63132000D01*
X149479000Y-63132000D01*
X149479000Y-63152000D01*
X149225000Y-63152000D01*
X149225000Y-63132000D01*
X149205000Y-63132000D01*
X149205000Y-62878000D01*
X149225000Y-62878000D01*
X149225000Y-62858000D01*
X149479000Y-62858000D01*
X149479000Y-62878000D01*
%TA.AperFunction,Conductor*%
D29*
G36*
X149479000Y-62878000D02*
G01*
X149499000Y-62878000D01*
X149499000Y-63132000D01*
X149479000Y-63132000D01*
X149479000Y-63152000D01*
X149225000Y-63152000D01*
X149225000Y-63132000D01*
X149205000Y-63132000D01*
X149205000Y-62878000D01*
X149225000Y-62878000D01*
X149225000Y-62858000D01*
X149479000Y-62858000D01*
X149479000Y-62878000D01*
G37*
%TD.AperFunction*%
D28*
X139255750Y-61143000D02*
X139429000Y-61143000D01*
X139429000Y-61397000D01*
X139255750Y-61397000D01*
X139235750Y-61417000D01*
X139209000Y-61417000D01*
X139209000Y-61397000D01*
X138605750Y-61397000D01*
X138447000Y-61555750D01*
X138444873Y-61843001D01*
X137963463Y-61843001D01*
X137942496Y-61840936D01*
X137921529Y-61843001D01*
X137921519Y-61843001D01*
X137867550Y-61848316D01*
X138589308Y-61126558D01*
X138605750Y-61143000D01*
X139209000Y-61143000D01*
X139209000Y-61123000D01*
X139235750Y-61123000D01*
X139255750Y-61143000D01*
%TA.AperFunction,Conductor*%
D29*
G36*
X139255750Y-61143000D02*
G01*
X139429000Y-61143000D01*
X139429000Y-61397000D01*
X139255750Y-61397000D01*
X139235750Y-61417000D01*
X139209000Y-61417000D01*
X139209000Y-61397000D01*
X138605750Y-61397000D01*
X138447000Y-61555750D01*
X138444873Y-61843001D01*
X137963463Y-61843001D01*
X137942496Y-61840936D01*
X137921529Y-61843001D01*
X137921519Y-61843001D01*
X137867550Y-61848316D01*
X138589308Y-61126558D01*
X138605750Y-61143000D01*
X139209000Y-61143000D01*
X139209000Y-61123000D01*
X139235750Y-61123000D01*
X139255750Y-61143000D01*
G37*
%TD.AperFunction*%
D28*
X152263418Y-61110928D02*
X152160582Y-61110928D01*
X152160582Y-61047000D01*
X152263418Y-61047000D01*
X152263418Y-61110928D01*
%TA.AperFunction,Conductor*%
D29*
G36*
X152263418Y-61110928D02*
G01*
X152160582Y-61110928D01*
X152160582Y-61047000D01*
X152263418Y-61047000D01*
X152263418Y-61110928D01*
G37*
%TD.AperFunction*%
%TD*%
M02*
