%TF.GenerationSoftware,KiCad,Pcbnew,(5.1.9)-1*%
%TF.CreationDate,2021-02-10T20:47:27+02:00*%
%TF.ProjectId,RVP_saatja,5256505f-7361-4617-946a-612e6b696361,rev?*%
%TF.SameCoordinates,Original*%
%TF.FileFunction,Soldermask,Top*%
%TF.FilePolarity,Negative*%
%FSLAX46Y46*%
G04 Gerber Fmt 4.6, Leading zero omitted, Abs format (unit mm)*
G04 Created by KiCad (PCBNEW (5.1.9)-1) date 2021-02-10 20:47:27*
%MOMM*%
%LPD*%
G01*
G04 APERTURE LIST*
%ADD10R,0.900000X1.200000*%
%ADD11O,1.700000X1.700000*%
%ADD12R,1.700000X1.700000*%
%ADD13R,0.400000X1.400000*%
%ADD14R,2.300000X1.900000*%
%ADD15R,1.800000X1.900000*%
%ADD16R,1.700000X2.400000*%
%ADD17R,0.400000X1.200000*%
%ADD18R,1.000000X2.000000*%
%ADD19R,0.550000X1.500000*%
%ADD20R,1.500000X0.550000*%
%ADD21C,0.100000*%
%ADD22R,0.240000X0.600000*%
G04 APERTURE END LIST*
D10*
%TO.C,D4*%
X135812800Y-91846400D03*
X132512800Y-91846400D03*
%TD*%
%TO.C,C9*%
G36*
G01*
X146308000Y-90736000D02*
X146808000Y-90736000D01*
G75*
G02*
X147033000Y-90961000I0J-225000D01*
G01*
X147033000Y-91411000D01*
G75*
G02*
X146808000Y-91636000I-225000J0D01*
G01*
X146308000Y-91636000D01*
G75*
G02*
X146083000Y-91411000I0J225000D01*
G01*
X146083000Y-90961000D01*
G75*
G02*
X146308000Y-90736000I225000J0D01*
G01*
G37*
G36*
G01*
X146308000Y-89186000D02*
X146808000Y-89186000D01*
G75*
G02*
X147033000Y-89411000I0J-225000D01*
G01*
X147033000Y-89861000D01*
G75*
G02*
X146808000Y-90086000I-225000J0D01*
G01*
X146308000Y-90086000D01*
G75*
G02*
X146083000Y-89861000I0J225000D01*
G01*
X146083000Y-89411000D01*
G75*
G02*
X146308000Y-89186000I225000J0D01*
G01*
G37*
%TD*%
%TO.C,R10*%
G36*
G01*
X124947000Y-78911000D02*
X125497000Y-78911000D01*
G75*
G02*
X125697000Y-79111000I0J-200000D01*
G01*
X125697000Y-79511000D01*
G75*
G02*
X125497000Y-79711000I-200000J0D01*
G01*
X124947000Y-79711000D01*
G75*
G02*
X124747000Y-79511000I0J200000D01*
G01*
X124747000Y-79111000D01*
G75*
G02*
X124947000Y-78911000I200000J0D01*
G01*
G37*
G36*
G01*
X124947000Y-77261000D02*
X125497000Y-77261000D01*
G75*
G02*
X125697000Y-77461000I0J-200000D01*
G01*
X125697000Y-77861000D01*
G75*
G02*
X125497000Y-78061000I-200000J0D01*
G01*
X124947000Y-78061000D01*
G75*
G02*
X124747000Y-77861000I0J200000D01*
G01*
X124747000Y-77461000D01*
G75*
G02*
X124947000Y-77261000I200000J0D01*
G01*
G37*
%TD*%
%TO.C,C17*%
G36*
G01*
X145979000Y-74172000D02*
X145979000Y-74672000D01*
G75*
G02*
X145754000Y-74897000I-225000J0D01*
G01*
X145304000Y-74897000D01*
G75*
G02*
X145079000Y-74672000I0J225000D01*
G01*
X145079000Y-74172000D01*
G75*
G02*
X145304000Y-73947000I225000J0D01*
G01*
X145754000Y-73947000D01*
G75*
G02*
X145979000Y-74172000I0J-225000D01*
G01*
G37*
G36*
G01*
X147529000Y-74172000D02*
X147529000Y-74672000D01*
G75*
G02*
X147304000Y-74897000I-225000J0D01*
G01*
X146854000Y-74897000D01*
G75*
G02*
X146629000Y-74672000I0J225000D01*
G01*
X146629000Y-74172000D01*
G75*
G02*
X146854000Y-73947000I225000J0D01*
G01*
X147304000Y-73947000D01*
G75*
G02*
X147529000Y-74172000I0J-225000D01*
G01*
G37*
%TD*%
%TO.C,C16*%
G36*
G01*
X137851000Y-89412000D02*
X137851000Y-89912000D01*
G75*
G02*
X137626000Y-90137000I-225000J0D01*
G01*
X137176000Y-90137000D01*
G75*
G02*
X136951000Y-89912000I0J225000D01*
G01*
X136951000Y-89412000D01*
G75*
G02*
X137176000Y-89187000I225000J0D01*
G01*
X137626000Y-89187000D01*
G75*
G02*
X137851000Y-89412000I0J-225000D01*
G01*
G37*
G36*
G01*
X139401000Y-89412000D02*
X139401000Y-89912000D01*
G75*
G02*
X139176000Y-90137000I-225000J0D01*
G01*
X138726000Y-90137000D01*
G75*
G02*
X138501000Y-89912000I0J225000D01*
G01*
X138501000Y-89412000D01*
G75*
G02*
X138726000Y-89187000I225000J0D01*
G01*
X139176000Y-89187000D01*
G75*
G02*
X139401000Y-89412000I0J-225000D01*
G01*
G37*
%TD*%
%TO.C,C15*%
G36*
G01*
X132592000Y-83129000D02*
X133092000Y-83129000D01*
G75*
G02*
X133317000Y-83354000I0J-225000D01*
G01*
X133317000Y-83804000D01*
G75*
G02*
X133092000Y-84029000I-225000J0D01*
G01*
X132592000Y-84029000D01*
G75*
G02*
X132367000Y-83804000I0J225000D01*
G01*
X132367000Y-83354000D01*
G75*
G02*
X132592000Y-83129000I225000J0D01*
G01*
G37*
G36*
G01*
X132592000Y-81579000D02*
X133092000Y-81579000D01*
G75*
G02*
X133317000Y-81804000I0J-225000D01*
G01*
X133317000Y-82254000D01*
G75*
G02*
X133092000Y-82479000I-225000J0D01*
G01*
X132592000Y-82479000D01*
G75*
G02*
X132367000Y-82254000I0J225000D01*
G01*
X132367000Y-81804000D01*
G75*
G02*
X132592000Y-81579000I225000J0D01*
G01*
G37*
%TD*%
%TO.C,C14*%
G36*
G01*
X148332000Y-85527000D02*
X147832000Y-85527000D01*
G75*
G02*
X147607000Y-85302000I0J225000D01*
G01*
X147607000Y-84852000D01*
G75*
G02*
X147832000Y-84627000I225000J0D01*
G01*
X148332000Y-84627000D01*
G75*
G02*
X148557000Y-84852000I0J-225000D01*
G01*
X148557000Y-85302000D01*
G75*
G02*
X148332000Y-85527000I-225000J0D01*
G01*
G37*
G36*
G01*
X148332000Y-87077000D02*
X147832000Y-87077000D01*
G75*
G02*
X147607000Y-86852000I0J225000D01*
G01*
X147607000Y-86402000D01*
G75*
G02*
X147832000Y-86177000I225000J0D01*
G01*
X148332000Y-86177000D01*
G75*
G02*
X148557000Y-86402000I0J-225000D01*
G01*
X148557000Y-86852000D01*
G75*
G02*
X148332000Y-87077000I-225000J0D01*
G01*
G37*
%TD*%
%TO.C,C13*%
G36*
G01*
X133092000Y-79431000D02*
X132592000Y-79431000D01*
G75*
G02*
X132367000Y-79206000I0J225000D01*
G01*
X132367000Y-78756000D01*
G75*
G02*
X132592000Y-78531000I225000J0D01*
G01*
X133092000Y-78531000D01*
G75*
G02*
X133317000Y-78756000I0J-225000D01*
G01*
X133317000Y-79206000D01*
G75*
G02*
X133092000Y-79431000I-225000J0D01*
G01*
G37*
G36*
G01*
X133092000Y-80981000D02*
X132592000Y-80981000D01*
G75*
G02*
X132367000Y-80756000I0J225000D01*
G01*
X132367000Y-80306000D01*
G75*
G02*
X132592000Y-80081000I225000J0D01*
G01*
X133092000Y-80081000D01*
G75*
G02*
X133317000Y-80306000I0J-225000D01*
G01*
X133317000Y-80756000D01*
G75*
G02*
X133092000Y-80981000I-225000J0D01*
G01*
G37*
%TD*%
%TO.C,C12*%
G36*
G01*
X149602000Y-61905000D02*
X149102000Y-61905000D01*
G75*
G02*
X148877000Y-61680000I0J225000D01*
G01*
X148877000Y-61230000D01*
G75*
G02*
X149102000Y-61005000I225000J0D01*
G01*
X149602000Y-61005000D01*
G75*
G02*
X149827000Y-61230000I0J-225000D01*
G01*
X149827000Y-61680000D01*
G75*
G02*
X149602000Y-61905000I-225000J0D01*
G01*
G37*
G36*
G01*
X149602000Y-63455000D02*
X149102000Y-63455000D01*
G75*
G02*
X148877000Y-63230000I0J225000D01*
G01*
X148877000Y-62780000D01*
G75*
G02*
X149102000Y-62555000I225000J0D01*
G01*
X149602000Y-62555000D01*
G75*
G02*
X149827000Y-62780000I0J-225000D01*
G01*
X149827000Y-63230000D01*
G75*
G02*
X149602000Y-63455000I-225000J0D01*
G01*
G37*
%TD*%
%TO.C,C11*%
G36*
G01*
X136835000Y-74172000D02*
X136835000Y-74672000D01*
G75*
G02*
X136610000Y-74897000I-225000J0D01*
G01*
X136160000Y-74897000D01*
G75*
G02*
X135935000Y-74672000I0J225000D01*
G01*
X135935000Y-74172000D01*
G75*
G02*
X136160000Y-73947000I225000J0D01*
G01*
X136610000Y-73947000D01*
G75*
G02*
X136835000Y-74172000I0J-225000D01*
G01*
G37*
G36*
G01*
X138385000Y-74172000D02*
X138385000Y-74672000D01*
G75*
G02*
X138160000Y-74897000I-225000J0D01*
G01*
X137710000Y-74897000D01*
G75*
G02*
X137485000Y-74672000I0J225000D01*
G01*
X137485000Y-74172000D01*
G75*
G02*
X137710000Y-73947000I225000J0D01*
G01*
X138160000Y-73947000D01*
G75*
G02*
X138385000Y-74172000I0J-225000D01*
G01*
G37*
%TD*%
%TO.C,C4*%
G36*
G01*
X122541000Y-79411003D02*
X122541000Y-77560997D01*
G75*
G02*
X122790997Y-77311000I249997J0D01*
G01*
X123616003Y-77311000D01*
G75*
G02*
X123866000Y-77560997I0J-249997D01*
G01*
X123866000Y-79411003D01*
G75*
G02*
X123616003Y-79661000I-249997J0D01*
G01*
X122790997Y-79661000D01*
G75*
G02*
X122541000Y-79411003I0J249997D01*
G01*
G37*
G36*
G01*
X119466000Y-79411003D02*
X119466000Y-77560997D01*
G75*
G02*
X119715997Y-77311000I249997J0D01*
G01*
X120541003Y-77311000D01*
G75*
G02*
X120791000Y-77560997I0J-249997D01*
G01*
X120791000Y-79411003D01*
G75*
G02*
X120541003Y-79661000I-249997J0D01*
G01*
X119715997Y-79661000D01*
G75*
G02*
X119466000Y-79411003I0J249997D01*
G01*
G37*
%TD*%
D11*
%TO.C,J2*%
X120904000Y-83058000D03*
X123444000Y-83058000D03*
X120904000Y-85598000D03*
X123444000Y-85598000D03*
X120904000Y-88138000D03*
X123444000Y-88138000D03*
X120904000Y-90678000D03*
D12*
X123444000Y-90678000D03*
%TD*%
%TO.C,F1*%
G36*
G01*
X147815000Y-58811000D02*
X147815000Y-60061000D01*
G75*
G02*
X147565000Y-60311000I-250000J0D01*
G01*
X146815000Y-60311000D01*
G75*
G02*
X146565000Y-60061000I0J250000D01*
G01*
X146565000Y-58811000D01*
G75*
G02*
X146815000Y-58561000I250000J0D01*
G01*
X147565000Y-58561000D01*
G75*
G02*
X147815000Y-58811000I0J-250000D01*
G01*
G37*
G36*
G01*
X150615000Y-58811000D02*
X150615000Y-60061000D01*
G75*
G02*
X150365000Y-60311000I-250000J0D01*
G01*
X149615000Y-60311000D01*
G75*
G02*
X149365000Y-60061000I0J250000D01*
G01*
X149365000Y-58811000D01*
G75*
G02*
X149615000Y-58561000I250000J0D01*
G01*
X150365000Y-58561000D01*
G75*
G02*
X150615000Y-58811000I0J-250000D01*
G01*
G37*
%TD*%
%TO.C,FB1*%
G36*
G01*
X137665750Y-71724000D02*
X138178250Y-71724000D01*
G75*
G02*
X138397000Y-71942750I0J-218750D01*
G01*
X138397000Y-72380250D01*
G75*
G02*
X138178250Y-72599000I-218750J0D01*
G01*
X137665750Y-72599000D01*
G75*
G02*
X137447000Y-72380250I0J218750D01*
G01*
X137447000Y-71942750D01*
G75*
G02*
X137665750Y-71724000I218750J0D01*
G01*
G37*
G36*
G01*
X137665750Y-70149000D02*
X138178250Y-70149000D01*
G75*
G02*
X138397000Y-70367750I0J-218750D01*
G01*
X138397000Y-70805250D01*
G75*
G02*
X138178250Y-71024000I-218750J0D01*
G01*
X137665750Y-71024000D01*
G75*
G02*
X137447000Y-70805250I0J218750D01*
G01*
X137447000Y-70367750D01*
G75*
G02*
X137665750Y-70149000I218750J0D01*
G01*
G37*
%TD*%
D13*
%TO.C,J1*%
X141882000Y-61270000D03*
X141232000Y-61270000D03*
X140582000Y-61270000D03*
X139932000Y-61270000D03*
X139282000Y-61270000D03*
D14*
X144332000Y-58420000D03*
X136832000Y-58420000D03*
D15*
X141732000Y-58420000D03*
X139432000Y-58420000D03*
%TD*%
D16*
%TO.C,Y1*%
X140898000Y-90678000D03*
X144598000Y-90678000D03*
%TD*%
D17*
%TO.C,U4*%
X143573500Y-68894000D03*
X142938500Y-68894000D03*
X142303500Y-68894000D03*
X141668500Y-68894000D03*
X141033500Y-68894000D03*
X140398500Y-68894000D03*
X139763500Y-68894000D03*
X139128500Y-68894000D03*
X138493500Y-68894000D03*
X137858500Y-68894000D03*
X137858500Y-63694000D03*
X138493500Y-63694000D03*
X139128500Y-63694000D03*
X139763500Y-63694000D03*
X140398500Y-63694000D03*
X141033500Y-63694000D03*
X141668500Y-63694000D03*
X142303500Y-63694000D03*
X142938500Y-63694000D03*
X143573500Y-63694000D03*
%TD*%
%TO.C,R7*%
G36*
G01*
X140633000Y-74697000D02*
X140633000Y-74147000D01*
G75*
G02*
X140833000Y-73947000I200000J0D01*
G01*
X141233000Y-73947000D01*
G75*
G02*
X141433000Y-74147000I0J-200000D01*
G01*
X141433000Y-74697000D01*
G75*
G02*
X141233000Y-74897000I-200000J0D01*
G01*
X140833000Y-74897000D01*
G75*
G02*
X140633000Y-74697000I0J200000D01*
G01*
G37*
G36*
G01*
X138983000Y-74697000D02*
X138983000Y-74147000D01*
G75*
G02*
X139183000Y-73947000I200000J0D01*
G01*
X139583000Y-73947000D01*
G75*
G02*
X139783000Y-74147000I0J-200000D01*
G01*
X139783000Y-74697000D01*
G75*
G02*
X139583000Y-74897000I-200000J0D01*
G01*
X139183000Y-74897000D01*
G75*
G02*
X138983000Y-74697000I0J200000D01*
G01*
G37*
%TD*%
%TO.C,R6*%
G36*
G01*
X132925000Y-89387000D02*
X132925000Y-89937000D01*
G75*
G02*
X132725000Y-90137000I-200000J0D01*
G01*
X132325000Y-90137000D01*
G75*
G02*
X132125000Y-89937000I0J200000D01*
G01*
X132125000Y-89387000D01*
G75*
G02*
X132325000Y-89187000I200000J0D01*
G01*
X132725000Y-89187000D01*
G75*
G02*
X132925000Y-89387000I0J-200000D01*
G01*
G37*
G36*
G01*
X134575000Y-89387000D02*
X134575000Y-89937000D01*
G75*
G02*
X134375000Y-90137000I-200000J0D01*
G01*
X133975000Y-90137000D01*
G75*
G02*
X133775000Y-89937000I0J200000D01*
G01*
X133775000Y-89387000D01*
G75*
G02*
X133975000Y-89187000I200000J0D01*
G01*
X134375000Y-89187000D01*
G75*
G02*
X134575000Y-89387000I0J-200000D01*
G01*
G37*
%TD*%
%TO.C,R5*%
G36*
G01*
X146029000Y-67735000D02*
X146579000Y-67735000D01*
G75*
G02*
X146779000Y-67935000I0J-200000D01*
G01*
X146779000Y-68335000D01*
G75*
G02*
X146579000Y-68535000I-200000J0D01*
G01*
X146029000Y-68535000D01*
G75*
G02*
X145829000Y-68335000I0J200000D01*
G01*
X145829000Y-67935000D01*
G75*
G02*
X146029000Y-67735000I200000J0D01*
G01*
G37*
G36*
G01*
X146029000Y-66085000D02*
X146579000Y-66085000D01*
G75*
G02*
X146779000Y-66285000I0J-200000D01*
G01*
X146779000Y-66685000D01*
G75*
G02*
X146579000Y-66885000I-200000J0D01*
G01*
X146029000Y-66885000D01*
G75*
G02*
X145829000Y-66685000I0J200000D01*
G01*
X145829000Y-66285000D01*
G75*
G02*
X146029000Y-66085000I200000J0D01*
G01*
G37*
%TD*%
%TO.C,R4*%
G36*
G01*
X147553000Y-67735000D02*
X148103000Y-67735000D01*
G75*
G02*
X148303000Y-67935000I0J-200000D01*
G01*
X148303000Y-68335000D01*
G75*
G02*
X148103000Y-68535000I-200000J0D01*
G01*
X147553000Y-68535000D01*
G75*
G02*
X147353000Y-68335000I0J200000D01*
G01*
X147353000Y-67935000D01*
G75*
G02*
X147553000Y-67735000I200000J0D01*
G01*
G37*
G36*
G01*
X147553000Y-66085000D02*
X148103000Y-66085000D01*
G75*
G02*
X148303000Y-66285000I0J-200000D01*
G01*
X148303000Y-66685000D01*
G75*
G02*
X148103000Y-66885000I-200000J0D01*
G01*
X147553000Y-66885000D01*
G75*
G02*
X147353000Y-66685000I0J200000D01*
G01*
X147353000Y-66285000D01*
G75*
G02*
X147553000Y-66085000I200000J0D01*
G01*
G37*
%TD*%
%TO.C,R3*%
G36*
G01*
X133329000Y-68243000D02*
X133879000Y-68243000D01*
G75*
G02*
X134079000Y-68443000I0J-200000D01*
G01*
X134079000Y-68843000D01*
G75*
G02*
X133879000Y-69043000I-200000J0D01*
G01*
X133329000Y-69043000D01*
G75*
G02*
X133129000Y-68843000I0J200000D01*
G01*
X133129000Y-68443000D01*
G75*
G02*
X133329000Y-68243000I200000J0D01*
G01*
G37*
G36*
G01*
X133329000Y-66593000D02*
X133879000Y-66593000D01*
G75*
G02*
X134079000Y-66793000I0J-200000D01*
G01*
X134079000Y-67193000D01*
G75*
G02*
X133879000Y-67393000I-200000J0D01*
G01*
X133329000Y-67393000D01*
G75*
G02*
X133129000Y-67193000I0J200000D01*
G01*
X133129000Y-66793000D01*
G75*
G02*
X133329000Y-66593000I200000J0D01*
G01*
G37*
%TD*%
%TO.C,R2*%
G36*
G01*
X134853000Y-68243000D02*
X135403000Y-68243000D01*
G75*
G02*
X135603000Y-68443000I0J-200000D01*
G01*
X135603000Y-68843000D01*
G75*
G02*
X135403000Y-69043000I-200000J0D01*
G01*
X134853000Y-69043000D01*
G75*
G02*
X134653000Y-68843000I0J200000D01*
G01*
X134653000Y-68443000D01*
G75*
G02*
X134853000Y-68243000I200000J0D01*
G01*
G37*
G36*
G01*
X134853000Y-66593000D02*
X135403000Y-66593000D01*
G75*
G02*
X135603000Y-66793000I0J-200000D01*
G01*
X135603000Y-67193000D01*
G75*
G02*
X135403000Y-67393000I-200000J0D01*
G01*
X134853000Y-67393000D01*
G75*
G02*
X134653000Y-67193000I0J200000D01*
G01*
X134653000Y-66793000D01*
G75*
G02*
X134853000Y-66593000I200000J0D01*
G01*
G37*
%TD*%
%TO.C,D3*%
G36*
G01*
X142931500Y-74165750D02*
X142931500Y-74678250D01*
G75*
G02*
X142712750Y-74897000I-218750J0D01*
G01*
X142275250Y-74897000D01*
G75*
G02*
X142056500Y-74678250I0J218750D01*
G01*
X142056500Y-74165750D01*
G75*
G02*
X142275250Y-73947000I218750J0D01*
G01*
X142712750Y-73947000D01*
G75*
G02*
X142931500Y-74165750I0J-218750D01*
G01*
G37*
G36*
G01*
X144506500Y-74165750D02*
X144506500Y-74678250D01*
G75*
G02*
X144287750Y-74897000I-218750J0D01*
G01*
X143850250Y-74897000D01*
G75*
G02*
X143631500Y-74678250I0J218750D01*
G01*
X143631500Y-74165750D01*
G75*
G02*
X143850250Y-73947000I218750J0D01*
G01*
X144287750Y-73947000D01*
G75*
G02*
X144506500Y-74165750I0J-218750D01*
G01*
G37*
%TD*%
%TO.C,D2*%
G36*
G01*
X146560250Y-70008000D02*
X146047750Y-70008000D01*
G75*
G02*
X145829000Y-69789250I0J218750D01*
G01*
X145829000Y-69351750D01*
G75*
G02*
X146047750Y-69133000I218750J0D01*
G01*
X146560250Y-69133000D01*
G75*
G02*
X146779000Y-69351750I0J-218750D01*
G01*
X146779000Y-69789250D01*
G75*
G02*
X146560250Y-70008000I-218750J0D01*
G01*
G37*
G36*
G01*
X146560250Y-71583000D02*
X146047750Y-71583000D01*
G75*
G02*
X145829000Y-71364250I0J218750D01*
G01*
X145829000Y-70926750D01*
G75*
G02*
X146047750Y-70708000I218750J0D01*
G01*
X146560250Y-70708000D01*
G75*
G02*
X146779000Y-70926750I0J-218750D01*
G01*
X146779000Y-71364250D01*
G75*
G02*
X146560250Y-71583000I-218750J0D01*
G01*
G37*
%TD*%
%TO.C,D1*%
G36*
G01*
X148084250Y-70008000D02*
X147571750Y-70008000D01*
G75*
G02*
X147353000Y-69789250I0J218750D01*
G01*
X147353000Y-69351750D01*
G75*
G02*
X147571750Y-69133000I218750J0D01*
G01*
X148084250Y-69133000D01*
G75*
G02*
X148303000Y-69351750I0J-218750D01*
G01*
X148303000Y-69789250D01*
G75*
G02*
X148084250Y-70008000I-218750J0D01*
G01*
G37*
G36*
G01*
X148084250Y-71583000D02*
X147571750Y-71583000D01*
G75*
G02*
X147353000Y-71364250I0J218750D01*
G01*
X147353000Y-70926750D01*
G75*
G02*
X147571750Y-70708000I218750J0D01*
G01*
X148084250Y-70708000D01*
G75*
G02*
X148303000Y-70926750I0J-218750D01*
G01*
X148303000Y-71364250D01*
G75*
G02*
X148084250Y-71583000I-218750J0D01*
G01*
G37*
%TD*%
%TO.C,C10*%
G36*
G01*
X137851000Y-90936000D02*
X137851000Y-91436000D01*
G75*
G02*
X137626000Y-91661000I-225000J0D01*
G01*
X137176000Y-91661000D01*
G75*
G02*
X136951000Y-91436000I0J225000D01*
G01*
X136951000Y-90936000D01*
G75*
G02*
X137176000Y-90711000I225000J0D01*
G01*
X137626000Y-90711000D01*
G75*
G02*
X137851000Y-90936000I0J-225000D01*
G01*
G37*
G36*
G01*
X139401000Y-90936000D02*
X139401000Y-91436000D01*
G75*
G02*
X139176000Y-91661000I-225000J0D01*
G01*
X138726000Y-91661000D01*
G75*
G02*
X138501000Y-91436000I0J225000D01*
G01*
X138501000Y-90936000D01*
G75*
G02*
X138726000Y-90711000I225000J0D01*
G01*
X139176000Y-90711000D01*
G75*
G02*
X139401000Y-90936000I0J-225000D01*
G01*
G37*
%TD*%
%TO.C,C8*%
G36*
G01*
X140720000Y-71699000D02*
X141220000Y-71699000D01*
G75*
G02*
X141445000Y-71924000I0J-225000D01*
G01*
X141445000Y-72374000D01*
G75*
G02*
X141220000Y-72599000I-225000J0D01*
G01*
X140720000Y-72599000D01*
G75*
G02*
X140495000Y-72374000I0J225000D01*
G01*
X140495000Y-71924000D01*
G75*
G02*
X140720000Y-71699000I225000J0D01*
G01*
G37*
G36*
G01*
X140720000Y-70149000D02*
X141220000Y-70149000D01*
G75*
G02*
X141445000Y-70374000I0J-225000D01*
G01*
X141445000Y-70824000D01*
G75*
G02*
X141220000Y-71049000I-225000J0D01*
G01*
X140720000Y-71049000D01*
G75*
G02*
X140495000Y-70824000I0J225000D01*
G01*
X140495000Y-70374000D01*
G75*
G02*
X140720000Y-70149000I225000J0D01*
G01*
G37*
%TD*%
%TO.C,C7*%
G36*
G01*
X139196000Y-71699000D02*
X139696000Y-71699000D01*
G75*
G02*
X139921000Y-71924000I0J-225000D01*
G01*
X139921000Y-72374000D01*
G75*
G02*
X139696000Y-72599000I-225000J0D01*
G01*
X139196000Y-72599000D01*
G75*
G02*
X138971000Y-72374000I0J225000D01*
G01*
X138971000Y-71924000D01*
G75*
G02*
X139196000Y-71699000I225000J0D01*
G01*
G37*
G36*
G01*
X139196000Y-70149000D02*
X139696000Y-70149000D01*
G75*
G02*
X139921000Y-70374000I0J-225000D01*
G01*
X139921000Y-70824000D01*
G75*
G02*
X139696000Y-71049000I-225000J0D01*
G01*
X139196000Y-71049000D01*
G75*
G02*
X138971000Y-70824000I0J225000D01*
G01*
X138971000Y-70374000D01*
G75*
G02*
X139196000Y-70149000I225000J0D01*
G01*
G37*
%TD*%
%TO.C,C6*%
G36*
G01*
X133854000Y-64445000D02*
X133354000Y-64445000D01*
G75*
G02*
X133129000Y-64220000I0J225000D01*
G01*
X133129000Y-63770000D01*
G75*
G02*
X133354000Y-63545000I225000J0D01*
G01*
X133854000Y-63545000D01*
G75*
G02*
X134079000Y-63770000I0J-225000D01*
G01*
X134079000Y-64220000D01*
G75*
G02*
X133854000Y-64445000I-225000J0D01*
G01*
G37*
G36*
G01*
X133854000Y-65995000D02*
X133354000Y-65995000D01*
G75*
G02*
X133129000Y-65770000I0J225000D01*
G01*
X133129000Y-65320000D01*
G75*
G02*
X133354000Y-65095000I225000J0D01*
G01*
X133854000Y-65095000D01*
G75*
G02*
X134079000Y-65320000I0J-225000D01*
G01*
X134079000Y-65770000D01*
G75*
G02*
X133854000Y-65995000I-225000J0D01*
G01*
G37*
%TD*%
%TO.C,C5*%
G36*
G01*
X135378000Y-64445000D02*
X134878000Y-64445000D01*
G75*
G02*
X134653000Y-64220000I0J225000D01*
G01*
X134653000Y-63770000D01*
G75*
G02*
X134878000Y-63545000I225000J0D01*
G01*
X135378000Y-63545000D01*
G75*
G02*
X135603000Y-63770000I0J-225000D01*
G01*
X135603000Y-64220000D01*
G75*
G02*
X135378000Y-64445000I-225000J0D01*
G01*
G37*
G36*
G01*
X135378000Y-65995000D02*
X134878000Y-65995000D01*
G75*
G02*
X134653000Y-65770000I0J225000D01*
G01*
X134653000Y-65320000D01*
G75*
G02*
X134878000Y-65095000I225000J0D01*
G01*
X135378000Y-65095000D01*
G75*
G02*
X135603000Y-65320000I0J-225000D01*
G01*
X135603000Y-65770000D01*
G75*
G02*
X135378000Y-65995000I-225000J0D01*
G01*
G37*
%TD*%
%TO.C,R1*%
G36*
G01*
X148103000Y-61805000D02*
X147553000Y-61805000D01*
G75*
G02*
X147353000Y-61605000I0J200000D01*
G01*
X147353000Y-61205000D01*
G75*
G02*
X147553000Y-61005000I200000J0D01*
G01*
X148103000Y-61005000D01*
G75*
G02*
X148303000Y-61205000I0J-200000D01*
G01*
X148303000Y-61605000D01*
G75*
G02*
X148103000Y-61805000I-200000J0D01*
G01*
G37*
G36*
G01*
X148103000Y-63455000D02*
X147553000Y-63455000D01*
G75*
G02*
X147353000Y-63255000I0J200000D01*
G01*
X147353000Y-62855000D01*
G75*
G02*
X147553000Y-62655000I200000J0D01*
G01*
X148103000Y-62655000D01*
G75*
G02*
X148303000Y-62855000I0J-200000D01*
G01*
X148303000Y-63255000D01*
G75*
G02*
X148103000Y-63455000I-200000J0D01*
G01*
G37*
%TD*%
%TO.C,L1*%
G36*
G01*
X152750000Y-59946250D02*
X152750000Y-59433750D01*
G75*
G02*
X152968750Y-59215000I218750J0D01*
G01*
X153406250Y-59215000D01*
G75*
G02*
X153625000Y-59433750I0J-218750D01*
G01*
X153625000Y-59946250D01*
G75*
G02*
X153406250Y-60165000I-218750J0D01*
G01*
X152968750Y-60165000D01*
G75*
G02*
X152750000Y-59946250I0J218750D01*
G01*
G37*
G36*
G01*
X151175000Y-59946250D02*
X151175000Y-59433750D01*
G75*
G02*
X151393750Y-59215000I218750J0D01*
G01*
X151831250Y-59215000D01*
G75*
G02*
X152050000Y-59433750I0J-218750D01*
G01*
X152050000Y-59946250D01*
G75*
G02*
X151831250Y-60165000I-218750J0D01*
G01*
X151393750Y-60165000D01*
G75*
G02*
X151175000Y-59946250I0J218750D01*
G01*
G37*
%TD*%
%TO.C,C3*%
G36*
G01*
X151379000Y-68330000D02*
X151379000Y-68830000D01*
G75*
G02*
X151154000Y-69055000I-225000J0D01*
G01*
X150704000Y-69055000D01*
G75*
G02*
X150479000Y-68830000I0J225000D01*
G01*
X150479000Y-68330000D01*
G75*
G02*
X150704000Y-68105000I225000J0D01*
G01*
X151154000Y-68105000D01*
G75*
G02*
X151379000Y-68330000I0J-225000D01*
G01*
G37*
G36*
G01*
X152929000Y-68330000D02*
X152929000Y-68830000D01*
G75*
G02*
X152704000Y-69055000I-225000J0D01*
G01*
X152254000Y-69055000D01*
G75*
G02*
X152029000Y-68830000I0J225000D01*
G01*
X152029000Y-68330000D01*
G75*
G02*
X152254000Y-68105000I225000J0D01*
G01*
X152704000Y-68105000D01*
G75*
G02*
X152929000Y-68330000I0J-225000D01*
G01*
G37*
%TD*%
%TO.C,C2*%
G36*
G01*
X151379000Y-66806000D02*
X151379000Y-67306000D01*
G75*
G02*
X151154000Y-67531000I-225000J0D01*
G01*
X150704000Y-67531000D01*
G75*
G02*
X150479000Y-67306000I0J225000D01*
G01*
X150479000Y-66806000D01*
G75*
G02*
X150704000Y-66581000I225000J0D01*
G01*
X151154000Y-66581000D01*
G75*
G02*
X151379000Y-66806000I0J-225000D01*
G01*
G37*
G36*
G01*
X152929000Y-66806000D02*
X152929000Y-67306000D01*
G75*
G02*
X152704000Y-67531000I-225000J0D01*
G01*
X152254000Y-67531000D01*
G75*
G02*
X152029000Y-67306000I0J225000D01*
G01*
X152029000Y-66806000D01*
G75*
G02*
X152254000Y-66581000I225000J0D01*
G01*
X152704000Y-66581000D01*
G75*
G02*
X152929000Y-66806000I0J-225000D01*
G01*
G37*
%TD*%
%TO.C,C1*%
G36*
G01*
X151379000Y-65282000D02*
X151379000Y-65782000D01*
G75*
G02*
X151154000Y-66007000I-225000J0D01*
G01*
X150704000Y-66007000D01*
G75*
G02*
X150479000Y-65782000I0J225000D01*
G01*
X150479000Y-65282000D01*
G75*
G02*
X150704000Y-65057000I225000J0D01*
G01*
X151154000Y-65057000D01*
G75*
G02*
X151379000Y-65282000I0J-225000D01*
G01*
G37*
G36*
G01*
X152929000Y-65282000D02*
X152929000Y-65782000D01*
G75*
G02*
X152704000Y-66007000I-225000J0D01*
G01*
X152254000Y-66007000D01*
G75*
G02*
X152029000Y-65782000I0J225000D01*
G01*
X152029000Y-65282000D01*
G75*
G02*
X152254000Y-65057000I225000J0D01*
G01*
X152704000Y-65057000D01*
G75*
G02*
X152929000Y-65282000I0J-225000D01*
G01*
G37*
%TD*%
D18*
%TO.C,U3*%
X130364000Y-75486000D03*
X129094000Y-75486000D03*
X127824000Y-75486000D03*
X126554000Y-75486000D03*
X125284000Y-75486000D03*
X124014000Y-75486000D03*
X122744000Y-75486000D03*
X121474000Y-75486000D03*
%TD*%
D19*
%TO.C,U2*%
X136386000Y-76294000D03*
X137186000Y-76294000D03*
X137986000Y-76294000D03*
X138786000Y-76294000D03*
X139586000Y-76294000D03*
X140386000Y-76294000D03*
X141186000Y-76294000D03*
X141986000Y-76294000D03*
X142786000Y-76294000D03*
X143586000Y-76294000D03*
X144386000Y-76294000D03*
D20*
X146086000Y-77994000D03*
X146086000Y-78794000D03*
X146086000Y-79594000D03*
X146086000Y-80394000D03*
X146086000Y-81194000D03*
X146086000Y-81994000D03*
X146086000Y-82794000D03*
X146086000Y-83594000D03*
X146086000Y-84394000D03*
X146086000Y-85194000D03*
X146086000Y-85994000D03*
D19*
X144386000Y-87694000D03*
X143586000Y-87694000D03*
X142786000Y-87694000D03*
X141986000Y-87694000D03*
X141186000Y-87694000D03*
X140386000Y-87694000D03*
X139586000Y-87694000D03*
X138786000Y-87694000D03*
X137986000Y-87694000D03*
X137186000Y-87694000D03*
X136386000Y-87694000D03*
D20*
X134686000Y-85994000D03*
X134686000Y-85194000D03*
X134686000Y-84394000D03*
X134686000Y-83594000D03*
X134686000Y-82794000D03*
X134686000Y-81994000D03*
X134686000Y-81194000D03*
X134686000Y-80394000D03*
X134686000Y-79594000D03*
X134686000Y-78794000D03*
X134686000Y-77994000D03*
%TD*%
D21*
%TO.C,U1*%
G36*
X153412000Y-62449000D02*
G01*
X153412000Y-62699000D01*
X153912000Y-62699000D01*
X153912000Y-62949000D01*
X153412000Y-62949000D01*
X153412000Y-63399000D01*
X151012000Y-63399000D01*
X151012000Y-62949000D01*
X150512000Y-62949000D01*
X150512000Y-62699000D01*
X151012000Y-62699000D01*
X151012000Y-62449000D01*
X150512000Y-62449000D01*
X150512000Y-62199000D01*
X151012000Y-62199000D01*
X151012000Y-61749000D01*
X153412000Y-61749000D01*
X153412000Y-62199000D01*
X153912000Y-62199000D01*
X153912000Y-62449000D01*
X153412000Y-62449000D01*
G37*
D22*
X153212000Y-63974000D03*
X152712000Y-63974000D03*
X152212000Y-63974000D03*
X151712000Y-63974000D03*
X151212000Y-63974000D03*
X151212000Y-61174000D03*
X151712000Y-61174000D03*
X152212000Y-61174000D03*
X152712000Y-61174000D03*
X153212000Y-61174000D03*
%TD*%
M02*
